<?xml version="1.0" encoding="UTF-8"?>
<!DOCTYPE svg PUBLIC "-//W3C//DTD SVG 1.1//EN" "http://www.w3.org/Graphics/SVG/1.1/DTD/svg11.dtd">
<!-- Creator: CorelDRAW 2020 (64-Bit) -->
<svg xmlns="http://www.w3.org/2000/svg" xml:space="preserve" width="580.911mm" height="543.223mm" version="1.1" style="shape-rendering:geometricPrecision; text-rendering:geometricPrecision; image-rendering:optimizeQuality; fill-rule:evenodd; clip-rule:evenodd"
viewBox="0 0 19275.87 18025.32"
 xmlns:xlink="http://www.w3.org/1999/xlink"
 xmlns:xodm="http://www.corel.com/coreldraw/odm/2003">
 <defs>
  <style type="text/css">
   <![CDATA[
    .str3 {stroke:#FEFEFE;stroke-width:6.64;stroke-miterlimit:22.9256}
    .str0 {stroke:#007F61;stroke-width:6.64;stroke-miterlimit:22.9256}
    .str1 {stroke:#01A37C;stroke-width:6.64;stroke-miterlimit:22.9256}
    .str2 {stroke:#FF8B00;stroke-width:6.64;stroke-miterlimit:22.9256}
    .fil13 {fill:#FEFEFE}
    .fil6 {fill:black}
    .fil10 {fill:#007F61}
    .fil11 {fill:#01A37C}
    .fil0 {fill:#050505}
    .fil16 {fill:#231F20}
    .fil18 {fill:#5E2222}
    .fil9 {fill:#65AAA8}
    .fil4 {fill:#68476D}
    .fil8 {fill:#6FB5B3}
    .fil7 {fill:#85C1C1}
    .fil17 {fill:#890E0F}
    .fil5 {fill:#96D3D6}
    .fil2 {fill:#A6DADD}
    .fil1 {fill:#C8EFF3}
    .fil3 {fill:#E3FEFF}
    .fil15 {fill:#EFEFEF}
    .fil91 {fill:#FA848E}
    .fil90 {fill:#FA858E}
    .fil89 {fill:#FA868F}
    .fil88 {fill:#FA878F}
    .fil87 {fill:#FA8790}
    .fil86 {fill:#FA8890}
    .fil85 {fill:#FA8990}
    .fil84 {fill:#FA8A91}
    .fil53 {fill:#FA8A96}
    .fil83 {fill:#FA8B91}
    .fil82 {fill:#FA8B92}
    .fil54 {fill:#FA8B96}
    .fil81 {fill:#FA8C92}
    .fil55 {fill:#FA8C96}
    .fil80 {fill:#FA8D92}
    .fil79 {fill:#FA8D93}
    .fil56 {fill:#FA8D96}
    .fil78 {fill:#FA8E93}
    .fil57 {fill:#FA8E97}
    .fil77 {fill:#FA8F94}
    .fil58 {fill:#FA8F97}
    .fil76 {fill:#FA9094}
    .fil59 {fill:#FA9097}
    .fil75 {fill:#FA9194}
    .fil74 {fill:#FA9195}
    .fil60 {fill:#FA9197}
    .fil73 {fill:#FA9295}
    .fil61 {fill:#FA9297}
    .fil72 {fill:#FA9396}
    .fil62 {fill:#FA9397}
    .fil63 {fill:#FA9398}
    .fil71 {fill:#FA9496}
    .fil64 {fill:#FA9498}
    .fil70 {fill:#FA9597}
    .fil65 {fill:#FA9598}
    .fil69 {fill:#FA9697}
    .fil66 {fill:#FA9698}
    .fil67 {fill:#FA9798}
    .fil68 {fill:#FA9898}
    .fil116 {fill:#FB6F83}
    .fil115 {fill:#FB7083}
    .fil114 {fill:#FB7184}
    .fil113 {fill:#FB7284}
    .fil112 {fill:#FB7285}
    .fil111 {fill:#FB7385}
    .fil110 {fill:#FB7486}
    .fil109 {fill:#FB7586}
    .fil108 {fill:#FB7686}
    .fil107 {fill:#FB7687}
    .fil106 {fill:#FB7787}
    .fil105 {fill:#FB7887}
    .fil104 {fill:#FB7888}
    .fil103 {fill:#FB7988}
    .fil102 {fill:#FB7A89}
    .fil101 {fill:#FB7B89}
    .fil41 {fill:#FB7B93}
    .fil100 {fill:#FB7C8A}
    .fil99 {fill:#FB7D8A}
    .fil42 {fill:#FB7D93}
    .fil98 {fill:#FB7E8B}
    .fil43 {fill:#FB7E94}
    .fil97 {fill:#FB7F8B}
    .fil44 {fill:#FB7F94}
    .fil96 {fill:#FB808C}
    .fil95 {fill:#FB818C}
    .fil94 {fill:#FB818D}
    .fil45 {fill:#FB8194}
    .fil93 {fill:#FB828D}
    .fil46 {fill:#FB8294}
    .fil92 {fill:#FB838D}
    .fil47 {fill:#FB8395}
    .fil48 {fill:#FB8495}
    .fil49 {fill:#FB8695}
    .fil50 {fill:#FB8795}
    .fil51 {fill:#FB8895}
    .fil52 {fill:#FB8996}
    .fil142 {fill:#FC5A78}
    .fil141 {fill:#FC5B79}
    .fil140 {fill:#FC5C79}
    .fil139 {fill:#FC5D79}
    .fil138 {fill:#FC5D7A}
    .fil137 {fill:#FC5E7A}
    .fil136 {fill:#FC5F7A}
    .fil135 {fill:#FC5F7B}
    .fil134 {fill:#FC607B}
    .fil133 {fill:#FC617C}
    .fil132 {fill:#FC627C}
    .fil131 {fill:#FC637D}
    .fil130 {fill:#FC647D}
    .fil129 {fill:#FC657E}
    .fil128 {fill:#FC667E}
    .fil127 {fill:#FC677F}
    .fil126 {fill:#FC687F}
    .fil125 {fill:#FC6880}
    .fil124 {fill:#FC6980}
    .fil123 {fill:#FC6A80}
    .fil122 {fill:#FC6B81}
    .fil32 {fill:#FC6B90}
    .fil121 {fill:#FC6C81}
    .fil120 {fill:#FC6D82}
    .fil33 {fill:#FC6D91}
    .fil119 {fill:#FC6E82}
    .fil118 {fill:#FC6E83}
    .fil117 {fill:#FC6F83}
    .fil34 {fill:#FC6F91}
    .fil35 {fill:#FC7191}
    .fil36 {fill:#FC7392}
    .fil37 {fill:#FC7492}
    .fil38 {fill:#FC7692}
    .fil39 {fill:#FC7893}
    .fil40 {fill:#FC7993}
    .fil168 {fill:#FD456D}
    .fil167 {fill:#FD466E}
    .fil166 {fill:#FD476E}
    .fil165 {fill:#FD486F}
    .fil164 {fill:#FD496F}
    .fil163 {fill:#FD4A70}
    .fil162 {fill:#FD4B70}
    .fil161 {fill:#FD4C71}
    .fil160 {fill:#FD4D71}
    .fil159 {fill:#FD4E72}
    .fil158 {fill:#FD4F72}
    .fil157 {fill:#FD4F73}
    .fil156 {fill:#FD5073}
    .fil155 {fill:#FD5173}
    .fil154 {fill:#FD5274}
    .fil153 {fill:#FD5374}
    .fil152 {fill:#FD5375}
    .fil151 {fill:#FD5475}
    .fil150 {fill:#FD5575}
    .fil149 {fill:#FD5576}
    .fil148 {fill:#FD5676}
    .fil147 {fill:#FD5776}
    .fil146 {fill:#FD5877}
    .fil145 {fill:#FD5977}
    .fil144 {fill:#FD5978}
    .fil143 {fill:#FD5A78}
    .fil25 {fill:#FD5B8D}
    .fil26 {fill:#FD5E8E}
    .fil27 {fill:#FD608E}
    .fil28 {fill:#FD638F}
    .fil29 {fill:#FD658F}
    .fil30 {fill:#FD678F}
    .fil31 {fill:#FD6990}
    .fil195 {fill:#FE3163}
    .fil194 {fill:#FE3263}
    .fil193 {fill:#FE3364}
    .fil192 {fill:#FE3464}
    .fil191 {fill:#FE3565}
    .fil190 {fill:#FE3665}
    .fil189 {fill:#FE3666}
    .fil188 {fill:#FE3766}
    .fil187 {fill:#FE3866}
    .fil186 {fill:#FE3967}
    .fil185 {fill:#FE3A67}
    .fil184 {fill:#FE3A68}
    .fil183 {fill:#FE3B68}
    .fil182 {fill:#FE3C68}
    .fil181 {fill:#FE3C69}
    .fil180 {fill:#FE3D69}
    .fil179 {fill:#FE3E69}
    .fil178 {fill:#FE3E6A}
    .fil177 {fill:#FE3F6A}
    .fil176 {fill:#FE406A}
    .fil175 {fill:#FE406B}
    .fil174 {fill:#FE416B}
    .fil173 {fill:#FE426C}
    .fil172 {fill:#FE436C}
    .fil171 {fill:#FE446C}
    .fil170 {fill:#FE446D}
    .fil169 {fill:#FE456D}
    .fil20 {fill:#FE4E8B}
    .fil21 {fill:#FE518C}
    .fil22 {fill:#FE548C}
    .fil23 {fill:#FE568C}
    .fil24 {fill:#FE598D}
    .fil19 {fill:#FF4C8B}
    .fil12 {fill:#FF8B00}
    .fil14 {fill:white}
   ]]>
  </style>
 </defs>
 <g id="Layer_x0020_1">
  <metadata id="CorelCorpID_0Corel-Layer"/>
  <path class="fil0" d="M17496.19 4129.19c-369.17,352.33 -1807.59,3024.41 -1807.59,3024.41 0,-0.01 -570.01,-699.72 -369.47,-1083.73 432.8,-828.81 1861.43,-2182.67 1861.43,-2182.67l315.63 241.99z"/>
  <path class="fil1" d="M17078.57 4139.91c-132.36,-104.1 -197.76,-247.5 -210.63,-376.78 -5.81,-58.41 -1.11,-113.79 13.04,-161.33 17.29,-59.57 49.3,-107.09 92.98,-133.14 5.05,-3.16 10.38,-5.99 15.98,-8.47 0,-0 473.52,169.19 708.86,360.34 83.77,68.12 137.31,138.93 128.61,205.91 -33.31,255.28 -473.9,329.18 -748.84,113.48z"/>
  <path class="fil1" d="M17549.86 3470.99c0,0 -104.88,220.67 -269.22,291.74 -152.2,65.43 -329.01,-175.82 -386.16,-406.37 -4.64,-18.82 -8.51,-37.51 -11.46,-55.8 -29.02,-180.79 92.98,-321.2 89.84,-492.78 -1.1,-59.88 -17.66,-123.73 -60.95,-194.34 -0.68,-1.37 -1.55,-2.83 -2.6,-4.37 -0.86,-1.46 -1.92,-2.99 -2.89,-4.71 -170.38,-272.63 -196.44,-429.72 -155.17,-500.3 41.5,-71.13 218.71,-198.1 443.33,-11.44 71.68,59.39 91.99,120.58 93.4,183.16 0.13,9.53 -0.01,19.16 -0.57,28.8 -7.24,125.52 -69.03,257.69 67.54,397.78 10.71,10.94 21.15,21.98 31.44,33.36 198.81,217.08 325,497.26 163.46,735.27z"/>
  <path class="fil2" d="M17078.57 4139.91c-132.36,-104.1 -197.76,-247.5 -210.63,-376.78 51.63,133.63 142.66,228.38 259.92,318.25 153.7,117.76 350.83,136.36 473.86,103.11 50.9,-13.74 104.66,-35.56 -74.68,-94.77 -179.33,-59.21 -307.25,-200.41 -307.25,-200.41 -252.49,-95.56 -315.18,-199.01 -338.81,-287.51 17.29,-59.57 49.3,-107.09 92.98,-133.14l724.85 351.87c83.76,68.12 137.3,138.92 128.6,205.91 -33.31,255.28 -473.9,329.18 -748.84,113.48z"/>
  <path class="fil1" d="M17890.04 2407.48c-38.87,72.48 -74.99,135.21 -103.43,183.42 -38.67,65.68 -63.55,104.26 -63.55,104.26l-387.75 -141.93 -16.71 -6.03c6.11,-22.3 12.67,-44.17 19.51,-66.13 56.89,-186.81 123.11,-367.38 63.91,-703.2 -66.13,-374.99 -62.85,-644.69 147.15,-699.64 7.24,-1.78 14.21,-3.45 21.13,-4.51 7.52,-1.46 14.96,-2.26 22.17,-2.98 180.24,-13.54 270.88,205.86 325.94,420 64.73,251.5 68.18,544.17 27.19,747.2 -13.57,68.29 -32.43,126.53 -55.56,169.53z"/>
  <path class="fil1" d="M18152.5 2755.76c-12.22,13.16 -23.78,23.81 -34.32,31.67l-12.58 -6.16 -338.68 -164.56 -134.82 -65.53 -32.13 -15.58c16.89,-27.25 34.61,-55.41 52.72,-84.5 112.62,-179.39 265.75,-382.99 328.3,-552.25 66.69,-180.14 84.97,-360.86 87.8,-526.39 3.59,-195.75 79.86,-275.08 171.88,-279.3 23.69,-1.02 48.24,2.85 73.09,10.95 48.85,16.22 97.73,49.06 139.31,93.11 144.12,152.87 235.49,520.86 88.94,861.62 -130.72,304.23 -287.13,587.95 -389.54,696.92z"/>
  <path class="fil1" d="M18981.29 2871.27c-68.74,43.48 -143.85,80.5 -219.11,111.64 -0.07,0.18 -0.2,0.13 -0.52,0.2 -268.64,111.23 -539.97,148.99 -539.97,148.99l-192.2 -240.03 86.38 -101.35 7.51 -8.77 14.58 -17.07c0,0 1.97,-1.07 5.77,-2.86 42.25,-21.29 308.97,-158.54 539.11,-348.83 238.96,-197.63 375.08,-285.37 490.91,-161.03 5.72,5.96 11.44,12.55 16.93,19.69 12.8,16.36 24.11,33.8 33.54,51.92 0.21,0.52 0.49,0.86 0.69,1.38 2.52,4.76 4.82,9.64 7.01,14.47 1.26,2.7 2.39,5.36 3.57,8.24 63.43,150.86 12.33,354.64 -254.2,523.39z"/>
  <path class="fil2" d="M17251.58 3074.3c0,0 -245.31,197.86 -357.1,282.06 -4.64,-18.82 -8.51,-37.51 -11.46,-55.8 -29.02,-180.79 92.98,-321.2 89.84,-492.78 218.07,-181.39 286.11,-366.12 305.59,-519.61l8.96 16.4c-7.24,125.52 -69.03,257.69 67.54,397.78 10.71,10.94 21.15,21.98 31.44,33.36l-134.82 338.58z"/>
  <path class="fil1" d="M18928.14 3394.99c-105.22,23.82 -218.2,30.27 -320.28,28.58 -119.58,-2.06 -231.57,59.91 -290.17,164.21 -72.68,129.54 -179.41,256.2 -317.14,351 -219.68,151.18 -422.5,93.47 -544.97,-16.93 -40.33,-36.63 -90.11,-60.02 -142.99,-72.43 -43.76,-10.13 -101.78,-30.96 -167.69,-73.05 -146.57,-93.22 -223.2,-187.93 -259.72,-356.5 -36.51,-168.57 80.6,-493.82 230.97,-614.5 132.81,-106.63 160.17,-251.07 221.95,-324.28 8.15,-9.78 16.81,-18.24 26.51,-25.17 8.53,-6.18 17.31,-10.5 26.43,-13.16 77.07,-24.13 185.74,58.36 395.56,148.15 11.2,4.9 22.72,9.54 34.54,14.49 141.95,58.13 316.45,185.81 442,324.1 69.73,76.59 172.85,114.26 275.77,102.33 81.39,-9.29 180.23,-28.39 282.34,-65.42l1.05 -0.41c249.21,-90.91 378.52,-119.88 429.3,28.04 13.64,39.98 18.09,82.59 11.16,124.96 -2.51,16.54 -7.02,33.07 -13.34,49.45 -36.47,96.34 -136.41,184.46 -321.28,226.53z"/>
  <path class="fil3" d="M17287.99 2275.78c-5.79,7.8 -9.53,12.39 -9.53,12.39 -13.63,-127.98 -298.05,-270.04 -400.4,-142.53 -99.46,123.83 -7.34,398.31 28.36,458.72 -170.38,-272.63 -196.44,-429.72 -155.17,-500.3 41.5,-71.13 218.71,-198.1 443.33,-11.44 71.68,59.39 91.99,120.58 93.41,183.16z"/>
  <path class="fil3" d="M17962.51 2150.24c-49.06,64.32 -123.09,197.9 -192.98,241.23 161.33,-100.03 113.79,-561.32 97.43,-706.81 -20.43,-181.51 -89.5,-540.52 -296.66,-610.93 370.71,-79.42 439.71,841.28 392.21,1076.52z"/>
  <path class="fil3" d="M18152.5 2755.76c-15.3,9.12 -30.94,17.63 -46.9,25.51 329.01,-440.26 708.69,-1274.94 135.09,-1688.12 326.13,-14.11 397.59,497.74 367.68,723.8 -40.5,306.09 -275.93,697.51 -455.87,938.82z"/>
  <path class="fil4" d="M17200.91 4220.09c-45.21,-19.81 -87.94,-44.99 -126.37,-75.19 -240.02,-188.47 -256.03,-492.04 -161.82,-626.79l10.79 7.52c-91.25,130.52 -74.81,425.23 159.16,608.9 158.22,124.18 390.55,161.24 564.99,90.05 100.3,-40.92 161.82,-111.61 173.24,-199 0.25,-1.84 0.43,-3.69 0.58,-5.55l13.11 1.03c-0.17,2.08 -0.37,4.15 -0.64,6.2 -12.07,92.29 -76.43,166.63 -181.29,209.43 -136.18,55.63 -306.74,46.95 -451.76,-16.6z"/>
  <path class="fil3" d="M18981.29 2871.27c-69.35,43.89 -143.31,80.26 -219.11,111.64 235.52,-140.9 526.46,-424.69 402.97,-727.84 67.01,30.95 96.03,153.8 94.02,224.56 -4.76,171.46 -142.01,305.69 -277.89,391.63z"/>
  <path class="fil4" d="M16876.63 3301.54c-16.23,-100.82 13.93,-189.87 43.11,-276.01 43.82,-129.37 85.22,-251.56 -16.07,-413 -152.59,-243.28 -208.76,-425.07 -158.13,-511.9 25.24,-43.25 87.24,-93.34 168.86,-107.77 64.12,-11.34 165.52,-4.12 284.4,94.65 115.54,95.96 100.98,194.5 85.55,298.81 -9.65,65.33 -19.64,132.88 4.43,201.54l-12.4 4.34c-25.16,-71.72 -14.92,-140.89 -5.03,-207.79 14.86,-100.57 28.9,-195.56 -80.96,-286.79 -90.98,-75.61 -185.65,-107.35 -273.69,-91.81 -77.08,13.62 -136.85,62.13 -159.8,101.44 -27.81,47.71 -44.31,175.9 157.93,498.27 104.6,166.75 60.25,297.65 17.37,424.23 -28.66,84.62 -58.3,172.1 -42.58,269.7l-12.98 2.08z"/>
  <path class="fil4" d="M18391.12 3122.66l-2.08 -12.99c3,-0.48 303.26,-50.19 588.6,-243.83l7.44 10.89c-287.94,195.33 -590.93,245.44 -593.96,245.92z"/>
  <path class="fil2" d="M18928.14 3394.99c-255.92,58.02 -455.6,-18.83 -624.88,216.96 -134.81,187.78 -307.58,413.3 -563.94,418.29 -93.37,1.87 -258.39,-34.97 -334.57,-85.72 -83.47,-55.54 -76.37,-80.43 -167.73,-119.6 -191.62,-82.25 -348.2,-248.33 -357.92,-464.64 -9.42,-209.96 101.7,-406.15 237.04,-554.91 139.97,-153.83 235.36,-325.13 280.33,-529.4 53.65,-243.62 -1.84,-466.54 -24.73,-709.56 -17.07,-181.36 -23.49,-473.97 220.71,-495.65 -331.57,243.97 1.34,911.19 -140.17,1303.94 -109.39,303.57 -646.55,895.38 -164.18,1144.53 59.93,30.94 90.23,33.48 136.71,73.88 67.08,58.27 106.14,134.03 192.65,173.37 192.8,87.69 340.99,-43.02 476.66,-163.17 191.5,-169.6 365.59,-297.28 617.53,-284.24 227.32,11.83 446.49,-9.21 551.1,-200.06 -25.46,160.35 -192.02,243.53 -334.63,275.98z"/>
  <path class="fil2" d="M17915.65 2260.12c-44.48,85.5 -200.97,313.14 -200.97,313.14l-48.36 -10.06c0,0 8.1,-28.56 19.45,-64.25 141.83,-199.95 232.69,-430.83 295.24,-600.1 66.69,-180.14 84.97,-360.86 87.8,-526.39 4.38,-246.2 124.09,-308.2 244.97,-268.35 -80.66,29.4 -188.54,129.75 -168.61,314.08 16.84,155.77 -17.2,434.03 -229.53,841.94z"/>
  <path class="fil2" d="M19224.23 2323.78c-56.63,-103.78 -185.66,-111.48 -302.21,14.54 -124.99,135.01 -289.12,293.74 -510.92,388.11 -206.3,87.75 -312.16,148.85 -426.25,99.84 -1.08,-0.47 119.78,-43.68 120.78,-44.95 0.83,-0.94 15.04,3.33 17.75,0.64 4.45,-4.29 11.34,-11.16 20.35,-19.92 42.25,-21.29 308.97,-158.54 539.11,-348.83 250.74,-207.31 388.25,-293.8 507.84,-141.33 12.8,16.36 24.11,33.8 33.55,51.92z"/>
  <path class="fil2" d="M17696.89 2575.69c175.92,-48.36 333.48,129.79 315.8,240.82 0.01,-0 287.06,63.83 295.04,304.88 0,0 229.62,100.62 160.99,292.63 0,-0 -53.8,-183.67 -211.13,-237.13 0.01,0 -19.38,-215.07 -310.76,-280.78 0,-0 15.66,-265.57 -273.61,-268.39 0,0 -62.49,-28.34 23.67,-52.03z"/>
  <path class="fil2" d="M17338.11 2481.08c69.06,-56.46 235.83,-93.43 376.56,92.19 0,0 -8.42,79.26 -57.83,44.71 -49.39,-34.57 -137.72,-136.53 -309.19,-92.9l-9.54 -44z"/>
  <path class="fil4" d="M18120.18 2780.4c-0.81,-0.36 -1.55,-0.86 -2.2,-1.55 -2.47,-2.66 -2.3,-6.82 0.37,-9.29 129.43,-119.82 254.33,-333.14 417.67,-713.3 138.78,-323.02 62.5,-695.13 -87.76,-854.65 -79.86,-84.78 -179.2,-121.05 -253.06,-92.49 -52.88,20.45 -116.6,82.78 -119.76,263.51 -3.21,183.68 -32.05,356.48 -88.16,528.25 -78.27,239.57 -187.34,456.63 -324.18,645.16 -2.12,2.95 -6.29,3.63 -9.18,1.48 -2.93,-2.14 -3.59,-6.25 -1.45,-9.2 136.03,-187.42 244.47,-403.27 322.32,-641.53 55.69,-170.5 84.33,-342.04 87.5,-524.38 3.3,-188.05 71.52,-253.64 128.17,-275.55 78.89,-30.52 183.88,7.06 267.38,95.73 156.51,166.13 233.06,536.56 90.28,868.87 -164.11,381.95 -289.96,596.61 -420.83,717.75 -1.97,1.83 -4.77,2.22 -7.09,1.19z"/>
  <path class="fil4" d="M18977.23 2866.12c195.65,-123.68 253.46,-256.27 268.39,-343.09 15.06,-87.46 -7.24,-174.54 -62.61,-245.12 -35.05,-44.54 -72.03,-68.32 -113.18,-72.71 -89.28,-9.59 -202.75,68.33 -380.78,215.57 -180.89,149.56 -472.18,332.1 -570.85,366.6 -5.15,1.77 -10.76,-0.91 -12.56,-6.05 -1.79,-5.14 8.14,-11.69 13.28,-13.49 97.43,-34.05 379.05,-214.64 557.58,-362.26 186.3,-154.06 298.62,-230.39 395.46,-219.97 46.76,5.06 88.13,31.22 126.46,80.1 59.02,75.06 82.64,167.63 66.58,260.65 -15.63,90.74 -79.09,223.41 -280.76,351l-6.99 -11.23z"/>
  <path class="fil3" d="M19249.43 3168.46c9.47,-75.69 -61.71,-210.17 -170.43,-224.89 -113.32,-15.36 -203.15,12.33 -257.73,22.84l1.05 -0.41c249.21,-90.91 378.52,-119.88 429.3,28.04 13.64,39.98 18.09,82.59 11.16,124.96 -2.51,16.54 -7.02,33.07 -13.34,49.46z"/>
  <path class="fil4" d="M17458.41 3979.51c-80.83,-35.42 -146.17,-83.59 -182.96,-131.58 -15.75,-2.45 -66.73,-16.46 -188.93,-94.28 -148.89,-94.69 -173.52,-158.61 -210.98,-331.71 -38.29,-177.04 84.4,-503.78 234.45,-624.29 83.37,-66.97 123.85,-147.97 159.53,-219.43 4.49,-9.01 8.89,-17.8 13.25,-26.31 48.53,-94.8 82.17,-184.04 102.88,-272.85 25.13,-107.79 48.57,-261.95 6.7,-499.4 -58.71,-332.91 -80.66,-649.44 154.32,-710.95 219.39,-57.38 318.89,194.02 381.11,419.46 25.95,93.94 54.33,279.76 56.97,428.16l-19.7 0.36c-2.6,-146.83 -30.66,-330.5 -56.24,-423.26 -63.56,-230.18 -155.67,-458.4 -357.12,-405.65 -177.43,46.45 -217.97,245.9 -139.92,688.43 42.51,240.99 18.64,397.71 -6.92,507.32 -21.05,90.38 -55.25,181.13 -104.51,277.36 -4.34,8.46 -8.7,17.19 -13.17,26.14 -34.78,69.66 -78.08,156.32 -164.83,226 -142.64,114.58 -263.86,436.74 -227.53,604.74 36.13,167.02 59.79,228.63 202.27,319.24 139.7,88.93 183.47,91.6 183.87,91.63l4.76 0.22 3.01 3.76c100.77,136.64 445.46,277.5 706.32,97.98 122.36,-84.23 228.26,-199.69 306.25,-333.88 66.45,-114.31 187.98,-184.37 317.16,-182.91 115.31,1.34 218.74,-8.25 307.45,-28.48 184.39,-41.93 264.41,-124.93 299.03,-187.21 34.42,-61.82 40.66,-133.09 17.45,-200.73 -14.66,-42.58 -36.3,-70.21 -66.12,-84.42 -66.26,-31.65 -186.4,-1.32 -363.15,63.18l1.17 -6.6c186.09,-67.78 298.08,-109.33 370.5,-74.36 34.8,16.6 59.83,47.97 76.22,95.78 25.03,72.99 18.29,149.96 -18.87,216.74 -36.57,65.77 -120.45,153.28 -311.86,196.84 -90.29,20.55 -195.23,30.31 -312.11,28.95 -122.03,-1.38 -236.95,64.94 -299.81,173.12 -79.44,136.71 -187.38,254.34 -312.13,340.23 -176.96,121.8 -391.37,101.22 -547.81,32.66z"/>
  <path class="fil3" d="M17403.8 2838.89c93.49,-123.56 382.13,59 397.23,189.57 0,-0 373.18,91.23 332.96,300.85 -40.2,209.61 -420.02,322.06 -647.69,134.49 -227.66,-187.56 -217.5,-446.49 -82.5,-624.9z"/>
  <path class="fil0" d="M2453.54 3830.15c421.49,481.71 2044.94,3818.19 2044.94,3818.19 0.01,-0 725.21,-966.72 518.01,-1468.88 -447.39,-1084.01 -2056,-2744.09 -2056,-2744.09l-506.95 394.77z"/>
  <path class="fil1" d="M3233.18 3380.93c2.97,187.89 -94.37,420.67 -316.08,564.52 -133.62,86.61 -290.02,123.23 -435.68,118.78 -255.86,-6.93 -478.74,-139.23 -487.15,-344.62 -12.86,-322.69 1109.91,-613.07 1109.91,-613.07 81.99,46.22 127.52,150.53 129.01,274.39z"/>
  <path class="fil2" d="M3233.18 3380.93c-157.71,174.7 -497.88,304.04 -684.79,321.53 -230.3,21.77 -337.53,175.36 -66.98,361.78 -255.86,-6.93 -478.74,-139.23 -487.15,-344.62 -12.86,-322.69 1109.91,-613.07 1109.91,-613.07 81.99,46.22 127.52,150.53 129.01,274.39z"/>
  <path class="fil1" d="M3239.61 3067.97c-15.84,51.18 -34.65,96.41 -56.42,136.97 -52.3,97.38 -123.23,168.08 -222.71,230.44 -26.39,16.82 -54.77,32.83 -85.45,48.66 -50.65,26.39 -97.5,43.88 -138.41,55.6 -115.48,32.83 -187.41,18.8 -187.41,18.8 -1.31,1.15 -2.31,2.47 -3.46,3.63 -152.59,168.92 -456.8,278.46 -757.87,28.53 -194.33,-161.18 -327.62,-375.55 -398.56,-578.25 -39.42,-113.47 -59.56,-223.46 -59.56,-318.63 0.01,-264.49 496.89,-645.18 832.26,-748.5 335.55,-103.09 490.45,-219.26 587.13,-135.47 93.7,80.83 97,282.56 253.88,447.18 5.61,5.67 11.39,11.61 17.33,17.31 174.04,167.84 283.74,587.31 219.24,793.72z"/>
  <path class="fil2" d="M2960.49 3435.37c-26.39,16.83 -54.77,32.83 -85.45,48.67 -50.65,26.39 -97.5,43.88 -138.41,55.6 -115.48,32.83 -187.41,18.8 -187.41,18.8 -1.31,1.15 -2.31,2.47 -3.46,3.63 -103.1,-59.56 -198.46,-153.42 -255.37,-300.05 -178,-458.3 114.65,-714.38 417.21,-901.25l10.72 -3.47 232.61 1041.46 9.56 36.62z"/>
  <path class="fil1" d="M2370.72 2947.48c-25.73,-378.51 322.68,-606.49 696.83,-709.73 374.32,-103.24 197.96,-498.96 559.25,-559.18 361.28,-60.23 473.12,189.25 473.12,292.49 0.02,103.23 -129,258.09 -490.29,447.35 -361.43,189.26 -219.08,518.2 -408.79,765.67 -41.9,54.77 -91.72,139.15 -151.77,192.57 -203.57,180.8 -478.74,282.59 -570.79,56.91 -84.79,-207.94 -107.56,-486.08 -107.56,-486.08z"/>
  <path class="fil1" d="M2749.16 1809.75l-535.82 252.39c0,0 -31.68,-24.22 -76.71,-76.38 -42.06,-48.46 -95.68,-121.12 -146.66,-220.99 -110.7,-217.29 -227.82,-845.39 -195.66,-1142.29 32.34,-296.65 251.58,-638.74 522.78,-612.79 270.89,25.72 180.48,387.12 174.04,864.45 -6.42,477.58 142.04,683.98 258.02,935.61z"/>
  <path class="fil1" d="M2265.47 1958.08c0,0 -393.61,400.22 -542.09,361.4 -148.31,-38.8 -503.32,-322.6 -832.43,-651.61 -328.94,-329.01 -393.45,-800.16 -296.78,-1045.39 52.3,-132.73 153.92,-231.35 262.8,-230.63 92.22,0.74 189.55,73.18 266.42,256.59 137.43,328.02 418.53,643.2 760.83,927.47 74.91,62.29 152.76,123.1 232.61,182.17l148.64 199.99z"/>
  <path class="fil1" d="M1665.32 2254.95l-116.31 367.83c0,0 -85.45,20.02 -217.26,38.81 -201.75,28.91 -511.9,54.64 -789.04,-0.25 -442.44,-87.01 -577.92,-354.72 -523.04,-582.14 1.99,-8.15 4.19,-16.32 6.67,-24.22 71.21,-232.38 271.17,-193.56 658.24,-64.52 285.24,95.16 552.98,99.13 674.06,94.67 34.15,-1.48 56.91,-3.46 64.83,-3.96 2.31,-0.26 3.3,-0.49 3.3,-0.49l18.48 13.59c0.17,0 0.17,0 0.49,0.25l0.99 0.74c0.5,0.25 0.5,0.5 0.5,0.5l218.09 159.19z"/>
  <path class="fil2" d="M2115.85 1961.05c-125.54,45.76 -243.5,113.24 -353.04,189.18 -32.5,22.51 -113.33,114.47 -152.76,117.34 -26.39,1.92 -131.97,-87.09 -150.12,-100.37 -237.05,-172.61 -490.45,-379.94 -668.95,-613.75 -146.66,-192.12 -238.88,-439.1 -237.89,-682.19 0.66,-176.8 76.38,-480.95 303.87,-479.4 -144.67,182.44 -178.83,489.03 -144.35,710.88 41.57,268.21 253.72,474.4 441.12,655.72 134.29,129.75 338.85,347.17 544.89,302.2 261.64,-57.11 264.78,-271.29 185.59,-484.74 105.09,86.66 141.38,272.58 231.62,385.13z"/>
  <path class="fil1" d="M1643.05 2917.19c0,0 -40.92,35.35 -108.89,86.28 -130.65,97.64 -362.76,252.88 -602.3,325.5 -364.74,110.53 -564.88,-42.95 -601.48,-235.77 -8.16,-42.76 -6.66,-78.36 4.46,-108.76 37.82,-106.05 190.37,-145.11 445.74,-188.61 211.82,-35.85 387.35,-116.69 485.17,-169.34 53.62,-28.91 84.14,-49.44 84.14,-49.44l64.17 8.91 173.88 24.21 55.1 307.03z"/>
  <path class="fil2" d="M1644.03 2239.38c-164.64,134.48 -293.31,290.2 -311.79,422.21 -0.16,0 -0.16,0 -0.49,0 -201.75,28.91 -511.9,54.64 -789.04,-0.25 -442.44,-87.01 -577.92,-354.72 -523.04,-582.14 75.4,206.9 270.43,402.93 611.13,457.56 498.2,80.09 631.83,40.06 747.47,-120.13 102.79,-142.39 116.64,-270.43 68.96,-320.87l196.8 143.62z"/>
  <path class="fil2" d="M2477.29 1860.44c-235.9,31.14 -361.45,100.61 -361.45,100.61 -92.88,-24.74 -101.29,-139.32 -142.37,-231.86 -88.09,-197.75 -115.15,-427.96 -156.06,-638.94 -59.55,-306.6 -62.52,-1046.69 499.69,-1080.56 -356.49,84.16 -335.38,728.37 -307.5,994.65 27.55,262.08 131.31,815.75 467.69,856.11z"/>
  <path class="fil2" d="M1417.53 3086.02c-131.47,88.02 -306.51,188.63 -485.67,242.95 -364.74,110.53 -564.88,-42.95 -601.48,-235.77 -8.16,-42.76 -6.66,-78.36 4.46,-108.76 65.33,148.56 324.49,282.55 602.96,219.76 315.91,-71.2 382.56,-315.91 333.73,-538.39 -3.46,-15.08 -5.28,-27.93 -5.78,-39.31 -4.11,-73.91 44.21,-78.36 96.84,-61.8 -20.95,44.75 -32.83,88.25 -32.83,129.04 0.01,115.44 29.36,252.88 87.77,392.29z"/>
  <path class="fil4" d="M2999.42 2261.35c-2.31,0 -4.46,-0.88 -6.11,-2.62 -84.96,-90.88 -123.9,-190.27 -158.2,-277.95 -27.22,-69.61 -50.82,-129.7 -91.23,-164.77 -3.45,-3.01 -3.79,-8.2 -0.83,-11.65 2.98,-3.44 8.25,-3.8 11.55,-0.84 43.56,37.77 67.8,99.62 95.84,171.26 33.83,86.31 72.09,184.12 154.91,272.69 3.14,3.32 2.97,8.54 -0.33,11.66 -1.65,1.48 -3.63,2.23 -5.6,2.22z"/>
  <path class="fil4" d="M2160.22 3745.35c-120.43,0 -250.76,-43.22 -377.62,-148.47 -316.74,-262.8 -461.09,-652.43 -461.09,-903.17 0.01,-275.14 507.12,-654.49 838.2,-756.33 37.78,-11.65 75.39,-24.08 114.99,-38.02 4.29,-1.49 9.07,0.76 10.56,5.04 1.49,4.29 -0.66,9.01 -5.12,10.53 -39.75,14 -77.53,26.51 -115.64,38.23 -318.88,98.1 -826.49,476.84 -826.49,740.56 0.01,246.99 142.53,631.04 455.15,890.47 285.73,237.22 589.1,149.96 749.95,-31.34 1.65,-1.98 3.96,-2.97 6.76,-2.81 1.16,0 125.21,7.92 322.02,-73.57 146,-60.38 269.56,-173.66 330.43,-303.03 1.99,-4.12 6.76,-5.92 10.89,-3.94 4.13,1.93 5.94,6.85 3.96,10.97 -62.52,132.96 -189.22,249.32 -339.01,311.35 -182.95,75.71 -301.89,75.72 -325.32,74.9 -94.52,104.92 -235.24,178.66 -392.62,178.66z"/>
  <path class="fil4" d="M3178.57 3243.03c-1.65,0 -3.13,-0.49 -4.62,-1.46 -3.79,-2.61 -4.78,-7.72 -2.14,-11.48 9.57,-13.8 18.8,-33.24 26.39,-48.88 5.12,-10.51 9.07,-18.84 12.21,-23.78 70.28,-108.54 90.56,-214.29 110.36,-316.59 30.69,-160.37 59.89,-311.84 284.9,-429.72 422.83,-221.5 486,-370.77 486,-440.06 0.01,-57.09 -34.14,-147.4 -109.04,-210.85 -85.45,-72.51 -208.19,-97.93 -354.52,-73.51 -176.67,29.44 -221.55,141.21 -268.9,259.56 -48.67,121.38 -98.98,246.91 -289.52,299.44 -363.43,100.26 -717.95,235.77 -714.65,685.52 0.5,79.36 4.46,164.75 28.87,251.45 1.15,4.38 -1.32,8.92 -5.78,10.17 -4.29,1.23 -8.91,-1.33 -10.23,-5.7 -24.9,-88.56 -28.87,-175.28 -29.36,-255.8 -3.3,-461.43 357.16,-599.58 726.85,-701.53 182.46,-50.38 231.29,-172.05 278.47,-289.7 49.17,-122.76 95.68,-238.71 281.6,-269.67 191.05,-31.86 305.52,24.38 367.88,77.17 79.36,67.2 114.82,160.66 114.82,223.45 0.01,126.06 -175.69,287.54 -494.74,454.67 -218.09,114.19 -245.14,255.08 -276.49,418.21 -19.95,103.84 -40.58,211.24 -112.67,322.45 -2.64,4.05 -6.6,12.35 -11.22,21.97 -7.75,16.12 -17.32,36.22 -27.71,51.11 -1.48,2.3 -4.12,3.56 -6.76,3.55z"/>
  <path class="fil4" d="M2119.14 1966.71c-2.47,0 -4.78,-1.04 -6.43,-3.03 -48.65,-59.46 -92.38,-125.04 -129.99,-194.99 -119.76,-223.15 -228.32,-855.61 -196.64,-1147.01 34.15,-314.08 260.82,-646.13 531.7,-620.25 222.55,21.19 210,261.01 192.52,592.95 -4.62,88.98 -9.57,181.02 -10.89,279.95 -5.44,399.59 99.15,610.24 200.11,813.94 19.15,38.33 38.77,77.95 57.25,118.05 1.98,4.14 0.17,9.04 -3.96,10.95 -4.28,1.91 -9.07,0.1 -11.06,-4.04 -18.31,-39.89 -37.94,-79.4 -56.91,-117.62 -101.95,-205.47 -207.37,-417.93 -201.92,-821.51 1.32,-99.25 6.26,-191.44 10.89,-280.59 17.66,-334.79 29.36,-555.96 -177.67,-575.66 -261.31,-24.92 -480.23,299.19 -513.55,605.63 -31.51,289.11 75.89,916.28 194.83,1137.4 36.96,68.98 80.17,133.73 128.02,192.36 2.98,3.52 2.48,8.73 -1.15,11.61 -1.49,1.25 -3.3,1.87 -5.12,1.86z"/>
  <path class="fil4" d="M1607.08 2270.61c-1.48,0 -2.97,-0.34 -4.12,-1.1 -179.15,-103.92 -454.16,-332.23 -717.78,-595.85 -320.69,-320.78 -403.68,-787.85 -298.59,-1054.11 56.09,-142.12 160.84,-234.65 266.92,-235.79 75.72,-1.22 186.25,43.9 277.48,261.44 130.5,311.2 399.88,633.99 800.92,959.39 3.63,2.87 4.12,8.05 1.32,11.6 -2.97,3.54 -8.09,4.09 -11.72,1.21 -403.01,-327.14 -674.22,-652.09 -805.87,-965.82 -87.59,-209.07 -191.36,-252.21 -261.97,-251.32 -99.31,1.05 -198.13,89.51 -251.74,225.35 -100.96,255.65 -16.83,724.59 294.96,1036.4 262.63,262.67 536.31,490.01 714.32,593.24 3.96,2.29 5.28,7.34 2.97,11.27 -1.48,2.63 -4.29,4.11 -7.09,4.1z"/>
  <path class="fil4" d="M906.13 2701.85c-120.59,0 -245.8,-8.79 -365.08,-32.31 -292.24,-57.62 -423.84,-186.97 -482.76,-285.33 -60.24,-100.55 -74.35,-218.34 -39.71,-331.69 22.44,-73.45 58.33,-122.03 109.73,-148.54 107.17,-55.3 272.35,-16.93 558.9,78.61 280.29,93.43 537.47,99.43 665.81,94.68 4.79,-0.13 8.41,3.38 8.58,7.94 0.17,4.53 -3.3,8.38 -7.92,8.54 -129.5,4.78 -388.83,-1.23 -671.75,-95.5 -275.99,-91.98 -444.66,-131.91 -546.06,-79.61 -47.24,24.38 -80.45,69.75 -101.52,138.72 -33.25,108.81 -19.73,221.88 38.09,318.36 57.2,95.49 185.51,221.19 471.74,277.63 273.2,53.87 578.54,29.8 786.57,0.15 4.46,-0.68 8.58,2.51 9.24,6.99 0.66,4.52 -2.48,8.7 -6.93,9.34 -118.61,16.92 -268.89,32.04 -426.93,32.03z"/>
  <path class="fil4" d="M704.37 3374.34c-105.08,0.16 -179.32,-27.88 -228.98,-57.82 -80.99,-49.07 -135.39,-127.82 -153.21,-221.77 -11.59,-61.16 -4.11,-109.74 22.88,-148.57 56.42,-81.17 190.54,-117.03 434.2,-158.42 121.25,-20.61 244.32,-58.15 365.74,-111.57 4.29,-1.83 9.07,0.07 10.88,4.22 1.82,4.17 0,9.04 -4.29,10.87 -122.56,53.98 -246.96,91.9 -369.7,112.74 -233.75,39.7 -370.52,75.63 -423.29,151.59 -24.33,34.99 -30.95,79.5 -20.21,136.07 16.93,89.27 68.53,164.11 145.57,210.71 77.2,46.69 217.09,87.94 445.41,18.72 146,-44.24 312.78,-127.61 482.37,-241.17 3.8,-2.55 8.91,-1.54 11.55,2.26 2.48,3.78 1.49,8.92 -2.31,11.45 -173.38,116.07 -337.2,197.93 -486.82,243.23 -89.08,27.06 -165.3,37.45 -229.8,37.45z"/>
  <path class="fil4" d="M2501.05 4077.43c-111.69,0 -220.73,-23.59 -313.94,-71.75 -127.51,-66 -200.44,-167.44 -205.06,-285.56 -0.16,-4.13 -0.16,-8.09 0,-12.21l24.75 0.99c-0.16,3.46 -0.17,6.77 -0,10.23 4.29,108.87 72.42,202.74 191.69,264.61 208.69,107.89 501.34,87.93 711.84,-48.67 302.89,-196.65 361.61,-557.42 270.22,-729.55l21.78 -11.6c108.55,204.35 20.79,567.61 -278.63,761.94 -123.73,80.34 -275.34,121.59 -422.65,121.58z"/>
  <path class="fil2" d="M1426.77 2080.69c7.42,3.71 14.19,8.4 19.96,14.34 -0.32,-0.25 -0.82,-0.25 -0.99,-0.5 -0.32,-0.25 -0.33,-0.25 -0.49,-0.25 -9.89,-5.94 -17.32,-10.38 -21.77,-13.1 -7.09,-4.71 -6.93,-5.19 3.3,-0.49z"/>
  <path class="fil3" d="M2152.48 2082.91c-255.87,222.56 -614.02,351.52 -695.68,602.17 -103.27,317.76 459.77,1072.31 646.68,824.7 186.92,-247.76 -194.34,-621.51 -75.56,-835.09 118.62,-213.57 748.95,-391.55 671.76,-587.32 -77.04,-195.79 -342.48,-182.44 -547.19,-4.46z"/>
  <path class="fil3" d="M2504.02 3221.99c-74.24,-290.71 -80.18,-578.44 299.58,-726.75 379.6,-148.34 593.23,-231.37 652.62,-177.99 59.22,53.4 -201.76,290.69 -255.21,510.22 -53.28,219.5 -237.22,522.13 -409.28,557.6 -172.06,35.62 -265.93,-77.62 -287.7,-163.08z"/>
  <path class="fil3" d="M3743.93 2167.44c239.52,-112.74 271.36,-285.33 77.03,-387.1 -194.17,-101.78 -280.28,209.13 -262.47,284.77 17.82,75.64 109.7,137.94 185.44,102.33z"/>
  <path class="fil3" d="M1235.9 2140.75c-452.35,-39.34 -889.94,-177.97 -1001.18,-160.19 -111.24,17.8 -26.69,266.99 280.27,351.52 307.01,84.54 547.37,71.2 694.19,22.26 146.82,-48.95 129.01,-204.67 26.72,-213.58z"/>
  <path class="fil3" d="M1809.83 1620.17c-222.38,-142.4 -720.75,-747.51 -800.93,-1010.04 -80,-262.52 -356,111.25 -106.73,538.39 249.11,427.15 627.37,765.32 814.29,698.58 186.91,-66.76 93.37,-226.92 93.37,-226.92z"/>
  <path class="fil3" d="M2382.27 134.03c-100.79,-5.94 -371.51,1140.07 124.71,1631.49 0,-0.01 183.94,130.52 88.92,-83.06 -94.85,-213.57 -219.57,-563.6 -178,-931.43 41.58,-367.81 65.99,-456.8 34.97,-548.03 -31.17,-91.22 -70.61,-68.96 -70.6,-68.97z"/>
  <path class="fil5" d="M12739.09 14572.47c8.15,-251.17 -34.75,-418.74 88.12,-688.18 123.06,-269.26 245.92,-315.77 307.09,-205.93 60.99,110.02 125.58,414.75 44.88,798.01 -80.71,383.08 -213.89,496.37 -325.18,389.42 -111.28,-106.94 -114.91,-293.33 -114.9,-293.33z"/>
  <path class="fil6" d="M6044.93 15375.38c323.72,-469.59 604.95,-968.48 900.42,-1456.16 137.46,-226.74 276.93,-452.93 424.98,-672.98 245.05,-364.45 504.2,-726.36 822.3,-1031.27 178.55,-171.19 381.71,-330.79 614.56,-420.54 84.73,-32.75 170.54,-68.04 262.52,-47.05 78.23,17.73 146.72,69.3 185.17,139.7 80.16,146.93 11.84,336.4 -143.74,397.92 -79.4,31.48 -169.14,30.58 -250.55,60.26 -103.3,37.64 -198.06,93.37 -288.14,155.8 -179.87,124.67 -338.23,279.03 -484.76,440.81 -296.56,327.53 -549.17,695.78 -778.09,1072.89 -235.62,388.15 -445.04,792.05 -632.01,1205.9 -46.48,102.78 -91.55,206.29 -134.34,310.7 -35.32,86.31 -62.77,170.64 -147.44,220.4 -143.26,84.51 -334.14,12.12 -384.79,-146.4 -24.79,-77.63 -11.89,-162.68 33.91,-229.99z"/>
  <path class="fil6" d="M10814.97 12037.27c62.61,654.34 521.69,1249.32 1045.92,1616.49 280.85,196.69 599.33,338.2 932.29,419.63 167.94,41.08 336.76,58.99 508.49,73.65 126.5,10.85 226.01,117.8 211.72,247.91 -14.29,129.92 -138.25,217.15 -264.92,194.89 -164.48,-28.95 -330.07,-75.82 -489.3,-125.4 -170.1,-53.03 -336.94,-114.55 -499.44,-187.65 -615.79,-276.32 -1157.58,-709.17 -1545.73,-1262.9 -184.57,-263.29 -342.37,-556.26 -434.29,-865.52 -35.47,-119.07 7.42,-249.35 114,-317.03 107.31,-68.22 251.71,-52.47 341.64,37.46 45.24,45.24 73.1,104.95 79.62,168.47z"/>
  <path class="fil1" d="M5467.09 16713c8.55,-3.62 16.89,-7.6 24.9,-11.76 67.2,-34.38 120.28,-83.78 162.24,-140.24 158.25,-212.62 158.25,-525.86 158.25,-525.86 22.28,-219.68 25.59,-455.83 12.01,-693.97 -1.39,-25.7 -2.96,-51.57 -4.88,-77.63 -5.05,-70.21 -11.47,-140.42 -19.49,-210.45 -93.48,-832.95 -384.74,-1614.85 -787.4,-1704.61 -362.79,-81.07 -710.62,46.5 -921.97,254.79 -116.8,115.09 -192.01,254.79 -204.9,397.92 -36.37,401.9 1236.03,2862.37 1581.23,2711.81z"/>
  <path class="fil1" d="M5412.62 16574.93c0,0 31.5,50.85 79.38,126.31 99.22,156.71 268.43,419.64 369.93,554.09 94.01,124.32 119.07,285.73 119.07,285.73 272.63,-75.28 695.65,-727.27 582.84,-1292.94 -9.57,-48.13 -21.41,-93.01 -35.34,-135.54 -49.6,-153.45 -125.17,-273.6 -214.12,-378.2 -140.82,-165.94 -315.45,-293.15 -474.56,-452.57 -6.78,-6.88 -13.57,-13.03 -20.19,-18.28 -12.36,-10.31 -24.2,-18.09 -35.85,-23.34 -127.26,-61.35 -212.39,144.04 -268.27,411.13 -83.04,394.48 -102.89,923.6 -102.88,923.6z"/>
  <path class="fil1" d="M5764.1 15118.6l19.68 121.6 13.57 83.42c0,0 10.27,-57.91 27.68,-46.51 70.85,46.51 271.39,231.99 429.62,396.66l142.07 151.64c0,0 32.21,53.02 32.37,53.38l99.4 233.79 3.84 5.61c25.42,-74.73 87.74,-283.38 70.86,-484.96 -6.27,-73.1 -68.42,-168.65 -148.68,-261.66 -23.68,-27.15 -48.93,-54.29 -74.69,-80.89 0,0 -0.17,-0.36 -0.35,-0.36 -94.35,-95.72 -196.2,-180.23 -257.99,-222.04 -22.11,-14.84 -44.91,-27.68 -67.89,-38.18 -94.69,-43.43 -192.54,-46.14 -251.73,21.17 -0.52,0.72 -1.21,1.45 -1.73,1.81 -14.8,17.37 -26.99,38.73 -36.03,65.51z"/>
  <path class="fil2" d="M5467.09 16713c8.55,-3.62 16.89,-7.6 24.9,-11.76 99.22,156.71 268.43,419.64 369.93,554.09 94.01,124.32 119.07,285.73 119.07,285.73 272.63,-75.28 695.65,-727.27 582.84,-1292.94 -9.57,-48.13 -21.41,-93.01 -35.34,-135.54l3.84 5.61c25.42,-74.73 87.74,-283.38 70.86,-484.96 -8.02,-94.82 -110.21,-227.1 -223.37,-342.55 43.19,54.11 197.08,542.15 -83.89,414.94 0.01,0 7.31,10.13 18.44,28.77 18.81,31.85 48.75,88.49 73.46,164.31 0.01,0 0,0.19 0.19,0.54 43.34,133 70.68,324.63 -5.92,542.33 -146.24,415.48 -250.7,669.54 -442.89,507.76 -192.17,-161.59 -288.28,-288.45 -288.28,-288.45 0,0 3.31,-34.74 3.31,-99.88 0.18,-152.18 -36.73,-356.12 -162.08,-829.5 -63.55,-239.95 -160.16,-576.35 -279.92,-894.64 -384.38,-1021.51 -710.79,-1401.69 -1121.48,-1233.58 -116.8,115.09 -192.01,254.79 -204.9,397.92 -36.37,401.9 1236.03,2862.37 1581.23,2711.81z"/>
  <path class="fil7" d="M4978.27 16839.67c0.87,0.54 1.57,1.09 2.44,1.45 80.79,47.23 157.36,81.79 227.7,104.23 270.03,86.13 447.41,-6.33 404.24,-244.83 -54.66,-301.29 -364.9,-1202.63 -364.9,-1202.63 -97.48,-245.19 -199.32,-485.33 -305.34,-706.63 -170.42,-356.13 -351.31,-662.85 -540.7,-860.45 -98.71,-102.97 -460.28,-268.18 -578.67,126.85 -110.72,369.51 860.69,2609.03 1155.23,2782.02z"/>
  <path class="fil8" d="M4954.94 16948.06c210.13,381.09 366.98,511.93 730.28,593.54 390.83,87.94 420.78,-74.56 320.85,-338.21 -47.17,-124.32 -137.18,-243.2 -219.35,-333.86 -92.09,-102.24 -174.08,-169.02 -174.08,-169.02 0.01,0 -0.52,0 -1.4,0.19l-624.96 138.61c-1.91,0.37 -3.84,0.91 -5.57,1.81 -32.89,12.67 -47.18,68.22 -25.77,106.94z"/>
  <path class="fil9" d="M4978.27 16839.67c0.87,0.54 1.57,1.09 2.44,1.45 -32.89,12.67 -47.18,68.22 -25.77,106.94 210.14,381.09 368.2,550.47 731.52,631.9 390.81,88.12 419.55,-112.92 319.62,-376.57 -47.17,-124.32 -137.18,-243.2 -219.35,-333.86 -4.17,-2.54 -6.26,-3.8 -6.26,-3.8 0.01,0 225.62,337.66 62.67,545.4 -163.34,208.28 -607.9,-121.24 -726.97,-354.86 -22.1,-43.61 0.33,-112.73 28.19,-127.02 223.54,-115.45 453.93,-203.4 477.1,-209.55 0.87,-0.37 -10.99,-33.66 -10.99,-33.66 0,0 -377.33,10.86 -657.25,-140.6 -365.21,-197.78 -817.87,-1471.9 -905.6,-1982.74 -87.74,-510.66 526.43,-489.12 893.05,233.79 0,0 0.71,-1.63 1.74,-5.25 -170.42,-356.13 -351.31,-662.85 -540.7,-860.45 -98.71,-102.97 -460.28,-268.18 -578.67,126.85 -110.72,369.51 860.69,2609.03 1155.23,2782.02z"/>
  <path class="fil2" d="M5813.89 15973.98c41.78,-201.95 180.28,-433.93 434.83,-286.27 254.56,147.84 -359.63,-472.66 -434.84,-487.13 0.01,-0.01 33.42,230.9 22.99,450.22 -10.46,219.32 -22.99,323.19 -22.98,323.19z"/>
  <path class="fil2" d="M5825.03 15277.11c70.84,46.51 271.39,231.99 429.62,396.66l142.07 151.64c0,0 32.21,53.02 32.37,53.38l99.4 233.79 3.84 5.61c25.42,-74.73 87.74,-283.38 70.86,-484.96 -6.27,-73.1 -68.42,-168.65 -148.68,-261.66l-32.73 -23.88c98.2,127.03 148.33,360.82 35.52,375.3 -112.8,14.3 -643.43,-447.33 -534.79,-609.1 36.56,-54.29 84.09,-77.09 131.08,-83.78 -94.69,-43.43 -192.54,-46.14 -251.73,21.17 -0.52,0.72 -1.21,1.45 -1.73,1.81 -14.8,17.37 24.9,224.02 24.9,224.02z"/>
  <path class="fil4" d="M5812.53 16049.98c-0.51,0 -1.03,0 -1.53,-0.19 -8.19,-0.72 -14.15,-7.96 -13.33,-16.28 108.65,-1075.61 -240.65,-2548.6 -788.14,-2670.56 -490.64,-109.3 -947.69,183.3 -1106.1,529.29 -3.43,7.42 -12.28,10.68 -19.76,7.24 -7.47,-3.26 -10.79,-12.12 -7.34,-19.73 163.35,-356.67 634.32,-658.5 1139.68,-545.95 267.56,59.72 503.09,413.49 663.18,996.17 146.76,534.18 202.13,1172.05 148.15,1706.6 -0.78,7.6 -7.26,13.39 -14.81,13.39z"/>
  <path class="fil4" d="M6011.56 17555.9c-6.04,0 -11.75,-3.62 -13.97,-9.59 -2.87,-7.78 1.05,-16.29 8.76,-19.18 279.61,-104.41 649.02,-743.91 542.87,-1276.11 -75.92,-380.73 -293.05,-573.08 -522.96,-776.66 -65.23,-57.73 -132.67,-117.44 -197.04,-182.04 -4.71,-4.71 -9.37,-9.05 -13.99,-13.21 -6.19,-5.25 -6.82,-14.66 -1.42,-20.99 5.41,-6.15 14.84,-6.88 21.03,-1.45 5.11,4.53 10.26,9.41 15.47,14.66 63.72,63.87 130.83,123.23 195.72,180.77 233.75,207.02 454.53,402.45 532.45,793.13 108.78,545.41 -273.16,1202.1 -561.71,1309.76 -1.72,0.72 -3.47,0.91 -5.21,0.91z"/>
  <path class="fil4" d="M4978.25 16854.69c-2.56,0 -5.16,-0.72 -7.53,-1.99 -163.68,-96.27 -494.1,-736.13 -731.83,-1289.86 -243.34,-566.75 -484.2,-1260.72 -430.44,-1508.27 30.75,-141.51 98.93,-228.19 202.69,-257.5 155.48,-43.79 341,60.44 401.31,123.41 261.58,272.88 531.42,772.32 849.16,1571.79 3.35,9.77 311.53,906.59 365.64,1205.53 1.47,8.14 -3.93,15.92 -12.01,17.37 -8.06,1.27 -15.88,-3.98 -17.32,-12.12 -53.7,-296.76 -361.15,-1191.42 -364.24,-1200.46 -316.04,-795.12 -583.91,-1291.48 -842.73,-1561.47 -56.13,-58.63 -228.28,-155.8 -371.7,-115.27 -92.31,26.05 -153.42,105.13 -181.63,235.06 -96.39,443.88 854.94,2593.65 1148.22,2766.1 7.1,4.16 9.46,13.21 5.29,20.27 -2.76,4.7 -7.74,7.42 -12.86,7.42z"/>
  <path class="fil4" d="M6532.36 16133.22c-1.6,-0.01 -3.21,-0.19 -4.81,-0.73 -7.79,-2.71 -11.98,-11.22 -9.33,-19 26.62,-78.35 86.7,-281.93 70.08,-478.99 -13.51,-159.78 -320.96,-449.67 -475.16,-553.73 -91.82,-62.07 -225.49,-104.41 -300.17,-19.72 -5.42,6.15 -14.86,6.7 -21.05,1.27 -6.17,-5.43 -6.77,-14.84 -1.32,-20.99 71.99,-81.61 205.13,-75.82 339.22,14.66 132.67,89.57 472.66,392.49 488.17,575.98 17.11,202.67 -44.33,410.95 -71.53,491.12 -2.12,6.33 -7.91,10.14 -14.11,10.14z"/>
  <path class="fil4" d="M4986.23 16839.31l0.18 0 -0.18 0zm3.24 14.66c-12.88,2.71 -20.27,15.2 -23.53,22.44 -9,19.9 -8.21,45.78 1.99,64.24 194.98,353.77 372.75,569.65 704.3,626.11 169.14,28.77 280.49,12.31 331.08,-49.22 48.12,-58.45 44.37,-162.32 -11.16,-308.9 -89.91,-237.05 -342.97,-457.81 -383.51,-492.02l-619.17 137.35zm827.71 756.58c-43.98,0 -93.87,-4.88 -149.95,-14.47 -343.39,-58.45 -526.04,-279.22 -725.41,-640.95 -14.73,-26.78 -15.93,-62.43 -3.04,-91.02 9.58,-21.17 25.28,-35.1 44.23,-39.26l626.36 -138.97c4.43,-0.91 9.09,0.18 12.64,3.08 12.11,9.77 297.78,244.83 398.01,509.21 60.44,159.42 62.5,269.98 6.32,338.39 -40.71,49.39 -109.7,74.01 -209.15,74.01z"/>
  <path class="fil3" d="M5711.52 15636.32c-81.47,-632.09 -589.11,-1982.56 -996.48,-2103.8 -407.35,-121.24 405.96,-439.36 783.4,588.65 294.54,802.36 213.08,1515.15 213.08,1515.15z"/>
  <path class="fil3" d="M6461.49 15529.55c-35.87,-156.89 -330.09,-487.67 -440.8,-418.37 -110.72,69.13 68.93,242.3 211,380.91 142.05,138.43 254.86,147.12 229.81,37.46z"/>
  <path class="fil3" d="M6256.76 15904.67c97.03,142.41 -54.31,877.27 -217.26,900.44 -162.95,23.16 -309.18,-124.14 -294.56,-317.4 14.64,-193.44 309.18,-880.17 511.82,-583.04z"/>
  <path class="fil1" d="M14635.5 14139.44c168.85,711.34 279.58,2307.74 -95.91,3297.02 -103.5,272.88 -264.92,437.19 -449.67,512.47 -485.49,198.15 -1133.33,-217.51 -1322.61,-891.57 -156.33,-556.62 -70.75,-1312.66 379.83,-1750.21 77.1,-75.1 165.22,-140.6 264.74,-194.17 42.35,-23.16 87.04,-43.98 133.9,-62.44 294.8,-115.99 353.77,-338.75 311.43,-572.73 -39.08,-215.52 -163.76,-440.63 -269.08,-600.59 -87.92,-133.54 -162.5,-221.85 -162.5,-221.85 519.89,-164.49 1041.04,-227.28 1209.87,484.06z"/>
  <path class="fil1" d="M13425.63 13655.39c0,0 99.16,8.68 224.93,47.05 178.62,54.46 410.77,168.83 486.41,402.99 128.68,398.46 -386.53,1206.97 -386.53,1206.97 0.02,0 -128.48,-81.61 -289.71,-172.45 -16.09,-8.87 -32.39,-17.91 -48.86,-26.96 -112,-61.53 -234.52,-124.14 -338.93,-165.39 -22.61,-9.05 -44.16,-16.83 -64.78,-23.71l287.55 -873.48 129.92 -395.03z"/>
  <path class="fil2" d="M13406.45 14361.29c167.21,4.53 329.88,-1.98 450.75,116.54 106.05,104.41 158.7,205.93 119.79,323.37 -65.5,197.42 -299.3,238.14 -516.27,338.75 -122.13,56.82 -238.32,111.28 -313.6,167.2 77.1,-75.1 165.22,-140.6 264.74,-194.17 -112,-61.53 -234.52,-124.14 -338.93,-165.39l333.51 -586.31z"/>
  <path class="fil2" d="M14635.5 14139.44c168.85,711.34 279.58,2307.74 -95.91,3297.02 -103.5,272.88 -264.92,437.19 -449.67,512.47 -66.04,-12.85 -117.62,-52.48 -118.35,-143.14 -5.06,-528.21 270.17,-286.63 526.58,-1318.99 232.72,-937.54 183.13,-1631.68 66.59,-2249.65 -116.53,-618.15 -771.95,-588.29 -897.9,-544.14 -5.78,1.99 -11.22,5.25 -16.29,9.41 -31.65,26.24 -52.12,92.83 -62.43,174.8 -25.14,197.24 -2.53,450.77 101.7,509.21l-391.75 167.2 -2.36 -503.24 129.92 -395.03c519.89,-164.49 1041.04,-227.28 1209.87,484.06z"/>
  <path class="fil1" d="M13334.98 13471.72c278.31,246.1 165.2,914.55 47.76,1244.25 -104.22,291.7 -397.01,631.36 -585.03,266.55 -16.09,-31.49 -30.95,-64.24 -43.07,-98.99 -13.19,-37.27 -23.52,-76.18 -29.68,-117.44 -8.12,-53.02 -18.64,-337.85 16.83,-376.21 12.51,-13.75 59.17,27.87 71.12,43.61 22.64,29.68 19.73,217.87 28.41,258.05 41.27,186.74 167.75,66.22 220.4,-40.72 90.48,-182.95 127.4,-403.17 104.96,-616.52 -9.77,-93.55 -15.38,-345.08 -137.71,-298.21 -122.87,47.22 -154.9,342.01 -154.9,342.01 0.01,-0 -3.07,-0.9 -41.98,6.51 -21.53,3.98 -43.25,-32.21 -65.14,-34.2 11.94,-119.07 63.88,-276.14 139.52,-404.62 0.19,-0.36 0.18,-0.36 0.18,-0.36 109.86,-187.11 269.8,-313.6 428.33,-173.72z"/>
  <path class="fil2" d="M13334.98 13471.72c278.31,246.1 165.2,914.55 47.76,1244.25 -104.22,291.7 -397.01,631.36 -585.03,266.55 -16.09,-31.49 -30.95,-64.24 -43.07,-98.99 94.83,155.62 212.44,257.87 332.42,122.87 146.58,-164.85 394.48,-855.2 216.24,-1314.65 -102.59,-264.56 -271.62,-172.28 -396.66,-46.33 109.86,-187.11 269.8,-313.6 428.33,-173.72z"/>
  <path class="fil4" d="M14779.18 16330.64c70.03,-815.21 -11.76,-1688.86 -132.28,-2196.26 -171.17,-721.48 -679.13,-667.55 -1202.63,-501.97 -6.5,1.98 -10.68,11.03 -9.05,20.08 1.46,9.04 7.96,14.66 14.48,12.49 512.29,-161.96 1009.01,-216.07 1174.22,479.71 178.62,752.78 271.98,2316.97 -95,3283.99 -148.01,389.78 -434.48,593.72 -786.25,559.34 -436.64,-42.71 -832.95,-427.6 -963.95,-936.27 -102.96,-399.91 -83.06,-856.65 53.2,-1221.45 137.71,-369.33 385.62,-633.34 717.13,-763.63 109.29,-43.07 192.71,-103.32 248.09,-179.51 4.71,-6.51 4.71,-17.19 0,-23.71 -4.7,-6.51 -12.31,-6.69 -17.19,0 -52.29,72.02 -132.28,129.57 -237.6,171.01 -338.02,133 -591.18,402.8 -732.15,780.46 -139.15,372.95 -159.42,839.45 -54.29,1248.05 134.09,520.79 539.07,914.91 984.95,958.53 361.93,35.28 656.87,-175.17 809.42,-577.25 122.53,-322.46 194.17,-710.98 228.91,-1113.61z"/>
  <path class="fil4" d="M13420.56 15112.99c0.73,-7.42 -2.35,-14.66 -7.6,-17.55 -66.77,-36.73 -129.57,-69.3 -186.39,-96.99 -6.33,-3.07 -13.21,1.45 -15.56,10.14 -2.17,8.68 1.09,18.28 7.42,21.35 56.65,27.68 119.07,60.08 185.66,96.63 6.17,3.44 13.21,-0.72 15.74,-9.41 0.38,-1.27 0.72,-2.71 0.72,-4.16z"/>
  <path class="fil4" d="M13506.17 14189.93c16.1,-188.01 5.77,-359.74 -30.05,-491.47 -4.7,-17.19 -9.6,-32.75 -14.66,-47.23l-0.71 -2.17c-0.91,-3.08 -2,-5.97 -3.27,-8.86 -28.05,-77.64 -67.14,-139.34 -116,-182.59 -87.94,-77.63 -184.21,-85.78 -278.49,-23.53 -169.91,112.01 -295.14,424.88 -314.68,652.71 -0.18,1.27 -0.18,2.54 -0.36,3.98 -0.71,9.05 4.16,17.37 10.67,18.46 6.71,0.91 12.67,-5.61 13.39,-14.66 0.36,-1.45 0.36,-2.53 0.36,-3.8 18.83,-218.96 138.62,-519.52 301.11,-626.47 87.42,-57.72 173.36,-50.48 254.97,21.54 45.06,39.99 81.24,97.17 107.67,170.46 1.27,2.89 1.99,4.88 2.71,7.05l0.74 2.35c4.88,13.75 9.4,28.23 13.74,44.52 40.9,150.19 47.23,355.04 17.55,577.43 -6.68,50.49 -15.2,101.16 -25.33,150.92 -39.44,194.71 -101.33,368.97 -169.73,477.73 -20.26,32.02 -40.72,60.62 -61.16,85.23 -162.85,196.16 -304.01,137.52 -381.82,17.37 -68.93,-106.58 -113.64,-226.92 -108.03,-468.13 0.91,-36.92 8.33,-128.11 9.77,-140.06 0.91,-9.05 -3.44,-17.73 -9.95,-19.18 -6.68,-1.45 -12.85,4.71 -13.94,13.93 -1.63,12.67 -9.23,105.32 -10.13,144.23 -5.79,252.24 41.43,378.92 114.18,491.47 85.61,132.1 239.59,197.79 415.84,-14.29 21.18,-25.7 42.53,-55.37 63.52,-88.49 70.59,-112.55 134.45,-291.34 174.8,-490.75 10.32,-50.85 19.01,-102.61 25.88,-153.81 4.72,-35.11 8.5,-69.67 11.41,-103.87z"/>
  <path class="fil4" d="M13176.27 14257.25c6.17,-72.02 7.06,-146.75 2.54,-224.21 -8.69,-151.82 -35.29,-249.18 -79.08,-289.17 -25.88,-23.72 -57,-27.33 -92.48,-11.04 -116.88,53.38 -147.29,321.02 -147.48,323.73 0.02,0.18 -1.81,15.56 -1.81,15.56 -0.91,9.22 7.96,20.63 14.47,21.89 6.71,1.26 7.78,-4.88 8.69,-14.12 0.2,-2.35 32.39,-269.08 133.72,-315.4 28.6,-13.03 51.94,-10.68 71.48,7.42 37.11,33.84 60.08,122.69 68.4,263.83 10.5,180.95 -9.23,347.25 -58.45,494.19 -59.16,176.61 -136.8,271.26 -197.96,241.04 -51.56,-25.52 -58.81,-193.81 -61.16,-338.21 0.01,-9.23 -5.61,-16.65 -12.31,-16.47 -6.69,0.18 -12.12,7.78 -11.95,17.19 2.17,136.98 6.33,333.87 77.27,368.97 74.92,37.09 162.31,-61.89 228.18,-258.59 29.87,-89.03 49.22,-184.94 57.91,-286.63z"/>
  <path class="fil3" d="M13673.54 15269.15c-458.35,-128.12 -922.34,358.66 -918.72,1271.04 3.62,912.2 528.75,1298.91 772.14,1236.29 243.22,-62.61 -235.24,-935.91 -110.02,-1509.71 125.23,-574 348.16,-971.92 256.6,-997.61z"/>
  <path class="fil6" d="M12985.9 14530.49c-581.23,-154.36 -1151.06,-406.61 -1611.6,-796.03 -455.82,-385.62 -832.4,-891.93 -1013.36,-1464.84 -39.26,-124.68 -63.88,-259.85 -5.43,-383.45 45.25,-96.09 149.83,-167.57 255.15,-118.35 122.69,57.54 140.6,193.44 160.87,311.61 26.42,152.72 75.09,301.11 138.43,442.44 247.37,552.46 696.87,1012.27 1231.59,1291.67 139.16,72.56 284.64,133.18 434.29,180.77 72.57,22.98 122.87,37.82 199.95,58.45 39.83,10.68 93.38,26.24 143.32,39.63 22.28,5.97 112.92,26.6 112.92,26.6 0,-0 -17.73,22.8 -18.46,30.58 -3.97,37.09 -7.77,74.01 -11.76,111.1 -8.31,79.98 -16.83,160.15 -25.15,240.31 -1.62,14.66 10.86,14.84 9.23,29.5z"/>
  <path class="fil10 str0" d="M4337.45 7142.29c3589.09,-52.92 7178.53,-71.21 10767.98,-59.51 94.87,0.31 144.38,-0.24 236.19,26.66 -8.67,328.24 -241.4,1190.5 -328.44,1572.5 -236.31,1036.04 -487.07,2135.85 -783.67,3153.71 -67.21,230.69 -199.43,731.88 -477.8,774.14 -258.63,39.27 -821.37,2.52 -1118.3,2.54 -1039.29,0.08 -2078.91,-2.03 -3118.14,1.48 -412.51,1.6 -3653.1,31.13 -3774.99,-39.78 -232.43,-219.17 -348.85,-1154.11 -426.76,-1513.53 -280.43,-1293.63 -629.02,-2583.9 -962.33,-3865.36l-13.73 -52.84z"/>
  <rect class="fil11 str1" x="3217.86" y="4934.02" width="13272.44" height="3075.49" rx="620.38" ry="668.58"/>
  <path class="fil12 str2" d="M7900.75 4548.94c-1147.63,1190.05 -2308.9,2359.15 -3465.23,3539.62 -255.54,260.87 -401.64,452.23 -809.76,346.1 -376.79,-97.99 -468.39,-442.62 -336.27,-777.63 53.93,-136.78 136.93,-196.58 239.67,-299.89 1126.66,-1132.8 2275.17,-2232.9 3452.22,-3313.18l34.67 -31.82c172.18,-157.96 298.93,-274.61 550.88,-248.19 350.6,36.77 534.3,453.55 358.98,743.42l-25.16 41.58z"/>
  <circle class="fil13 str3" cx="7422.95" cy="4285.7" r="164.31"/>
  <path class="fil14" d="M11868.09 6981.33c0,467.58 -379.07,846.61 -846.56,846.61 -467.6,-0 -846.68,-379.03 -846.68,-846.61 0.01,-467.59 379.07,-846.61 846.68,-846.61 467.5,-0.01 846.56,379.03 846.56,846.6z"/>
  <path class="fil14" d="M9082.99 6981.33c0,467.58 -378.96,846.61 -846.57,846.61 -467.61,-0 -846.57,-379.03 -846.57,-846.61 0.01,-467.59 378.96,-846.61 846.57,-846.61 467.62,-0.01 846.56,379.03 846.57,846.6z"/>
  <path class="fil15" d="M8734.26 6297.77c86.65,132.8 137.19,291.32 137.19,461.7 0,467.56 -379.07,846.62 -846.68,846.62 -186.75,-0 -359.29,-60.61 -499.27,-163.04 151.09,231.66 412.28,384.91 709.47,384.91 467.61,-0 846.68,-379.03 846.68,-846.61 0,-280.82 -136.88,-529.56 -347.39,-683.57z"/>
  <path class="fil15" d="M11519.36 6297.77c86.65,132.8 137.09,291.32 137.09,461.7 0.01,467.56 -378.95,846.62 -846.56,846.62 -186.76,-0 -359.29,-60.61 -499.28,-163.04 150.99,231.66 412.28,384.91 709.47,384.91 467.51,-0 846.57,-379.03 846.57,-846.61 0,-280.82 -136.76,-529.56 -347.29,-683.57z"/>
  <path class="fil16" d="M8236.43 6173.61c-445.4,0 -807.7,362.34 -807.7,807.73 0,445.38 362.29,807.72 807.68,807.72 445.39,-0 807.68,-362.35 807.68,-807.72 0.01,-445.4 -362.29,-807.73 -807.67,-807.73zm0 1693.22c-488.28,0 -885.46,-397.22 -885.46,-885.49 0.01,-488.29 397.17,-885.5 885.45,-885.5 488.28,-0 885.45,397.22 885.45,885.5 0.01,488.26 -397.17,885.49 -885.43,885.49z"/>
  <path class="fil16" d="M8713.15 6981.33c0,263.25 -213.42,476.69 -476.73,476.69 -263.29,0 -476.72,-213.43 -476.72,-476.69 0,-263.27 213.42,-476.69 476.72,-476.69 263.31,-0.01 476.72,213.42 476.73,476.68z"/>
  <path class="fil14" d="M8314.41 6894.82c0,107.73 -87.32,195.08 -195.09,195.08 -107.65,-0.01 -195.08,-87.35 -195.08,-195.07 0.01,-107.75 87.43,-195.09 195.08,-195.09 107.78,-0.01 195.09,87.35 195.09,195.08z"/>
  <path class="fil16" d="M11498.14 6981.33c0,263.25 -213.42,476.69 -476.61,476.69 -263.3,0 -476.72,-213.43 -476.72,-476.69 0.01,-263.27 213.42,-476.69 476.72,-476.69 263.19,-0.01 476.61,213.42 476.61,476.68z"/>
  <path class="fil14" d="M11099.52 6894.82c0,107.73 -87.32,195.08 -195.09,195.08 -107.76,-0.01 -195.09,-87.35 -195.09,-195.07 0,-107.75 87.33,-195.09 195.09,-195.09 107.77,-0.01 195.09,87.35 195.09,195.08z"/>
  <path class="fil16" d="M11021.53 6173.61c-445.38,0 -807.8,362.34 -807.8,807.73 0.01,445.38 362.4,807.72 807.79,807.72 445.4,-0 807.68,-362.35 807.68,-807.72 0,-445.4 -362.29,-807.73 -807.67,-807.73zm0 1693.22c-488.28,0 -885.56,-397.22 -885.56,-885.49 0.01,-488.29 397.28,-885.5 885.56,-885.5 488.17,-0 885.45,397.22 885.45,885.5 0,488.26 -397.29,885.49 -885.44,885.49z"/>
  <path class="fil16" d="M7381.05 5959.44c122.43,204.94 280.47,-130.23 724.97,-198.67 370.56,-57.06 576.95,179.86 655.06,22.47 77.99,-157.4 -189.5,-411.37 -732.01,-360.65 -403.81,37.72 -790.23,298.93 -648.03,536.85z"/>
  <path class="fil16" d="M11834.09 5917.75c-127.29,202.38 -277.77,-136.81 -721.23,-215.53 -369.79,-65.65 -581.96,166.83 -656.41,7.46 -74.57,-159.38 199.15,-407.52 741.15,-344.29 403.38,47.04 784.36,317.43 636.5,552.36z"/>
  <path class="fil17" d="M7398.13 9188.97c0,0 466.67,533.72 1734.74,758.75 1635.47,290.2 2476.14,-923.11 2476.14,-923.11 0.01,-0.01 -233.99,2195.24 -1801.2,2291.19 -1502.05,91.98 -1593.09,-900.96 -2409.67,-2126.83z"/>
  <path class="fil18" d="M9647.12 10057.95c-100.46,2.59 -205.48,1.2 -315.39,-4.84 -1758.16,-96.35 -2068.6,-1020.83 -2080.96,-1060.14l166.89 -48.46c0.7,2.1 72.25,214.73 341.36,435.4 250.71,205.56 728.9,460.43 1583.13,507.26 1641.02,90.04 2154.32,-887.88 2159.28,-897.75l157.06 71.88c-5.75,11.35 -144.78,280.96 -503.74,538.13 -287.93,206.37 -773.13,439.51 -1507.63,458.51z"/>
  <path class="fil18" d="M11256.11 8867.47c89.86,-19.64 182.11,-8.55 268.3,16.51 86.35,25.55 167.91,67.93 237.82,124.08 70.07,55.69 130.4,123.79 170.94,201.5 22.19,37.62 36.39,79.26 48.85,120.3 6.7,20.22 9.25,42.12 11.97,63.59 2.4,21.48 4.47,42.81 4.15,64.48 -35.75,-29.36 -61.61,-60.84 -91.61,-89.09 -29.84,-28.14 -55.39,-57.41 -84.92,-83.11 -54.74,-54.48 -112.36,-102.66 -170.78,-149.68 -58.57,-47.2 -120.19,-91.34 -185.63,-134.48 -65.44,-43.91 -133.44,-86.03 -209.09,-134.08z"/>
  <path class="fil18" d="M7050.25 9225.67c-6.12,-72.27 21,-140.57 59.22,-199.45 39.19,-58.9 92.39,-109.53 153.8,-147.4 31.49,-17.46 62.92,-35.72 97.39,-46.84 17.19,-5.68 33.9,-12.28 51.41,-16.62 17.56,-4.09 35.31,-7.42 53.01,-10.37 17.55,-3.42 35.45,-5.15 53.57,-5.27 17.97,-0.61 35.96,-0.46 53.77,0.11 17.87,0.76 35.98,4.12 53.83,7.69 17.85,3.61 35.48,7.66 53.06,13.93 -29.58,23.96 -58.85,40.4 -86.94,57.77 -13.93,8.95 -27.68,17.48 -41.43,25.25 -6.8,4.1 -13.74,7.62 -20.59,11.29 -6.61,4.2 -13.09,8.62 -19.76,12.4 -13.18,7.97 -26.3,15.58 -39.62,22.43 -12.72,8.04 -25.48,15.59 -38.2,23.09 -6.27,3.88 -12.88,7.09 -19.33,10.59l-18.4 11.83c-12.4,7.6 -25.37,14.33 -37.45,22.23 -49.32,30.33 -97.33,61.68 -147.15,95.39 -50.24,33.93 -100.83,69.21 -160.21,111.97z"/>
  <polygon class="fil19" points="8610.89,11014.55 8610.89,11014.56 8610.89,11014.55 "/>
  <path class="fil19" d="M8620.78 11005.88l0 16.42c-3.3,-2.57 -6.6,-5.14 -9.88,-7.74l0 -0.01c3.06,-2.7 6.4,-5.62 9.88,-8.66z"/>
  <path class="fil20" d="M8630.66 10997.33l0 32.59c-3.3,-2.53 -6.6,-5.06 -9.88,-7.62l0 -16.42c3.14,-2.74 6.41,-5.56 9.88,-8.56z"/>
  <path class="fil21" d="M8640.55 10988.87l0 48.54c-3.31,-2.48 -6.6,-4.99 -9.89,-7.49l0 -32.59 9.89 -8.45z"/>
  <path class="fil22" d="M8650.43 10980.52l0 64.26c-3.31,-2.44 -6.6,-4.9 -9.88,-7.37l0 -48.54 9.88 -8.36z"/>
  <path class="fil23" d="M8660.32 10972.24l0 79.72c-3.3,-2.39 -6.61,-4.77 -9.88,-7.18l0 -64.26 9.88 -8.27z"/>
  <path class="fil24" d="M8670.2 10964.06l0 94.96c-3.3,-2.34 -6.6,-4.7 -9.88,-7.06l0 -79.72 9.88 -8.18z"/>
  <path class="fil25" d="M8680.09 10955.95l0 110.01c-3.3,-2.3 -6.6,-4.62 -9.88,-6.94l0 -94.96 9.88 -8.11z"/>
  <path class="fil26" d="M8689.97 10947.93l0 124.84c-3.31,-2.25 -6.6,-4.53 -9.89,-6.81l0 -110.01 9.89 -8.02z"/>
  <path class="fil27" d="M8699.86 10939.98l0 139.45c-3.3,-2.21 -6.61,-4.42 -9.88,-6.66l0 -124.84c3.24,-2.61 6.52,-5.27 9.88,-7.96z"/>
  <path class="fil28" d="M8709.73 10932.11l0 153.85c-3.3,-2.17 -6.6,-4.34 -9.88,-6.54l0 -139.45 9.88 -7.86z"/>
  <path class="fil29" d="M8719.62 10924.31l0 168.09c-3.31,-2.13 -6.6,-4.28 -9.89,-6.44l0 -153.85 9.89 -7.8z"/>
  <path class="fil30" d="M8729.5 10916.59l0 182.08c-3.3,-2.08 -6.6,-4.16 -9.88,-6.27l0 -168.09 9.88 -7.72z"/>
  <path class="fil31" d="M8739.39 10908.92l0 195.91c-3.31,-2.04 -6.61,-4.09 -9.88,-6.16l0 -182.08 9.88 -7.67z"/>
  <path class="fil32" d="M8749.27 10901.32l0 209.57c-3.31,-2 -6.6,-4.04 -9.88,-6.06l0 -195.91 9.88 -7.6z"/>
  <path class="fil33" d="M8759.16 10893.8l0 223c-3.3,-1.96 -6.6,-3.93 -9.88,-5.91l0 -209.57 9.88 -7.52z"/>
  <path class="fil34" d="M8769.04 10886.33l0 236.26c-3.3,-1.92 -6.6,-3.85 -9.88,-5.79l0 -223 9.88 -7.47z"/>
  <path class="fil35" d="M8778.93 10878.92l0 249.38c-3.31,-1.88 -6.6,-3.8 -9.89,-5.7l0 -236.26 9.89 -7.42z"/>
  <path class="fil36" d="M8788.81 10871.6l0 262.27c-3.31,-1.84 -6.6,-3.7 -9.88,-5.57l0 -249.38c3.24,-2.42 6.57,-4.87 9.88,-7.32z"/>
  <path class="fil37" d="M8798.7 10864.32l0 275c-3.3,-1.81 -6.61,-3.62 -9.88,-5.45l0 -262.27 9.88 -7.28z"/>
  <path class="fil38" d="M8808.58 10857.09l0 287.59c-3.31,-1.78 -6.6,-3.57 -9.88,-5.37l0 -275 9.88 -7.23z"/>
  <path class="fil39" d="M8818.47 10849.96l0 299.96c-3.3,-1.73 -6.6,-3.48 -9.88,-5.23l0 -287.59 9.88 -7.13z"/>
  <path class="fil40" d="M8828.35 10842.86l0 312.17c-3.3,-1.7 -6.6,-3.4 -9.89,-5.12l0 -299.96 9.89 -7.1z"/>
  <path class="fil41" d="M8838.23 10835.83l0 324.24c-3.31,-1.66 -6.59,-3.35 -9.88,-5.04l0 -312.17 9.88 -7.03z"/>
  <path class="fil42" d="M8848.11 10828.86l0 336.12c-3.3,-1.62 -6.6,-3.25 -9.88,-4.9l0 -324.24 9.88 -6.97z"/>
  <path class="fil43" d="M8858 10821.93l0 347.86c-3.31,-1.59 -6.61,-3.2 -9.89,-4.81l0 -336.12c3.29,-2.31 6.55,-4.61 9.89,-6.94z"/>
  <path class="fil44" d="M8867.88 10815.09l0 359.44c-3.31,-1.56 -6.59,-3.16 -9.88,-4.75l0 -347.86c3.25,-2.27 6.58,-4.56 9.88,-6.84z"/>
  <path class="fil45" d="M8877.77 10808.28l0 370.83c-3.3,-1.52 -6.61,-3.04 -9.88,-4.58l0 -359.44 9.88 -6.81z"/>
  <path class="fil46" d="M8887.65 10801.55l0 382.09c-3.31,-1.49 -6.6,-3 -9.88,-4.52l0 -370.83 9.88 -6.74z"/>
  <path class="fil47" d="M8897.54 10794.86l0 393.2c-3.3,-1.46 -6.6,-2.94 -9.88,-4.43l0 -382.09 9.88 -6.69z"/>
  <path class="fil48" d="M8907.43 10788.22l0 404.14c-3.3,-1.42 -6.61,-2.85 -9.89,-4.3l0 -393.2 9.89 -6.63z"/>
  <path class="fil49" d="M8917.31 10781.66l0 414.94c-3.31,-1.4 -6.6,-2.82 -9.88,-4.24l0 -404.14c3.27,-2.18 6.57,-4.37 9.88,-6.56z"/>
  <path class="fil50" d="M8927.19 10775.13l0 425.6c-3.3,-1.37 -6.61,-2.73 -9.88,-4.12l0 -414.94c3.29,-2.18 6.56,-4.35 9.88,-6.53z"/>
  <path class="fil51" d="M8937.08 10768.68l0 436.08c-3.3,-1.33 -6.6,-2.68 -9.88,-4.04l0 -425.6 9.88 -6.45z"/>
  <path class="fil52" d="M8946.97 10762.26l0 446.48c-3.31,-1.31 -6.6,-2.64 -9.89,-3.97l0 -436.08 9.89 -6.42z"/>
  <path class="fil53" d="M8956.85 10755.93l0 456.65c-3.3,-1.27 -6.61,-2.54 -9.88,-3.84l0 -446.48 9.88 -6.33z"/>
  <path class="fil54" d="M8966.72 10749.61l0 466.74c-3.31,-1.25 -6.59,-2.52 -9.87,-3.79l0 -456.65c3.29,-2.1 6.55,-4.2 9.87,-6.31z"/>
  <path class="fil55" d="M8976.61 10743.4l0 476.64c-3.3,-1.22 -6.6,-2.44 -9.88,-3.68l0 -466.74c3.26,-2.07 6.59,-4.14 9.88,-6.22z"/>
  <path class="fil56" d="M8986.5 10737.19l0 486.45c-3.31,-1.19 -6.6,-2.4 -9.89,-3.6l0 -476.64 9.89 -6.21z"/>
  <path class="fil56" d="M8996.38 10731.08l0 496.08c-3.31,-1.16 -6.6,-2.35 -9.88,-3.53l0 -486.45 9.88 -6.11z"/>
  <path class="fil57" d="M9006.27 10724.98l0 505.6c-3.3,-1.13 -6.61,-2.27 -9.88,-3.42l0 -496.08c3.29,-2.03 6.56,-4.07 9.88,-6.1z"/>
  <path class="fil58" d="M9016.15 10718.98l0 514.98c-3.31,-1.11 -6.59,-2.25 -9.88,-3.38l0 -505.6 9.88 -6z"/>
  <path class="fil59" d="M9026.03 10712.99l0 524.22c-3.3,-1.08 -6.61,-2.15 -9.88,-3.25l0 -514.98 9.88 -6z"/>
  <path class="fil59" d="M9035.92 10707.09l0 533.33c-3.31,-1.06 -6.6,-2.13 -9.89,-3.21l0 -524.22 9.89 -5.89z"/>
  <path class="fil60" d="M9045.81 10701.21l0 542.32 -9.88 -3.11 0 -533.33c3.29,-1.96 6.56,-3.92 9.88,-5.88z"/>
  <polygon class="fil61" points="9055.69,10695.42 9055.69,11246.57 9045.81,11243.53 9045.81,10701.21 "/>
  <path class="fil61" d="M9065.57 10689.65l0 559.89c-3.31,-0.98 -6.6,-1.97 -9.88,-2.97l0 -551.15 9.88 -5.77z"/>
  <path class="fil62" d="M9075.46 10683.96l0 568.45c-3.3,-0.95 -6.6,-1.9 -9.88,-2.88l0 -559.89 9.88 -5.69z"/>
  <path class="fil63" d="M9085.35 10678.31l0 576.94c-3.31,-0.93 -6.6,-1.89 -9.89,-2.84l0 -568.45 9.89 -5.65z"/>
  <path class="fil64" d="M9095.22 10672.71l0 585.26c-3.3,-0.91 -6.6,-1.8 -9.88,-2.72l0 -576.94 9.88 -5.59z"/>
  <path class="fil64" d="M9105.11 10667.18l0 593.5c-3.31,-0.88 -6.59,-1.8 -9.88,-2.7l0 -585.26 9.88 -5.54z"/>
  <path class="fil65" d="M9114.99 10661.67l0 601.57c-3.29,-0.86 -6.6,-1.7 -9.88,-2.57l0 -593.5 9.88 -5.5z"/>
  <path class="fil65" d="M9124.88 10656.25l0 609.54c-3.31,-0.84 -6.59,-1.7 -9.89,-2.55l0 -601.57 9.89 -5.42z"/>
  <path class="fil65" d="M9134.76 10650.83l0 617.4c-3.3,-0.81 -6.61,-1.61 -9.88,-2.44l0 -609.54c3.3,-1.81 6.56,-3.62 9.88,-5.42z"/>
  <path class="fil66" d="M9144.65 10645.53l0 625.11c-3.31,-0.79 -6.6,-1.61 -9.88,-2.41l0 -617.4c3.27,-1.78 6.59,-3.53 9.88,-5.3z"/>
  <polygon class="fil66" points="9154.53,10640.24 9154.53,11272.96 9144.65,11270.65 9144.65,10645.53 "/>
  <polygon class="fil66" points="9164.41,10635.02 9164.41,11275.24 9154.53,11272.96 9154.53,10640.24 "/>
  <polygon class="fil67" points="9174.3,10629.85 9174.3,11277.43 9164.41,11275.24 9164.41,10635.02 "/>
  <path class="fil67" d="M9184.19 10624.72l0 654.85c-3.31,-0.7 -6.6,-1.42 -9.88,-2.14l0 -647.58 9.88 -5.13z"/>
  <polygon class="fil67" points="9194.07,10619.67 9194.07,11281.64 9184.19,11279.57 9184.19,10624.72 "/>
  <path class="fil67" d="M9203.96 10614.62l0 669.03 -9.88 -2.01 0 -661.97c3.3,-1.69 6.57,-3.37 9.88,-5.05z"/>
  <path class="fil67" d="M9213.84 10609.69l0 675.91 -9.88 -1.95 0 -669.03c3.27,-1.65 6.59,-3.29 9.88,-4.93z"/>
  <path class="fil68" d="M9223.72 10604.76l0 682.72 -9.88 -1.88 0 -675.91c3.29,-1.64 6.57,-3.29 9.88,-4.93z"/>
  <polygon class="fil68" points="9233.6,10599.92 9233.6,11289.32 9223.72,11287.48 9223.72,10604.76 "/>
  <polygon class="fil68" points="9243.49,10595.12 9243.49,11291.08 9233.6,11289.32 9233.6,10599.92 "/>
  <polygon class="fil68" points="9253.37,10590.35 9253.37,11292.8 9243.49,11291.08 9243.49,10595.12 "/>
  <path class="fil68" d="M9263.26 10585.68l0 708.78 -9.88 -1.65 0 -702.45c3.28,-1.57 6.59,-3.12 9.88,-4.67z"/>
  <path class="fil68" d="M9273.14 10581l0 715.06 -9.88 -1.6 0 -708.78c3.29,-1.56 6.57,-3.13 9.88,-4.68z"/>
  <path class="fil68" d="M9283.03 10576.44l0 721.16 -9.88 -1.54 0 -715.06c3.28,-1.53 6.59,-3.04 9.88,-4.57z"/>
  <polygon class="fil68" points="9292.91,10571.89 9292.91,11299.09 9283.03,11297.6 9283.03,10576.44 "/>
  <polygon class="fil68" points="9302.8,10567.39 9302.8,11300.53 9292.91,11299.09 9292.91,10571.89 "/>
  <path class="fil68" d="M9312.68 10562.98l0 738.92 -9.88 -1.37 0 -733.13c3.28,-1.48 6.59,-2.94 9.88,-4.41z"/>
  <path class="fil68" d="M9322.57 10558.56l0 744.68c-3.31,-0.43 -6.6,-0.89 -9.88,-1.34l0 -738.92c3.3,-1.47 6.57,-2.96 9.88,-4.42z"/>
  <path class="fil68" d="M9332.45 10554.27l0 750.24 -9.88 -1.27 0 -744.68c3.28,-1.44 6.59,-2.86 9.88,-4.3z"/>
  <polygon class="fil68" points="9342.34,10549.99 9342.34,11305.74 9332.45,11304.51 9332.45,10554.27 "/>
  <polygon class="fil68" points="9352.21,10545.75 9352.21,11306.91 9342.34,11305.74 9342.34,10549.99 "/>
  <path class="fil68" d="M9362.1 10541.62l0 766.43c-3.31,-0.37 -6.59,-0.76 -9.88,-1.14l0 -761.15c3.28,-1.39 6.59,-2.75 9.88,-4.13z"/>
  <path class="fil68" d="M9371.98 10537.48l0 771.63 -9.88 -1.06 0 -766.43c3.3,-1.38 6.58,-2.77 9.88,-4.14z"/>
  <path class="fil68" d="M9381.87 10533.44l0 776.72c-3.31,-0.34 -6.59,-0.7 -9.88,-1.06l0 -771.63c3.29,-1.36 6.59,-2.7 9.88,-4.04z"/>
  <polygon class="fil68" points="9381.87,11310.16 9381.87,10533.44 9391.75,10529.43 9391.75,11311.12 "/>
  <path class="fil68" d="M9401.64 10525.45l0 786.62c-3.31,-0.3 -6.59,-0.63 -9.88,-0.95l0 -781.69c3.29,-1.33 6.57,-2.67 9.88,-3.99z"/>
  <path class="fil67" d="M9411.52 10521.59l0 791.35 -9.88 -0.87 0 -786.62c3.28,-1.3 6.59,-2.57 9.88,-3.86z"/>
  <path class="fil69" d="M9421.41 10517.72l0 796.06 -9.88 -0.85 0 -791.35c3.29,-1.29 6.58,-2.58 9.88,-3.86z"/>
  <polygon class="fil69" points="9431.29,10513.94 9431.29,11314.58 9421.41,11313.79 9421.41,10517.72 "/>
  <polygon class="fil70" points="9441.18,10510.21 9441.18,11315.32 9431.29,11314.58 9431.29,10513.94 "/>
  <path class="fil70" d="M9451.06 10506.5l0 809.54 -9.88 -0.71 0 -805.11c3.3,-1.24 6.57,-2.5 9.88,-3.72z"/>
  <path class="fil71" d="M9460.95 10502.9l0 813.78 -9.88 -0.65 0 -809.54c3.28,-1.21 6.59,-2.4 9.88,-3.59z"/>
  <path class="fil71" d="M9470.83 10499.33l0 817.99c-3.31,-0.2 -6.59,-0.42 -9.88,-0.64l0 -813.78 9.88 -3.57z"/>
  <path class="fil72" d="M9480.71 10495.78l0 822.08 -9.88 -0.55 0 -817.99c3.29,-1.18 6.57,-2.38 9.88,-3.54z"/>
  <path class="fil73" d="M9490.59 10492.36l0 826.07c-3.31,-0.17 -6.59,-0.37 -9.88,-0.56l0 -822.08c3.28,-1.16 6.59,-2.28 9.88,-3.43z"/>
  <path class="fil73" d="M9500.48 10488.93l0 829.97 -9.88 -0.47 0 -826.07c3.29,-1.14 6.58,-2.3 9.88,-3.43z"/>
  <polygon class="fil74" points="9510.36,10485.57 9510.36,11319.35 9500.48,11318.9 9500.48,10488.93 "/>
  <polygon class="fil75" points="9520.25,10482.29 9520.25,11319.76 9510.36,11319.35 9510.36,10485.57 "/>
  <path class="fil76" d="M9530.13 10479.02l0 841.1 -9.89 -0.37 0 -837.46c3.3,-1.09 6.58,-2.2 9.89,-3.28z"/>
  <path class="fil77" d="M9540.02 10475.85l0 844.61 -9.88 -0.34 0 -841.1c3.29,-1.07 6.59,-2.11 9.88,-3.16z"/>
  <path class="fil77" d="M9549.9 10472.73l0 848c-3.3,-0.09 -6.6,-0.17 -9.88,-0.27l0 -844.61 9.88 -3.13z"/>
  <path class="fil78" d="M9559.79 10469.61l0 851.4c-3.31,-0.08 -6.59,-0.18 -9.88,-0.27l0 -848c3.29,-1.04 6.57,-2.1 9.88,-3.12z"/>
  <path class="fil78" d="M9569.67 10466.63l0 854.56c-3.29,-0.06 -6.61,-0.11 -9.88,-0.19l0 -851.4c3.29,-1.01 6.59,-1.98 9.88,-2.97z"/>
  <polygon class="fil79" points="9579.56,10463.66 9579.56,11321.38 9569.67,11321.19 9569.67,10466.63 "/>
  <path class="fil80" d="M9589.44 10460.73l0 860.78 -9.88 -0.14 0 -857.72c3.3,-0.98 6.58,-1.97 9.88,-2.93z"/>
  <path class="fil81" d="M9599.33 10457.91l0 863.69 -9.88 -0.09 0 -860.78c3.29,-0.96 6.59,-1.88 9.88,-2.82z"/>
  <path class="fil82" d="M9609.2 10455.1l0 866.59c-3.3,-0.01 -6.58,-0.06 -9.87,-0.08l0 -863.69c3.29,-0.94 6.57,-1.89 9.87,-2.81z"/>
  <polygon class="fil83" points="9619.09,10452.36 9619.09,11321.69 9609.2,11321.68 9609.2,10455.1 "/>
  <path class="fil84" d="M9628.97 10449.69l0 872 -9.88 -0.01 0 -869.33c3.29,-0.9 6.59,-1.78 9.88,-2.66z"/>
  <path class="fil84" d="M9638.86 10447.04l0 874.6 -9.88 0.06 0 -872c3.3,-0.88 6.58,-1.79 9.88,-2.65z"/>
  <path class="fil85" d="M9648.75 10444.49l0 877.07 -9.89 0.08 0 -874.6c3.29,-0.87 6.59,-1.71 9.89,-2.55z"/>
  <polygon class="fil86" points="9658.62,10441.99 9658.62,11321.46 9648.75,11321.56 9648.75,10444.49 "/>
  <path class="fil86" d="M9668.51 10439.49l0 881.8 -9.89 0.16 0 -879.47c3.29,-0.83 6.58,-1.69 9.89,-2.5z"/>
  <path class="fil87" d="M9678.4 10437.13l0 883.99 -9.88 0.17 0 -881.8c3.29,-0.81 6.59,-1.57 9.88,-2.36z"/>
  <path class="fil88" d="M9688.28 10434.81l0 886.1 -9.88 0.23 0 -883.99c3.29,-0.79 6.59,-1.56 9.88,-2.33z"/>
  <path class="fil89" d="M9698.17 10432.48l0 888.18 -9.89 0.25 0 -886.1c3.3,-0.77 6.58,-1.58 9.89,-2.33z"/>
  <path class="fil89" d="M9708.05 10430.31l0 890.07 -9.88 0.27 0 -888.18c3.28,-0.75 6.59,-1.44 9.88,-2.17z"/>
  <polygon class="fil90" points="9717.94,10428.14 9717.94,11320.05 9708.05,11320.38 9708.05,10430.31 "/>
  <path class="fil91" d="M9727.82 10426l0 893.72 -9.88 0.33 0 -891.91c3.3,-0.71 6.58,-1.45 9.88,-2.14z"/>
  <path class="fil91" d="M9737.7 10424l0 895.33 -9.88 0.38 0 -893.72c3.29,-0.69 6.59,-1.32 9.88,-1.99z"/>
  <path class="fil92" d="M9747.59 10422.01l0 896.92 -9.88 0.41 0 -895.33c3.29,-0.67 6.59,-1.34 9.88,-1.99z"/>
  <path class="fil92" d="M9757.47 10420.05l0 898.46 -9.88 0.42 0 -896.92c3.29,-0.65 6.58,-1.33 9.88,-1.96z"/>
  <path class="fil93" d="M9767.35 10418.22l0 899.79 -9.88 0.49 0 -898.46c3.29,-0.63 6.59,-1.21 9.88,-1.82z"/>
  <path class="fil94" d="M9777.24 10416.4l0 901.13 -9.88 0.49 0 -899.79c3.29,-0.62 6.58,-1.23 9.88,-1.83z"/>
  <path class="fil95" d="M9787.13 10414.63l0 902.36 -9.89 0.53 0 -901.13c3.3,-0.59 6.58,-1.19 9.89,-1.77z"/>
  <path class="fil96" d="M9797.01 10412.98l0 903.44 -9.88 0.57 0 -902.36c3.29,-0.57 6.59,-1.1 9.88,-1.65z"/>
  <path class="fil96" d="M9806.89 10411.34l0 904.53c-3.31,0.2 -6.59,0.37 -9.88,0.56l0 -903.44c3.3,-0.55 6.58,-1.11 9.88,-1.65z"/>
  <path class="fil97" d="M9816.78 10409.76l0 905.41c-3,0.2 -5.96,0.44 -8.97,0.63l-0.91 0.06 0 -904.53c3.29,-0.53 6.59,-1.06 9.88,-1.57z"/>
  <path class="fil97" d="M9826.66 10408.29l0 906.19 -9.88 0.69 0 -905.41c3.29,-0.51 6.59,-0.98 9.88,-1.47z"/>
  <path class="fil98" d="M9836.55 10406.82l0 906.96c-3.28,0.26 -6.6,0.46 -9.89,0.7l0 -906.19c3.29,-0.49 6.58,-1 9.89,-1.47z"/>
  <path class="fil99" d="M9846.43 10405.44l0 907.51c-3.3,0.28 -6.58,0.58 -9.88,0.85l0 -906.96 9.88 -1.39z"/>
  <path class="fil99" d="M9856.32 10404.15l0 907.92 -9.88 0.87 0 -907.51c3.29,-0.45 6.59,-0.86 9.88,-1.29z"/>
  <path class="fil100" d="M9866.19 10402.86l0 908.34c-3.28,0.32 -6.59,0.57 -9.88,0.87l0 -907.92c3.29,-0.43 6.58,-0.88 9.88,-1.29z"/>
  <path class="fil100" d="M9876.08 10401.66l0 908.51c-3.3,0.34 -6.58,0.7 -9.89,1.03l0 -908.34c3.29,-0.41 6.59,-0.81 9.89,-1.19z"/>
  <path class="fil101" d="M9885.97 10400.56l0 908.55 -9.88 1.06 0 -908.51c3.29,-0.39 6.59,-0.74 9.88,-1.1z"/>
  <path class="fil102" d="M9895.85 10399.46l0 908.6c-3.28,0.37 -6.59,0.7 -9.88,1.06l0 -908.55c3.29,-0.37 6.58,-0.76 9.88,-1.1z"/>
  <path class="fil102" d="M9905.73 10398.41l0 908.43c-3.3,0.4 -6.57,0.83 -9.88,1.21l0 -908.6c1.51,-0.16 3.01,-0.36 4.52,-0.51l5.37 -0.53z"/>
  <polygon class="fil103" points="9915.62,10397.43 9915.62,11305.61 9905.73,11306.85 9905.73,10398.41 "/>
  <path class="fil103" d="M9925.51 10396.46l0 907.93c-3.28,0.44 -6.6,0.81 -9.89,1.23l0 -908.18 9.89 -0.98z"/>
  <path class="fil104" d="M9935.39 10395.53l0 907.44c-3.3,0.46 -6.57,0.97 -9.88,1.41l0 -907.93 9.88 -0.93z"/>
  <polygon class="fil105" points="9945.27,10394.6 9945.27,11301.55 9935.39,11302.97 9935.39,10395.53 "/>
  <path class="fil106" d="M9955.16 10393.7l0 906.43c-3.28,0.5 -6.6,0.95 -9.88,1.42l0 -906.95 9.88 -0.9z"/>
  <path class="fil107" d="M9965.04 10392.84l0 905.69c-3.3,0.52 -6.57,1.1 -9.88,1.6l0 -906.43 9.88 -0.86z"/>
  <path class="fil108" d="M9974.93 10391.97l0 904.95c-3.29,0.55 -6.59,1.07 -9.89,1.6l0 -905.69 9.89 -0.86z"/>
  <path class="fil109" d="M9984.82 10391.15l0 904.14c-3.28,0.57 -6.59,1.09 -9.88,1.64l0 -904.95 9.88 -0.83z"/>
  <path class="fil109" d="M9994.7 10390.34l0 903.16c-3.3,0.59 -6.57,1.21 -9.88,1.79l0 -904.14 9.88 -0.8z"/>
  <path class="fil110" d="M10004.57 10389.54l0 902.18c-3.29,0.61 -6.58,1.2 -9.88,1.79l0 -903.16 9.88 -0.8z"/>
  <path class="fil111" d="M10014.46 10388.79l0 901.07c-3.29,0.63 -6.59,1.24 -9.89,1.85l0 -902.18 9.89 -0.75z"/>
  <path class="fil111" d="M10024.35 10388.04l0 899.85c-3.3,0.65 -6.58,1.34 -9.88,1.97l0 -901.07 9.88 -0.75z"/>
  <path class="fil112" d="M10034.23 10387.32l0 898.59c-3.29,0.68 -6.59,1.32 -9.88,1.98l0 -899.85 9.88 -0.72z"/>
  <path class="fil113" d="M10044.11 10386.63l0 897.21c-3.29,0.7 -6.58,1.4 -9.88,2.08l0 -898.59 9.88 -0.69z"/>
  <path class="fil114" d="M10054 10385.93l0 895.74c-3.29,0.72 -6.58,1.46 -9.88,2.17l0 -897.21 9.88 -0.7z"/>
  <path class="fil114" d="M10063.88 10385.29l0 894.2c-3.28,0.75 -6.59,1.44 -9.89,2.17l0 -895.74 9.89 -0.64z"/>
  <path class="fil115" d="M10073.77 10384.66l0 892.53c-3.29,0.77 -6.58,1.56 -9.88,2.31l0 -894.2 9.88 -0.64z"/>
  <polygon class="fil116" points="10083.65,10384.04 10083.65,11274.83 10073.77,11277.19 10073.77,10384.66 "/>
  <path class="fil117" d="M10093.54 10383.45l0 889.02c-3.28,0.82 -6.59,1.56 -9.88,2.36l0 -890.79 9.88 -0.59z"/>
  <path class="fil118" d="M10103.42 10382.87l0 887.06c-3.3,0.84 -6.57,1.73 -9.88,2.55l0 -889.02 9.88 -0.58z"/>
  <path class="fil119" d="M10113.31 10382.33l0 885.04c-3.29,0.86 -6.58,1.71 -9.89,2.56l0 -887.06 9.89 -0.54z"/>
  <path class="fil120" d="M10123.19 10381.8l0 882.96c-3.29,0.89 -6.59,1.74 -9.88,2.61l0 -885.04 9.88 -0.53z"/>
  <path class="fil120" d="M10133.07 10381.29l0 880.73c-3.29,0.91 -6.57,1.85 -9.88,2.74l0 -882.96 9.88 -0.51z"/>
  <path class="fil121" d="M10142.95 10380.8l0 878.46c-3.28,0.94 -6.59,1.83 -9.88,2.75l0 -880.73 9.88 -0.48z"/>
  <polygon class="fil122" points="10152.84,10380.32 10152.84,11256.4 10142.95,11259.27 10142.95,10380.8 "/>
  <path class="fil122" d="M10162.72 10379.89l0 873.56c-3.29,0.99 -6.58,1.98 -9.88,2.95l0 -876.08 9.88 -0.43z"/>
  <path class="fil123" d="M10172.61 10379.46l0 871.05c-3.28,1.01 -6.59,1.95 -9.88,2.95l0 -873.56 9.88 -0.43z"/>
  <path class="fil123" d="M10182.5 10379.05l0 868.32c-3.3,1.04 -6.58,2.12 -9.89,3.14l0 -871.05 9.89 -0.41z"/>
  <path class="fil124" d="M10192.38 10378.67l0 865.55c-3.28,1.07 -6.58,2.1 -9.88,3.15l0 -868.32 9.88 -0.38z"/>
  <path class="fil125" d="M10202.26 10378.29l0 862.73c-3.29,1.09 -6.59,2.14 -9.89,3.21l0 -865.55 9.89 -0.38z"/>
  <path class="fil126" d="M10212.15 10377.96l0 859.71c-3.29,1.11 -6.57,2.25 -9.88,3.35l0 -862.73 9.88 -0.33z"/>
  <path class="fil127" d="M10222.03 10377.63l0 856.69c-3.28,1.13 -6.59,2.23 -9.88,3.35l0 -859.71 9.88 -0.33z"/>
  <path class="fil127" d="M10231.92 10377.32l0 853.5c-3.29,1.16 -6.58,2.35 -9.89,3.5l0 -856.69 9.89 -0.31z"/>
  <path class="fil128" d="M10241.8 10377.04l0 850.23c-3.29,1.19 -6.58,2.38 -9.88,3.55l0 -853.5 9.88 -0.28z"/>
  <path class="fil128" d="M10251.69 10376.77l0 846.92c-3.28,1.22 -6.59,2.39 -9.89,3.59l0 -850.23 9.89 -0.28z"/>
  <path class="fil129" d="M10261.56 10376.53l0 843.4c-3.29,1.25 -6.57,2.52 -9.88,3.75l0 -846.92 9.88 -0.23z"/>
  <path class="fil130" d="M10271.45 10376.3l0 839.87c-3.28,1.27 -6.59,2.51 -9.89,3.76l0 -843.4 9.89 -0.23z"/>
  <path class="fil130" d="M10281.34 10376.1l0 836.19c-3.29,1.3 -6.58,2.6 -9.88,3.89l0 -839.87 9.88 -0.21z"/>
  <path class="fil131" d="M10291.22 10375.92l0 832.4c-3.29,1.33 -6.58,2.65 -9.88,3.96l0 -836.19 9.88 -0.18z"/>
  <path class="fil131" d="M10301.1 10375.74l0 828.59c-3.28,1.35 -6.59,2.66 -9.88,3.99l0 -832.4 9.88 -0.18z"/>
  <path class="fil132" d="M10310.99 10375.6l0 824.56c-3.3,1.39 -6.57,2.81 -9.88,4.17l0 -828.59 9.88 -0.14z"/>
  <path class="fil133" d="M10320.88 10375.47l0 820.52c-3.28,1.41 -6.59,2.78 -9.89,4.17l0 -824.56 9.89 -0.14z"/>
  <path class="fil133" d="M10330.76 10375.37l0 816.3c-3.29,1.44 -6.58,2.89 -9.88,4.32l0 -820.52 9.88 -0.1z"/>
  <path class="fil134" d="M10340.64 10375.28l0 812.01c-3.29,1.47 -6.58,2.93 -9.88,4.38l0 -816.3 9.88 -0.09z"/>
  <path class="fil134" d="M10350.53 10375.21l0 807.65c-3.28,1.5 -6.59,2.95 -9.88,4.43l0 -812.01 9.88 -0.07z"/>
  <path class="fil135" d="M10360.41 10375.16l0 803.09c-3.29,1.53 -6.57,3.09 -9.88,4.6l0 -807.65 9.88 -0.05z"/>
  <path class="fil136" d="M10370.3 10375.12l0 798.54c-3.28,1.56 -6.59,3.06 -9.89,4.6l0 -803.09 9.89 -0.04z"/>
  <path class="fil137" d="M10380.19 10375.12l0 793.76c-3.29,1.59 -6.57,3.21 -9.88,4.78l0 -798.54 9.88 0z"/>
  <path class="fil138" d="M10390.06 10375.12l0 788.95c-3.28,1.62 -6.57,3.22 -9.87,4.81l0 -793.76 9.87 0z"/>
  <path class="fil139" d="M10399.94 10375.15l0 784.01c-3.29,1.65 -6.58,3.28 -9.88,4.91l0 -788.95 9.88 0.03z"/>
  <path class="fil140" d="M10409.83 10375.2l0 778.93c-3.29,1.69 -6.58,3.37 -9.89,5.03l0 -784.01 9.89 0.05z"/>
  <path class="fil140" d="M10419.72 10375.26l0 773.81c-3.28,1.71 -6.59,3.37 -9.88,5.05l0 -778.93 9.88 0.06z"/>
  <path class="fil141" d="M10429.6 10375.35l0 768.47c-3.3,1.75 -6.57,3.52 -9.88,5.25l0 -773.81 9.88 0.09z"/>
  <path class="fil142" d="M10439.48 10375.45l0 763.12c-3.28,1.77 -6.59,3.5 -9.88,5.25l0 -768.47 9.88 0.1z"/>
  <path class="fil143" d="M10449.37 10375.57l0 757.57c-3.29,1.81 -6.58,3.63 -9.88,5.43l0 -763.12 9.88 0.13z"/>
  <path class="fil144" d="M10459.26 10375.71l0 751.96c-3.29,1.84 -6.58,3.66 -9.89,5.47l0 -757.57 9.89 0.13z"/>
  <path class="fil145" d="M10469.14 10375.87l0 746.21c-3.29,1.87 -6.58,3.73 -9.88,5.58l0 -751.96 9.88 0.17z"/>
  <path class="fil146" d="M10479.03 10376.05l0 740.33c-3.29,1.91 -6.58,3.81 -9.88,5.7l0 -746.21 9.88 0.18z"/>
  <path class="fil146" d="M10488.91 10376.25l0 734.39c-3.28,1.94 -6.58,3.84 -9.88,5.75l0 -740.33 9.88 0.2z"/>
  <path class="fil147" d="M10498.79 10376.46l0 728.25c-3.29,1.98 -6.57,3.97 -9.88,5.93l0 -734.39 9.88 0.21z"/>
  <path class="fil148" d="M10508.68 10376.7l0 722.09c-3.28,2 -6.59,3.95 -9.89,5.93l0 -728.25 9.89 0.24z"/>
  <path class="fil148" d="M10518.56 10376.96l0 715.68c-3.29,2.05 -6.56,4.12 -9.88,6.15l0 -722.09 9.88 0.26z"/>
  <path class="fil149" d="M10528.44 10377.22l0 709.26c-3.28,2.07 -6.59,4.11 -9.88,6.16l0 -715.68 9.88 0.26z"/>
  <path class="fil150" d="M10538.32 10377.52l0 702.63c-3.29,2.12 -6.57,4.24 -9.88,6.33l0 -709.26 9.88 0.3z"/>
  <path class="fil151" d="M10548.21 10377.81l0 695.94c-3.28,2.15 -6.58,4.27 -9.89,6.39l0 -702.63 9.89 0.3z"/>
  <path class="fil152" d="M10558.1 10378.15l0 689.08c-3.29,2.18 -6.57,4.37 -9.88,6.53l0 -695.94 9.88 0.34z"/>
  <path class="fil153" d="M10567.98 10378.49l0 682.12c-3.29,2.22 -6.58,4.43 -9.88,6.62l0 -689.08 9.88 0.34z"/>
  <path class="fil154" d="M10577.87 10378.86l0 675.02c-3.28,2.26 -6.58,4.5 -9.88,6.73l0 -682.12 9.88 0.37z"/>
  <path class="fil154" d="M10587.75 10379.24l0 667.78c-3.29,2.3 -6.58,4.59 -9.88,6.86l0 -675.02 9.88 0.38z"/>
  <path class="fil155" d="M10597.64 10379.64l0 660.44c-3.28,2.33 -6.58,4.63 -9.89,6.94l0 -667.78 9.89 0.4z"/>
  <path class="fil155" d="M10607.52 10380.06l0 652.93c-3.29,2.37 -6.57,4.74 -9.88,7.09l0 -660.44 9.88 0.42z"/>
  <path class="fil156" d="M10617.41 10380.5l0 645.33c-3.28,2.4 -6.59,4.77 -9.88,7.16l0 -652.93 9.88 0.44z"/>
  <path class="fil157" d="M10627.29 10380.95l0 637.54c-3.29,2.45 -6.57,4.91 -9.88,7.34l0 -645.33 9.88 0.45z"/>
  <path class="fil158" d="M10637.17 10381.43l0 629.68c-3.28,2.48 -6.58,4.92 -9.88,7.38l0 -637.54 9.88 0.48z"/>
  <path class="fil159" d="M10647.05 10381.93l0 621.6c-3.29,2.53 -6.57,5.08 -9.88,7.58l0 -629.68 9.88 0.5z"/>
  <path class="fil159" d="M10656.94 10382.44l0 613.47c-3.28,2.56 -6.59,5.08 -9.88,7.62l0 -621.6 9.88 0.51z"/>
  <path class="fil160" d="M10666.82 10382.97l0 605.12c-3.29,2.61 -6.57,5.24 -9.88,7.83l0 -613.47 9.88 0.53z"/>
  <path class="fil161" d="M10676.71 10383.52l0 596.7c-3.28,2.64 -6.59,5.25 -9.89,7.87l0 -605.12 9.89 0.55z"/>
  <path class="fil161" d="M10686.59 10384.09l0 588.06c-3.29,2.7 -6.57,5.41 -9.88,8.08l0 -596.7 9.88 0.57z"/>
  <path class="fil162" d="M10696.48 10384.67l0 579.36c-3.28,2.72 -6.59,5.42 -9.88,8.12l0 -588.06 9.88 0.58z"/>
  <path class="fil162" d="M10706.36 10385.28l0 570.42c-3.29,2.78 -6.57,5.57 -9.88,8.33l0 -579.36 9.88 0.61z"/>
  <path class="fil163" d="M10716.25 10385.89l0 561.42c-3.28,2.81 -6.59,5.6 -9.88,8.39l0 -570.42 9.88 0.62z"/>
  <path class="fil163" d="M10726.13 10386.54l0 552.19c-3.29,2.87 -6.57,5.74 -9.89,8.58l0 -561.42 9.89 0.64z"/>
  <path class="fil164" d="M10736.02 10387.2l0 542.89c-3.28,2.9 -6.58,5.77 -9.88,8.65l0 -552.19 9.88 0.66z"/>
  <path class="fil165" d="M10745.9 10387.87l0 533.36c-3.29,2.95 -6.57,5.91 -9.88,8.85l0 -542.89 9.88 0.68z"/>
  <path class="fil165" d="M10755.79 10388.57l0 523.72c-3.28,3 -6.58,5.97 -9.88,8.95l0 -533.36 9.88 0.7z"/>
  <path class="fil166" d="M10765.67 10389.29l0 513.9c-3.28,3.04 -6.58,6.08 -9.88,9.1l0 -523.72 9.88 0.72z"/>
  <path class="fil166" d="M10775.55 10390.02l0 503.94c-3.28,3.09 -6.57,6.16 -9.88,9.22l0 -513.9 9.88 0.73z"/>
  <path class="fil167" d="M10785.43 10390.76l0 493.84c-3.28,3.13 -6.57,6.25 -9.88,9.36l0 -503.94 9.88 0.74z"/>
  <path class="fil168" d="M10795.32 10391.54l0 483.52c-3.29,3.19 -6.57,6.37 -9.88,9.54l0 -493.84 9.88 0.78z"/>
  <path class="fil169" d="M10805.2 10392.33l0 473.1c-3.28,3.23 -6.58,6.43 -9.88,9.63l0 -483.52 9.88 0.78z"/>
  <path class="fil170" d="M10815.09 10393.14l0 462.43c-3.29,3.29 -6.57,6.59 -9.89,9.86l0 -473.1 9.89 0.81z"/>
  <path class="fil171" d="M10824.97 10393.96l0 451.71c-3.27,3.32 -6.58,6.61 -9.88,9.91l0 -462.43 9.88 0.82z"/>
  <path class="fil172" d="M10834.86 10394.81l0 440.68c-3.29,3.39 -6.57,6.8 -9.88,10.17l0 -451.71 9.88 0.85z"/>
  <path class="fil172" d="M10844.74 10395.67l0 429.57c-3.28,3.43 -6.58,6.84 -9.88,10.25l0 -440.68 9.88 0.87z"/>
  <path class="fil173" d="M10854.63 10396.56l0 418.24c-3.28,3.49 -6.57,6.97 -9.88,10.45l0 -429.57 9.88 0.88z"/>
  <path class="fil174" d="M10864.51 10397.46l0 406.74c-3.28,3.54 -6.58,7.07 -9.89,10.59l0 -418.24 9.89 0.9z"/>
  <path class="fil174" d="M10874.4 10398.37l0 395.1c-3.28,3.59 -6.58,7.16 -9.88,10.72l0 -406.74 9.88 0.92z"/>
  <path class="fil175" d="M10884.28 10399.32l0 383.21c-3.29,3.65 -6.57,7.31 -9.88,10.95l0 -395.1 9.88 0.95z"/>
  <path class="fil176" d="M10894.17 10400.28l0 371.21c-3.27,3.7 -6.58,7.37 -9.88,11.05l0 -383.21 9.88 0.96z"/>
  <path class="fil177" d="M10904.04 10401.25l0 358.95c-3.29,3.77 -6.56,7.54 -9.88,11.28l0 -371.21 9.88 0.98z"/>
  <path class="fil178" d="M10913.93 10402.26l0 346.52c-3.28,3.82 -6.58,7.63 -9.88,11.42l0 -358.95 9.88 1z"/>
  <path class="fil179" d="M10923.81 10403.27l0 333.94c-3.28,3.87 -6.57,7.73 -9.88,11.58l0 -346.52 9.88 1.01z"/>
  <path class="fil180" d="M10933.7 10404.3l0 321.09c-3.29,3.95 -6.57,7.89 -9.88,11.81l0 -333.94 9.88 1.04z"/>
  <path class="fil180" d="M10943.58 10405.36l0 308.11c-3.28,3.99 -6.58,7.96 -9.89,11.93l0 -321.09 9.89 1.06z"/>
  <path class="fil181" d="M10953.47 10406.44l0 294.86c-3.29,4.06 -6.57,8.13 -9.88,12.17l0 -308.11 9.88 1.08z"/>
  <path class="fil182" d="M10963.35 10407.54l0 281.42c-3.28,4.12 -6.57,8.24 -9.88,12.34l0 -294.86 9.88 1.1z"/>
  <path class="fil183" d="M10973.24 10408.65l0 267.84c-3.27,4.17 -6.58,8.32 -9.88,12.47l0 -281.42 9.88 1.11z"/>
  <path class="fil184" d="M10983.12 10409.79l0 253.94c-3.29,4.26 -6.56,8.52 -9.88,12.76l0 -267.84 9.88 1.14z"/>
  <path class="fil185" d="M10993.01 10410.94l0 239.87c-3.28,4.32 -6.58,8.62 -9.89,12.91l0 -253.94 9.89 1.16z"/>
  <path class="fil186" d="M11002.89 10412.12l0 225.62c-3.27,4.37 -6.58,8.72 -9.88,13.07l0 -239.87 9.88 1.17z"/>
  <path class="fil186" d="M11012.78 10413.32l0 211.06c-3.29,4.46 -6.56,8.92 -9.88,13.36l0 -225.62 9.88 1.2z"/>
  <path class="fil187" d="M11022.66 10414.54l0 196.32c-3.28,4.52 -6.57,9.02 -9.88,13.52l0 -211.06 9.88 1.22z"/>
  <path class="fil188" d="M11032.54 10415.78l0 181.4c-3.27,4.58 -6.58,9.13 -9.88,13.68l0 -196.32 9.88 1.24z"/>
  <path class="fil188" d="M11042.42 10417.04l0 166.14c-3.29,4.67 -6.57,9.35 -9.88,14l0 -181.4 9.88 1.26z"/>
  <path class="fil189" d="M11052.31 10418.32l0 150.68c-3.28,4.74 -6.57,9.47 -9.88,14.18l0 -166.14 9.88 1.28z"/>
  <path class="fil190" d="M11062.19 10419.63l0 135c-3.27,4.8 -6.58,9.58 -9.88,14.36l0 -150.68 9.88 1.31z"/>
  <path class="fil191" d="M11072.07 10420.95l0 119.03c-3.28,4.89 -6.56,9.78 -9.88,14.65l0 -135 9.88 1.32z"/>
  <path class="fil191" d="M11081.96 10422.31l0 102.79c-3.28,4.97 -6.57,9.93 -9.89,14.88l0 -119.03 9.89 1.35z"/>
  <path class="fil192" d="M11091.85 10423.68l0 86.34c-3.27,5.04 -6.57,10.06 -9.88,15.09l0 -102.79 9.88 1.37z"/>
  <path class="fil193" d="M11101.73 10425.08l0 69.62c-3.27,5.12 -6.58,10.22 -9.88,15.32l0 -86.34 9.88 1.4z"/>
  <path class="fil193" d="M11111.62 10426.5l0 52.56c-3.28,5.22 -6.56,10.44 -9.88,15.64l0 -69.62 9.88 1.42z"/>
  <path class="fil194" d="M11121.5 10427.95l0 35.26c-3.28,5.29 -6.56,10.58 -9.88,15.86l0 -52.56 9.88 1.44z"/>
  <path class="fil194" d="M11131.39 10429.42l0 17.69c-3.27,5.38 -6.58,10.74 -9.89,16.1l0 -35.26 9.89 1.47z"/>
  <path class="fil195" d="M11131.39 10447.11l0 -17.69 9.8 1.49c-3.24,5.41 -6.52,10.8 -9.8,16.2z"/>
  <path class="fil12 str2" d="M11590.62 4526.27c1147.63,1190.05 2308.9,2359.15 3465.23,3539.62 255.54,260.87 401.64,452.23 809.76,346.1 376.79,-97.99 468.39,-442.62 336.27,-777.63 -53.93,-136.78 -136.93,-196.58 -239.67,-299.89 -1126.66,-1132.8 -2275.17,-2232.9 -3452.22,-3313.18l-34.67 -31.82c-172.18,-157.96 -298.93,-274.61 -550.88,-248.19 -350.6,36.77 -534.3,453.55 -358.98,743.42l25.16 41.58z"/>
  <circle class="fil13 str3" cx="11998.17" cy="4266.68" r="164.31"/>
 </g>
</svg>
