<?xml version="1.0" encoding="UTF-8"?>
<!DOCTYPE svg PUBLIC "-//W3C//DTD SVG 1.1//EN" "http://www.w3.org/Graphics/SVG/1.1/DTD/svg11.dtd">
<!-- Creator: CorelDRAW 2020 (64-Bit) -->
<svg xmlns="http://www.w3.org/2000/svg" xml:space="preserve" width="489.675mm" height="588.128mm" version="1.1" style="shape-rendering:geometricPrecision; text-rendering:geometricPrecision; image-rendering:optimizeQuality; fill-rule:evenodd; clip-rule:evenodd"
viewBox="0 0 7672.01 9214.53"
 xmlns:xlink="http://www.w3.org/1999/xlink"
 xmlns:xodm="http://www.corel.com/coreldraw/odm/2003">
 <defs>
  <style type="text/css">
   <![CDATA[
    .str3 {stroke:#FEFEFE;stroke-width:3.13;stroke-miterlimit:22.9256}
    .str0 {stroke:#007F61;stroke-width:3.13;stroke-miterlimit:22.9256}
    .str1 {stroke:#01A37C;stroke-width:3.13;stroke-miterlimit:22.9256}
    .str2 {stroke:#FF8B00;stroke-width:3.13;stroke-miterlimit:22.9256}
    .fil13 {fill:#FEFEFE}
    .fil6 {fill:black}
    .fil10 {fill:#007F61}
    .fil11 {fill:#01A37C}
    .fil1 {fill:#050505}
    .fil16 {fill:#231F20}
    .fil9 {fill:#65AAA8}
    .fil0 {fill:#68476D}
    .fil8 {fill:#6FB5B3}
    .fil7 {fill:#85C1C1}
    .fil5 {fill:#96D3D6}
    .fil3 {fill:#A6DADD}
    .fil2 {fill:#C8EFF3}
    .fil4 {fill:#E3FEFF}
    .fil15 {fill:#EFEFEF}
    .fil12 {fill:#FF8B00}
    .fil14 {fill:white}
   ]]>
  </style>
 </defs>
 <g id="Layer_x0020_1">
  <metadata id="CorelCorpID_0Corel-Layer"/>
  <path class="fil0" d="M1778.08 318.03c-0.35,0 -0.7,-0.03 -1.04,-0.1 -2.55,-0.56 -4.22,-3.13 -3.66,-5.72 22.53,-104.77 74.72,-218.65 126.83,-276.95 1.8,-2 4.84,-2.15 6.77,-0.38 2,1.76 2.21,4.82 0.41,6.79 -51.14,57.17 -102.43,169.26 -124.62,272.55 -0.48,2.25 -2.49,3.81 -4.69,3.8z"/>
  <path class="fil1" d="M452.92 1306.88c-0.55,158.28 257.24,1326.36 216.19,1497.59 -69.73,290.53 -464.87,366.07 -464.87,366.07l33.66 -1867.88 215.02 4.22z"/>
  <path class="fil2" d="M663.79 1416.57c-24.33,57.38 -79.21,99.03 -173.96,92 -215.84,-15.98 -332.79,-173.72 -358.57,-255.18 -2.42,-7.63 -4.36,-15.37 -5.8,-23.12 -13.68,-74.33 18.52,-146.11 90.26,-114.39 0,-0.01 167.67,21.79 328.57,28.57 104.71,4.36 164.84,165.48 119.5,272.13z"/>
  <path class="fil3" d="M667.88 1395.51c9.81,-70.82 -8.72,-136.19 -173.21,-69.72 -164.49,66.45 -259.32,-98.06 -289.8,-139.46 -30.41,-41.28 -61.86,-31.72 -79.41,43.94 -13.68,-74.33 18.52,-146.11 90.26,-114.39 0,-0.01 167.67,21.79 328.57,28.57 104.71,4.36 164.84,165.48 119.5,272.13 1.67,-6.91 3.11,-13.93 4.09,-21.07z"/>
  <path class="fil2" d="M1139.31 484.2c-1.87,4.24 -3.81,8.72 -6.09,13.44 -2.21,4.6 -4.49,9.45 -7.12,14.53 -25.91,49.99 -74.23,120.08 -163.32,213.42 -11.75,12.35 -22.19,24.58 -31.59,36.68 -109.34,142.47 -65.38,271.04 -149.29,311.96 -49.14,23.97 -82.94,61.62 -128.07,97.82 -6.56,5.32 -13.34,10.53 -20.46,15.73 -17.42,12.71 -36.91,24.94 -59.58,36.08 -22.46,10.89 -48.04,20.82 -78.03,28.93 -19.63,5.33 -41.19,9.93 -65.04,13.43 -97.79,14.65 -202.02,-69.85 -237.76,-162.1 -12.57,-32.81 -17.55,-69.6 -6.63,-108.34 20.95,-74.33 170.78,-301.31 325.95,-500.93 132.7,-170.57 269.14,-321.16 332.45,-339.93 41.27,-12.23 85.84,6.05 127.86,37.53 13.21,9.93 26.13,21.07 38.71,33.18 24.47,23.35 47.34,49.75 67.32,75.05 15.62,19.6 29.31,38.62 40.64,55.2 18.66,26.87 31.03,47.33 34.56,53.26 0.69,1.21 1.04,1.82 1.04,1.82 0.01,-0.01 5.74,22.52 -15.55,73.23z"/>
  <path class="fil2" d="M1978.44 237.73c-1.8,7.75 -5.33,15.98 -10.79,24.7 -67.66,109.43 -540.48,159.55 -806.23,175.41 -25.29,1.46 -48.93,-2.54 -69.74,-1.09l-13.4 -29.05 -174.93 -165.73c0,0 19.35,-3.02 52.32,-7.99 15.7,-2.43 34.49,-5.2 55.64,-8.35 169.26,-24.95 494.31,-70.58 655.08,-76.75 123.58,-4.72 219.44,3.63 271,27 32.35,14.64 47.34,35.1 41.06,61.85z"/>
  <path class="fil2" d="M1984.04 235.19c-0.76,0.86 -2.7,1.7 -5.6,2.55 -11.12,3.38 -37.32,7.02 -74.23,10.77 -133.52,13.91 -407.09,30.14 -615.89,41.28 -85.49,4.72 -160.07,8.47 -209.7,10.9 -40.29,2.05 -64.14,3.14 -64.14,3.14l-58.81 -69.85 -26.2 -31c13.96,-3.51 28.2,-7.02 43.13,-10.53 4.5,-1.09 9.06,-2.18 13.69,-3.14 0,-0 0,-0.12 0.07,-0.12 11.06,-2.55 22.39,-5.09 33.94,-7.63 273.91,-60.04 663.37,-112.1 818.81,-106.53 42.09,1.57 73.61,10.29 96.83,23.12 35.25,19.49 51.49,48.06 56.88,74.45 5.81,27.96 -0.48,53.39 -8.77,62.58z"/>
  <path class="fil2" d="M1372.09 174.9l-441.79 104.95 -254.55 46.86c54.26,-68.28 107.89,-124.09 167.53,-167.3 21.09,-15.25 42.85,-28.93 65.73,-40.91 50.05,-26.52 104.99,-45.39 168.16,-56.53 312.54,-55.2 416.77,-72.76 515.81,-40.55 20.25,6.53 40.22,15.25 61.65,26.02 8.58,4.36 14.72,8.72 18.73,13.08 53.98,59.07 -301.27,114.4 -301.27,114.39z"/>
  <path class="fil2" d="M1328.27 203.84c-215.37,41.28 -417.05,76.03 -417.05,76.03l-1.44 -93.7c61.71,-68.76 253.37,-81.1 460.44,-104.35 118.68,-13.2 312.61,-71.66 421.53,-34.5 18.53,6.17 34.49,15.25 47.34,27.72 21.43,20.94 -254.48,79.53 -510.83,128.8z"/>
  <path class="fil3" d="M1637.08 38.96c-92.61,9.56 -193.87,34.75 -266.85,42.85 -203.2,22.76 -373.71,33.18 -443.03,87.29l-75.88 -19.62c21.01,-15.25 34.83,-18.99 57.71,-30.98 11.27,12.82 32.35,16.95 65.04,7.75 50.11,-14.17 147.08,-54.48 350.83,-70.81 154.41,-12.35 237.48,-19.13 268.1,-34.02 14.66,4.72 29.03,10.53 44.09,17.55z"/>
  <path class="fil3" d="M1984.04 235.19c-0.76,0.86 -2.7,1.7 -5.6,2.55 6.3,-26.76 -36.22,-96.3 -68.49,-110.95 -51.62,-23.36 -119.98,17.37 -243.56,22.09 -160.76,6.17 -485.81,51.81 -655.08,76.75 -10.85,1.57 -37.53,-29.3 -25.02,-36.32 0,-0 0,-0.12 0.07,-0.12 4.5,-2.55 10.16,-4.24 16.73,-5.21 7.26,-0.97 12.99,-1.82 17.21,-2.42 14.72,-1.94 14.72,-1.93 14.72,-1.93 37.81,21.79 540.41,-39.22 687.15,-53.75 121.99,-12.11 190.76,-12.11 213.77,-27.72 35.25,19.49 51.49,48.06 56.88,74.45 5.81,27.96 -0.48,53.39 -8.77,62.58z"/>
  <path class="fil3" d="M1978.44 237.73c-1.8,7.75 -5.33,15.98 -10.79,24.7 -67.66,109.43 -536.89,160.82 -802.64,176.68 0.76,1.21 -11.2,15.07 -11.2,15.07 0,0 2.42,52.63 -191.03,271.4 -11.26,12.76 -22.19,24.58 -31.59,36.68 -88.88,10.41 -129.8,2.79 -63.93,-42.24 126.97,-86.81 178.04,-235.21 211.01,-312.32 11.75,-27.48 21.15,-46 30.83,-49.39 2.08,-0.73 5.6,-1.58 10.16,-2.42 78.52,-14.9 403.91,-12.83 613.05,-45.52 67.67,-10.58 144.52,-34.98 171.89,-61.86 23.3,-22.65 56.88,-59.08 35.67,-101.03 32.35,14.64 44.85,63.5 38.57,90.25z"/>
  <path class="fil3" d="M573.81 1223.85c-37.25,18.16 -83.15,33.42 -143.07,42.37 -97.79,14.65 -202.02,-69.85 -237.76,-162.1 -12.57,-32.81 -17.55,-69.6 -6.63,-108.34 20.95,-74.33 170.78,-301.31 325.95,-500.93 -104.43,173.47 -198.22,377.45 -233.33,493.18 -58.89,193.93 187.37,244.05 294.16,233.15 0,-0.01 0.34,0.97 0.7,2.66z"/>
  <path class="fil2" d="M1364.83 659.01c-101.73,37.77 -183.57,84.13 -245.16,190.42 -52.66,91.03 -156.41,201.68 -254.97,240.05 -39.46,15.37 -150.81,79.41 -231.33,98.29 -2.56,0.61 -5.12,1.22 -7.6,1.7l0.48 -4.48 35.95 -373.94c64,-44.55 231.94,-80.87 275.49,-131.71 31.11,-36.19 101.46,-129.89 175.9,-171.29 0.97,-0.62 1.87,-1.09 2.77,-1.58 5.88,-3.15 2.35,4.88 7.81,2.09 63.45,-31.6 117.77,-47.49 195.25,-3.9 63.87,35.94 107.96,131.1 45.41,154.34z"/>
  <path class="fil3" d="M1364.83 659.01c-101.73,37.77 -183.57,84.13 -245.16,190.42 -52.66,91.03 -156.41,201.68 -254.97,240.05 -39.46,15.37 -150.81,79.41 -231.33,98.29 -17.42,12.71 -36.91,24.94 -59.58,36.08 -22.46,10.89 -48.04,20.82 -78.03,28.93 -10.22,-4.61 -6.43,-11.38 16.31,-19.98 30.76,-11.63 70.08,-27.6 114.18,-47.81 8.92,-4.13 18.11,-8.47 27.58,-12.95 139.48,-67.07 314.47,-174.08 410.27,-319.83 133.67,-203.38 217.92,-174.32 213.5,-246.96 -3.86,-65.37 -73.68,-111.97 -151.5,-93.09 -8.63,2.05 -17.35,4.84 -26.06,8.59 0.01,-0 5.32,-4.96 13.55,-12.71 6.92,-6.54 15.97,-14.89 25.71,-23.85 -1.86,4.23 -3.8,8.72 -6.08,13.44 65.18,-15.2 108.72,-36.56 186.2,7.03 63.87,35.94 107.96,131.1 45.41,154.34z"/>
  <path class="fil0" d="M510.63 1514.15c-6.77,-0.01 -13.82,-0.26 -21.15,-0.8 -209.69,-15.52 -333.83,-166.78 -362.79,-258.48 -16.31,-51.59 -10.64,-104.83 14.24,-132.51 14.31,-15.98 33.87,-22.01 56.33,-17.49 2.63,0.52 4.29,3.06 3.8,5.67 -0.55,2.61 -3.11,4.29 -5.67,3.77 -19.28,-3.87 -35.25,1 -47.35,14.48 -22.25,24.83 -27.3,75.5 -12.23,123.18 28.27,89.3 149.43,236.62 354.36,251.79 97.66,7.18 142.79,-37.78 163.39,-76.81 35.46,-66.98 24.33,-168.24 -25.3,-230.53 -1.59,-2.08 -1.24,-5.11 0.83,-6.77 2.08,-1.65 5.04,-1.32 6.7,0.77 51.84,65.05 63.38,170.93 26.33,241.03 -20.45,38.6 -63.1,82.71 -151.5,82.71z"/>
  <path class="fil3" d="M1839.11 75.04c-40.85,-1.47 -94.49,18.39 -161.25,23.97 -187.44,15.68 -455.54,38.29 -657.56,82.56 -11.54,2.54 -22.88,5.08 -33.94,7.63 -0.06,0 -0.07,0.12 -0.07,0.12 -4.63,0.96 -9.19,2.05 -13.69,3.14 -8.98,2.06 1.18,1.33 -7.26,3.51 -33.31,-19.98 -45.27,-29.42 -45.27,-29.42l44.17 -20.71c28.34,22.89 65.38,10.9 167.74,-6.53 102.43,-17.43 418.91,-60.6 545.32,-63.87 72.16,-1.82 102.09,-12.88 114.46,-28.13 18.53,6.17 34.49,15.25 47.35,27.72z"/>
  <path class="fil0" d="M408.28 1272.69c-93.79,0 -186.82,-81.84 -219.72,-166.85 -14.65,-37.89 -17,-75.35 -6.91,-111.35 38.99,-138.54 521.34,-802.64 661.71,-844.17 57.44,-16.99 128.62,40.05 171.13,74.15 2.07,1.66 2.42,4.69 0.76,6.77 -1.66,2.08 -4.7,2.4 -6.77,0.75 -41.05,-32.91 -109.76,-88 -162.35,-72.43 -58.61,17.33 -198.01,163.82 -363.75,382.28 -150.46,198.23 -273,389.71 -291.39,455.27 -9.53,33.95 -7.33,69.37 6.57,105.28 34.29,88.52 135.88,173.59 232.51,159.09 103.81,-15.59 162.14,-50.32 197.05,-75.09 2.15,-1.56 5.11,-1.02 6.7,1.13 1.53,2.17 1.04,5.18 -1.17,6.72 -35.66,25.34 -95.31,60.87 -201.2,76.76 -7.67,1.15 -15.41,1.71 -23.15,1.71z"/>
  <path class="fil0" d="M1134.06 504.82c-0.55,0 -1.04,-0.08 -1.59,-0.26 -2.48,-0.89 -3.8,-3.63 -2.97,-6.14 23.57,-67.06 44.44,-65.17 48.45,-64.15 2.56,0.68 4.08,3.32 3.39,5.89 -0.69,2.57 -3.25,4.1 -5.88,3.42 0.21,0.05 -16.17,-0.9 -36.84,58.04 -0.69,1.97 -2.56,3.21 -4.56,3.21z"/>
  <path class="fil0" d="M1176.7 443.74c-2.56,0 -4.64,-1.94 -4.84,-4.48 -0.13,-2.65 1.8,-4.95 4.49,-5.13 229.95,-16.06 708.5,-49.47 787.23,-174.27 10.78,-17.04 11.82,-39.71 2.9,-63.82 -11.68,-31.9 -37.88,-58.35 -66.7,-67.38 -32.83,-10.27 -86.33,-0.51 -148.39,10.81 -33.1,6.03 -67.32,12.27 -103.47,16.62 -65.1,7.8 -141.62,16.15 -222.62,24.98 -148.32,16.16 -301.62,32.89 -411.1,49.07 -2.55,0.38 -5.04,-1.42 -5.46,-4.06 -0.41,-2.63 1.45,-5.07 4.08,-5.47 109.69,-16.2 263.06,-32.93 411.38,-49.11 81.01,-8.84 157.51,-17.17 222.55,-24.97 35.87,-4.31 70.01,-10.52 102.91,-16.53 63.32,-11.54 117.98,-21.49 152.95,-10.52 31.59,9.89 60.2,38.63 72.92,73.24 9.95,26.98 8.57,52.65 -3.8,72.28 -71.67,113.6 -441.92,154.1 -794.69,178.74 -0.13,0.01 -0.27,0.01 -0.34,0.01z"/>
  <path class="fil0" d="M1978.58 244.85c-1.18,0 3.1,-5.26 2.2,-6.09 -2,-1.79 -2.14,-4.83 -0.34,-6.8 9.95,-10.95 16.86,-46.69 2.14,-81.68 -12.02,-28.53 -40.78,-66.17 -128.42,-69.34 -18.72,-0.66 -47.69,5.3 -78.44,11.6 -31.72,6.49 -67.67,13.87 -98.77,15.3 -199.32,9.21 -494.93,40.47 -706.22,89.55 -2.55,0.59 -5.12,-1.01 -5.74,-3.6 -0.62,-2.6 0.97,-5.18 3.59,-5.78 211.84,-49.21 508.2,-80.56 707.95,-89.79 30.27,-1.4 65.87,-8.68 97.25,-15.12 31.38,-6.43 60.96,-12.56 80.73,-11.79 92.69,3.36 127.79,41.14 140.86,72.24 16.52,39.24 3.94,81.98 -7.81,94.88 -0.96,1.04 -7.74,6.42 -8.98,6.42z"/>
  <path class="fil0" d="M844.67 159.62c-1.45,0 -2.9,-0.66 -3.87,-1.92 -1.59,-2.14 -1.18,-5.14 0.97,-6.74 64.14,-48.03 149.7,-82.2 234.78,-93.76 66.98,-9.11 128.76,-18.92 183.36,-27.58 190.42,-30.23 316.2,-50.19 374.95,5.99 1.94,1.83 2.01,4.89 0.14,6.81 -1.79,1.92 -4.84,1.99 -6.77,0.15 -55.36,-52.89 -179.28,-33.22 -366.8,-3.44 -54.67,8.67 -116.53,18.5 -183.64,27.61 -83.42,11.34 -167.4,44.85 -230.29,91.94 -0.83,0.64 -1.86,0.95 -2.83,0.95z"/>
  <path class="fil4" d="M679.14 1042.51c104.57,-23.24 162.69,-69.72 287.65,-209.17 124.89,-139.46 213.5,-158.34 212.04,-216.45 -1.45,-58.11 -81.35,-94.42 -191.73,20.33 -110.37,114.76 -225.17,124.93 -281.85,153.99 -56.61,29.05 -142.31,124.93 -124.89,204.82 10.44,47.87 73.05,52.19 98.77,46.48z"/>
  <path class="fil0" d="M922.01 170.98l-3.8 -8.85c121.44,-52.42 246.81,-77.11 447.38,-88.07 106.71,-5.84 179.63,-20.1 238.17,-31.55 98.57,-19.29 152.82,-29.89 246.05,27.34l-5.04 8.2c-90,-55.27 -139.83,-45.52 -239.15,-26.09 -58.88,11.51 -132.15,25.84 -239.55,31.71 -199.26,10.9 -323.74,35.38 -444.06,87.31z"/>
  <path class="fil0" d="M633.73 1194.95c-2.21,0 -4.15,-1.53 -4.7,-3.76 -0.55,-2.6 1.1,-5.17 3.66,-5.74 84.95,-18.94 206.1,-81.79 262.5,-116.98 99.67,-62.15 167.61,-130.42 220.27,-221.39 59.03,-101.89 123.92,-152.3 247.85,-192.64 16.04,-5.23 25.02,-16.13 26.61,-32.38 3.67,-36.41 -30.41,-89.3 -72.92,-113.2 -91.5,-51.52 -180.39,-5.99 -214.33,15.97 -62.82,40.59 -114.39,101.92 -148.46,142.5 -4.69,5.55 -8.99,10.64 -12.86,15.16 -23.49,27.42 -78.31,49.45 -147.49,75.4 -2.49,0.94 -5.25,-0.32 -6.15,-2.81 -0.97,-2.49 0.35,-5.27 2.77,-6.19 53.36,-20.03 119.78,-44.94 143.55,-72.67 3.87,-4.49 8.15,-9.56 12.79,-15.08 32.42,-38.54 86.6,-103.02 150.6,-144.4 35.46,-22.91 128.21,-70.37 224.28,-16.28 46.24,25.99 81.83,82.11 77.82,122.55 -2,20.11 -13.48,34.16 -33.25,40.58 -121.36,39.51 -184.81,88.79 -242.46,188.32 -53.56,92.4 -122.47,161.72 -223.52,224.74 -56.95,35.51 -179.43,99.01 -265.54,118.2 -0.34,0.08 -0.69,0.12 -1.04,0.11z"/>
  <path class="fil4" d="M514.23 558.77c67.59,-124.48 261.53,-400.93 374.81,-352.99 113.35,47.93 130.77,76.27 111.14,139.45 -19.63,63.19 -128.56,250.58 -211.35,302.88 -82.8,52.29 -235.34,161.25 -283.31,261.48 -47.89,100.23 -141.62,113.31 -152.54,34.86 -10.85,-78.44 119.91,-309.41 161.25,-385.68z"/>
  <path class="fil4" d="M1043.79 250.81c70.91,65.51 602.82,1.46 717.62,-33.41 114.74,-34.87 139.41,-74.09 85.7,-76.99 -53.77,-2.9 -371.91,46.49 -533.16,68.27 -161.24,21.79 -289.11,24.7 -270.17,42.13z"/>
  <path class="fil4" d="M149.65 1259.68c10.22,-30.58 55.91,29.06 159.03,96.61 103.19,67.55 231.74,-31.96 292.01,-2.18 60.27,29.78 42.16,93.7 -2.9,115.49 -44.99,21.78 -198.29,31.23 -306.53,-47.94 -108.23,-79.17 -148.18,-142.36 -141.61,-161.98z"/>
  <path class="fil2" d="M6511.67 1304.79c-13.11,28.04 -22.27,45.83 -22.27,45.83 -61.61,-11.71 -118.4,-29.18 -167.18,-58 -100.63,-59.52 -167.36,-166.91 -173.55,-369.65 -6.08,-195 -8.8,-312.19 -84.7,-373.32 -13.86,-11.19 -21.31,-28.41 -23.23,-48.39 -8.1,-88.45 95.97,-229.7 243.85,-129.22 118.43,80.7 122.57,203.3 126.02,288.47 1.91,45.04 3.49,79.47 21.64,91.93 52.41,35.93 185.41,157.81 164.92,302.94 -11.53,81.45 -57.48,189.11 -85.51,249.41z"/>
  <path class="fil2" d="M7008.75 1346.21c-82.93,109.62 -187.2,150.7 -309.21,113.01 -98.47,-30.46 -141.82,-68.91 -141.82,-68.91 0,-0 -195.81,-43.2 -235.15,-97.19 -0.09,-0.16 -0.25,-0.34 -0.35,-0.5 -39.96,-55.2 -53.17,-115.8 -50.51,-182.78 1.73,-44.89 10.76,-92.71 23.46,-143.8 19.79,-79.04 41.78,-131.41 79.15,-230.2 9.35,-24.44 21.41,-49.66 35.86,-74.47 0.11,-0.35 0.19,-0.58 0.43,-0.87 23.34,-40.43 52.31,-80.41 82.98,-115.81 58.83,-67.92 124.25,-119.16 169.42,-125.44 79.22,-11.22 290.17,136.89 421.37,344.12 6.46,10.43 12.8,20.97 18.98,31.58 26.96,46.69 42.08,93.1 48.58,138.24 4.38,30.27 4.83,59.91 2.21,88.81 -5.04,55.15 -36.48,104.96 -57.53,152.41 -30.18,68.06 -55.29,128.72 -87.87,171.8z"/>
  <path class="fil2" d="M7547.45 770.12c-175.97,42.45 -255.09,126.21 -393.3,251.88 -18.26,16.49 -37.43,33.72 -58,51.74 0,-0 -2.7,-2.39 -7,-6.95 -26.43,-27.53 -115.84,-134.29 -42.5,-254.24 10.07,-16.61 22.91,-33.09 37.73,-49.18 109.93,-120.01 334.51,-222.29 450.15,-211.85 54.08,4.84 99.74,34.8 120.49,71.88 29.75,52.14 9.28,118.56 -107.57,146.71z"/>
  <path class="fil2" d="M7444.63 610.55l-374.64 190.19 -23.34 11.82c0,0 -192.55,-32.28 -133.5,-158.1 5.79,-12.31 13.33,-24.67 22.06,-36.91 18.78,-26.33 43.9,-52.38 71.99,-77.34 92.69,-81.91 219.15,-151.63 270.69,-180.28 74.47,-41.22 294.68,-69.23 350.15,16.68 2.8,4.31 5.2,8.51 7.4,12.64 42.78,80.67 -11.21,151.04 -190.81,221.3z"/>
  <path class="fil2" d="M7517.93 393.76l-68.87 36.2 -493.23 258.79 -195.67 -152.9c0,0 20.1,-22.61 51.97,-56.6 17.9,-18.9 39.39,-41.56 63.12,-65.78 41.77,-42.44 90.52,-89.95 138.52,-132.01 124.36,-109.01 306.34,-194.19 425.76,-157.21 66.15,20.5 95.43,66.69 101.42,122.79 5.05,45.18 -4.96,96.87 -23.02,146.71z"/>
  <path class="fil2" d="M7268.34 213.42l-394.86 322.63c0,0 -299.08,-17.5 -267.82,-78.64 31.36,-61 267.35,-334.39 440.92,-386.84 30.06,-9.14 55.76,-13.99 77.96,-15.16 98.11,-5.74 124.89,59.38 140.31,139.3 1.21,6.09 2.35,12.4 3.49,18.72z"/>
  <path class="fil1" d="M6370.53 1454.31c-47.87,150 -649.57,1176.7 -663.13,1351.35 -22.94,296.35 327.95,488.83 327.95,488.83l540 -1778.36 -204.82 -61.82z"/>
  <path class="fil3" d="M6328.58 1263.83c-85.94,-50.45 -154.2,20.29 -149.52,97.2 4.68,76.91 96.19,243.08 356.43,312.06 326.74,86.61 383.55,-253.71 187.79,-300.65 -195.75,-46.94 -394.7,-108.62 -394.7,-108.62z"/>
  <path class="fil3" d="M7547.45 770.12c-112.87,27.22 -205.49,84.79 -292.41,160.27 -60.59,52.64 -99.35,71.46 -118.3,149.48 -17.86,73.55 -75.19,185.57 -116.76,248.4 -61.15,92.54 -113.5,142.68 -232.28,144.62 -91.32,1.49 -154.68,-52.41 -232.96,-83.19 -159.25,-62.61 -306.43,-80.81 -373.13,-264.91 -42.45,-117.19 -29.62,-244.23 -40.4,-366.19 -4.1,-47.19 -8.19,-98.67 -28.33,-142.32 -18.43,-39.97 -67.95,-71 -72.14,-115.02 112.66,8.07 151.9,115.75 160.14,212.47 11.1,130.59 16.89,255.42 64.65,379.91 55.22,143.85 135.82,191.36 279.9,213.55 20.18,3.09 27.73,-5.29 43.99,-0.16 42.17,13.31 72.89,49.01 120.9,58.09 294.12,55.65 280.97,-226.79 402.91,-398.24 59.82,-84.17 194.69,-216.29 299.62,-236.18 87.46,-16.6 219.84,12.94 242.17,-107.28 44.88,78.66 -41.82,130.85 -107.57,146.71z"/>
  <path class="fil3" d="M6605.44 1118.55c0,0 3.96,-163.52 -45.01,-230.62 -48.9,-67.08 -92.95,-109.43 -117.65,-126.91 -21.53,-15.19 -33.2,-65.16 -32.59,-99.64 0.11,-0.35 0.19,-0.58 0.43,-0.87 23.34,-40.43 52.31,-80.41 82.98,-115.81 -20.33,45.45 -22.74,87.96 1.96,143.41 47.58,106.51 203.71,244.23 109.88,430.45z"/>
  <path class="fil3" d="M7536.71 326.3c-210.8,-39.99 -477.22,122.15 -598.39,287.19 -40.16,-45.2 -78.64,-96.48 -126.19,-134.23 20.88,-22.09 41.86,-44.08 63.12,-65.78 3.25,60.13 54.35,113.7 112.94,85.39 31.03,-15.03 115.1,-65.84 156.12,-91.9 90.32,-57.37 156.74,-80.19 251.21,-103.06 40.84,-9.87 118.56,-17.58 145.43,-56.86 2.45,26.61 1.05,53.04 -4.24,79.25z"/>
  <path class="fil3" d="M7560.16 555.89c-8.13,-2.13 -16.79,-3.53 -25.62,-4.36 -115.64,-10.44 -340.23,91.84 -450.15,211.85 -8.6,9.37 -16.63,18.79 -23.65,28.42 -32.99,-26.24 -87.95,-116.16 -101.87,-142.18 -33.82,-63.22 -12.15,-55.82 48.83,-112.55 -9.27,45.22 24.08,109.42 69.15,124.26 60.7,19.89 150.65,-39.24 199.94,-63.18 121.06,-58.81 322.43,-54.68 358.66,-208.91 38.47,72.56 -11.84,127.56 -75.28,166.65z"/>
  <path class="fil0" d="M6322.46 1307.99c-0.4,-0.13 -0.77,-0.31 -1.13,-0.54 -118.53,-77.72 -171.55,-192.63 -177.47,-384.33l-0.2 -6.76c-5.89,-189.56 -9.37,-303.95 -82.64,-362.94 -37.04,-29.81 -32.93,-102.61 8.87,-159.03 41.52,-55.97 120.39,-92.26 217.34,-26.26 119.64,81.44 124.76,207.25 128.18,290.5 1.83,43.94 3.19,78.62 19.58,89.84 66.3,45.48 186.63,168.34 166.95,307.61 -0.34,2.63 -2.81,4.44 -5.43,4.07 -2.61,-0.39 -4.44,-2.8 -4.03,-5.4 18.98,-134.63 -98.27,-254.06 -162.92,-298.39 -20.29,-13.91 -21.82,-50.73 -23.73,-97.34 -3.49,-86.19 -8.31,-204.23 -123.97,-282.97 -115.02,-78.29 -185.42,-1.37 -204.27,24.05 -38.85,52.4 -43.69,119.21 -10.61,145.85 76.72,61.76 80.29,177.83 86.25,370.12l0.21 6.75c5.77,188.19 57.56,300.83 173.17,376.62 2.21,1.44 2.83,4.42 1.33,6.62 -1.17,1.85 -3.44,2.59 -5.46,1.93z"/>
  <path class="fil3" d="M7250.71 139.88c-83.08,29.2 -168.73,81.75 -236.94,141.58 -48,42.05 -96.76,89.58 -138.52,132.01 -23.73,24.22 -45.23,46.88 -63.12,65.78 -1.16,1.14 -2.26,2.3 -3.3,3.49 -0.29,-0.21 -0.6,-0.4 -0.89,-0.6 -29.43,-20.26 -25.59,-65.66 6.76,-80.79 47.35,-22.16 103.61,-68.77 170.37,-129.06 107.84,-97.26 223.43,-127.08 224.81,-163.09 0.97,-25.77 -46.55,-44.42 -85.36,-53.81 74.25,-4.34 107.75,31.94 126.17,84.47z"/>
  <path class="fil3" d="M6669.86 475.64c80.24,-1.4 153.84,1.15 254.1,97.37 100.26,96.22 197.59,219.59 188.26,303.15 0,0 -90.82,-158.48 -207.1,-263.68 -116.35,-105.22 -235.26,-136.85 -235.26,-136.85z"/>
  <path class="fil0" d="M7101.82 799.52c-1.05,-0.34 -2.04,-1.08 -2.63,-2.15 -95.5,-165.88 -235.8,-285.75 -327.01,-338.01 -2.32,-1.33 -3.11,-4.25 -1.79,-6.55 1.32,-2.29 4.25,-3.08 6.5,-1.78 92.24,52.87 234.15,174.02 330.56,341.55 1.36,2.3 0.55,5.23 -1.76,6.54 -1.23,0.7 -2.64,0.8 -3.88,0.39z"/>
  <path class="fil0" d="M6689.76 1461.1c-85.96,-27.8 -127.52,-60.66 -134.28,-66.35 -16.31,-3.86 -172.92,-41.8 -239.33,-91.21 -2.09,-1.57 -2.56,-4.58 -0.94,-6.69 1.56,-2.13 4.58,-2.55 6.68,-0.99 66.98,49.87 235.2,89.44 236.88,89.83 0.74,0.16 1.48,0.55 2.1,1.09 0.39,0.36 44.03,38.16 140.14,67.85 126.28,39.01 234.12,-0.39 303.7,-110.95 53.71,-85.4 108.55,-206.03 146.72,-322.69 0.82,-2.51 3.5,-3.89 6.05,-3.06 2.49,0.81 3.85,3.51 3.03,6.03 -38.39,117.36 -93.64,238.78 -147.69,324.82 -71.06,112.91 -185.72,154.83 -314.69,114.99 -2.82,-0.88 -5.65,-1.76 -8.39,-2.65z"/>
  <path class="fil0" d="M7159.3 1025.97l-6.55 -6.99c11.74,-11.05 22.97,-21.67 33.86,-31.86 123.79,-116.86 192.01,-181.22 359.74,-221.64 77.13,-18.61 119.39,-56.54 115.91,-104.11 -3.87,-51.93 -61.4,-99.07 -128.25,-105.08 -118.17,-10.65 -339.2,93.57 -446.21,210.38l-7.08 -6.48c108.6,-118.59 333.57,-224.32 454.14,-213.45 71.35,6.41 132.79,57.53 136.95,113.92 1.84,24.94 -6.56,85.98 -123.2,114.12 -165.21,39.83 -232.81,103.57 -355.44,219.29 -10.82,10.23 -22.13,20.84 -33.87,31.89z"/>
  <path class="fil0" d="M6949.93 600.18c-0.52,-0.17 -1.09,-0.46 -1.54,-0.83 -2.05,-1.68 -2.38,-4.7 -0.71,-6.74 88.34,-108.47 260.2,-209.5 328.38,-237.1 135.54,-54.87 301.35,-66.13 356,18.5 18.22,28.16 24.36,56.29 18.26,83.63 -7.93,35.93 -36.64,69.71 -85.3,100.4 -2.26,1.41 -5.22,0.73 -6.6,-1.49 -1.44,-2.26 -0.77,-5.21 1.49,-6.61 46.47,-29.27 73.72,-61.03 81.1,-94.35 5.48,-24.76 -0.23,-50.45 -16.99,-76.38 -51.8,-80.23 -212.44,-68.19 -344.32,-14.81 -67.43,27.28 -237.32,127.13 -324.57,234.25 -1.3,1.57 -3.36,2.13 -5.19,1.54z"/>
  <path class="fil0" d="M6811.66 482.75c-0.65,-0.21 -1.27,-0.57 -1.83,-1.07 -1.94,-1.82 -1.98,-4.83 -0.2,-6.76 50.7,-53.95 126.65,-131.95 200.98,-197.09 118.33,-103.73 303.42,-197.46 430.32,-158.12 90.62,27.95 122.1,91.7 98.81,200.11 -0.54,2.59 -3.11,4.23 -5.67,3.69 -2.56,-0.58 -4.2,-3.1 -3.66,-5.68 22.29,-103.98 -5.96,-162.34 -92.3,-188.96 -123.41,-38.26 -304.83,54.13 -421.16,156.17 -74.03,64.9 -149.84,142.64 -200.34,196.44 -1.31,1.39 -3.27,1.84 -4.96,1.28z"/>
  <path class="fil0" d="M6619.08 438.25c-0.39,-0.13 -0.83,-0.34 -1.25,-0.62 -2.18,-1.53 -2.66,-4.5 -1.17,-6.67 53.52,-76.54 263,-314.9 428.57,-364.99 115.36,-34.91 180.16,-12.54 210.11,72.49 0.86,2.48 -0.39,5.24 -2.92,6.11 -2.51,0.87 -5.27,-0.45 -6.13,-2.93 -19.87,-56.52 -59.09,-108.64 -198.32,-66.51 -154.19,46.63 -362.59,274.25 -423.48,361.31 -1.22,1.77 -3.46,2.44 -5.42,1.8z"/>
  <path class="fil0" d="M6461.58 1651.14c-202.74,-65.57 -282.89,-216.59 -287.32,-289.82 -3.53,-58.99 33.58,-110.98 84.59,-118.33l1.35 9.47c-46.09,6.64 -79.68,54.2 -76.36,108.28 1.91,31.2 24.3,102.73 96.21,172.86 55.99,54.56 158.72,122.58 330.31,136.78 114.58,9.49 169.83,-29.95 195.96,-64.73 33.4,-44.28 34.31,-100.95 20.47,-137.46l8.97 -3.39c13.69,36.11 16.23,96.18 -21.77,146.61 -27.62,36.69 -85.47,78.37 -204.41,68.52 -55.31,-4.59 -104.5,-14.73 -148,-28.8z"/>
  <path class="fil2" d="M6284.02 1330.51c-47.82,-15.47 -69.09,93.86 11.76,167.85 80.86,73.99 232.15,127.48 345.99,127.85 113.78,0.34 161.71,-84.39 110.04,-114.78 -51.73,-30.41 -143.36,-7.64 -206.27,-66.72 0.01,0 -107.75,-12.07 -169.09,-47.85 -61.33,-35.79 -71.1,-59.46 -92.43,-66.36z"/>
  <path class="fil4" d="M6574.12 576.81c51.69,-54.57 188.27,0.15 233.02,96.64 0,-0 193.93,20.2 224.49,263.98 30.5,243.76 -213.1,86 -271.06,-157.54 0.01,-0 -282.19,-101.9 -186.45,-203.08z"/>
  <path class="fil4" d="M6452.83 815.54c45.82,36.85 139.97,166.03 100.37,260.3 -39.59,94.27 -153.7,59.64 -193.93,-69.56 -40.23,-129.21 -10.91,-226.8 -17.95,-324.77 -7.04,-97.97 -174.92,-163.65 -191.88,-223.82 -17.02,-60.18 66.87,-108.23 129.91,-35.44 63.03,72.78 93.08,164.43 98.52,287.03 2.31,51.62 29.21,69.45 74.97,106.27z"/>
  <path class="fil4" d="M7183.6 771.66c28.07,38.33 179.79,-94.49 325.84,-88.26 95.31,4.06 145.46,-62.31 53.39,-87.54 -92.07,-25.22 -208.59,53.29 -258.55,66.75 -49.95,13.46 -149.17,70.22 -120.68,109.04z"/>
  <path class="fil4" d="M7115.1 508c-34.89,53.36 26.22,101.91 89.76,74.6 63.53,-27.3 159.71,-78.2 284.92,-106.06 125.22,-27.86 83.1,-137.16 -9.5,-139.77 -92.52,-2.59 -311.1,88.48 -365.18,171.22z"/>
  <path class="fil4" d="M6976.18 423.2c41.02,48.78 232.81,-142.27 347.87,-159.74 115,-17.49 107.95,-115.45 53.73,-123.88 -54.21,-8.42 -170.46,3.74 -311.41,131.66 -100,90.69 -116.49,120.66 -90.19,151.95z"/>
  <path class="fil4" d="M6750.46 313.37c19.02,35.01 70.25,36.39 149.12,-38.34 78.82,-74.76 180.16,-139.18 224.8,-159.68 44.58,-20.52 -14.8,-67.06 -128.07,-8.01 -113.26,59.05 -245.86,206.03 -245.85,206.03z"/>
  <path class="fil4" d="M6625.48 1183.5c30.34,-58.53 119.63,-38.76 214.13,-49.21 94.51,-10.44 125.69,26.98 100.13,84.78 -25.49,57.82 -169.5,129.72 -251.57,73.56 -82.13,-56.18 -62.7,-109.13 -62.69,-109.13z"/>
  <path class="fil4" d="M6329.79 1416.7c100.09,32.37 338.98,83.82 353.52,128.01 14.55,44.19 -79.81,72.92 -219.15,20.25 -139.41,-52.68 -207.25,-171.83 -134.37,-148.27z"/>
  <path class="fil5" d="M2464.27 7877.67c115.12,2.89 191.29,-25.8 316.09,49.55 124.9,75.34 147.71,152.65 98.17,192.23 -49.54,39.67 -188.32,83.26 -364.72,35.67 -176.4,-47.5 -229.95,-130.76 -182.36,-202.1 47.6,-71.44 132.81,-75.35 132.82,-75.35z"/>
  <path class="fil6" d="M2479.91 8231.03c42.57,-928.09 58.77,-1858.85 53.46,-2787.95 -0.37,-53 -4.56,-107.6 -1.68,-160.46 5.78,-106.54 138.3,-166.46 210.48,-75.56 39.22,49.37 23.1,120.46 20.31,178.58 -2.7,55.16 -4.93,110.32 -7.45,165.48 -17.6,395.16 -27.85,790.58 -36.79,1186.02 -7.26,319.27 -11.83,638.72 -13.88,958.17 -0.65,98.35 -0.93,196.7 -0.84,295.05 0.01,83.82 13.78,179.94 -0.18,262.55 -23.19,136.26 -230.79,117.35 -223.43,-21.89z"/>
  <path class="fil2" d="M2686.3 9073.16c-323.55,113.16 -1052.99,197.63 -1510.66,-30.92 -126.19,-62.96 -203.41,-163.45 -240.19,-279.68 -96.77,-305.21 85.31,-718.72 391.63,-844.46 252.77,-103.94 599.98,-56.72 805.9,224.27 35.4,48.15 66.59,103.19 92.3,165.6 11.18,26.73 21.14,54.76 30.18,84.19 56.81,185.43 159.54,220.64 266.18,191.76 98.08,-26.64 199.59,-107.57 271.58,-175.56 59.98,-56.81 99.47,-104.78 99.47,-104.78 81.87,327.27 117.07,656.32 -206.39,769.58z"/>
  <path class="fil2" d="M2892.69 8303.58c0,0 -2.71,62.77 -18.73,142.59 -22.63,113.53 -72.09,261.34 -178.35,311.35 -180.77,85.03 -557.41,-233.58 -557.41,-233.58 0,-0 35.76,-81.96 75.34,-184.78 3.83,-10.25 7.83,-20.58 11.74,-31.2 26.73,-71.34 53.83,-149.39 71.43,-215.8 3.92,-14.34 7.17,-28.03 10.06,-41.16l403.47 173.97 182.45 78.61z"/>
  <path class="fil3" d="M2569.33 8297.9c0,105.71 5.02,208.53 -47.69,286.02 -46.47,67.99 -92.3,102.26 -146.59,78.7 -91.18,-39.68 -112.79,-187.11 -161.5,-323.46 -27.56,-76.75 -54.02,-149.67 -80.56,-196.8 35.4,48.15 66.59,103.19 92.3,165.6 26.73,-71.34 53.83,-149.39 71.43,-215.8l272.62 205.73z"/>
  <path class="fil3" d="M2686.3 9073.16c-323.55,113.16 -1052.99,197.63 -1510.66,-30.92 -126.19,-62.96 -203.41,-163.45 -240.19,-279.68 5.13,-41.91 22.54,-74.79 63.98,-76.18 241.88,-7.92 134.67,168.29 610.5,321.13 432.16,138.77 749.27,101.05 1030.73,21.79 281.46,-79.26 259.66,-493.52 237.87,-572.87 -1.02,-3.63 -2.52,-6.99 -4.56,-10.25 -12.38,-19.65 -43.12,-32.04 -80.75,-37.81 -90.61,-14.16 -206.39,2.51 -231.81,68.92l-81.49 -246.25 230.33 -6.06 182.45 78.61c81.86,327.27 117.06,656.32 -206.39,769.58z"/>
  <path class="fil2" d="M2975.68 8244.53c-109.16,178.17 -416.6,112.79 -568.97,41.45 -134.94,-63.24 -294.03,-245.32 -129.46,-367.42 14.25,-10.62 29.06,-20.21 44.8,-28.22 16.86,-8.76 34.65,-15.56 53.46,-19.84 24.12,-5.59 100.12,-18.91 118.19,3.08 6.34,7.82 6.33,48.89 -0.75,56.63 -13.31,14.53 -63.61,7.36 -81.86,13.22 -85.03,27.75 -28.22,106.64 21.33,139.05 84.95,55.5 186.27,76.84 283.59,60.82 42.67,-7.08 157.77,-12.94 134.77,-89.88 -23.1,-77.31 -146.32,-89.88 -146.32,-89.88 0,-0 -1.12,-6.8 -5.03,-31.39 -2.04,-13.51 3.54,-27.75 4.19,-41.63 54.67,6.52 127.22,37.9 187.01,84.57 0.1,0.09 0.09,0.09 0.09,0.09 87.09,67.9 147.06,167.83 84.95,269.35z"/>
  <path class="fil6" d="M2494.63 7880.65c0.1,-1.95 0.27,-4 0.27,-5.96 3.08,1.86 2.7,3.82 -0.27,5.96z"/>
  <path class="fil3" d="M2975.68 8244.53c-109.16,178.17 -416.6,112.79 -568.97,41.45 -134.94,-63.24 -294.03,-245.32 -129.46,-367.42 14.25,-10.62 29.06,-20.21 44.8,-28.22 -70.04,61.28 -115.4,136.63 -52.06,211.32 77.31,91.18 396.48,241.78 604.54,124.9 119.87,-67.34 75.44,-173.33 16.2,-251.37 87.09,67.9 147.06,167.83 84.95,269.35z"/>
  <path class="fil0" d="M1919.98 9194.97c-264.13,0 -535.62,-39.95 -747.78,-145.85 -185.99,-92.86 -285.93,-277.54 -274.28,-506.65 14.34,-282.39 189.72,-542.14 426.37,-631.64 185.8,-70.14 399.64,-61.56 572.13,23.1 174.63,85.68 301.38,243.36 366.39,455.99 20.31,66.22 47.68,116.23 81.31,148.74 3.08,2.89 3.17,7.73 0.19,10.81 -2.89,3.07 -7.82,3.16 -10.8,0.18 -35.58,-34.27 -64.26,-86.52 -85.31,-155.26 -63.79,-208.44 -187.85,-362.85 -358.57,-446.68 -168.76,-82.8 -378.04,-91.18 -559.84,-22.45 -231.16,87.36 -402.53,341.43 -416.59,617.95 -11.26,222.78 85.59,402.25 265.9,492.22 447.33,223.34 1162.23,150.13 1504.6,30.36 316.48,-110.74 285.55,-424.41 204.9,-746.94 -1.02,-4.1 1.49,-8.2 5.59,-9.22 4.1,-1.12 8.29,1.4 9.31,5.5 82.34,329.6 113.35,650.36 -214.77,765.2 -182.73,63.89 -470.98,114.65 -768.74,114.65z"/>
  <path class="fil0" d="M2226.12 8313.64c-0.84,0 -1.77,-0.19 -2.71,-0.46 -3.9,-1.49 -5.96,-5.96 -4.47,-9.97 15.94,-42.38 29.99,-82.15 41.91,-118.19 1.31,-4.01 5.68,-6.24 9.69,-4.84 4.01,1.3 6.15,5.59 4.84,9.69 -11.91,36.23 -26.08,76.18 -42.1,118.75 -1.11,3.07 -4.1,5.03 -7.17,5.03z"/>
  <path class="fil0" d="M2714.15 8362.62c-35.86,0 -73.77,-3.16 -112.79,-9.59 -23.65,-3.92 -47.41,-8.85 -70.78,-14.9 -91.74,-23.84 -174.44,-62.49 -226.88,-106.17 -15.36,-12.86 -29.25,-26.17 -41.26,-39.4 -99.37,-109.43 -71.25,-207.5 -11.74,-262.83 50.57,-47.04 108.32,-78.23 223.52,-76.56 17.7,0.18 26.82,1.21 32.69,2.05 4.19,0.55 7.17,4.47 6.52,8.66 -0.55,4.19 -4.47,7.17 -8.66,6.52 -5.49,-0.84 -13.88,-1.68 -30.74,-1.95 -110.07,-1.22 -165.03,28.03 -212.9,72.55 -54.11,50.29 -79.17,140.08 12.66,241.22 11.55,12.76 24.96,25.52 39.77,38 50.67,42.19 131.23,79.82 220.92,103.01 22.82,5.96 46.2,10.9 69.29,14.62 102.18,16.76 195.96,10.99 264.22,-16.3 7.37,-2.89 13.88,-5.87 20.12,-9.04l1.12 -0.56c0.93,-0.47 1.86,-0.93 2.79,-1.49 33.62,-17.61 59.33,-41.07 77.12,-69.95 31.95,-52.25 34.18,-106.64 6.71,-161.4 -51.41,-102.36 -191.68,-175.65 -292.26,-184.88 -4.28,-0.46 -7.36,-4.19 -6.98,-8.38 0.38,-4.19 4.29,-7.17 8.38,-6.89 104.6,9.59 250.81,86.24 304.55,193.25 29.62,59.04 27.1,120.05 -7.36,176.31 -19.18,31.29 -46.94,56.63 -82.61,75.25 -0.83,0.56 -2.23,1.3 -3.63,1.96l-0.93 0.46c-6.52,3.35 -13.6,6.52 -21.33,9.59 -44.42,17.79 -99.1,26.82 -159.54,26.82z"/>
  <path class="fil0" d="M2662.55 8153.63c-64.81,0 -125.27,-12.2 -180.5,-36.42 -90.8,-39.86 -137.28,-94.25 -121.17,-141.94 15.19,-45.17 69.29,-47.4 131.97,-49.92 4.29,-0.09 7.82,3.07 8.01,7.36 0.09,4.19 -3.17,7.73 -7.36,7.92 -66.12,2.69 -107.11,6.71 -118.1,39.58 -13.12,38.84 31.2,87.18 112.88,123.03 67.8,29.71 144.17,40.61 226.97,32.41 64.46,-6.43 104.78,-21.79 119.87,-45.63 8.02,-12.48 8.75,-27.38 2.42,-45.26 -22.45,-63.62 -136.16,-80.1 -137.28,-80.19 -4.19,-0.47 -7.27,-4.29 -6.8,-8.47 0.47,-4.19 4.19,-7.27 8.47,-6.8 1.22,0.19 124.15,16.95 150.13,90.34 7.92,22.35 6.52,42.1 -4,58.68 -17.69,27.94 -61.93,45.63 -131.32,52.62 -18.34,1.77 -36.51,2.7 -54.21,2.7z"/>
  <path class="fil6" d="M2762.49 5385.66c-2.7,55.17 -5.03,110.34 -7.45,165.51 -17.6,395.1 -27.85,790.54 -36.88,1185.98 -7.25,319.34 -11.73,638.7 -13.88,958.16 -0.56,98.35 -0.84,196.7 -0.74,294.96 0.01,17.97 0.65,36.51 1.58,55.32 -43.67,-0.65 -113.9,-4.57 -216.45,-17.88 36.05,-860.67 49.55,-1723.33 44.61,-2584.68 -0.18,-52.97 -4.47,-107.58 -1.68,-160.44 5.87,-106.48 138.4,-166.39 210.58,-75.54 39.22,49.33 23.01,120.47 20.31,178.61z"/>
  <path class="fil4" d="M2157.01 8474.95c52.9,-291.04 -175.75,-580.14 -593.27,-569.52 -417.62,10.52 -588.06,346.18 -556.39,499.48 31.76,153.29 425.54,-157.21 689.85,-83.27 264.23,74.04 449.28,211.42 459.81,153.3z"/>
  <path class="fil6" d="M3587.1 8398.57c-123.59,-203.03 -187.67,-437.92 -236.29,-668.61 -50.1,-238.06 -80.84,-480.39 -103.01,-722.54 -39.49,-432.45 -64.54,-873.86 -41.63,-1308.06 4.01,-75.97 11.27,-372.41 91.37,-411.09 75.44,-36.47 168.02,11.12 180.87,94.53 8.29,53.7 -25.24,315.53 -30.83,369.25 -9.96,93.94 -15.92,188.36 -19.93,282.72 -20.67,496.14 0.65,1002.63 92.02,1491.4 42.11,225.48 97.89,458.88 211.05,660.7 32.6,58.12 92.02,115.95 67.43,188.41 -31.38,92.58 -160.1,105.99 -211.04,23.28z"/>
  <path class="fil2" d="M4178.79 8802.79c-5.4,-1.68 -10.71,-3.54 -15.74,-5.4 -42.46,-15.74 -76.09,-38.37 -102.64,-64.17 -100.12,-97.42 -100.12,-240.85 -100.12,-240.85 -14.06,-100.59 -16.11,-208.71 -7.55,-317.68 0.84,-11.83 1.86,-23.75 3.07,-35.58 3.18,-32.23 7.27,-64.36 12.29,-96.4 59.14,-381.39 243.36,-739.4 498.09,-780.47 229.49,-37.17 449.47,21.24 583.21,116.61 73.88,52.71 121.45,116.7 129.65,182.27 23.02,183.94 -781.87,1310.6 -1000.27,1241.68z"/>
  <path class="fil2" d="M4213.25 8739.54c0,0 -19.93,23.29 -50.2,57.84 -62.77,71.8 -169.78,192.14 -233.96,253.7 -59.51,56.9 -75.34,130.85 -75.34,130.85 -172.48,-34.46 -440.06,-333.05 -368.72,-592.06 6.06,-21.98 13.6,-42.56 22.35,-62.03 31.39,-70.32 79.16,-125.27 135.51,-173.14 89.05,-76 199.5,-134.21 300.17,-207.23 4.29,-3.26 8.57,-5.96 12.76,-8.38 7.83,-4.75 15.27,-8.29 22.73,-10.71 80.47,-28.04 134.3,65.94 169.6,188.22 52.53,180.68 65.1,422.93 65.1,422.93z"/>
  <path class="fil2" d="M3990.94 8072.7l-12.39 55.7 -8.65 38.19c0,0 -6.53,-26.54 -17.52,-21.33 -44.79,21.33 -171.65,106.27 -271.77,181.71l-89.87 69.39c0,0 -20.31,24.31 -20.4,24.4l-62.95 107.11 -2.43 2.61c-16.02,-34.28 -55.51,-129.83 -44.8,-222.13 4.01,-33.44 43.31,-77.21 94.06,-119.77 15,-12.48 30.92,-24.96 47.22,-37.07 0,0 0.09,-0.18 0.19,-0.18 59.71,-43.87 124.15,-82.52 163.27,-101.61 13.98,-6.9 28.41,-12.67 42.93,-17.51 59.9,-19.84 121.82,-21.14 159.17,9.69 0.38,0.28 0.84,0.65 1.12,0.84 9.41,7.91 17.14,17.79 22.83,29.99z"/>
  <path class="fil3" d="M4178.79 8802.79c-5.4,-1.68 -10.71,-3.54 -15.74,-5.4 -62.77,71.8 -169.78,192.14 -233.96,253.7 -59.51,56.9 -75.34,130.85 -75.34,130.85 -172.48,-34.46 -440.06,-333.05 -368.72,-592.06 6.06,-21.98 13.6,-42.56 22.35,-62.03l-2.42 2.61c-16.02,-34.28 -55.51,-129.83 -44.8,-222.13 5.03,-43.4 69.76,-103.94 141.29,-156.84 -27.28,24.77 -124.61,248.21 53.09,190 0.01,-0 -4.65,4.66 -11.64,13.23 -11.92,14.53 -30.83,40.51 -46.47,75.16 0,-0 0,0.18 -0.09,0.28 -27.47,60.91 -44.8,148.64 3.73,248.3 92.49,190.27 158.51,306.6 280.15,232.56 121.55,-73.95 182.36,-132.16 182.36,-132.16 0,-0 -2.14,-15.84 -2.14,-45.63 -0.09,-69.76 23.29,-163.08 102.54,-379.81 40.23,-109.99 101.33,-263.95 177.05,-409.7 243.18,-467.72 449.66,-641.89 709.41,-564.86 73.88,52.71 121.45,116.7 129.65,182.27 23.02,183.94 -781.87,1310.6 -1000.27,1241.68z"/>
  <path class="fil7" d="M4488.01 8860.81c-0.57,0.19 -0.94,0.47 -1.5,0.65 -51.13,21.6 -99.56,37.44 -144.08,47.68 -170.81,39.39 -283.04,-2.89 -255.65,-112.13 34.55,-137.94 230.79,-550.71 230.79,-550.71 61.65,-112.14 126.1,-222.22 193.16,-323.46 107.76,-163.08 222.22,-303.53 341.99,-394.06 62.5,-47.13 291.14,-122.75 366.02,58.12 70.04,169.13 -544.38,1194.64 -730.73,1273.9z"/>
  <path class="fil8" d="M4502.81 8910.35c-132.91,174.54 -232.19,234.42 -461.96,271.77 -247.27,40.33 -266.18,-34.09 -202.94,-154.79 29.81,-57 86.71,-111.39 138.68,-152.84 58.31,-46.85 110.18,-77.49 110.18,-77.49 0,0 0.28,0 0.84,0.19l395.37 63.42c1.2,0.18 2.41,0.37 3.53,0.84 20.78,5.68 29.8,31.2 16.31,48.89z"/>
  <path class="fil9" d="M4488.01 8860.81c-0.57,0.19 -0.94,0.47 -1.5,0.65 20.78,5.68 29.8,31.2 16.3,48.9 -132.91,174.53 -232.93,252.02 -462.79,289.37 -247.17,40.32 -265.34,-51.69 -202.1,-172.39 29.81,-57 86.71,-111.39 138.68,-152.84 2.71,-1.22 4.01,-1.77 4.01,-1.77 0,-0 -142.68,154.6 -39.68,249.69 103.39,95.37 384.56,-55.51 459.9,-162.52 13.97,-19.93 -0.19,-51.5 -17.88,-58.12 -141.37,-52.9 -287.13,-93.13 -301.76,-96.02 -0.55,-0.09 6.89,-15.37 6.89,-15.37 0.01,-0 238.71,5.03 415.85,-64.36 230.98,-90.53 517.27,-673.93 572.78,-907.88 55.51,-233.87 -332.96,-223.99 -564.86,107.1 0,0 -0.47,-0.84 -1.12,-2.42 107.76,-163.08 222.22,-303.53 341.99,-394.06 62.5,-47.13 291.14,-122.75 366.02,58.12 70.04,169.13 -544.38,1194.64 -730.73,1273.9z"/>
  <path class="fil3" d="M3959.46 8464.33c-26.45,-92.48 -114.09,-198.65 -275.03,-131.04 -161.03,67.61 227.44,-216.45 275.03,-223.06 0,-0 -21.14,105.71 -14.53,206.11 6.62,100.49 14.53,147.99 14.53,147.99z"/>
  <path class="fil3" d="M3952.39 8145.25c-44.8,21.33 -171.66,106.27 -271.78,181.71l-89.87 69.39c0,0 -20.31,24.31 -20.4,24.4l-62.95 107.11 -2.43 2.61c-16.02,-34.28 -55.51,-129.83 -44.8,-222.13 4.01,-33.44 43.31,-77.21 94.06,-119.77l20.68 -10.9c-62.12,58.12 -93.79,165.13 -22.45,171.74 71.35,6.61 407,-204.8 338.27,-278.85 -23.09,-24.87 -53.18,-35.3 -82.89,-38.37 59.9,-19.84 121.82,-21.14 159.17,9.69 0.38,0.28 0.84,0.65 1.12,0.84 9.41,7.91 -15.74,102.54 -15.73,102.54z"/>
  <path class="fil0" d="M3960.3 8500c-3.72,0 -7.08,-2.79 -7.55,-6.61 -34.27,-245.13 0.84,-537.76 93.79,-782.71 99.84,-263.11 252.4,-429.35 418.46,-456.08 318.16,-51.32 614.88,86.61 717.98,249.6 2.24,3.63 1.21,8.38 -2.42,10.62 -3.53,2.23 -8.29,1.21 -10.52,-2.42 -100.49,-158.79 -390.7,-293 -702.61,-242.71 -160.46,25.89 -308.65,188.6 -406.53,446.39 -92.01,242.71 -126.85,532.45 -92.95,775.16 0.56,4.19 -2.33,8.1 -6.52,8.66 -0.37,0.09 -0.74,0.09 -1.11,0.09z"/>
  <path class="fil0" d="M3834.38 9189.57c-0.65,0 -1.3,-0.09 -1.96,-0.28 -100.96,-27.2 -222.59,-135.6 -295.61,-263.48 -66.22,-115.86 -87.27,-235.91 -59.14,-337.99 49.46,-179.38 189.16,-268.97 337.06,-363.79 41.08,-26.36 83.54,-53.55 123.87,-82.8 3.27,-2.42 6.52,-4.57 9.69,-6.61 3.54,-2.33 8.29,-1.21 10.62,2.33 2.24,3.63 1.21,8.29 -2.42,10.62 -2.89,1.86 -5.87,3.91 -8.94,6.05 -40.6,29.52 -83.26,56.91 -124.52,83.26 -145.38,93.23 -282.66,181.24 -330.54,355.03 -27,98.07 -6.61,213.93 57.65,326.34 71.17,124.62 188.88,229.95 286.3,256.22 4.1,1.11 6.52,5.31 5.4,9.41 -0.92,3.44 -4,5.68 -7.45,5.68z"/>
  <path class="fil0" d="M4488.01 8868.44c-2.98,0 -5.78,-1.77 -7.09,-4.65 -1.58,-3.91 0.19,-8.38 4.1,-10.06 185.44,-78.89 787.27,-1061.74 726.36,-1264.59 -15.64,-52.16 -47.78,-86.53 -95.65,-102.17 -90.52,-29.62 -214.4,14.81 -258.36,47.96 -163.73,123.59 -333.15,350.84 -533.1,715.09 -1.77,3.72 -196.15,413.24 -230.05,548.84 -1.02,4.09 -5.21,6.61 -9.31,5.59 -4.1,-1.03 -6.61,-5.22 -5.59,-9.31 34.27,-137.1 223.24,-535.25 231.35,-552.1 201.27,-366.68 371.98,-595.41 537.48,-720.4 46.2,-34.84 176.77,-81.49 272.33,-50.29 52.92,17.32 88.48,55.13 105.61,112.41 34.29,114.18 -118.28,432.61 -272.42,692.55 -150.4,253.61 -359.31,546.61 -462.69,590.57 -0.93,0.37 -1.95,0.56 -2.97,0.56z"/>
  <path class="fil0" d="M3504.96 8538.19c-2.88,0 -5.59,-1.67 -6.89,-4.47 -17.32,-36.88 -56.35,-132.81 -45.45,-226.22 9.88,-84.67 224.92,-223.62 308.84,-264.69 63.34,-30.92 156.37,-51.32 210.49,-6.89 3.26,2.7 3.82,7.54 1.12,10.8 -2.7,3.26 -7.54,3.73 -10.8,1.02 -39.96,-32.69 -116.05,-29.24 -194,8.85 -85.96,42 -291.79,178.63 -300.45,252.68 -10.43,89.5 27.38,182.27 44.15,217.94 1.77,3.82 0.09,8.47 -3.73,10.25 -1.02,0.47 -2.14,0.74 -3.26,0.74z"/>
  <path class="fil0" d="M4088.36 8805.02c-21.61,13.13 -185.99,115.77 -243.73,225.86 -30.17,57.65 -35.95,100.59 -17.23,127.69 26.09,37.72 100.87,49.18 222.31,34.27 210.77,-26.08 323.55,-124.99 447.05,-287.13 5.03,-6.71 6.15,-15.27 3.07,-23 -3.07,-7.82 -9.87,-13.23 -18.07,-14.53l-393.4 -63.15zm-130.76 409.52c-73.85,0 -120.89,-15.64 -142.78,-47.22 -22.62,-32.6 -17.23,-79.54 16.3,-143.61 63.52,-121.27 244.11,-228.74 251.75,-233.3 1.59,-0.94 3.35,-1.21 5.12,-0.93l396.2 63.52c13.6,2.24 24.77,11.18 29.89,23.94 5.12,12.85 3.17,27.1 -5.12,38 -126.01,165.5 -241.22,266.46 -457.39,293.1 -35.11,4.37 -66.41,6.52 -93.97,6.51z"/>
  <path class="fil4" d="M4024.19 8309.72c51.5,-289.37 372.63,-907.78 630.33,-963.29 257.71,-55.51 -256.77,-201.17 -495.57,269.62 -186.27,367.33 -134.76,693.67 -134.76,693.67z"/>
  <path class="fil4" d="M3549.85 8260.83c22.63,-71.81 208.71,-223.24 278.75,-191.58 70.05,31.76 -43.59,111.02 -133.46,174.44 -89.87,63.42 -161.22,67.43 -145.29,17.14z"/>
  <path class="fil4" d="M3679.31 8432.67c-61.37,65.19 34.37,401.69 137.47,412.31 103.01,10.52 195.49,-56.81 186.27,-145.38 -9.22,-88.57 -195.58,-403 -323.74,-266.93z"/>
  <path class="fil10 str0" d="M530.2 3596.7c1694.66,-24.99 3389.48,-33.62 5084.3,-28.1 44.79,0.15 68.17,-0.11 111.52,12.59 -4.1,154.99 -113.98,562.12 -155.08,742.49 -111.58,489.18 -229.98,1008.48 -370.02,1489.08 -31.74,108.92 -94.16,345.57 -225.6,365.52 -122.12,18.54 -387.83,1.19 -528.03,1.2 -490.72,0.04 -981.59,-0.96 -1472.29,0.7 -194.78,0.76 -1724.88,14.7 -1782.43,-18.78 -109.75,-103.49 -164.71,-544.93 -201.5,-714.64 -132.41,-610.81 -297,-1220.04 -454.38,-1825.1l-6.48 -24.95z"/>
  <rect class="fil11 str1" x="1.56" y="2554.02" width="6266.83" height="1452.15" rx="292.92" ry="315.68"/>
  <path class="fil12 str2" d="M2212.68 2372.2c-541.87,561.9 -1090.19,1113.92 -1636.17,1671.3 -120.66,123.18 -189.64,213.53 -382.34,163.42 -177.91,-46.27 -221.16,-208.99 -158.78,-367.17 25.47,-64.58 64.65,-92.82 113.17,-141.6 531.98,-534.87 1074.27,-1054.3 1630.03,-1564.38l16.37 -15.02c81.3,-74.58 141.14,-129.66 260.11,-117.19 165.54,17.36 252.28,214.15 169.5,351.02l-11.88 19.63z"/>
  <circle class="fil13 str3" cx="1987.08" cy="2247.9" r="77.58"/>
  <path class="fil12 str2" d="M3954.92 2361.5c541.87,561.9 1090.19,1113.92 1636.17,1671.3 120.66,123.18 189.64,213.53 382.34,163.42 177.91,-46.27 221.16,-208.99 158.78,-367.17 -25.47,-64.58 -64.65,-92.82 -113.17,-141.6 -531.98,-534.87 -1074.27,-1054.3 -1630.03,-1564.38l-16.37 -15.02c-81.3,-74.58 -141.14,-129.66 -260.11,-117.19 -165.54,17.36 -252.28,214.15 -169.5,351.02l11.88 19.63z"/>
  <circle class="fil13 str3" cx="4147.36" cy="2238.92" r="77.58"/>
  <path class="fil14" d="M2791.38 3415.1c0,181.07 -146.78,327.85 -327.81,327.85 -181.05,0 -327.82,-146.78 -327.82,-327.84 0,-181.02 146.77,-327.8 327.82,-327.8 181.03,-0 327.81,146.78 327.81,327.8z"/>
  <path class="fil15" d="M2656.34 3150.45c33.55,51.41 53.13,112.8 53.13,178.74 0,181.07 -146.79,327.85 -327.84,327.85 -72.32,-0 -139.13,-23.49 -193.33,-63.15 58.49,89.69 159.65,149.06 274.72,149.06 181.06,0 327.84,-146.78 327.84,-327.84 0,-108.71 -53,-205.03 -134.52,-264.65z"/>
  <path class="fil16" d="M2463.57 3102.35c-172.46,0 -312.76,140.33 -312.76,312.75 0,172.46 140.31,312.79 312.76,312.79 172.47,0 312.75,-140.33 312.75,-312.79 0,-172.42 -140.28,-312.75 -312.75,-312.75zm0 655.65c-189.06,0 -342.88,-153.83 -342.88,-342.9 0,-189.02 153.81,-342.86 342.88,-342.86 189.08,0 342.87,153.84 342.87,342.86 0,189.07 -153.79,342.9 -342.87,342.9z"/>
  <path class="fil16" d="M2622.4 3462.03c0,87.72 -71.12,158.83 -158.83,158.83 -87.71,0 -158.82,-71.11 -158.82,-158.82 0,-87.72 71.11,-158.83 158.82,-158.83 87.71,0 158.83,71.11 158.83,158.82z"/>
  <path class="fil14" d="M2489.57 3433.21c0,35.88 -29.1,65 -65,65 -35.9,0 -65,-29.12 -65,-65 0,-35.92 29.1,-65 65,-65 35.9,-0 65,29.08 65,65z"/>
  <path class="fil16" d="M2084.24 3009.28c55.5,63.8 105.23,-51.49 277.06,-87.67 143.28,-30.16 232.86,41.6 257.73,-12.65 24.87,-54.25 -89.3,-129.79 -300.23,-96.45 -156.95,24.82 -298.99,122.73 -234.56,196.77z"/>
  <path class="fil16" d="M4180.33 2958.42c-46.46,70.68 -111.21,-36.91 -286.34,-49.73 -146,-10.71 -225.16,72.4 -257.08,21.98 -31.92,-50.46 71.07,-140.59 284.57,-135.81 158.87,3.57 312.75,81.56 258.85,163.56z"/>
  <path class="fil16" d="M4259.18 3363.39c0,0 -218.41,-169.49 -460.39,-121.14 -241.94,48.35 -315.54,238.93 -315.54,238.93 0,0 156.93,-84.49 379.3,-117.4 182.23,-26.93 396.63,-0.39 396.63,-0.39z"/>
  <path class="fil16" d="M3687.89 3126.44c-75.88,58.46 -140.76,130.43 -190.53,212.3 -13.89,22.84 -26.54,46.37 -37.94,70.51 -2.54,5.38 -1.51,11.92 3.96,15.1 4.78,2.8 12.52,1.42 15.06,-3.96 39.71,-84.06 94.73,-160.37 162.01,-224.51 18.63,-17.77 38.16,-34.67 58.55,-50.37 4.73,-3.61 7.23,-9.46 3.96,-15.1 -2.71,-4.6 -10.32,-7.57 -15.06,-3.96l0 0z"/>
  <path class="fil16" d="M3976.76 3629.63c-64.74,0.21 -129.4,-6.5 -192.73,-20.13 -63.28,-13.64 -125.27,-33.81 -184.21,-60.57 -33.55,-15.23 -66.12,-32.48 -97.61,-51.67 -12.13,-7.4 -23.23,11.66 -11.1,19.06 56.66,34.5 117.1,62.81 179.78,84.45 62.81,21.72 127.81,36.44 193.76,44.4 37.21,4.47 74.64,6.67 112.11,6.54 14.2,-0.04 14.24,-22.11 0,-22.07l0 0z"/>
  <path class="fil16" d="M2294.3 5154.07c22.89,6.75 379.24,117.91 762.2,94.81 505.6,-30.5 861.36,-638.57 861.36,-638.57 0,0 201.2,1000.49 -549.39,1129.33 -750.59,128.88 -1074.17,-585.57 -1074.17,-585.57z"/>
  <path class="fil14" d="M3783.64 4798.22c-147.85,181.37 -407.52,431.39 -727.1,450.66 -225.5,13.59 -441.76,-19.31 -586.13,-50.12 -6.19,74.25 2.45,149.1 50.59,203.31 46.68,52.61 119.68,72.27 188.98,84.36 244.09,42.59 498.84,22.54 733.26,-57.69 59.84,-20.48 118.86,-45.08 171.09,-80.79 170.91,-116.75 244.3,-357.06 169.32,-549.74z"/>
  <path class="fil16" d="M3867.92 4549.74c27.23,-15.36 60.31,-17.98 89.86,-8.05 28.48,9.55 50.63,31.66 62.89,58.72 6.88,15.14 9.85,31.83 9.25,48.4 -0.51,14.2 21.55,14.15 22.02,0 1.29,-35.19 -12.56,-70.21 -36.74,-95.72 -25.17,-26.5 -61.47,-40.61 -97.91,-39.28 -21.21,0.73 -41.99,6.45 -60.53,16.91 -12.35,6.97 -1.25,26.03 11.14,19.01l0 0z"/>
  <path class="fil16" d="M2370.38 5025.44c-47.2,-5.08 -96.39,15.27 -127.56,50.85 -31.96,36.39 -42.54,86.34 -30.9,133.14 6.48,26.03 19.88,50.24 38.9,69.17 10.07,10.02 25.66,-5.55 15.59,-15.57 -28.86,-28.74 -42.43,-72.14 -35.56,-112.32 7.06,-41.3 34.73,-74.72 72.42,-92.28 20.91,-9.77 44.22,-13.42 67.12,-10.97 5.93,0.65 11.02,-5.51 11.02,-11.01 0,-6.5 -5.08,-10.37 -11.02,-11.01l0 -0z"/>
 </g>
</svg>
