<?xml version="1.0" encoding="utf-8"?>
<!-- Generator: Adobe Illustrator 25.2.0, SVG Export Plug-In . SVG Version: 6.00 Build 0)  -->
<svg version="1.1" id="Layer_1" xmlns="http://www.w3.org/2000/svg" xmlns:xlink="http://www.w3.org/1999/xlink" x="0px" y="0px"
	 viewBox="0 0 1410.7 236.8" style="enable-background:new 0 0 1410.7 236.8;" xml:space="preserve">
<style type="text/css">
	.st0{fill:#324B64;}
	.st1{fill:#FFBC2C;}
	.st2{fill:#2C83FF;}
</style>
<g>
	<g>
		<polygon class="st0" points="356.3,114.7 317.5,50.7 290,50.7 290,186 316.7,186 316.7,98.5 354.8,161.1 357.9,161.1 395.9,98.3 
			395.9,186 422.4,186 422.4,50.7 395,50.7 		"/>
		<path class="st0" d="M516,100.8c-7-8.7-17.4-14.1-31.5-14.1c-25.7,0-47,22.2-47,51s21.3,51,47,51c14.1,0,24.5-5.4,31.5-14.1V186
			h24.9V89.4H516V100.8z M489.1,165c-15.3,0-26.7-11-26.7-27.3c0-16.2,11.4-27.3,26.7-27.3c15.5,0,26.9,11,26.9,27.3
			C516,153.9,504.6,165,489.1,165z"/>
		<polygon class="st0" points="647.6,89.4 617.8,89.4 584.6,131.9 584.6,50.7 559.6,50.7 559.6,186 584.6,186 584.6,142.2 
			619.8,186 648.8,186 608.7,137.1 		"/>
		<path class="st0" d="M696.3,86.7c-30.3,0-51,22.2-51,51s20.5,51,53,51c18.6,0,33.1-7.5,42.1-20.7l-20.1-11.6
			c-4.3,5.6-12,9.7-21.6,9.7c-13.1,0-23.8-5.4-27.3-18.2h72.9c0.6-3.3,1-6.6,1-10.2C745.2,109.3,724.9,86.7,696.3,86.7z M671,128.6
			c2.9-12.4,12-19.5,25.3-19.5c10.4,0,20.9,5.6,24,19.5H671z"/>
		<polygon class="st0" points="821.4,50.7 792,107.2 762.6,50.7 732.4,50.7 778.6,133.3 778.6,186 805.1,186 805.1,133.3 
			851.5,50.7 		"/>
		<path class="st0" d="M886.1,86.7c-28.4,0-51,22.2-51,51s22.6,51,51,51c28.4,0,51.2-22.2,51.2-51S914.5,86.7,886.1,86.7z
			 M886.1,164.4c-14.7,0-26.1-11-26.1-26.7s11.4-26.7,26.1-26.7c14.9,0,26.3,11,26.3,26.7S901,164.4,886.1,164.4z"/>
		<path class="st0" d="M1014.8,141.6c0,16.8-9.1,24-21.3,24c-11.2,0-19.1-6.8-19.1-19.9V89.4h-24.9v59.3c0,25.7,16,40,36.5,40
			c13,0,23-4.8,28.8-13.5V186h24.9V89.4h-24.9V141.6z"/>
		<path class="st0" d="M1083.7,106V89.4h-24.9V186h24.9v-46.2c0-20.3,16.4-26.1,29.4-24.5V87.5C1100.9,87.5,1088.7,92.9,1083.7,106z
			"/>
		<polygon class="st0" points="1248.5,151 1220.1,50.7 1197.3,50.7 1169.1,151 1143.2,50.7 1115.2,50.7 1153,186 1183.4,186 
			1208.7,96.7 1234.2,186 1264.6,186 1302.5,50.7 1274.4,50.7 		"/>
		<path class="st0" d="M1364.5,50.7h-50.4V186h26.7v-44.5h23.8c26.1,0,46.2-20.1,46.2-45.4C1410.7,70.8,1390.6,50.7,1364.5,50.7z
			 M1364.5,116.6h-23.8v-41h23.8c11.4,0,19.7,8.7,19.7,20.5C1384.2,107.8,1375.9,116.6,1364.5,116.6z"/>
	</g>
	<g>
		<path class="st1" d="M231.6,85.3C217.3,36.1,171.7,0,117.9,0C59.6,0,10.9,42.4,1.3,98.1c-0.5,3.1-1,6.3-1.3,9.5
			c-0.5,5.8,4.1,10.8,9.9,10.8H81c5.5,0,9.9-4.4,9.9-9.9V108c0-5.5-4.4-9.9-9.9-9.9H23.6c8.2-21.7,29.2-37.2,53.8-37.2
			c22.5,0,42,13,51.5,31.9c1.6,3.3,5.1,5.3,8.8,5.3h0.5c7.3,0,12.2-7.7,8.9-14.3c-11.3-22.7-33.4-39.1-59.5-42.6
			c3.3-0.4,6.7-0.7,10.1-0.7c33.6,0,62.2,21.3,73.1,51.2c1.4,3.8,5.1,6.3,9.2,6.3h0.5c6.9,0,11.7-6.8,9.3-13.3
			c-12.6-34.6-44.2-60.1-82-64c3.3-0.3,6.7-0.5,10.2-0.5c44.5,0,82.2,29.8,94.1,70.5c1.3,4.3,5.1,7.3,9.5,7.3h0.5
			C228.8,98.1,233.5,91.7,231.6,85.3z"/>
		<path class="st2" d="M226,118.4h-71.1c-5.5,0-9.9,4.4-9.9,9.9v0.5c0,5.5,4.4,9.9,9.9,9.9h57.4c-8.2,21.7-29.2,37.2-53.8,37.2
			c-22.5,0-42.1-13-51.5-31.9c-1.6-3.3-5.1-5.3-8.8-5.3h-0.5c-7.3,0-12.2,7.7-8.9,14.3c11.3,22.7,33.4,39.1,59.5,42.6
			c-3.3,0.4-6.7,0.7-10.2,0.7c-33.5,0-62.2-21.3-73.1-51.2c-1.4-3.8-5.1-6.3-9.2-6.3h-0.5c-6.9,0-11.7,6.8-9.3,13.3
			c12.6,34.6,44.2,60.1,82,64c-3.3,0.3-6.7,0.5-10.2,0.5c-44.5,0-82.2-29.8-94.2-70.5c-1.3-4.3-5.1-7.3-9.5-7.3h-0.5
			c-6.6,0-11.3,6.4-9.5,12.8c14.3,49.2,59.9,85.3,113.7,85.3c58.4,0,107-42.5,116.6-98.1c0.5-3.1,1-6.3,1.3-9.5
			C236.4,123.4,231.8,118.4,226,118.4z"/>
	</g>
</g>
</svg>
