<?xml version="1.0" encoding="utf-8"?>
<svg width="51" height="58" viewBox="0 0 51 58" fill="none" xmlns="http://www.w3.org/2000/svg">
<circle opacity="0.2" cx="23.5" cy="34.5" r="23.5" fill="#F4F6F8"/>
<path fill-rule="evenodd" clip-rule="evenodd" d="M35.8743 46.4695C29.0402 53.3037 17.9598 53.3037 11.1256 46.4695C7.42956 42.7735 5.73273 37.8331 6.03409 33L9.02827 33.1867C8.7782 37.1973 10.1848 41.286 13.2469 44.3482C18.9095 50.0108 28.0904 50.0108 33.753 44.3482C36.6457 41.4555 38.0606 37.6476 37.998 33.8543L40.9976 33.8048C41.073 38.3771 39.3652 42.9787 35.8743 46.4695Z" fill="#4186F6"/>
<path d="M50.4489 17.4295C48.0612 16.2442 45.8524 14.7297 43.8873 12.9307C44.8968 9.12184 45.6457 5.24892 46.129 1.33872C46.2423 0.427799 45.734 0.133837 45.5762 0.0655806C45.1313 -0.103396 44.6288 0.0629292 44.3733 0.463666C40.904 4.60577 36.152 4.13317 31.1207 3.63001C26.0502 3.12394 20.819 2.61053 16.9407 7.05318C16.3983 6.37765 15.5046 6.08985 14.6689 6.32159L14.5816 6.34601C13.4315 6.66833 12.7598 7.85854 13.0797 9.00698L20.8193 36.6441C21.0439 37.444 21.7735 37.9977 22.606 38C22.7757 37.9997 22.9446 37.9765 23.1081 37.9309L23.7853 37.7421H23.7859C24.2605 37.6098 24.6629 37.2947 24.9046 36.8663C25.1464 36.4379 25.2076 35.9311 25.0749 35.4576L22.6778 26.8971C26.1686 22.4179 31.0331 22.8922 36.1798 23.4052C41.3206 23.9176 46.631 24.4464 50.5321 19.7913L50.5339 19.7888C50.9171 19.3122 51.0749 18.6935 50.9666 18.0921C50.9096 17.8016 50.7173 17.5556 50.4489 17.4295ZM23.7996 36.2455C23.7234 36.382 23.5955 36.4823 23.4446 36.5239L22.7673 36.7126C22.4535 36.7996 22.1284 36.6168 22.0405 36.3039L14.3005 8.66659C14.1684 8.19064 14.4468 7.69771 14.9233 7.56412L15.01 7.54002C15.0884 7.51799 15.1694 7.50686 15.2509 7.50693C15.653 7.50758 16.0058 7.77448 16.115 8.16065L16.1836 8.40584V8.40716L20.1476 22.5616L23.854 35.7977C23.8965 35.9482 23.8769 36.1095 23.7996 36.2455ZM49.5581 18.9807C46.0882 23.1215 41.3355 22.648 36.3062 22.1461C31.296 21.6463 26.1252 21.1308 22.2613 25.4076L18.7981 13.0418L17.4895 8.3687C20.9804 3.89038 25.8444 4.37589 30.9951 4.88904C35.8857 5.37582 40.9343 5.87992 44.7751 1.90988C44.3017 5.51569 43.5962 9.08733 42.6628 12.6027C42.5365 13.0572 42.6797 13.5439 43.0324 13.858C45.0474 15.6988 47.303 17.2589 49.7375 18.4958C49.724 18.6709 49.6619 18.8388 49.5581 18.9807Z" fill="white"/>
</svg>
