<svg width="27" height="22" viewBox="0 0 27 22" fill="none" xmlns="http://www.w3.org/2000/svg"><path d="M.556 3.01v16.31c0 1.294 1.07 2.347 2.384 2.347h21.01c1.314 0 2.384-1.053 2.384-2.346V3.009c0-1.294-1.07-2.346-2.384-2.346H2.94C1.626.663.556 1.716.556 3.009zm1.428 9.608a.263.263 0 01-.266-.261V9.973c0-.144.119-.261.266-.261h.132c.147 0 .266.117.266.261v2.384a.263.263 0 01-.266.261h-.132zm23.512-1.453a.844.844 0 01-.852.838.844.844 0 01-.851-.838c0-.462.38-.838.851-.838.47 0 .852.376.852.838zM22.7 2.374c.3 0 .545.266.545.594v16.394c0 .328-.244.595-.545.595H4.19c-.301 0-.546-.267-.546-.595V2.968c0-.327.245-.594.545-.594H22.7z" fill="#000"/></svg>