<svg width="22" height="27" viewBox="0 0 22 27" fill="none" xmlns="http://www.w3.org/2000/svg"><path d="M18.992.556H2.681C1.387.556.334 1.626.334 2.94v21.01c0 1.314 1.053 2.384 2.347 2.384h16.311c1.294 0 2.347-1.07 2.347-2.384V2.94c0-1.314-1.053-2.384-2.347-2.384zM9.383 1.984c0-.147.117-.266.262-.266h2.383c.145 0 .262.119.262.266v.132a.263.263 0 01-.262.266H9.645a.263.263 0 01-.262-.266v-.132zm1.453 23.512a.844.844 0 01-.837-.852c0-.47.374-.851.837-.851.463 0 .838.38.838.851 0 .47-.375.852-.838.852zm8.792-2.796c0 .3-.267.545-.595.545H2.64c-.327 0-.594-.244-.594-.545V4.19c0-.301.266-.546.594-.546h16.394c.328 0 .595.245.595.545V22.7z" fill="#000"/></svg>