<?xml version="1.0" encoding="utf-8"?>
<svg width="56" height="55" viewBox="0 0 56 55" fill="none" xmlns="http://www.w3.org/2000/svg">
<path d="M55.6855 25.4763C55.492 25.2183 55.234 24.9604 54.8471 24.8959L47.9459 23.3479C47.8169 22.7675 47.6879 22.2515 47.5589 21.7355L53.1056 17.2852C53.3636 17.0917 53.5571 16.7692 53.5571 16.4467C53.6216 16.1243 53.4926 15.7373 53.2991 15.4793L44.9145 4.90178C44.463 4.3213 43.6891 4.2568 43.1086 4.70828L37.5619 9.15858C37.0459 8.90059 36.5944 8.6426 36.0784 8.44911V1.28994C36.0784 0.580473 35.4979 0 34.7885 0H21.2441C20.5346 0 19.9542 0.580473 19.9542 1.28994V8.44911C19.3737 8.7071 18.8577 8.96509 18.3417 9.22308L12.7305 4.83728C12.4725 4.64379 12.15 4.51479 11.763 4.57929C11.4406 4.64379 11.1181 4.77278 10.9246 5.03077L2.53996 15.6728C2.08848 16.2533 2.21748 17.0272 2.73345 17.4787L8.3447 21.929C8.2157 22.445 8.08671 23.0254 7.95771 23.5414L0.992034 25.0893C0.282566 25.2828 -0.104416 25.9278 0.0245782 26.6373L3.12044 39.7947C3.18493 40.1172 3.37842 40.4396 3.70091 40.5686C3.8944 40.6976 4.15239 40.7621 4.41038 40.7621C4.53937 40.7621 4.60387 40.7621 4.73286 40.6976L11.6985 39.0852C12.021 39.5367 12.3435 39.9882 12.7305 40.3751L9.63464 46.8249C9.31215 47.4698 9.57014 48.2438 10.2151 48.5663L22.4051 54.371C22.5985 54.4355 22.792 54.5 22.9855 54.5C23.437 54.5 23.953 54.242 24.1465 53.7905L27.2423 47.3408C27.5003 47.3408 27.7583 47.3408 28.0163 47.3408C28.3388 47.3408 28.5968 47.3408 28.9193 47.3408L32.0151 53.7905C32.1441 54.113 32.4021 54.3065 32.7246 54.4355C32.8536 54.5 32.9826 54.5 33.1761 54.5C33.3695 54.5 33.563 54.4355 33.7565 54.371L45.9465 48.5018C46.269 48.3728 46.4624 48.1148 46.5914 47.7923C46.7204 47.4698 46.6559 47.0828 46.5269 46.8249L43.4311 40.3751C43.8181 39.9882 44.1405 39.5367 44.463 39.0852L51.2997 40.6331C51.3642 40.6331 51.4932 40.6331 51.5577 40.6331C51.8157 40.6331 52.0092 40.5686 52.2672 40.4396C52.5252 40.2462 52.7831 39.9882 52.8476 39.6012L55.879 26.4438C55.9435 26.1213 55.879 25.7988 55.6855 25.4763ZM50.6547 37.7953L44.076 36.3118C44.0116 36.3118 44.0116 36.3118 43.9471 36.3118C43.8826 36.3118 43.8826 36.3118 43.8181 36.3118H43.7536C43.6891 36.3118 43.6246 36.3118 43.5601 36.3118H43.4956C43.4311 36.3118 43.3666 36.3118 43.3021 36.3763C43.3021 36.3763 43.2376 36.3763 43.2376 36.4408C43.1731 36.4408 43.1086 36.5053 43.1086 36.5053L43.0441 36.5698C42.9796 36.5698 42.9796 36.6343 42.9151 36.6343L42.8506 36.6988C42.7861 36.7633 42.7861 36.8278 42.7216 36.8923C42.1411 37.7308 41.5607 38.5047 40.8512 39.2142C40.7867 39.2787 40.7867 39.2787 40.7222 39.3432L40.6577 39.4077C40.6577 39.4722 40.5932 39.4722 40.5932 39.5367C40.5932 39.6012 40.5287 39.6012 40.5287 39.6657C40.5287 39.7302 40.5287 39.7302 40.4642 39.7947C40.4642 39.8592 40.4642 39.8592 40.4642 39.9237C40.4642 39.9882 40.4642 39.9882 40.4642 40.0527C40.4642 40.1172 40.4642 40.1172 40.4642 40.1817C40.4642 40.2462 40.4642 40.2462 40.4642 40.3106C40.4642 40.3751 40.4642 40.3751 40.4642 40.4396C40.4642 40.5041 40.4642 40.5041 40.5287 40.5686C40.5287 40.6331 40.5287 40.6331 40.5932 40.6976L43.4956 46.7604L33.6275 51.5331L30.7252 45.4704C30.6607 45.4059 30.6607 45.3414 30.5962 45.2769C30.4027 45.0189 30.1447 44.8254 29.8222 44.8254C29.8222 44.8254 29.8222 44.8254 29.7577 44.8254C29.6932 44.8254 29.6287 44.8254 29.6287 44.8254C29.5642 44.8254 29.5642 44.8254 29.4997 44.8254C28.4678 44.8899 27.4358 44.8899 26.4684 44.8254C26.4039 44.8254 26.4039 44.8254 26.3394 44.8254C26.2749 44.8254 26.2749 44.8254 26.2104 44.8254H26.1459C26.0814 44.8254 26.0169 44.8254 25.9524 44.8899H25.8879C25.8234 44.8899 25.7589 44.9544 25.6944 44.9544C25.6944 44.9544 25.6299 44.9544 25.6299 45.0189C25.5654 45.0189 25.5654 45.0834 25.5009 45.1479L25.4364 45.2124C25.3719 45.2769 25.3719 45.2769 25.3074 45.3414L25.2429 45.4059C25.2429 45.4704 25.1784 45.4704 25.1784 45.5349L22.2761 51.5976L12.4725 46.8249L15.3749 40.7621C15.3749 40.6976 15.4394 40.6976 15.4394 40.6331C15.4394 40.5686 15.4394 40.5686 15.5039 40.5041C15.5039 40.4396 15.5039 40.4396 15.5039 40.3751C15.5039 40.3106 15.5039 40.3107 15.5039 40.2462C15.5039 40.1817 15.5039 40.1817 15.5039 40.1172C15.5039 40.0527 15.5039 40.0527 15.5039 39.9882C15.5039 39.9237 15.5039 39.9237 15.5039 39.8592C15.5039 39.7947 15.5039 39.7947 15.5039 39.7302C15.5039 39.6657 15.4394 39.6657 15.4394 39.6012C15.4394 39.5367 15.3749 39.5367 15.3749 39.4722L15.3104 39.4077C15.3104 39.3432 15.2459 39.3432 15.2459 39.2787C14.5364 38.5047 13.8914 37.7308 13.3755 36.9568C13.3755 36.8923 13.311 36.8923 13.2465 36.8278L13.182 36.7633C13.1175 36.6988 13.1175 36.6988 13.053 36.6988L12.9885 36.6343C12.924 36.6343 12.924 36.5698 12.8595 36.5698C12.8595 36.5698 12.795 36.5698 12.795 36.5053C12.7305 36.5053 12.7305 36.5053 12.666 36.4408C12.6015 36.4408 12.6015 36.4408 12.6015 36.4408C12.537 36.4408 12.537 36.4408 12.4725 36.4408C12.408 36.4408 12.408 36.4408 12.3435 36.4408C12.279 36.4408 12.279 36.4408 12.2145 36.4408C12.15 36.4408 12.0855 36.4408 12.0855 36.4408L5.57132 37.9888L3.05594 27.3467L9.37665 25.7988H9.44114C9.50564 25.7988 9.57014 25.7988 9.57014 25.7343C9.57014 25.7343 9.63464 25.7343 9.63464 25.6698C9.69913 25.6698 9.69913 25.6053 9.76363 25.6053L9.82813 25.5408C9.89262 25.5408 9.89262 25.4763 9.95712 25.4763L10.0216 25.4118C10.0216 25.3473 10.0861 25.3473 10.0861 25.2828L10.1506 25.2183C10.1506 25.1538 10.2151 25.1538 10.2151 25.0893C10.2151 25.0893 10.2151 25.0249 10.2796 25.0249C10.2796 24.9604 10.2796 24.9604 10.3441 24.8959C10.3441 24.8314 10.3441 24.8314 10.3441 24.7669C10.4731 23.7349 10.6666 22.7675 10.9891 21.8C10.9891 21.671 11.0536 21.6065 11.0536 21.4775V21.413C11.0536 21.3485 11.0536 21.3485 11.0536 21.284C11.0536 21.2195 11.0536 21.2195 11.0536 21.155C11.0536 21.0905 11.0536 21.0905 10.9891 21.026C10.9891 20.9615 10.9891 20.9615 10.9246 20.897C10.9246 20.8325 10.8601 20.8325 10.8601 20.768C10.8601 20.7036 10.7956 20.7036 10.7956 20.7036C10.7956 20.6391 10.7311 20.6391 10.7311 20.5746L10.6666 20.5101L10.6021 20.4456L5.31334 16.3178L12.0855 7.73965L17.3743 11.8675C17.4388 11.8675 17.4388 11.932 17.5033 11.932L17.5678 11.9965C17.6323 12.0609 17.7613 12.0609 17.8258 12.1254C17.8258 12.1254 17.8258 12.1254 17.8903 12.1254C17.9548 12.1254 18.0837 12.1254 18.1482 12.1254C18.1482 12.1254 18.1482 12.1254 18.2127 12.1254H18.2772C18.3417 12.1254 18.4707 12.1254 18.5352 12.0609H18.5997C18.7287 12.0609 18.7932 11.9964 18.9222 11.932C19.8252 11.416 20.7281 10.9645 21.7601 10.5775C21.8246 10.5775 21.8246 10.513 21.8891 10.513L21.9536 10.4485C22.0181 10.4485 22.0181 10.384 22.0826 10.384L22.1471 10.3195L22.2116 10.255L22.2761 10.1905C22.2761 10.126 22.3406 10.126 22.3406 10.0615C22.3406 9.99704 22.4051 9.99704 22.4051 9.93254C22.4051 9.86805 22.4051 9.86805 22.4695 9.80355C22.4695 9.73905 22.4695 9.73905 22.534 9.67456C22.534 9.61006 22.534 9.61006 22.534 9.54556C22.534 9.48106 22.534 9.41657 22.534 9.41657V2.57988H33.4985V9.28757C33.4985 9.35207 33.4985 9.41657 33.4985 9.41657C33.4985 9.48107 33.4985 9.48106 33.4985 9.54556C33.4985 9.61006 33.4985 9.61006 33.563 9.67456C33.563 9.73905 33.563 9.73905 33.6275 9.80355C33.6275 9.86805 33.692 9.86805 33.692 9.93254C33.692 9.99704 33.7565 9.99704 33.7565 10.0615C33.7565 10.126 33.821 10.126 33.821 10.1905L33.8855 10.255C33.8855 10.255 33.95 10.3195 34.0145 10.3195C34.079 10.3195 34.079 10.384 34.1435 10.384C34.1435 10.384 34.208 10.4485 34.2725 10.4485C34.337 10.4485 34.337 10.513 34.4015 10.513C35.3045 10.8355 36.2074 11.287 37.1104 11.803C37.1749 11.8675 37.3039 11.8675 37.3684 11.932H37.4329C37.4974 11.932 37.5619 11.932 37.6908 11.932C37.6908 11.932 37.6908 11.932 37.7553 11.932C37.7553 11.932 37.7553 11.932 37.8198 11.932C37.8843 11.932 38.0133 11.932 38.0778 11.8675C38.0778 11.8675 38.0778 11.8675 38.1423 11.8675C38.2068 11.8675 38.3358 11.803 38.4003 11.7385C38.4003 11.7385 38.4648 11.7385 38.4648 11.674C38.5293 11.674 38.5293 11.6095 38.5938 11.6095L43.8181 7.41716L50.5258 16.0598L45.3015 20.2521C45.237 20.2521 45.237 20.3166 45.1725 20.3811L45.108 20.4456C45.108 20.5101 45.0435 20.5101 45.0435 20.5746C45.0435 20.6391 44.979 20.6391 44.979 20.7036C44.979 20.768 44.9145 20.768 44.9145 20.8325C44.9145 20.897 44.9145 20.897 44.85 20.9615C44.85 21.026 44.85 21.026 44.85 21.0905C44.85 21.155 44.85 21.155 44.85 21.2195C44.85 21.284 44.85 21.284 44.85 21.3485C44.85 21.413 44.85 21.413 44.85 21.4775C44.85 21.542 44.85 21.542 44.85 21.6065C44.85 21.671 44.85 21.671 44.85 21.7355C45.1725 22.6385 45.366 23.6059 45.495 24.6379C45.495 24.6379 45.495 24.6379 45.495 24.7024C45.495 24.7669 45.495 24.7669 45.495 24.8314C45.495 24.8959 45.495 24.8959 45.5595 24.9604C45.5595 25.0249 45.5595 25.0249 45.624 25.0893C45.624 25.1538 45.6885 25.1538 45.6885 25.2183C45.6885 25.2828 45.753 25.2828 45.753 25.3473L45.8175 25.4118C45.8175 25.4763 45.882 25.4763 45.882 25.5408L45.9465 25.6053C46.011 25.6053 46.011 25.6698 46.0755 25.6698C46.0755 25.6698 46.14 25.6698 46.14 25.7343C46.2045 25.7343 46.2045 25.7988 46.269 25.7988H46.3334C46.3979 25.7988 46.3979 25.8633 46.4624 25.8633L52.9766 27.3467L50.6547 37.7953Z" fill="#4186F6"/>
<path d="M35.885 25.7984H29.3063V19.1552C29.3063 18.4457 28.7258 17.8652 28.0164 17.8652C27.3069 17.8652 26.7264 18.4457 26.7264 19.1552V25.7984H20.0832C19.3737 25.7984 18.7933 26.3788 18.7933 27.0883C18.7933 27.7978 19.3737 28.3783 20.0832 28.3783H26.6619V35.0214C26.6619 35.7309 27.2424 36.3114 27.9519 36.3114C28.6613 36.3114 29.2418 35.7309 29.2418 35.0214V28.3783H35.885C36.5945 28.3783 37.1749 27.7978 37.1749 27.0883C37.1749 26.3788 36.5945 25.7984 35.885 25.7984Z" fill="#FFBF50"/>
</svg>
