<?xml version="1.0" encoding="UTF-8"?><svg xmlns="http://www.w3.org/2000/svg" xmlns:xlink="http://www.w3.org/1999/xlink" contentScriptType="text/ecmascript" width="900" zoomAndPan="magnify" contentStyleType="text/css" viewBox="0 0 900 899.99999" height="899.99999" preserveAspectRatio="xMidYMid meet" version="1.0"><defs><clipPath id="clip-0"><path d="M 239 185 L 677 185 L 677 658 L 239 658 Z M 239 185 " clip-rule="nonzero"/></clipPath><clipPath id="clip-1"><path d="M 127.023438 222.828125 L 629.871094 158.074219 L 690.984375 632.65625 L 188.136719 697.410156 Z M 127.023438 222.828125 " clip-rule="nonzero"/></clipPath><clipPath id="clip-2"><path d="M 127.023438 222.828125 L 629.871094 158.074219 L 690.984375 632.65625 L 188.136719 697.410156 Z M 127.023438 222.828125 " clip-rule="nonzero"/></clipPath><clipPath id="clip-3"><path d="M 127.023438 222.828125 L 629.871094 158.074219 L 690.984375 632.65625 L 188.136719 697.410156 Z M 127.023438 222.828125 " clip-rule="nonzero"/></clipPath><clipPath id="clip-4"><path d="M 455 265 L 677 265 L 677 658 L 455 658 Z M 455 265 " clip-rule="nonzero"/></clipPath><clipPath id="clip-5"><path d="M 127.023438 222.828125 L 629.871094 158.074219 L 690.984375 632.65625 L 188.136719 697.410156 Z M 127.023438 222.828125 " clip-rule="nonzero"/></clipPath><clipPath id="clip-6"><path d="M 127.023438 222.828125 L 629.871094 158.074219 L 690.984375 632.65625 L 188.136719 697.410156 Z M 127.023438 222.828125 " clip-rule="nonzero"/></clipPath><clipPath id="clip-7"><path d="M 127.023438 222.828125 L 629.871094 158.074219 L 690.984375 632.65625 L 188.136719 697.410156 Z M 127.023438 222.828125 " clip-rule="nonzero"/></clipPath><clipPath id="clip-8"><path d="M 239 317 L 489 317 L 489 658 L 239 658 Z M 239 317 " clip-rule="nonzero"/></clipPath><clipPath id="clip-9"><path d="M 127.023438 222.828125 L 629.871094 158.074219 L 690.984375 632.65625 L 188.136719 697.410156 Z M 127.023438 222.828125 " clip-rule="nonzero"/></clipPath><clipPath id="clip-10"><path d="M 127.023438 222.828125 L 629.871094 158.074219 L 690.984375 632.65625 L 188.136719 697.410156 Z M 127.023438 222.828125 " clip-rule="nonzero"/></clipPath><clipPath id="clip-11"><path d="M 127.023438 222.828125 L 629.871094 158.074219 L 690.984375 632.65625 L 188.136719 697.410156 Z M 127.023438 222.828125 " clip-rule="nonzero"/></clipPath><clipPath id="clip-12"><path d="M 314 210 L 554 210 L 554 402 L 314 402 Z M 314 210 " clip-rule="nonzero"/></clipPath><clipPath id="clip-13"><path d="M 127.023438 222.828125 L 629.871094 158.074219 L 690.984375 632.65625 L 188.136719 697.410156 Z M 127.023438 222.828125 " clip-rule="nonzero"/></clipPath><clipPath id="clip-14"><path d="M 127.023438 222.828125 L 629.871094 158.074219 L 690.984375 632.65625 L 188.136719 697.410156 Z M 127.023438 222.828125 " clip-rule="nonzero"/></clipPath><clipPath id="clip-15"><path d="M 127.023438 222.828125 L 629.871094 158.074219 L 690.984375 632.65625 L 188.136719 697.410156 Z M 127.023438 222.828125 " clip-rule="nonzero"/></clipPath><clipPath id="clip-16"><path d="M 505 525 L 569 525 L 569 585 L 505 585 Z M 505 525 " clip-rule="nonzero"/></clipPath><clipPath id="clip-17"><path d="M 127.023438 222.828125 L 629.871094 158.074219 L 690.984375 632.65625 L 188.136719 697.410156 Z M 127.023438 222.828125 " clip-rule="nonzero"/></clipPath><clipPath id="clip-18"><path d="M 127.023438 222.828125 L 629.871094 158.074219 L 690.984375 632.65625 L 188.136719 697.410156 Z M 127.023438 222.828125 " clip-rule="nonzero"/></clipPath><clipPath id="clip-19"><path d="M 127.023438 222.828125 L 629.871094 158.074219 L 690.984375 632.65625 L 188.136719 697.410156 Z M 127.023438 222.828125 " clip-rule="nonzero"/></clipPath><clipPath id="clip-20"><path d="M 510 578 L 551 578 L 551 623 L 510 623 Z M 510 578 " clip-rule="nonzero"/></clipPath><clipPath id="clip-21"><path d="M 127.023438 222.828125 L 629.871094 158.074219 L 690.984375 632.65625 L 188.136719 697.410156 Z M 127.023438 222.828125 " clip-rule="nonzero"/></clipPath><clipPath id="clip-22"><path d="M 127.023438 222.828125 L 629.871094 158.074219 L 690.984375 632.65625 L 188.136719 697.410156 Z M 127.023438 222.828125 " clip-rule="nonzero"/></clipPath><clipPath id="clip-23"><path d="M 127.023438 222.828125 L 629.871094 158.074219 L 690.984375 632.65625 L 188.136719 697.410156 Z M 127.023438 222.828125 " clip-rule="nonzero"/></clipPath><clipPath id="clip-24"><path d="M 314 345 L 369 345 L 369 402 L 314 402 Z M 314 345 " clip-rule="nonzero"/></clipPath><clipPath id="clip-25"><path d="M 127.023438 222.828125 L 629.871094 158.074219 L 690.984375 632.65625 L 188.136719 697.410156 Z M 127.023438 222.828125 " clip-rule="nonzero"/></clipPath><clipPath id="clip-26"><path d="M 127.023438 222.828125 L 629.871094 158.074219 L 690.984375 632.65625 L 188.136719 697.410156 Z M 127.023438 222.828125 " clip-rule="nonzero"/></clipPath><clipPath id="clip-27"><path d="M 127.023438 222.828125 L 629.871094 158.074219 L 690.984375 632.65625 L 188.136719 697.410156 Z M 127.023438 222.828125 " clip-rule="nonzero"/></clipPath><clipPath id="clip-28"><path d="M 160 419 L 344 419 L 344 630 L 160 630 Z M 160 419 " clip-rule="nonzero"/></clipPath><clipPath id="clip-29"><path d="M 127.023438 222.828125 L 629.871094 158.074219 L 690.984375 632.65625 L 188.136719 697.410156 Z M 127.023438 222.828125 " clip-rule="nonzero"/></clipPath><clipPath id="clip-30"><path d="M 127.023438 222.828125 L 629.871094 158.074219 L 690.984375 632.65625 L 188.136719 697.410156 Z M 127.023438 222.828125 " clip-rule="nonzero"/></clipPath><clipPath id="clip-31"><path d="M 127.023438 222.828125 L 629.871094 158.074219 L 690.984375 632.65625 L 188.136719 697.410156 Z M 127.023438 222.828125 " clip-rule="nonzero"/></clipPath><clipPath id="clip-32"><path d="M 243 419 L 344 419 L 344 630 L 243 630 Z M 243 419 " clip-rule="nonzero"/></clipPath><clipPath id="clip-33"><path d="M 127.023438 222.828125 L 629.871094 158.074219 L 690.984375 632.65625 L 188.136719 697.410156 Z M 127.023438 222.828125 " clip-rule="nonzero"/></clipPath><clipPath id="clip-34"><path d="M 127.023438 222.828125 L 629.871094 158.074219 L 690.984375 632.65625 L 188.136719 697.410156 Z M 127.023438 222.828125 " clip-rule="nonzero"/></clipPath><clipPath id="clip-35"><path d="M 127.023438 222.828125 L 629.871094 158.074219 L 690.984375 632.65625 L 188.136719 697.410156 Z M 127.023438 222.828125 " clip-rule="nonzero"/></clipPath></defs><path fill="rgb(100%, 74.899292%, 31.369019%)" d="M 820.636719 260.734375 L 382.953125 39.265625 C 338.492188 16.769531 283.230469 34.894531 260.734375 79.355469 L 39.265625 517.039062 C 16.769531 561.5 34.894531 616.757812 79.355469 639.257812 L 517.039062 860.726562 C 561.5 883.222656 616.757812 865.097656 639.257812 820.636719 L 860.726562 382.953125 C 883.222656 338.492188 865.097656 283.230469 820.636719 260.734375 Z M 839.714844 379.976562 L 621.328125 811.5625 C 603.851562 846.105469 560.652344 860.277344 526.109375 842.796875 L 88.425781 621.328125 C 53.886719 603.851562 39.714844 560.652344 57.195312 526.109375 L 278.660156 88.425781 C 296.140625 53.886719 339.339844 39.714844 373.878906 57.195312 L 811.5625 278.660156 C 846.105469 296.140625 860.277344 339.339844 842.796875 373.878906 Z M 839.714844 379.976562 " fill-opacity="1" fill-rule="nonzero"/><g clip-path="url(#clip-0)"><g clip-path="url(#clip-1)"><g clip-path="url(#clip-2)"><g clip-path="url(#clip-3)"><path fill="rgb(100%, 80.778503%, 58.039856%)" d="M 416.5 189.679688 L 246.410156 309.976562 C 241.691406 313.3125 239.203125 318.976562 239.9375 324.707031 L 271.226562 567.664062 C 272.488281 577.480469 279.167969 585.746094 288.503906 589.058594 L 479.195312 656.6875 C 485.28125 658.847656 492.03125 657.976562 497.371094 654.347656 L 664.710938 540.609375 C 672.902344 535.042969 677.265625 525.351562 676 515.539062 L 644.714844 272.582031 C 643.976562 266.851562 640.136719 262.003906 634.726562 259.972656 L 439.707031 186.691406 C 431.957031 183.777344 423.261719 184.898438 416.5 189.679688 Z M 416.5 189.679688 " fill-opacity="1" fill-rule="nonzero"/></g></g></g></g><g clip-path="url(#clip-4)"><g clip-path="url(#clip-5)"><g clip-path="url(#clip-6)"><g clip-path="url(#clip-7)"><path fill="rgb(98.81897%, 69.018555%, 26.269531%)" d="M 488.5625 657.6875 C 491.679688 657.285156 494.703125 656.164062 497.371094 654.347656 L 664.710938 540.613281 C 672.902344 535.046875 677.265625 525.355469 676.003906 515.542969 L 644.714844 272.582031 C 644.390625 270.050781 643.429688 267.714844 642.027344 265.695312 L 455.152344 398.246094 Z M 488.5625 657.6875 " fill-opacity="1" fill-rule="nonzero"/></g></g></g></g><g clip-path="url(#clip-8)"><g clip-path="url(#clip-9)"><g clip-path="url(#clip-10)"><g clip-path="url(#clip-11)"><path fill="rgb(88.62915%, 47.44873%, 10.5896%)" d="M 455.152344 398.242188 L 240.796875 317.359375 C 239.949219 319.671875 239.613281 322.175781 239.9375 324.703125 L 271.226562 567.664062 C 272.488281 577.480469 279.167969 585.746094 288.503906 589.058594 L 479.195312 656.6875 C 482.238281 657.765625 485.445312 658.089844 488.5625 657.6875 Z M 455.152344 398.242188 " fill-opacity="1" fill-rule="nonzero"/></g></g></g></g><g clip-path="url(#clip-12)"><g clip-path="url(#clip-13)"><g clip-path="url(#clip-14)"><g clip-path="url(#clip-15)"><path fill="rgb(87.059021%, 94.898987%, 98.81897%)" d="M 503.71875 210.742188 L 314.59375 344.875 L 319.042969 379.429688 C 319.46875 382.746094 321.691406 385.554688 324.824219 386.738281 L 362.527344 400.976562 C 365.519531 402.105469 368.636719 399.644531 368.230469 396.476562 L 364.074219 364.226562 L 553.433594 229.425781 Z M 503.71875 210.742188 " fill-opacity="1" fill-rule="nonzero"/></g></g></g></g><g clip-path="url(#clip-16)"><g clip-path="url(#clip-17)"><g clip-path="url(#clip-18)"><g clip-path="url(#clip-19)"><path fill="rgb(25.099182%, 22.749329%, 27.449036%)" d="M 508.933594 584.972656 L 559.761719 552.125 C 566.273438 547.921875 569.707031 540.292969 568.535156 532.644531 L 568.5 532.402344 C 567.53125 526.089844 560.289062 522.960938 555.019531 526.582031 L 505.773438 560.421875 Z M 508.933594 584.972656 " fill-opacity="1" fill-rule="nonzero"/></g></g></g></g><g clip-path="url(#clip-20)"><g clip-path="url(#clip-21)"><g clip-path="url(#clip-22)"><g clip-path="url(#clip-23)"><path fill="rgb(25.099182%, 22.749329%, 27.449036%)" d="M 513.789062 622.695312 L 541.753906 605.066406 C 548.378906 600.890625 551.894531 593.195312 550.714844 585.464844 C 549.746094 579.128906 542.460938 576.007812 537.195312 579.667969 L 510.628906 598.140625 Z M 513.789062 622.695312 " fill-opacity="1" fill-rule="nonzero"/></g></g></g></g><g clip-path="url(#clip-24)"><g clip-path="url(#clip-25)"><g clip-path="url(#clip-26)"><g clip-path="url(#clip-27)"><path fill="rgb(71.369934%, 78.42865%, 80.778503%)" d="M 314.636719 345.222656 L 319.042969 379.429688 C 319.46875 382.746094 321.691406 385.554688 324.824219 386.738281 L 362.527344 400.976562 C 365.519531 402.105469 368.636719 399.644531 368.230469 396.476562 L 364.074219 364.226562 L 364.394531 364 C 351.625 359.179688 330.882812 351.355469 314.636719 345.222656 Z M 314.636719 345.222656 " fill-opacity="1" fill-rule="nonzero"/></g></g></g></g><g clip-path="url(#clip-28)"><g clip-path="url(#clip-29)"><g clip-path="url(#clip-30)"><g clip-path="url(#clip-31)"><path fill="rgb(27.059937%, 67.059326%, 86.669922%)" d="M 319.265625 437.742188 C 301.246094 439.996094 273.3125 439.652344 251.800781 421.984375 C 247.117188 418.132812 239.964844 419.015625 236.410156 423.929688 C 220.078125 446.503906 193.117188 453.921875 175.105469 456.308594 C 165.195312 457.621094 158.539062 467.15625 160.503906 476.945312 L 178.152344 564.921875 C 189.199219 602.863281 241.535156 622.25 262.328125 628.558594 C 267.792969 630.214844 273.675781 629.457031 278.539062 626.46875 C 297.054688 615.101562 342.773438 583.085938 343.847656 543.582031 L 338.632812 454.007812 C 338.046875 444.035156 329.1875 436.503906 319.265625 437.742188 Z M 319.265625 437.742188 " fill-opacity="1" fill-rule="nonzero"/></g></g></g></g><g clip-path="url(#clip-32)"><g clip-path="url(#clip-33)"><g clip-path="url(#clip-34)"><g clip-path="url(#clip-35)"><path fill="rgb(87.059021%, 94.898987%, 98.81897%)" d="M 319.265625 437.742188 C 301.246094 439.996094 273.3125 439.652344 251.800781 421.984375 C 249.453125 420.054688 246.488281 419.316406 243.667969 419.675781 L 270.65625 629.257812 C 273.417969 628.902344 276.105469 627.964844 278.539062 626.472656 C 297.054688 615.101562 342.773438 583.085938 343.84375 543.585938 L 338.628906 454.007812 C 338.046875 444.035156 329.1875 436.503906 319.265625 437.742188 Z M 319.265625 437.742188 " fill-opacity="1" fill-rule="nonzero"/></g></g></g></g></svg>