<?xml version="1.0" encoding="UTF-8"?><svg xmlns="http://www.w3.org/2000/svg" xmlns:xlink="http://www.w3.org/1999/xlink" contentScriptType="text/ecmascript" width="1185" zoomAndPan="magnify" contentStyleType="text/css" viewBox="0 0 1185 809.999993" height="809.999993" preserveAspectRatio="xMidYMid meet" version="1.0"><defs><clipPath id="clip-0"><path d="M 61 264 L 1111 264 L 1111 793.636719 L 61 793.636719 Z M 61 264 " clip-rule="nonzero"/></clipPath><clipPath id="clip-1"><path d="M 12.683594 78 L 1174.433594 78 L 1174.433594 423 L 12.683594 423 Z M 12.683594 78 " clip-rule="nonzero"/></clipPath><clipPath id="clip-2"><path d="M 12.683594 9.136719 L 570 9.136719 L 570 529 L 12.683594 529 Z M 12.683594 9.136719 " clip-rule="nonzero"/></clipPath><clipPath id="clip-3"><path d="M 407 9.136719 L 533 9.136719 L 533 124 L 407 124 Z M 407 9.136719 " clip-rule="nonzero"/></clipPath><clipPath id="clip-4"><path d="M 650 9.136719 L 1174.433594 9.136719 L 1174.433594 538 L 650 538 Z M 650 9.136719 " clip-rule="nonzero"/></clipPath><clipPath id="clip-5"><path d="M 686 9.136719 L 812 9.136719 L 812 133 L 686 133 Z M 686 9.136719 " clip-rule="nonzero"/></clipPath></defs><path fill="rgb(0%, 49.798584%, 38.038635%)" d="M 110.277344 317.960938 C 420.753906 313.382812 731.257812 311.800781 1041.765625 312.8125 C 1049.972656 312.835938 1054.253906 312.789062 1062.195312 315.117188 C 1061.445312 343.523438 1041.316406 418.144531 1033.785156 451.203125 C 1013.34375 540.863281 991.652344 636.039062 965.992188 724.128906 C 960.179688 744.089844 948.742188 787.464844 924.660156 791.121094 C 902.289062 794.519531 853.609375 791.339844 827.921875 791.339844 C 738.019531 791.347656 648.085938 791.164062 558.1875 791.46875 C 522.5 791.609375 242.171875 794.164062 231.628906 788.027344 C 211.523438 769.058594 201.453125 688.148438 194.710938 657.042969 C 170.453125 545.09375 140.300781 433.433594 111.464844 322.535156 Z M 110.277344 317.960938 " fill-opacity="1" fill-rule="evenodd"/><g clip-path="url(#clip-0)"><path stroke-linecap="butt" transform="matrix(0.00877427, 0, 0, 0.00877786, 12.682265, 9.335879)" fill="none" stroke-linejoin="miter" d="M 11122.865231 35159.472568 C 46507.733217 34637.91913 81895.717558 34457.689486 117284.147092 34572.947456 C 118219.498588 34575.617525 118707.43064 34570.277387 119612.50898 34835.504221 C 119527.031832 38071.6276 117232.949842 46572.681631 116374.616817 50338.813666 C 114044.919349 60553.161841 111572.759968 71395.866206 108648.284013 81431.319771 C 107985.836119 83705.328361 106682.309616 88646.735678 103937.691827 89063.26641 C 101388.068781 89450.426385 95840.067663 89088.187052 92912.475354 89088.187052 C 82666.347467 89089.077075 72416.658033 89068.161536 62170.975339 89102.87243 C 58103.687728 89118.892843 26154.823002 89409.930342 24953.245806 88710.817329 C 22661.834977 86549.841651 21514.126191 77332.319159 20745.722249 73788.692857 C 17981.070753 61035.109259 14544.6223 48314.456508 11258.204048 35680.580994 Z M 11122.865231 35159.472568 " stroke="rgb(0%, 49.798584%, 38.038635%)" stroke-width="170.07001" stroke-opacity="1" stroke-miterlimit="22.926001"/></g><path fill="rgb(0.389099%, 63.919067%, 48.629761%)" d="M 67.09375 126.855469 L 1107.898438 126.855469 C 1109.65625 126.855469 1111.410156 126.941406 1113.160156 127.113281 C 1114.90625 127.285156 1116.644531 127.542969 1118.367188 127.886719 C 1120.09375 128.230469 1121.792969 128.65625 1123.476562 129.167969 C 1125.160156 129.679688 1126.8125 130.269531 1128.433594 130.941406 C 1130.058594 131.617188 1131.644531 132.367188 1133.195312 133.195312 C 1134.746094 134.023438 1136.253906 134.925781 1137.714844 135.902344 C 1139.175781 136.882812 1140.585938 137.925781 1141.945312 139.042969 C 1143.300781 140.15625 1144.601562 141.335938 1145.847656 142.582031 C 1147.089844 143.824219 1148.269531 145.125 1149.382812 146.484375 C 1150.496094 147.84375 1151.542969 149.253906 1152.519531 150.714844 C 1153.496094 152.179688 1154.398438 153.683594 1155.226562 155.234375 C 1156.054688 156.785156 1156.804688 158.375 1157.480469 160 C 1158.152344 161.621094 1158.742188 163.277344 1159.253906 164.960938 C 1159.761719 166.640625 1160.191406 168.34375 1160.53125 170.070312 C 1160.875 171.792969 1161.132812 173.53125 1161.304688 175.28125 C 1161.476562 177.03125 1161.5625 178.785156 1161.5625 180.542969 L 1161.5625 320.132812 C 1161.5625 321.890625 1161.476562 323.644531 1161.304688 325.394531 C 1161.132812 327.144531 1160.875 328.882812 1160.53125 330.605469 C 1160.191406 332.332031 1159.761719 334.035156 1159.253906 335.71875 C 1158.742188 337.402344 1158.152344 339.054688 1157.480469 340.679688 C 1156.804688 342.304688 1156.054688 343.890625 1155.226562 345.441406 C 1154.398438 346.992188 1153.496094 348.5 1152.519531 349.960938 C 1151.542969 351.421875 1150.496094 352.832031 1149.382812 354.191406 C 1148.269531 355.550781 1147.089844 356.851562 1145.847656 358.097656 C 1144.601562 359.339844 1143.300781 360.519531 1141.945312 361.632812 C 1140.585938 362.75 1139.175781 363.796875 1137.714844 364.773438 C 1136.253906 365.75 1134.746094 366.652344 1133.195312 367.480469 C 1131.644531 368.3125 1130.058594 369.0625 1128.433594 369.734375 C 1126.8125 370.40625 1125.160156 371 1123.476562 371.507812 C 1121.792969 372.019531 1120.09375 372.445312 1118.367188 372.789062 C 1116.644531 373.132812 1114.90625 373.390625 1113.160156 373.5625 C 1111.410156 373.734375 1109.65625 373.820312 1107.898438 373.820312 L 67.09375 373.820312 C 65.335938 373.820312 63.582031 373.734375 61.832031 373.5625 C 60.085938 373.390625 58.347656 373.132812 56.625 372.789062 C 54.898438 372.445312 53.199219 372.019531 51.515625 371.507812 C 49.832031 371 48.179688 370.40625 46.558594 369.734375 C 44.933594 369.0625 43.347656 368.3125 41.796875 367.480469 C 40.246094 366.652344 38.738281 365.75 37.277344 364.773438 C 35.816406 363.796875 34.40625 362.75 33.046875 361.632812 C 31.691406 360.519531 30.390625 359.339844 29.144531 358.097656 C 27.902344 356.851562 26.722656 355.550781 25.609375 354.191406 C 24.496094 352.832031 23.449219 351.421875 22.472656 349.960938 C 21.496094 348.5 20.59375 346.992188 19.765625 345.441406 C 18.9375 343.890625 18.1875 342.304688 17.511719 340.679688 C 16.839844 339.054688 16.25 337.402344 15.738281 335.71875 C 15.230469 334.035156 14.800781 332.332031 14.460938 330.605469 C 14.117188 328.882812 13.859375 327.144531 13.6875 325.394531 C 13.515625 323.644531 13.429688 321.890625 13.429688 320.132812 L 13.429688 180.542969 C 13.429688 178.785156 13.515625 177.03125 13.6875 175.28125 C 13.859375 173.53125 14.117188 171.792969 14.460938 170.070312 C 14.800781 168.34375 15.230469 166.640625 15.738281 164.960938 C 16.25 163.277344 16.839844 161.621094 17.511719 160 C 18.1875 158.375 18.9375 156.785156 19.765625 155.234375 C 20.59375 153.683594 21.496094 152.179688 22.472656 150.714844 C 23.449219 149.253906 24.496094 147.84375 25.609375 146.484375 C 26.722656 145.125 27.902344 143.824219 29.144531 142.582031 C 30.390625 141.335938 31.691406 140.15625 33.046875 139.042969 C 34.40625 137.925781 35.816406 136.882812 37.277344 135.902344 C 38.738281 134.925781 40.246094 134.023438 41.796875 133.195312 C 43.347656 132.367188 44.933594 131.617188 46.558594 130.941406 C 48.179688 130.269531 49.832031 129.679688 51.515625 129.167969 C 53.199219 128.65625 54.898438 128.230469 56.625 127.886719 C 58.347656 127.542969 60.085938 127.285156 61.832031 127.113281 C 63.582031 126.941406 65.335938 126.855469 67.09375 126.855469 Z M 67.09375 126.855469 " fill-opacity="1" fill-rule="evenodd"/><g clip-path="url(#clip-1)"><path stroke-linecap="butt" transform="matrix(0.00877427, 0, 0, 0.00877786, 12.682265, 9.335879)" fill="none" stroke-linejoin="miter" d="M 6201.251336 13388.176626 L 124821.272668 13388.176626 C 125021.609732 13388.176626 125221.501604 13397.966878 125420.948282 13417.547383 C 125619.949766 13437.127887 125818.060864 13466.498644 126014.391188 13505.659653 C 126211.166705 13544.820662 126404.825867 13593.326912 126596.704256 13651.623414 C 126788.582645 13709.919916 126976.899486 13777.116647 127161.654779 13853.658619 C 127346.855266 13930.645603 127527.603818 14016.087804 127704.345628 14110.430235 C 127881.087439 14204.772666 128052.932121 14307.570314 128219.434482 14418.823181 C 128385.936843 14530.521059 128546.651688 14649.33912 128701.579018 14776.612399 C 128856.061155 14903.440667 129004.310583 15037.83413 129146.327302 15179.792787 C 129287.898828 15321.306433 129422.347259 15469.495251 129549.2274 15624.359242 C 129676.107541 15779.223232 129795.419393 15939.872371 129906.717762 16106.306659 C 130018.016132 16273.185959 130120.855825 16444.515373 130215.236842 16621.184925 C 130309.617859 16797.854477 130395.095007 16978.974143 130472.113479 17164.098913 C 130548.686757 17348.778672 130615.910972 17537.463533 130674.231318 17729.263475 C 130732.10647 17920.618405 130781.077752 18114.643404 130819.809585 18311.338472 C 130858.986611 18507.588529 130888.36938 18705.618631 130907.957893 18904.983768 C 130927.546406 19104.348904 130937.340663 19304.159052 130937.340663 19504.414212 L 130937.340663 35406.898943 C 130937.340663 35607.154102 130927.546406 35806.96425 130907.957893 36006.329387 C 130888.36938 36205.694524 130858.986611 36403.724626 130819.809585 36599.974682 C 130781.077752 36796.66975 130732.10647 36990.694749 130674.231318 37182.494691 C 130615.910972 37374.294633 130548.686757 37562.534483 130472.113479 37747.659253 C 130395.095007 37932.784023 130309.617859 38113.458678 130215.236842 38290.12823 C 130120.855825 38466.797782 130018.016132 38638.572207 129906.717762 38805.006496 C 129795.419393 38971.440784 129676.107541 39132.089923 129549.2274 39286.953913 C 129422.347259 39441.817903 129287.898828 39590.006721 129146.327302 39731.965379 C 129004.310583 39873.479025 128856.061155 40007.872488 128701.579018 40134.700755 C 128546.651688 40261.974035 128385.936843 40381.237107 128219.434482 40492.489974 C 128052.932121 40603.74284 127881.087439 40706.540489 127704.345628 40800.88292 C 127527.603818 40895.670362 127346.855266 40981.112563 127161.654779 41057.654536 C 126976.899486 41134.196508 126788.582645 41201.83825 126596.704256 41259.689741 C 126404.825867 41317.986243 126211.166705 41366.492493 126014.391188 41405.653502 C 125818.060864 41444.814511 125619.949766 41474.185267 125420.948282 41493.765772 C 125221.501604 41513.346276 125021.609732 41523.136529 124821.272668 41523.136529 L 6201.251336 41523.136529 C 6000.914271 41523.136529 5801.0224 41513.346276 5601.575722 41493.765772 C 5402.574237 41474.185267 5204.46314 41444.814511 5008.132816 41405.653502 C 4811.357299 41366.492493 4617.698136 41317.986243 4425.819747 41259.689741 C 4233.941359 41201.83825 4045.624518 41134.196508 3860.869224 41057.654536 C 3675.668738 40981.112563 3494.920186 40895.670362 3318.178375 40800.88292 C 3141.436565 40706.540489 2969.591882 40603.74284 2803.089522 40492.489974 C 2636.587161 40381.237107 2475.872316 40261.974035 2320.944985 40134.700755 C 2166.462849 40007.872488 2018.213421 39873.479025 1876.196701 39731.965379 C 1734.625175 39590.006721 1600.176745 39441.817903 1473.296604 39286.953913 C 1346.416463 39132.089923 1227.104611 38971.440784 1115.806241 38805.006496 C 1004.507872 38638.572207 901.668179 38466.797782 807.287161 38290.12823 C 712.906144 38113.458678 627.428997 37932.784023 550.410525 37747.659253 C 473.837247 37562.534483 406.613032 37374.294633 348.292686 37182.494691 C 290.417534 36990.694749 241.446251 36796.66975 202.714419 36599.974682 C 163.537393 36403.724626 134.154623 36205.694524 114.56611 36006.329387 C 94.977597 35806.96425 85.183341 35607.154102 85.183341 35406.898943 L 85.183341 19504.414212 C 85.183341 19304.159052 94.977597 19104.348904 114.56611 18904.983768 C 134.154623 18705.618631 163.537393 18507.588529 202.714419 18311.338472 C 241.446251 18114.643404 290.417534 17920.618405 348.292686 17729.263475 C 406.613032 17537.463533 473.837247 17348.778672 550.410525 17164.098913 C 627.428997 16978.974143 712.906144 16797.854477 807.287161 16621.184925 C 901.668179 16444.515373 1004.507872 16273.185959 1115.806241 16106.306659 C 1227.104611 15939.872371 1346.416463 15779.223232 1473.296604 15624.359242 C 1600.176745 15469.495251 1734.625175 15321.306433 1876.196701 15179.792787 C 2018.213421 15037.83413 2166.462849 14903.440667 2320.944985 14776.612399 C 2475.872316 14649.33912 2636.587161 14530.521059 2803.089522 14418.823181 C 2969.591882 14307.570314 3141.436565 14204.772666 3318.178375 14110.430235 C 3494.920186 14016.087804 3675.668738 13930.645603 3860.869224 13853.658619 C 4045.624518 13777.116647 4233.941359 13709.919916 4425.819747 13651.623414 C 4617.698136 13593.326912 4811.357299 13544.820662 5008.132816 13505.659653 C 5204.46314 13466.498644 5402.574237 13437.127887 5601.575722 13417.547383 C 5801.0224 13397.966878 6000.914271 13388.176626 6201.251336 13388.176626 Z M 6201.251336 13388.176626 " stroke="rgb(0.389099%, 63.919067%, 48.629761%)" stroke-width="170.07001" stroke-opacity="1" stroke-miterlimit="22.926001"/></g><path stroke-linecap="butt" transform="matrix(0.00877427, 0, 0, 0.00877786, 12.682265, 9.335879)" fill-opacity="1" fill="rgb(99.609375%, 99.609375%, 99.609375%)" fill-rule="evenodd" stroke-linejoin="miter" d="M 60342.120533 47556.601982 L 60645.297292 47556.601982 C 60744.575437 47556.601982 60842.963196 47567.727269 60940.460567 47589.977842 C 61037.957939 47612.228415 61132.78415 47644.714252 61224.494006 47688.325376 C 61316.203862 47731.491488 61403.461784 47784.892864 61486.267771 47848.084492 C 61568.628564 47910.831109 61645.201842 47982.477955 61715.542412 48063.02503 C 61785.437788 48143.127094 61848.210068 48230.349341 61903.414059 48324.691772 C 61958.618051 48419.034203 62005.363366 48518.716771 62043.204811 48623.739477 C 62081.49145 48728.317172 62109.983833 48836.454958 62129.572346 48947.707824 C 62148.715666 49058.960691 62158.509922 49171.548592 62158.509922 49285.026515 L 62158.509922 72737.130764 C 62158.509922 72850.608687 62148.715666 72962.751577 62129.572346 73074.004443 C 62109.983833 73185.25731 62081.49145 73293.395096 62043.204811 73398.417802 C 62005.363366 73502.995496 61958.618051 73602.678065 61903.414059 73697.020495 C 61848.210068 73791.362926 61785.437788 73878.585173 61715.542412 73959.132249 C 61645.201842 74039.234313 61568.628564 74110.881159 61486.267771 74174.072787 C 61403.461784 74236.819403 61316.203862 74290.220779 61224.494006 74333.386891 C 61132.78415 74376.998015 61037.957939 74409.928864 60940.460567 74431.734425 C 60842.963196 74453.984999 60744.575437 74465.110285 60645.297292 74465.110285 L 60342.120533 74465.110285 C 60242.842388 74465.110285 60144.454629 74453.984999 60046.957258 74431.734425 C 59949.459886 74409.928864 59854.633675 74376.998015 59762.923819 74333.386891 C 59671.213963 74290.220779 59583.956041 74236.819403 59501.150054 74174.072787 C 59418.789261 74110.881159 59342.215983 74039.234313 59271.875413 73959.132249 C 59201.980037 73878.585173 59139.207757 73791.362926 59084.003766 73697.020495 C 59028.799775 73602.678065 58982.054459 73502.995496 58944.213014 73398.417802 C 58905.926375 73293.395096 58877.433992 73185.25731 58857.845479 73074.004443 C 58838.70216 72962.751577 58828.907903 72850.608687 58828.907903 72737.130764 L 58828.907903 49285.026515 C 58828.907903 49171.548592 58838.70216 49058.960691 58857.845479 48947.707824 C 58877.433992 48836.454958 58905.926375 48728.317172 58944.213014 48623.294466 C 58982.054459 48518.716771 59028.799775 48419.034203 59084.003766 48324.691772 C 59139.207757 48230.349341 59201.980037 48143.127094 59271.875413 48063.02503 C 59342.215983 47982.477955 59418.789261 47910.831109 59501.150054 47848.084492 C 59583.956041 47784.892864 59671.213963 47731.491488 59762.923819 47688.325376 C 59854.633675 47644.714252 59949.459886 47612.228415 60046.957258 47589.977842 C 60144.454629 47567.727269 60242.842388 47556.601982 60342.120533 47556.601982 Z M 60342.120533 47556.601982 " stroke="rgb(99.609375%, 99.609375%, 99.609375%)" stroke-width="170.07001" stroke-opacity="1" stroke-miterlimit="22.926001"/><path stroke-linecap="butt" transform="matrix(0.00877427, 0, 0, 0.00877786, 12.682265, 9.335879)" fill-opacity="1" fill="rgb(99.609375%, 99.609375%, 99.609375%)" fill-rule="evenodd" stroke-linejoin="miter" d="M 70389.692129 47556.601982 L 70692.868888 47556.601982 C 70792.592227 47556.601982 70890.979985 47567.727269 70988.032163 47589.977842 C 71085.529535 47612.228415 71180.355746 47644.714252 71272.065602 47688.325376 C 71363.775458 47731.491488 71451.03338 47784.892864 71533.839367 47848.084492 C 71616.20016 47910.831109 71692.773438 47982.477955 71763.114008 48063.02503 C 71833.454577 48143.127094 71896.226857 48230.349341 71951.430849 48324.691772 C 72006.63484 48419.034203 72052.934962 48518.716771 72091.221601 48623.739477 C 72129.063046 48728.317172 72158.000622 48836.454958 72177.143942 48947.707824 C 72196.732455 49058.960691 72206.081518 49171.548592 72206.081518 49285.026515 L 72206.081518 72737.130764 C 72206.081518 72850.608687 72196.732455 72962.751577 72177.143942 73074.004443 C 72158.000622 73185.25731 72129.063046 73293.395096 72091.221601 73398.417802 C 72052.934962 73502.995496 72006.63484 73602.678065 71951.430849 73697.020495 C 71896.226857 73791.362926 71833.454577 73878.585173 71763.114008 73959.132249 C 71692.773438 74039.234313 71616.20016 74110.881159 71533.839367 74174.072787 C 71451.03338 74236.819403 71363.775458 74290.220779 71272.065602 74333.386891 C 71180.355746 74376.998015 71085.529535 74409.928864 70988.032163 74431.734425 C 70890.979985 74453.984999 70792.592227 74465.110285 70692.868888 74465.110285 L 70389.692129 74465.110285 C 70290.413984 74465.110285 70192.026225 74453.984999 70094.528854 74431.734425 C 69997.031482 74409.928864 69902.650465 74376.998015 69810.495415 74333.386891 C 69718.785559 74290.220779 69631.527637 74236.819403 69549.166844 74174.072787 C 69466.360857 74110.881159 69389.787579 74039.234313 69319.892203 73959.132249 C 69249.551633 73878.585173 69186.779353 73791.362926 69131.575362 73697.020495 C 69076.37137 73602.678065 69029.626055 73502.995496 68991.78461 73398.417802 C 68953.497971 73293.395096 68925.005588 73185.25731 68905.417075 73074.004443 C 68886.273755 72962.751577 68876.479499 72850.608687 68876.479499 72737.130764 L 68876.479499 49285.026515 C 68876.479499 49171.548592 68886.273755 49058.960691 68905.417075 48947.707824 C 68925.005588 48836.454958 68953.497971 48728.317172 68991.78461 48623.294466 C 69029.626055 48518.716771 69076.37137 48419.034203 69131.575362 48324.691772 C 69186.779353 48230.349341 69249.551633 48143.127094 69319.892203 48063.02503 C 69389.787579 47982.477955 69466.360857 47910.831109 69549.166844 47848.084492 C 69631.527637 47784.892864 69718.785559 47731.491488 69810.495415 47688.325376 C 69902.650465 47644.714252 69997.031482 47612.228415 70094.528854 47589.977842 C 70192.026225 47567.727269 70290.413984 47556.601982 70389.692129 47556.601982 Z M 70389.692129 47556.601982 " stroke="rgb(99.609375%, 99.609375%, 99.609375%)" stroke-width="170.07001" stroke-opacity="1" stroke-miterlimit="22.926001"/><path stroke-linecap="butt" transform="matrix(0.00877427, 0, 0, 0.00877786, 12.682265, 9.335879)" fill-opacity="1" fill="rgb(99.609375%, 99.609375%, 99.609375%)" fill-rule="evenodd" stroke-linejoin="miter" d="M 49331.150252 49216.049738 L 49634.32701 49216.049738 C 49733.605156 49216.049738 49831.992914 49225.83999 49929.490286 49245.420495 C 50026.987658 49264.555988 50121.368675 49293.481733 50213.523725 49331.307708 C 50305.233581 49369.133682 50392.491503 49415.859886 50474.852296 49471.041308 C 50557.658283 49526.22273 50634.231561 49588.969347 50704.126937 49659.281158 C 50774.467506 49729.59297 50837.239787 49806.134942 50892.443778 49888.462063 C 50947.647769 49971.234196 50994.393084 50058.456443 51032.23453 50150.128805 C 51070.521169 50242.246178 51099.013552 50336.588609 51118.602065 50434.04612 C 51137.745384 50531.503631 51147.539641 50629.851165 51147.539641 50729.533733 L 51147.539641 71265.032835 C 51147.539641 71364.270392 51137.745384 71462.617925 51118.602065 71560.075436 C 51099.013552 71657.532947 51070.521169 71752.32039 51032.23453 71843.992752 C 50994.393084 71935.665114 50947.647769 72022.887361 50892.443778 72105.659494 C 50837.239787 72187.986615 50774.467506 72264.528587 50704.126937 72334.840398 C 50634.231561 72405.15221 50557.658283 72467.898827 50474.852296 72523.080248 C 50392.491503 72578.26167 50305.233581 72624.987874 50213.523725 72662.813849 C 50121.368675 72701.084835 50026.987658 72729.565569 49929.490286 72749.146073 C 49831.992914 72768.281566 49733.605156 72778.071818 49634.32701 72778.071818 L 49331.150252 72778.071818 C 49231.426913 72778.071818 49133.039155 72768.281566 49035.986976 72749.146073 C 48938.489605 72729.565569 48843.663394 72701.084835 48751.953538 72662.813849 C 48660.243681 72624.987874 48572.98576 72578.26167 48490.179773 72523.080248 C 48407.81898 72467.898827 48331.245701 72405.15221 48260.905132 72334.840398 C 48190.564562 72264.528587 48127.792282 72187.986615 48072.588291 72105.659494 C 48017.3843 72022.887361 47971.084178 71935.665114 47932.797539 71843.992752 C 47894.956093 71752.32039 47866.018517 71657.532947 47846.875198 71560.075436 C 47827.286685 71462.617925 47817.937622 71364.270392 47817.937622 71265.032835 L 47817.937622 50729.533733 C 47817.937622 50629.851165 47827.286685 50531.503631 47846.875198 50434.04612 C 47866.018517 50336.588609 47894.956093 50242.246178 47932.797539 50150.128805 C 47971.084178 50058.456443 48017.3843 49971.234196 48072.588291 49888.462063 C 48127.792282 49806.134942 48190.564562 49729.59297 48260.905132 49659.281158 C 48331.245701 49588.969347 48407.81898 49526.22273 48490.179773 49471.041308 C 48572.98576 49415.859886 48660.243681 49369.133682 48751.953538 49331.307708 C 48843.663394 49293.481733 48938.489605 49264.555988 49035.986976 49245.420495 C 49133.039155 49225.83999 49231.426913 49216.049738 49331.150252 49216.049738 Z M 49331.150252 49216.049738 " stroke="rgb(99.609375%, 99.609375%, 99.609375%)" stroke-width="170.07001" stroke-opacity="1" stroke-miterlimit="22.926001"/><path stroke-linecap="butt" transform="matrix(0.00877427, 0, 0, 0.00877786, 12.682265, 9.335879)" fill-opacity="1" fill="rgb(99.609375%, 99.609375%, 99.609375%)" fill-rule="evenodd" stroke-linejoin="miter" d="M 39106.836846 51606.651333 L 39410.013604 51606.651333 C 39509.291749 51606.651333 39607.679508 51614.216527 39705.176879 51629.346917 C 39802.674251 51644.477307 39897.500462 51666.72788 39989.210318 51696.543649 C 40080.920175 51726.359417 40168.178096 51762.850357 40250.984083 51806.016469 C 40333.344876 51849.182581 40409.918155 51898.578854 40480.258724 51953.315264 C 40550.1541 52008.496686 40612.92638 52068.573234 40668.130372 52133.099897 C 40723.334363 52197.626559 40770.079678 52266.158325 40807.921123 52337.805171 C 40846.207763 52409.897028 40874.700145 52483.768932 40894.288658 52560.310904 C 40913.431978 52636.407864 40923.226234 52713.394848 40923.226234 52791.271854 L 40923.226234 68870.426137 C 40923.226234 68948.303144 40913.431978 69025.290127 40894.288658 69101.832099 C 40874.700145 69177.92906 40846.207763 69252.245975 40807.921123 69323.892821 C 40770.079678 69395.984678 40723.334363 69464.071433 40668.130372 69528.598095 C 40612.92638 69593.569769 40550.1541 69653.201305 40480.258724 69708.382727 C 40409.918155 69763.564149 40333.344876 69812.51541 40250.984083 69855.681522 C 40168.178096 69898.847635 40080.920175 69935.338575 39989.210318 69965.154343 C 39897.500462 69994.970111 39802.674251 70017.665696 39705.176879 70032.796086 C 39607.679508 70047.926476 39509.291749 70055.491671 39410.013604 70055.491671 L 39106.836846 70055.491671 C 39007.5587 70055.491671 38909.170942 70047.926476 38811.67357 70032.796086 C 38714.176198 70017.665696 38619.349988 69994.970111 38527.640131 69965.154343 C 38435.930275 69935.338575 38348.672353 69898.847635 38265.866366 69855.681522 C 38183.505573 69812.51541 38106.932295 69763.564149 38036.591725 69708.382727 C 37966.696349 69653.201305 37903.924069 69593.569769 37848.720078 69528.598095 C 37793.516087 69464.071433 37746.770772 69395.984678 37708.929326 69323.892821 C 37670.642687 69252.245975 37642.150304 69177.92906 37622.561791 69101.832099 C 37603.418472 69025.290127 37593.624215 68948.303144 37593.624215 68870.426137 L 37593.624215 52791.271854 C 37593.624215 52713.394848 37603.418472 52636.407864 37622.561791 52560.310904 C 37642.150304 52483.768932 37670.642687 52409.897028 37708.929326 52337.805171 C 37746.770772 52266.158325 37793.516087 52197.626559 37848.720078 52133.099897 C 37903.924069 52068.573234 37966.696349 52008.496686 38036.591725 51953.315264 C 38106.932295 51898.578854 38183.505573 51849.182581 38265.866366 51806.016469 C 38348.672353 51762.850357 38435.930275 51726.359417 38527.640131 51696.543649 C 38619.349988 51666.72788 38714.176198 51644.477307 38811.67357 51629.346917 C 38909.170942 51614.216527 39007.5587 51606.651333 39106.836846 51606.651333 Z M 39106.836846 51606.651333 " stroke="rgb(99.609375%, 99.609375%, 99.609375%)" stroke-width="170.07001" stroke-opacity="1" stroke-miterlimit="22.926001"/><path stroke-linecap="butt" transform="matrix(0.00877427, 0, 0, 0.00877786, 12.682265, 9.335879)" fill-opacity="1" fill="rgb(99.609375%, 99.609375%, 99.609375%)" fill-rule="evenodd" stroke-linejoin="miter" d="M 80784.069444 49216.049738 L 81087.246202 49216.049738 C 81186.969541 49216.049738 81285.3573 49225.83999 81382.854672 49245.420495 C 81479.90685 49264.555988 81574.73306 49293.481733 81666.442917 49331.307708 C 81758.152773 49369.133682 81845.410695 49415.859886 81928.216682 49471.041308 C 82010.577475 49526.22273 82087.150753 49588.969347 82157.491323 49659.281158 C 82227.831892 49729.59297 82290.604172 49806.134942 82345.808164 49888.462063 C 82401.012155 49971.234196 82447.312276 50058.456443 82485.598916 50150.128805 C 82523.440361 50242.246178 82552.377937 50336.588609 82571.521257 50434.04612 C 82591.10977 50531.503631 82600.904026 50629.851165 82600.904026 50729.533733 L 82600.904026 71265.032835 C 82600.904026 71364.270392 82591.10977 71462.617925 82571.521257 71560.075436 C 82552.377937 71657.532947 82523.440361 71752.32039 82485.598916 71843.992752 C 82447.312276 71935.665114 82401.012155 72022.887361 82345.808164 72105.659494 C 82290.604172 72187.986615 82227.831892 72264.528587 82157.491323 72334.840398 C 82087.150753 72405.15221 82010.577475 72467.898827 81928.216682 72523.080248 C 81845.410695 72578.26167 81758.152773 72624.987874 81666.442917 72662.813849 C 81574.73306 72701.084835 81479.90685 72729.565569 81382.854672 72749.146073 C 81285.3573 72768.281566 81186.969541 72778.071818 81087.246202 72778.071818 L 80784.069444 72778.071818 C 80684.791299 72778.071818 80586.40354 72768.281566 80488.906169 72749.146073 C 80391.408797 72729.565569 80297.02778 72701.084835 80204.87273 72662.813849 C 80113.162873 72624.987874 80025.904952 72578.26167 79943.544159 72523.080248 C 79860.738172 72467.898827 79784.610087 72405.15221 79714.269518 72334.840398 C 79643.928948 72264.528587 79581.156668 72187.986615 79525.952677 72105.659494 C 79470.748685 72022.887361 79424.00337 71935.665114 79386.161925 71843.992752 C 79347.875285 71752.32039 79319.382903 71657.532947 79299.79439 71560.075436 C 79280.65107 71462.617925 79270.856814 71364.270392 79270.856814 71265.032835 L 79270.856814 50729.533733 C 79270.856814 50629.851165 79280.65107 50531.503631 79299.79439 50434.04612 C 79319.382903 50336.588609 79347.875285 50242.246178 79386.161925 50150.128805 C 79424.00337 50058.456443 79470.748685 49971.234196 79525.952677 49888.462063 C 79581.156668 49806.134942 79643.928948 49729.59297 79714.269518 49659.281158 C 79784.610087 49588.969347 79860.738172 49526.22273 79943.544159 49471.041308 C 80025.904952 49415.859886 80113.162873 49369.133682 80204.87273 49331.307708 C 80297.02778 49293.481733 80391.408797 49264.555988 80488.906169 49245.420495 C 80586.40354 49225.83999 80684.791299 49216.049738 80784.069444 49216.049738 Z M 80784.069444 49216.049738 " stroke="rgb(99.609375%, 99.609375%, 99.609375%)" stroke-width="170.07001" stroke-opacity="1" stroke-miterlimit="22.926001"/><path stroke-linecap="butt" transform="matrix(0.00877427, 0, 0, 0.00877786, 12.682265, 9.335879)" fill-opacity="1" fill="rgb(99.609375%, 99.609375%, 99.609375%)" fill-rule="evenodd" stroke-linejoin="miter" d="M 89243.190712 51606.651333 L 89546.36747 51606.651333 C 89645.645616 51606.651333 89744.478568 51614.216527 89841.530746 51629.346917 C 89939.028117 51644.477307 90033.854328 51666.72788 90125.564185 51696.543649 C 90217.274041 51726.359417 90304.531963 51762.850357 90387.337949 51806.016469 C 90469.698743 51849.182581 90546.272021 51898.578854 90616.61259 51953.315264 C 90686.95316 52008.496686 90749.72544 52068.573234 90804.929431 52133.099897 C 90860.133423 52197.626559 90906.433544 52266.158325 90944.720183 52337.805171 C 90982.561629 52409.897028 91011.499205 52483.768932 91030.642525 52560.310904 C 91050.231038 52636.407864 91059.580101 52713.394848 91059.580101 52791.271854 L 91059.580101 68870.426137 C 91059.580101 68948.303144 91050.231038 69025.290127 91030.642525 69101.832099 C 91011.499205 69177.92906 90982.561629 69252.245975 90944.720183 69323.892821 C 90906.433544 69395.984678 90860.133423 69464.071433 90804.929431 69528.598095 C 90749.72544 69593.569769 90686.95316 69653.201305 90616.61259 69708.382727 C 90546.272021 69763.564149 90469.698743 69812.51541 90387.337949 69855.681522 C 90304.531963 69898.847635 90217.274041 69935.338575 90125.564185 69965.154343 C 90033.854328 69994.970111 89939.028117 70017.665696 89841.530746 70032.796086 C 89744.478568 70047.926476 89645.645616 70055.491671 89546.36747 70055.491671 L 89243.190712 70055.491671 C 89143.912566 70055.491671 89045.524808 70047.926476 88948.027436 70032.796086 C 88850.530065 70017.665696 88756.149048 69994.970111 88663.993998 69965.154343 C 88572.284141 69935.338575 88485.02622 69898.847635 88402.665426 69855.681522 C 88319.859439 69812.51541 88243.286161 69763.564149 88173.390785 69708.382727 C 88103.050216 69653.201305 88040.277936 69593.569769 87985.073944 69528.598095 C 87929.869953 69464.071433 87883.124638 69395.984678 87845.283192 69323.892821 C 87806.996553 69252.245975 87778.504171 69177.92906 87758.915658 69101.832099 C 87739.772338 69025.290127 87729.978082 68948.303144 87729.978082 68870.426137 L 87729.978082 52791.271854 C 87729.978082 52713.394848 87739.772338 52636.407864 87758.915658 52560.310904 C 87778.504171 52483.768932 87806.996553 52409.897028 87845.283192 52337.805171 C 87883.124638 52266.158325 87929.869953 52197.626559 87985.073944 52133.099897 C 88040.277936 52068.573234 88103.050216 52008.496686 88173.390785 51953.315264 C 88243.286161 51898.578854 88319.859439 51849.182581 88402.665426 51806.016469 C 88485.02622 51762.850357 88572.284141 51726.359417 88663.993998 51696.543649 C 88756.149048 51666.72788 88850.530065 51644.477307 88948.027436 51629.346917 C 89045.524808 51614.216527 89143.912566 51606.651333 89243.190712 51606.651333 Z M 89243.190712 51606.651333 " stroke="rgb(99.609375%, 99.609375%, 99.609375%)" stroke-width="170.07001" stroke-opacity="1" stroke-miterlimit="22.926001"/><path fill="rgb(100%, 54.508972%, 0%)" d="M 511.488281 88.816406 C 396.972656 207.609375 281.101562 324.3125 165.71875 442.148438 C 140.222656 468.191406 125.644531 487.292969 84.921875 476.699219 C 47.324219 466.914062 38.183594 432.515625 51.367188 399.074219 C 56.75 385.417969 65.03125 379.449219 75.28125 369.136719 C 187.703125 256.058594 302.300781 146.242188 419.75 38.40625 L 423.210938 35.230469 C 440.390625 19.464844 453.035156 7.820312 478.175781 10.457031 C 513.160156 14.125 531.488281 55.730469 513.996094 84.664062 Z M 511.488281 88.816406 " fill-opacity="1" fill-rule="evenodd"/><g clip-path="url(#clip-2)"><path stroke-linecap="butt" transform="matrix(0.00877427, 0, 0, 0.00877786, 12.682265, 9.335879)" fill="none" stroke-linejoin="miter" d="M 56848.687315 9054.654972 C 43797.395326 22587.898659 30591.6212 35883.061211 17441.496258 49307.277089 C 14535.71843 52274.168531 12874.256372 54450.274599 8233.114368 53243.403504 C 3948.127146 52128.649782 2906.374408 48209.878814 4408.902395 44400.135655 C 5022.379007 42844.375571 5966.18918 42164.398051 7134.376865 40989.567781 C 19947.04515 28107.375869 33007.686203 15596.768531 46393.318493 3311.782006 L 46787.759915 2949.987684 C 48745.720829 1153.921408 50186.812116 -172.657772 53052.077338 127.724968 C 57039.230123 545.590734 59128.07792 5285.407856 57134.501527 8581.607784 Z M 56848.687315 9054.654972 " stroke="rgb(100%, 54.508972%, 0%)" stroke-width="170.07001" stroke-opacity="1" stroke-miterlimit="22.926001"/></g><path fill="rgb(100%, 100%, 100%)" d="M 484.238281 60.765625 C 484.238281 61.699219 484.148438 62.625 483.964844 63.539062 C 483.78125 64.453125 483.511719 65.34375 483.15625 66.207031 C 482.796875 67.070312 482.359375 67.886719 481.84375 68.664062 C 481.324219 69.441406 480.734375 70.160156 480.074219 70.820312 C 479.414062 71.480469 478.695312 72.070312 477.921875 72.589844 C 477.144531 73.105469 476.324219 73.542969 475.464844 73.902344 C 474.601562 74.257812 473.710938 74.527344 472.796875 74.710938 C 471.882812 74.894531 470.957031 74.984375 470.023438 74.984375 C 469.089844 74.984375 468.167969 74.894531 467.25 74.710938 C 466.335938 74.527344 465.445312 74.257812 464.585938 73.902344 C 463.722656 73.542969 462.902344 73.105469 462.128906 72.589844 C 461.351562 72.070312 460.632812 71.480469 459.972656 70.820312 C 459.3125 70.160156 458.722656 69.441406 458.207031 68.664062 C 457.6875 67.886719 457.25 67.070312 456.890625 66.207031 C 456.535156 65.34375 456.265625 64.453125 456.082031 63.539062 C 455.902344 62.625 455.808594 61.699219 455.808594 60.765625 C 455.808594 59.832031 455.902344 58.90625 456.082031 57.992188 C 456.265625 57.074219 456.535156 56.1875 456.890625 55.324219 C 457.25 54.460938 457.6875 53.640625 458.207031 52.863281 C 458.722656 52.089844 459.3125 51.371094 459.972656 50.710938 C 460.632812 50.050781 461.351562 49.460938 462.128906 48.941406 C 462.902344 48.421875 463.722656 47.984375 464.585938 47.628906 C 465.445312 47.269531 466.335938 47 467.25 46.820312 C 468.167969 46.636719 469.089844 46.546875 470.023438 46.546875 C 470.957031 46.546875 471.882812 46.636719 472.796875 46.820312 C 473.710938 47 474.601562 47.269531 475.464844 47.628906 C 476.324219 47.984375 477.144531 48.421875 477.921875 48.941406 C 478.695312 49.460938 479.414062 50.050781 480.074219 50.710938 C 480.734375 51.371094 481.324219 52.089844 481.84375 52.863281 C 482.359375 53.640625 482.796875 54.460938 483.15625 55.324219 C 483.511719 56.1875 483.78125 57.074219 483.964844 57.992188 C 484.148438 58.90625 484.238281 59.832031 484.238281 60.765625 Z M 484.238281 60.765625 " fill-opacity="1" fill-rule="nonzero"/><g clip-path="url(#clip-3)"><path stroke-linecap="butt" transform="matrix(0.00877427, 0, 0, 0.00877786, 12.682265, 9.335879)" fill="none" stroke-linejoin="miter" d="M 53743.017615 5859.027636 C 53743.017615 5965.385376 53732.778165 6070.853094 53711.854072 6174.985777 C 53690.929978 6279.11846 53660.211628 6380.581074 53619.699022 6478.928608 C 53578.741222 6577.276142 53528.879552 6670.283538 53470.114013 6758.84082 C 53410.903281 6847.398101 53343.679066 6929.280211 53268.441368 7004.487149 C 53193.20367 7079.694087 53111.28807 7146.890818 53023.139762 7206.077343 C 52934.54626 7264.818856 52841.055629 7314.66014 52743.113064 7355.601195 C 52644.725306 7396.097239 52543.221193 7426.80303 52439.045919 7447.718569 C 52334.870645 7468.634108 52229.359791 7478.869371 52122.95855 7478.869371 C 52016.557309 7478.869371 51911.491648 7468.634108 51806.871181 7447.718569 C 51702.695907 7426.80303 51601.191794 7396.097239 51503.249229 7355.601195 C 51404.861471 7314.66014 51311.37084 7264.818856 51223.222532 7206.077343 C 51134.62903 7146.890818 51052.71343 7079.694087 50977.475732 7004.487149 C 50902.238034 6929.280211 50835.013819 6847.398101 50776.24828 6758.84082 C 50717.037548 6670.283538 50667.175878 6577.276142 50626.218078 6478.928608 C 50585.705472 6380.581074 50554.987122 6279.11846 50534.063029 6174.985777 C 50513.584129 6070.853094 50502.899485 5965.385376 50502.899485 5859.027636 C 50502.899485 5752.669896 50513.584129 5647.202178 50534.063029 5543.069495 C 50554.987122 5438.491801 50585.705472 5337.474198 50626.218078 5239.126664 C 50667.175878 5140.77913 50717.037548 5047.326722 50776.24828 4958.769441 C 50835.013819 4870.65717 50902.238034 4788.775061 50977.475732 4713.568123 C 51052.71343 4638.361185 51134.62903 4571.164454 51223.222532 4511.977929 C 51311.37084 4452.791404 51404.861471 4402.95012 51503.249229 4362.454076 C 51601.191794 4321.513021 51702.695907 4290.80723 51806.871181 4270.336703 C 51911.491648 4249.421164 52016.557309 4239.1859 52122.95855 4239.1859 C 52229.359791 4239.1859 52334.870645 4249.421164 52439.045919 4270.336703 C 52543.221193 4290.80723 52644.725306 4321.513021 52743.113064 4362.454076 C 52841.055629 4402.95012 52934.54626 4452.791404 53023.139762 4511.977929 C 53111.28807 4571.164454 53193.20367 4638.361185 53268.441368 4713.568123 C 53343.679066 4788.775061 53410.903281 4870.65717 53470.114013 4958.769441 C 53528.879552 5047.326722 53578.741222 5140.77913 53619.699022 5239.126664 C 53660.211628 5337.474198 53690.929978 5438.491801 53711.854072 5543.069495 C 53732.778165 5647.202178 53743.017615 5752.669896 53743.017615 5859.027636 Z M 53743.017615 5859.027636 " stroke="rgb(100%, 66.668701%, 40.388489%)" stroke-width="170.07001" stroke-opacity="1" stroke-miterlimit="22.926001"/></g><path fill="rgb(100%, 54.508972%, 0%)" d="M 707.921875 98.339844 C 820.839844 215.503906 934.015625 330.980469 1048.546875 446.511719 C 1073.953125 472.140625 1087.15625 494.570312 1128.792969 487.695312 C 1175.480469 479.984375 1183.050781 436.515625 1163.945312 398.726562 C 1045.113281 278.039062 920.808594 159.417969 796.199219 44.71875 C 776.890625 26.945312 755.6875 11.757812 727.996094 23.324219 C 702.054688 34.15625 690.507812 69.535156 705.414062 94.191406 Z M 707.921875 98.339844 " fill-opacity="1" fill-rule="evenodd"/><g clip-path="url(#clip-4)"><path stroke-linecap="butt" transform="matrix(0.00877427, 0, 0, 0.00877786, 12.682265, 9.335879)" fill="none" stroke-linejoin="miter" d="M 79236.131723 10139.592925 C 92105.339579 23487.266831 105003.930206 36642.695783 118057.002969 49804.354896 C 120952.541347 52724.075123 122457.295302 55279.33096 127202.612579 54496.11078 C 132523.565023 53617.658147 133386.349983 48665.570555 131208.908684 44360.529635 C 117665.677902 30611.455387 103498.731058 17097.792205 89297.059123 4030.920534 C 87096.467763 2006.118365 84679.957567 275.913786 81523.981004 1593.592736 C 78567.451119 2827.609531 77251.459199 6858.078377 78950.31751 9666.990749 Z M 79236.131723 10139.592925 " stroke="rgb(100%, 54.508972%, 0%)" stroke-width="170.07001" stroke-opacity="1" stroke-miterlimit="22.926001"/></g><path fill="rgb(100%, 100%, 100%)" d="M 763.597656 70.289062 C 763.597656 71.222656 763.507812 72.148438 763.324219 73.0625 C 763.144531 73.980469 762.875 74.867188 762.515625 75.730469 C 762.160156 76.59375 761.722656 77.414062 761.203125 78.1875 C 760.683594 78.964844 760.09375 79.683594 759.4375 80.34375 C 758.777344 81.003906 758.058594 81.59375 757.28125 82.113281 C 756.507812 82.632812 755.6875 83.070312 754.824219 83.425781 C 753.960938 83.785156 753.074219 84.054688 752.160156 84.234375 C 751.242188 84.417969 750.320312 84.507812 749.386719 84.507812 C 748.453125 84.507812 747.527344 84.417969 746.613281 84.234375 C 745.695312 84.054688 744.808594 83.785156 743.945312 83.425781 C 743.082031 83.070312 742.265625 82.632812 741.488281 82.113281 C 740.710938 81.59375 739.996094 81.003906 739.335938 80.34375 C 738.675781 79.683594 738.085938 78.964844 737.566406 78.1875 C 737.046875 77.414062 736.609375 76.59375 736.253906 75.730469 C 735.898438 74.867188 735.625 73.980469 735.445312 73.0625 C 735.261719 72.148438 735.171875 71.222656 735.171875 70.289062 C 735.171875 69.355469 735.261719 68.429688 735.445312 67.515625 C 735.625 66.597656 735.898438 65.710938 736.253906 64.847656 C 736.609375 63.984375 737.046875 63.164062 737.566406 62.390625 C 738.085938 61.613281 738.675781 60.894531 739.335938 60.234375 C 739.996094 59.574219 740.710938 58.984375 741.488281 58.464844 C 742.265625 57.949219 743.082031 57.507812 743.945312 57.152344 C 744.808594 56.796875 745.695312 56.523438 746.613281 56.34375 C 747.527344 56.160156 748.453125 56.070312 749.386719 56.070312 C 750.320312 56.070312 751.242188 56.160156 752.160156 56.34375 C 753.074219 56.523438 753.960938 56.796875 754.824219 57.152344 C 755.6875 57.507812 756.507812 57.949219 757.28125 58.464844 C 758.058594 58.984375 758.777344 59.574219 759.4375 60.234375 C 760.09375 60.894531 760.683594 61.613281 761.203125 62.390625 C 761.722656 63.164062 762.160156 63.984375 762.515625 64.847656 C 762.875 65.710938 763.144531 66.597656 763.324219 67.515625 C 763.507812 68.429688 763.597656 69.355469 763.597656 70.289062 Z M 763.597656 70.289062 " fill-opacity="1" fill-rule="nonzero"/><g clip-path="url(#clip-5)"><path stroke-linecap="butt" transform="matrix(0.00877427, 0, 0, 0.00877786, 12.682265, 9.335879)" fill="none" stroke-linejoin="miter" d="M 85581.474359 6943.965589 C 85581.474359 7050.32333 85571.234909 7155.791047 85550.310815 7259.92373 C 85529.831915 7364.501425 85499.113565 7465.519027 85458.155765 7563.866561 C 85417.643159 7662.214095 85367.78149 7755.666503 85308.570757 7843.778773 C 85249.360024 7932.336055 85182.135809 8014.218165 85107.343305 8089.425102 C 85032.105607 8164.63204 84950.190008 8231.828772 84861.596506 8291.015296 C 84773.448197 8350.201821 84679.957567 8400.043106 84581.569808 8440.539149 C 84483.18205 8481.480204 84382.12313 8512.185995 84277.947856 8532.656522 C 84173.327389 8553.572061 84068.261728 8563.807325 83961.860487 8563.807325 C 83855.459246 8563.807325 83749.948392 8553.572061 83645.773118 8532.656522 C 83541.152651 8512.185995 83440.093732 8481.480204 83341.705973 8440.539149 C 83243.318214 8400.043106 83150.272778 8350.201821 83061.679276 8291.015296 C 82973.085774 8231.828772 82891.615367 8164.63204 82816.377669 8089.425102 C 82741.139972 8014.218165 82673.915757 7932.336055 82614.705024 7843.778773 C 82555.494292 7755.666503 82505.632622 7662.214095 82465.120016 7563.866561 C 82424.607409 7465.519027 82393.443866 7364.501425 82372.964966 7259.92373 C 82352.040872 7155.791047 82341.801422 7050.32333 82341.801422 6943.965589 C 82341.801422 6837.607849 82352.040872 6732.140132 82372.964966 6628.007449 C 82393.443866 6523.429754 82424.607409 6422.412152 82465.120016 6324.064618 C 82505.632622 6225.717084 82555.494292 6132.264676 82614.705024 6044.152406 C 82673.915757 5955.595124 82741.139972 5873.713014 82816.377669 5798.506076 C 82891.615367 5723.299139 82973.085774 5656.102407 83061.679276 5596.915882 C 83150.272778 5538.174369 83243.318214 5487.888073 83341.705973 5447.39203 C 83440.093732 5406.895987 83541.152651 5375.745184 83645.773118 5355.274657 C 83749.948392 5334.359118 83855.459246 5324.123854 83961.860487 5324.123854 C 84068.261728 5324.123854 84173.327389 5334.359118 84277.947856 5355.274657 C 84382.12313 5375.745184 84483.18205 5406.895987 84581.569808 5447.39203 C 84679.957567 5487.888073 84773.448197 5538.174369 84861.596506 5596.915882 C 84950.190008 5656.102407 85032.105607 5723.299139 85107.343305 5798.506076 C 85182.135809 5873.713014 85249.360024 5955.595124 85308.570757 6044.152406 C 85367.78149 6132.264676 85417.643159 6225.717084 85458.155765 6324.064618 C 85499.113565 6422.412152 85529.831915 6523.429754 85550.310815 6628.007449 C 85571.234909 6732.140132 85581.474359 6837.607849 85581.474359 6943.965589 Z M 85581.474359 6943.965589 " stroke="rgb(100%, 66.668701%, 40.388489%)" stroke-width="170.07001" stroke-opacity="1" stroke-miterlimit="22.926001"/></g></svg>