<svg xmlns="http://www.w3.org/2000/svg" width="1185" viewBox="0 0 1185 810" height="810" version="1.0"><defs><clipPath id="a"><path d="M 88 261 L 1098 261 L 1098 770.597656 L 88 770.597656 Z M 88 261"/></clipPath><clipPath id="b"><path d="M 41.121094 129 L 1147 129 L 1147 368 L 41.121094 368 Z M 41.121094 129"/></clipPath><clipPath id="c"><path d="M 41.121094 83 L 1158.621094 83 L 1158.621094 414 L 41.121094 414 Z M 41.121094 83"/></clipPath><clipPath id="d"><path d="M 41.121094 16.847656 L 577 16.847656 L 577 516 L 41.121094 516 Z M 41.121094 16.847656"/></clipPath><clipPath id="e"><path d="M 420 16.847656 L 542 16.847656 L 542 127 L 420 127 Z M 420 16.847656"/></clipPath><clipPath id="f"><path d="M 654 16.847656 L 1158.621094 16.847656 L 1158.621094 525 L 654 525 Z M 654 16.847656"/></clipPath><clipPath id="g"><path d="M 689 16.847656 L 810 16.847656 L 810 136 L 689 136 Z M 689 16.847656"/></clipPath></defs><path fill="#01A37C" d="M 135 313.566406 C 433.652344 309.164062 732.328125 307.644531 1031.007812 308.617188 C 1038.902344 308.644531 1043.023438 308.597656 1050.660156 310.835938 C 1049.941406 338.128906 1030.574219 409.820312 1023.332031 441.585938 C 1003.667969 527.730469 982.804688 619.175781 958.121094 703.8125 C 952.53125 722.992188 941.527344 764.667969 918.363281 768.179688 C 896.84375 771.445312 850.019531 768.390625 825.308594 768.390625 C 738.832031 768.398438 652.324219 768.222656 565.847656 768.511719 C 531.523438 768.644531 261.871094 771.101562 251.730469 765.207031 C 232.390625 746.980469 222.703125 669.242188 216.21875 639.359375 C 192.882812 531.792969 163.878906 424.511719 136.144531 317.960938 Z M 135 313.566406" fill-rule="evenodd"/><g clip-path="url(#a)"><path transform="matrix(.00844 0 0 .00843 41.122 17.038)" fill="none" d="M 11122.879045 35159.558008 C 46507.930431 34637.569237 81895.758749 34457.397425 117284.049888 34572.725912 C 118219.413028 34575.968078 118707.690174 34570.410078 119612.507066 34835.804547 C 119527.347829 38071.949662 117232.676653 46572.446485 116374.604777 50338.91737 C 114044.759134 60553.130655 111572.827155 71395.861033 108648.255319 81431.292006 C 107985.957123 83705.440069 106682.18772 88646.964648 103937.653619 89063.351432 C 101387.967554 89450.558719 95840.120965 89088.362429 92912.309375 89088.362429 C 82666.357278 89089.288762 72416.702606 89068.446264 62170.750509 89102.720594 C 58103.934126 89118.468258 26154.872819 89409.800057 24953.387064 88710.88164 C 22661.955641 86549.746231 21514.157231 77332.267493 20745.872812 73789.042915 C 17980.974545 61034.823931 14544.521644 48314.416111 11258.485874 35680.620446 Z M 11122.879045 35159.558008" stroke="#007F61" stroke-width="170.07" stroke-miterlimit="22.926"/></g><g clip-path="url(#b)"><path fill="#FFF" d="M 93.460938 129.953125 L 1094.621094 129.953125 C 1096.3125 129.953125 1098 130.035156 1099.683594 130.199219 C 1101.363281 130.367188 1103.035156 130.613281 1104.695312 130.941406 C 1106.351562 131.273438 1107.988281 131.683594 1109.609375 132.171875 C 1111.226562 132.664062 1112.816406 133.230469 1114.378906 133.878906 C 1115.9375 134.523438 1117.464844 135.246094 1118.957031 136.042969 C 1120.449219 136.839844 1121.894531 137.707031 1123.300781 138.644531 C 1124.707031 139.582031 1126.0625 140.589844 1127.371094 141.660156 C 1128.679688 142.730469 1129.929688 143.867188 1131.125 145.058594 C 1132.320312 146.253906 1133.453125 147.503906 1134.527344 148.8125 C 1135.597656 150.117188 1136.605469 151.472656 1137.542969 152.875 C 1138.484375 154.28125 1139.351562 155.730469 1140.148438 157.21875 C 1140.945312 158.707031 1141.667969 160.234375 1142.316406 161.792969 C 1142.960938 163.355469 1143.53125 164.945312 1144.019531 166.5625 C 1144.511719 168.179688 1144.921875 169.816406 1145.253906 171.472656 C 1145.582031 173.128906 1145.828125 174.796875 1145.996094 176.480469 C 1146.160156 178.160156 1146.246094 179.84375 1146.246094 181.535156 L 1146.246094 315.652344 C 1146.246094 317.34375 1146.160156 319.027344 1145.996094 320.710938 C 1145.828125 322.390625 1145.582031 324.058594 1145.253906 325.714844 C 1144.921875 327.375 1144.511719 329.011719 1144.019531 330.625 C 1143.53125 332.242188 1142.960938 333.832031 1142.316406 335.394531 C 1141.667969 336.953125 1140.945312 338.480469 1140.148438 339.96875 C 1139.351562 341.460938 1138.484375 342.90625 1137.542969 344.3125 C 1136.605469 345.714844 1135.597656 347.070312 1134.527344 348.378906 C 1133.453125 349.683594 1132.320312 350.933594 1131.125 352.128906 C 1129.929688 353.324219 1128.679688 354.457031 1127.371094 355.527344 C 1126.0625 356.597656 1124.707031 357.605469 1123.300781 358.542969 C 1121.894531 359.480469 1120.449219 360.347656 1118.957031 361.144531 C 1117.464844 361.941406 1115.9375 362.664062 1114.378906 363.308594 C 1112.816406 363.957031 1111.226562 364.523438 1109.609375 365.015625 C 1107.988281 365.503906 1106.351562 365.914062 1104.695312 366.246094 C 1103.035156 366.574219 1101.363281 366.824219 1099.683594 366.988281 C 1098 367.152344 1096.3125 367.234375 1094.621094 367.234375 L 93.460938 367.234375 C 91.769531 367.234375 90.082031 367.152344 88.402344 366.988281 C 86.71875 366.824219 85.046875 366.574219 83.390625 366.246094 C 81.730469 365.914062 80.09375 365.503906 78.476562 365.015625 C 76.859375 364.523438 75.269531 363.957031 73.707031 363.308594 C 72.144531 362.664062 70.617188 361.941406 69.125 361.144531 C 67.636719 360.347656 66.1875 359.480469 64.78125 358.542969 C 63.375 357.605469 62.019531 356.597656 60.710938 355.527344 C 59.40625 354.457031 58.15625 353.324219 56.960938 352.128906 C 55.761719 350.933594 54.628906 349.683594 53.558594 348.378906 C 52.484375 347.070312 51.480469 345.714844 50.539062 344.3125 C 49.601562 342.90625 48.730469 341.460938 47.933594 339.96875 C 47.136719 338.480469 46.414062 336.953125 45.769531 335.394531 C 45.121094 333.832031 44.554688 332.242188 44.0625 330.625 C 43.570312 329.011719 43.160156 327.375 42.832031 325.714844 C 42.5 324.058594 42.253906 322.390625 42.089844 320.707031 C 41.921875 319.027344 41.839844 317.34375 41.839844 315.652344 L 41.839844 181.535156 C 41.839844 179.84375 41.921875 178.160156 42.089844 176.480469 C 42.253906 174.796875 42.5 173.128906 42.832031 171.472656 C 43.160156 169.816406 43.570312 168.179688 44.0625 166.5625 C 44.554688 164.945312 45.121094 163.355469 45.769531 161.792969 C 46.414062 160.234375 47.136719 158.707031 47.933594 157.21875 C 48.730469 155.730469 49.601562 154.28125 50.539062 152.875 C 51.480469 151.472656 52.484375 150.117188 53.558594 148.8125 C 54.628906 147.503906 55.761719 146.253906 56.960938 145.058594 C 58.15625 143.867188 59.40625 142.730469 60.710938 141.660156 C 62.019531 140.589844 63.375 139.582031 64.78125 138.644531 C 66.1875 137.707031 67.636719 136.839844 69.125 136.042969 C 70.617188 135.246094 72.144531 134.523438 73.707031 133.878906 C 75.269531 133.230469 76.859375 132.664062 78.476562 132.171875 C 80.09375 131.683594 81.730469 131.273438 83.390625 130.941406 C 85.046875 130.613281 86.71875 130.367188 88.402344 130.199219 C 90.082031 130.035156 91.769531 129.953125 93.460938 129.953125 Z M 93.460938 129.953125" fill-rule="evenodd"/></g><g clip-path="url(#c)"><path transform="matrix(.00844 0 0 .00843 41.122 17.038)" fill="none" d="M 6201.23054 13388.411431 L 124821.105174 13388.411431 C 125021.507073 13388.411431 125221.446151 13398.13793 125420.922407 13417.590927 C 125619.935841 13437.507092 125818.023631 13466.686588 126014.722956 13505.592583 C 126210.959458 13544.961745 126404.881851 13593.59424 126596.952955 13651.490066 C 126788.561238 13709.849059 126976.929768 13777.008218 127162.058544 13853.893875 C 127346.724497 13930.316366 127527.687876 14016.002189 127704.485857 14110.488178 C 127881.283838 14204.974167 128052.527955 14307.797155 128219.143853 14418.957141 C 128385.759752 14530.117128 128546.358965 14649.614114 128701.404314 14776.521766 C 128856.449664 14903.429417 129004.552685 15038.210901 129146.176198 15179.476718 C 129287.799712 15321.205701 129422.018074 15469.419017 129549.294108 15624.579831 C 129676.107319 15779.27748 129795.515379 15939.996294 129906.592645 16106.273108 C 130018.132732 16273.013088 130120.879203 16444.847901 130215.294879 16621.31438 C 130309.710554 16797.780859 130395.332613 16978.879004 130472.161055 17163.682482 C 130548.526675 17348.949126 130616.098678 17537.457937 130673.951421 17729.208915 C 130732.266985 17920.959892 130780.863289 18115.026702 130820.203154 18311.409345 C 130859.080196 18507.791989 130888.237979 18705.564132 130908.139322 18905.188941 C 130927.577844 19104.350584 130937.759926 19303.975394 130937.759926 19504.526537 L 130937.759926 35406.888979 C 130937.759926 35607.440122 130927.577844 35807.064931 130908.139322 36006.689741 C 130888.237979 36205.851384 130859.080196 36403.623527 130820.203154 36600.00617 C 130780.863289 36796.85198 130732.266985 36990.918791 130673.951421 37182.206601 C 130616.098678 37373.957578 130548.526675 37562.466389 130472.161055 37747.733034 C 130395.332613 37932.536512 130309.710554 38113.634657 130215.294879 38290.101136 C 130120.879203 38467.030782 130018.132732 38638.402428 129906.592645 38805.142408 C 129795.515379 38971.419222 129676.107319 39132.138036 129549.294108 39287.298851 C 129422.018074 39441.996499 129287.799712 39590.209815 129146.176198 39731.938798 C 129004.552685 39873.667781 128856.449664 40007.986099 128701.404314 40134.89375 C 128546.358965 40261.801402 128385.759752 40381.298387 128219.143853 40492.458374 C 128052.527955 40603.618361 127881.283838 40706.441349 127704.485857 40800.927338 C 127527.687876 40895.413326 127346.724497 40981.099149 127162.058544 41057.52164 C 126976.929768 41134.407298 126788.561238 41201.566457 126596.952955 41259.92545 C 126404.881851 41317.821276 126210.959458 41366.45377 126014.722956 41405.822932 C 125818.023631 41444.728928 125619.935841 41474.371591 125420.922407 41493.824588 C 125221.446151 41513.277586 125021.507073 41523.004085 124821.105174 41523.004085 L 6201.23054 41523.004085 C 6000.828641 41523.004085 5800.889563 41513.277586 5601.876129 41493.824588 C 5402.399873 41474.371591 5204.312083 41444.728928 5008.07558 41405.822932 C 4811.376256 41366.45377 4617.453863 41317.821276 4425.84558 41259.92545 C 4234.237298 41201.566457 4045.868768 41134.407298 3860.739992 41057.52164 C 3675.611217 40981.099149 3494.647838 40895.413326 3317.849857 40800.927338 C 3141.514698 40706.441349 2969.807759 40603.618361 2803.191861 40492.458374 C 2636.575962 40381.298387 2475.976749 40261.801402 2320.9314 40134.89375 C 2166.348872 40007.986099 2018.245851 39873.667781 1876.622338 39731.938798 C 1734.536002 39590.209815 1600.31764 39441.996499 1473.504428 39287.298851 C 1346.228395 39132.138036 1227.283156 38971.419222 1115.743069 38805.142408 C 1004.665804 38638.402428 901.456511 38467.030782 807.040835 38290.101136 C 712.62516 38113.634657 627.003101 37932.536512 550.637481 37747.733034 C 473.809039 37562.466389 406.699858 37373.957578 348.384293 37182.206601 C 290.068729 36990.918791 241.472425 36796.85198 202.595382 36600.00617 C 163.255518 36403.623527 134.097735 36205.851384 114.659214 36006.226574 C 94.75787 35807.064931 85.03861 35607.440122 85.03861 35406.888979 L 85.03861 19504.526537 C 85.03861 19303.975394 94.75787 19104.350584 114.659214 18905.188941 C 134.097735 18705.564132 163.255518 18507.791989 202.595382 18311.409345 C 241.472425 18115.026702 290.068729 17920.959892 348.384293 17729.208915 C 406.699858 17537.457937 473.809039 17348.949126 550.637481 17163.682482 C 627.003101 16978.879004 712.62516 16797.780859 807.040835 16621.31438 C 901.456511 16444.847901 1004.665804 16273.013088 1115.743069 16106.273108 C 1227.283156 15939.996294 1346.228395 15779.27748 1473.504428 15624.579831 C 1600.31764 15469.419017 1734.536002 15321.205701 1876.622338 15179.476718 C 2018.245851 15038.210901 2166.348872 14903.429417 2320.9314 14776.521766 C 2475.976749 14649.614114 2636.575962 14530.117128 2803.191861 14418.957141 C 2969.807759 14307.797155 3141.514698 14204.974167 3317.849857 14110.488178 C 3494.647838 14016.002189 3675.611217 13930.316366 3860.739992 13853.893875 C 4045.868768 13777.008218 4234.237298 13709.849059 4425.84558 13651.490066 C 4617.453863 13593.59424 4811.376256 13544.961745 5008.07558 13505.592583 C 5204.312083 13466.686588 5402.399873 13437.507092 5601.876129 13417.590927 C 5800.889563 13398.13793 6000.828641 13388.411431 6201.23054 13388.411431 Z M 6201.23054 13388.411431" stroke="#01A37C" stroke-width="170.07" stroke-miterlimit="22.926"/></g><path transform="matrix(.00844 0 0 .00843 41.122 17.038)" fill="#FEFEFE" fill-rule="evenodd" d="M 60342.141025 47556.675534 L 60645.289396 47556.675534 C 60744.796113 47556.675534 60842.914364 47567.791533 60940.569793 47590.02353 C 61038.225223 47611.792361 61132.640898 47644.67719 61224.279642 47688.214852 C 61316.381208 47731.752513 61403.391733 47785.016674 61486.23686 47848.007333 C 61568.619165 47910.997992 61644.984785 47982.788817 61715.33372 48062.916641 C 61785.682655 48143.044464 61848.163617 48230.582954 61903.702249 48324.605776 C 61958.77806 48419.091765 62005.523076 48518.672586 62043.474475 48623.348241 C 62081.425874 48728.487061 62110.120834 48836.404882 62129.559356 48947.564869 C 62148.997877 49059.188022 62158.717138 49171.274342 62158.717138 49284.750162 L 62158.717138 72736.728373 C 62158.717138 72850.204193 62148.997877 72962.75368 62129.559356 73073.913666 C 62110.120834 73185.53682 62081.425874 73293.45464 62043.474475 73398.130295 C 62005.523076 73503.269115 61958.77806 73602.849937 61903.702249 73696.872759 C 61848.163617 73791.358748 61785.682655 73878.897237 61715.33372 73959.025061 C 61644.984785 74039.152885 61568.619165 74110.94371 61486.23686 74173.934369 C 61403.391733 74236.925028 61316.381208 74290.189188 61224.279642 74333.72685 C 61132.640898 74376.801345 61038.225223 74409.686174 60940.569793 74431.918172 C 60842.914364 74454.150169 60744.796113 74465.266168 60645.289396 74465.266168 L 60342.141025 74465.266168 C 60242.634308 74465.266168 60144.516057 74454.150169 60046.860628 74431.918172 C 59949.205199 74409.686174 59854.789523 74376.801345 59763.150779 74333.72685 C 59671.049213 74290.189188 59584.038689 74236.925028 59501.193561 74173.934369 C 59418.811256 74110.94371 59342.445636 74039.152885 59272.096701 73959.025061 C 59201.747767 73878.897237 59139.266805 73791.358748 59083.728172 73696.872759 C 59028.652361 73602.849937 58981.907345 73503.269115 58943.955946 73398.130295 C 58906.004547 73293.45464 58877.309587 73185.53682 58857.871065 73073.913666 C 58838.432544 72962.75368 58828.713283 72850.204193 58828.713283 72736.728373 L 58828.713283 49284.750162 C 58828.713283 49171.274342 58838.432544 49059.188022 58857.871065 48947.564869 C 58877.309587 48836.404882 58906.004547 48728.487061 58943.955946 48623.348241 C 58981.907345 48518.672586 59028.652361 48419.091765 59083.728172 48324.605776 C 59139.266805 48230.582954 59201.747767 48143.044464 59272.096701 48062.916641 C 59342.445636 47982.788817 59418.811256 47910.997992 59501.193561 47848.007333 C 59584.038689 47785.016674 59671.049213 47731.752513 59763.150779 47688.214852 C 59854.789523 47644.67719 59949.205199 47611.792361 60046.860628 47590.02353 C 60144.516057 47567.791533 60242.634308 47556.675534 60342.141025 47556.675534 Z M 60342.141025 47556.675534" stroke="#FEFEFE" stroke-width="170.07" stroke-miterlimit="22.926"/><path transform="matrix(.00844 0 0 .00843 41.122 17.038)" fill="#FEFEFE" fill-rule="evenodd" d="M 70390.005332 47556.675534 L 70693.153703 47556.675534 C 70792.197598 47556.675534 70890.778671 47567.791533 70988.4341 47590.02353 C 71085.626708 47611.792361 71180.505205 47644.67719 71272.143949 47688.214852 C 71363.782693 47731.752513 71451.25604 47785.016674 71533.638345 47848.007333 C 71616.483472 47910.997992 71692.849092 47982.788817 71763.198027 48062.916641 C 71833.08414 48143.044464 71896.027924 48230.582954 71951.103734 48324.605776 C 72006.642367 48419.091765 72052.924561 48518.672586 72090.87596 48623.348241 C 72129.290181 48728.487061 72157.985141 48836.404882 72177.423663 48947.564869 C 72196.399362 49059.188022 72206.118623 49171.274342 72206.118623 49284.750162 L 72206.118623 72736.728373 C 72206.118623 72850.204193 72196.399362 72962.75368 72177.423663 73073.913666 C 72157.985141 73185.53682 72129.290181 73293.45464 72090.87596 73398.130295 C 72052.924561 73503.269115 72006.642367 73602.849937 71951.103734 73696.872759 C 71896.027924 73791.358748 71833.08414 73878.897237 71763.198027 73959.025061 C 71692.849092 74039.152885 71616.483472 74110.94371 71533.638345 74173.934369 C 71451.25604 74236.925028 71363.782693 74290.189188 71272.143949 74333.72685 C 71180.505205 74376.801345 71085.626708 74409.686174 70988.4341 74431.918172 C 70890.778671 74454.150169 70792.197598 74465.266168 70693.153703 74465.266168 L 70390.005332 74465.266168 C 70290.498615 74465.266168 70191.917542 74454.150169 70094.724935 74431.918172 C 69997.069506 74409.686174 69902.65383 74376.801345 69810.552264 74333.72685 C 69718.91352 74290.189188 69631.440174 74236.925028 69549.057868 74173.934369 C 69466.212741 74110.94371 69389.847121 74039.152885 69319.498186 73959.025061 C 69249.612073 73878.897237 69186.66829 73791.358748 69131.592479 73696.872759 C 69076.516668 73602.849937 69029.771652 73503.269115 68991.820253 73398.130295 C 68953.868854 73293.45464 68925.173894 73185.53682 68905.735372 73073.913666 C 68886.296851 72962.75368 68876.57759 72850.204193 68876.57759 72736.728373 L 68876.57759 49284.750162 C 68876.57759 49171.274342 68886.296851 49059.188022 68905.735372 48947.564869 C 68925.173894 48836.404882 68953.868854 48728.487061 68991.820253 48623.348241 C 69029.771652 48518.672586 69076.516668 48419.091765 69131.592479 48324.605776 C 69186.66829 48230.582954 69249.612073 48143.044464 69319.498186 48062.916641 C 69389.847121 47982.788817 69466.212741 47910.997992 69549.057868 47848.007333 C 69631.440174 47785.016674 69718.91352 47731.752513 69810.552264 47688.214852 C 69902.65383 47644.67719 69997.069506 47611.792361 70094.724935 47590.02353 C 70191.917542 47567.791533 70290.498615 47556.675534 70390.005332 47556.675534 Z M 70390.005332 47556.675534" stroke="#FEFEFE" stroke-width="170.07" stroke-miterlimit="22.926"/><path transform="matrix(.00844 0 0 .00843 41.122 17.038)" fill="#FEFEFE" fill-rule="evenodd" d="M 49331.144262 49216.201503 L 49634.292633 49216.201503 C 49733.79935 49216.201503 49831.917601 49225.928002 49929.57303 49245.381 C 50026.765637 49264.370831 50121.644135 49293.087161 50213.282879 49331.52999 C 50304.921623 49369.509652 50392.39497 49415.826313 50474.777275 49470.94314 C 50557.622402 49526.523133 50633.988022 49589.050626 50704.336957 49659.451951 C 50774.685892 49729.390109 50837.166854 49806.275767 50892.705486 49888.719424 C 50947.781297 49971.16308 50994.526313 50058.70157 51032.477712 50150.408559 C 51070.429111 50242.115548 51099.124071 50336.601537 51118.562593 50434.329692 C 51138.001114 50531.59468 51147.720375 50630.249169 51147.720375 50729.366824 L 51147.720375 71264.784882 C 51147.720375 71364.365703 51138.001114 71462.557025 51118.562593 71560.28518 C 51099.124071 71657.550168 51070.429111 71752.036157 51032.477712 71843.743146 C 50994.526313 71935.913302 50947.781297 72022.988625 50892.705486 72105.432282 C 50837.166854 72188.339105 50774.685892 72264.761596 50704.336957 72334.699754 C 50633.988022 72405.101079 50557.622402 72468.091738 50474.777275 72523.208565 C 50392.39497 72578.325392 50304.921623 72625.10522 50213.282879 72663.084882 C 50121.644135 72701.064544 50026.765637 72729.780874 49929.57303 72749.233872 C 49831.917601 72768.223703 49733.79935 72777.950202 49634.292633 72777.950202 L 49331.144262 72777.950202 C 49231.637545 72777.950202 49133.056472 72768.223703 49035.863865 72749.233872 C 48938.208436 72729.780874 48843.79276 72701.064544 48751.691194 72663.084882 C 48660.05245 72625.10522 48573.041925 72578.325392 48490.196798 72523.208565 C 48407.814493 72468.091738 48331.448873 72405.101079 48261.099938 72334.699754 C 48190.751003 72264.761596 48127.80722 72188.339105 48072.731409 72105.432282 C 48017.655598 72022.988625 47970.910582 71935.913302 47932.959183 71843.743146 C 47895.007784 71752.036157 47866.312824 71657.550168 47846.874302 71560.28518 C 47827.435781 71462.557025 47817.71652 71364.365703 47817.71652 71264.784882 L 47817.71652 50729.366824 C 47817.71652 50630.249169 47827.435781 50531.59468 47846.874302 50434.329692 C 47866.312824 50336.601537 47895.007784 50242.115548 47932.959183 50150.408559 C 47970.910582 50058.70157 48017.655598 49971.16308 48072.731409 49888.719424 C 48127.80722 49806.275767 48190.751003 49729.390109 48261.099938 49659.451951 C 48331.448873 49589.050626 48407.814493 49526.523133 48490.196798 49470.94314 C 48573.041925 49415.826313 48660.05245 49369.509652 48751.691194 49331.52999 C 48843.79276 49293.087161 48938.208436 49264.370831 49035.863865 49245.381 C 49133.056472 49225.928002 49231.637545 49216.201503 49331.144262 49216.201503 Z M 49331.144262 49216.201503" stroke="#FEFEFE" stroke-width="170.07" stroke-miterlimit="22.926"/><path transform="matrix(.00844 0 0 .00843 41.122 17.038)" fill="#FEFEFE" fill-rule="evenodd" d="M 39106.944796 51606.604386 L 39410.093167 51606.604386 C 39509.599884 51606.604386 39607.718135 51614.015052 39705.373564 51629.29955 C 39802.566172 51644.584048 39897.444669 51666.816045 39989.083413 51696.458709 C 40080.722157 51726.564538 40168.195504 51762.691534 40250.577809 51806.229195 C 40333.422936 51849.30369 40409.788556 51898.399351 40480.137491 51953.516178 C 40550.486426 52008.633005 40612.967388 52068.381498 40668.50602 52133.224823 C 40723.581831 52197.604982 40770.326847 52266.153641 40808.278246 52337.944466 C 40846.229645 52409.73529 40874.924605 52483.841948 40894.363127 52560.264439 C 40913.801648 52636.68693 40923.520909 52713.572588 40923.520909 52791.384578 L 40923.520909 68870.676666 C 40923.520909 68948.488657 40913.801648 69025.374315 40894.363127 69101.796805 C 40874.924605 69178.219296 40846.229645 69251.862788 40808.278246 69324.116779 C 40770.326847 69395.907604 40723.581831 69463.993096 40668.50602 69528.836421 C 40612.967388 69593.679747 40550.486426 69653.42824 40480.137491 69708.545067 C 40409.788556 69763.198727 40333.422936 69812.294388 40250.577809 69855.832049 C 40168.195504 69898.906544 40080.722157 69935.496706 39989.083413 69965.139369 C 39897.444669 69994.782033 39802.566172 70017.477197 39705.373564 70032.761695 C 39607.718135 70048.046193 39509.599884 70055.456859 39410.093167 70055.456859 L 39106.944796 70055.456859 C 39007.438079 70055.456859 38908.857006 70048.046193 38811.664399 70032.761695 C 38714.00897 70017.477197 38619.593294 69994.782033 38527.491728 69965.139369 C 38435.852984 69935.496706 38348.84246 69898.906544 38265.997332 69855.832049 C 38183.615027 69812.294388 38107.249407 69763.198727 38036.900472 69708.545067 C 37966.551537 69653.42824 37903.607754 69593.679747 37848.531943 69528.836421 C 37793.456132 69463.993096 37746.711116 69395.907604 37708.759717 69324.116779 C 37670.808318 69251.862788 37642.113358 69178.219296 37622.674836 69101.796805 C 37603.236315 69025.374315 37593.517054 68948.488657 37593.517054 68870.676666 L 37593.517054 52791.384578 C 37593.517054 52713.572588 37603.236315 52636.68693 37622.674836 52560.264439 C 37642.113358 52483.841948 37670.808318 52409.73529 37708.759717 52337.944466 C 37746.711116 52266.153641 37793.456132 52197.604982 37848.531943 52133.224823 C 37903.607754 52068.381498 37966.551537 52008.633005 38036.900472 51953.516178 C 38107.249407 51898.399351 38183.615027 51849.30369 38265.997332 51806.229195 C 38348.84246 51762.691534 38435.852984 51726.564538 38527.491728 51696.458709 C 38619.593294 51666.816045 38714.00897 51644.584048 38811.664399 51629.29955 C 38908.857006 51614.015052 39007.438079 51606.604386 39106.944796 51606.604386 Z M 39106.944796 51606.604386" stroke="#FEFEFE" stroke-width="170.07" stroke-miterlimit="22.926"/><path transform="matrix(.00844 0 0 .00843 41.122 17.038)" fill="#FEFEFE" fill-rule="evenodd" d="M 80784.06045 49216.201503 L 81087.671642 49216.201503 C 81186.715538 49216.201503 81285.296611 49225.928002 81382.489218 49245.381 C 81480.144647 49264.370831 81574.560323 49293.087161 81666.661889 49331.52999 C 81758.300633 49369.509652 81845.773979 49415.826313 81928.156285 49470.94314 C 82011.001412 49526.523133 82087.367032 49589.050626 82157.253145 49659.451951 C 82227.60208 49729.390109 82290.545863 49806.275767 82345.621674 49888.719424 C 82400.697485 49971.16308 82447.442501 50058.70157 82485.3939 50150.408559 C 82523.345299 50242.115548 82552.040259 50336.601537 82571.478781 50434.329692 C 82590.917302 50531.59468 82600.636563 50630.249169 82600.636563 50729.366824 L 82600.636563 71264.784882 C 82600.636563 71364.365703 82590.917302 71462.557025 82571.478781 71560.28518 C 82552.040259 71657.550168 82523.345299 71752.036157 82485.3939 71843.743146 C 82447.442501 71935.913302 82400.697485 72022.988625 82345.621674 72105.432282 C 82290.545863 72188.339105 82227.60208 72264.761596 82157.253145 72334.699754 C 82087.367032 72405.101079 82011.001412 72468.091738 81928.156285 72523.208565 C 81845.773979 72578.325392 81758.300633 72625.10522 81666.661889 72663.084882 C 81574.560323 72701.064544 81480.144647 72729.780874 81382.489218 72749.233872 C 81285.296611 72768.223703 81186.715538 72777.950202 81087.671642 72777.950202 L 80784.06045 72777.950202 C 80685.016555 72777.950202 80586.435482 72768.223703 80488.780053 72749.233872 C 80391.587445 72729.780874 80296.708948 72701.064544 80205.070204 72663.084882 C 80113.43146 72625.10522 80025.958113 72578.325392 79943.575808 72523.208565 C 79860.730681 72468.091738 79784.365061 72405.101079 79714.016126 72334.699754 C 79643.667191 72264.761596 79581.186229 72188.339105 79526.110419 72105.432282 C 79470.571786 72022.988625 79424.289592 71935.913302 79386.338193 71843.743146 C 79347.923972 71752.036157 79319.229012 71657.550168 79299.79049 71560.28518 C 79280.814791 71462.557025 79271.09553 71364.365703 79271.09553 71264.784882 L 79271.09553 50729.366824 C 79271.09553 50630.249169 79280.814791 50531.59468 79299.79049 50434.329692 C 79319.229012 50336.601537 79347.923972 50242.115548 79386.338193 50150.408559 C 79424.289592 50058.70157 79470.571786 49971.16308 79526.110419 49888.719424 C 79581.186229 49806.275767 79643.667191 49729.390109 79714.016126 49659.451951 C 79784.365061 49589.050626 79860.730681 49526.523133 79943.575808 49470.94314 C 80025.958113 49415.826313 80113.43146 49369.509652 80205.070204 49331.52999 C 80296.708948 49293.087161 80391.587445 49264.370831 80488.780053 49245.381 C 80586.435482 49225.928002 80685.016555 49216.201503 80784.06045 49216.201503 Z M 80784.06045 49216.201503" stroke="#FEFEFE" stroke-width="170.07" stroke-miterlimit="22.926"/><path transform="matrix(.00844 0 0 .00843 41.122 17.038)" fill="#FEFEFE" fill-rule="evenodd" d="M 89243.057039 51606.604386 L 89546.668231 51606.604386 C 89645.712126 51606.604386 89744.293199 51614.015052 89841.948629 51629.29955 C 89939.141236 51644.584048 90034.019733 51666.816045 90125.658477 51696.458709 C 90217.297221 51726.564538 90304.770568 51762.691534 90387.152873 51806.229195 C 90469.998 51849.30369 90546.36362 51898.399351 90616.712555 51953.516178 C 90686.598668 52008.633005 90749.542452 52068.381498 90804.618263 52133.224823 C 90860.156895 52197.604982 90906.439089 52266.153641 90944.390488 52337.944466 C 90982.804709 52409.73529 91011.49967 52483.841948 91030.475369 52560.264439 C 91049.913891 52636.68693 91059.633151 52713.572588 91059.633151 52791.384578 L 91059.633151 68870.676666 C 91059.633151 68948.488657 91049.913891 69025.374315 91030.475369 69101.796805 C 91011.49967 69178.219296 90982.804709 69251.862788 90944.390488 69324.116779 C 90906.439089 69395.907604 90860.156895 69463.993096 90804.618263 69528.836421 C 90749.542452 69593.679747 90686.598668 69653.42824 90616.712555 69708.545067 C 90546.36362 69763.198727 90469.998 69812.294388 90387.152873 69855.832049 C 90304.770568 69898.906544 90217.297221 69935.496706 90125.658477 69965.139369 C 90034.019733 69994.782033 89939.141236 70017.477197 89841.948629 70032.761695 C 89744.293199 70048.046193 89645.712126 70055.456859 89546.668231 70055.456859 L 89243.057039 70055.456859 C 89144.013144 70055.456859 89045.432071 70048.046193 88948.239463 70032.761695 C 88850.584034 70017.477197 88756.168358 69994.782033 88664.066792 69965.139369 C 88572.428048 69935.496706 88484.954702 69898.906544 88402.572397 69855.832049 C 88319.727269 69812.294388 88243.361649 69763.198727 88173.012715 69708.545067 C 88103.126602 69653.42824 88040.182818 69593.679747 87985.107007 69528.836421 C 87930.031196 69463.993096 87883.28618 69395.907604 87845.334781 69324.116779 C 87807.383382 69251.862788 87778.2256 69178.219296 87759.249901 69101.796805 C 87739.811379 69025.374315 87730.092118 68948.488657 87730.092118 68870.676666 L 87730.092118 52791.384578 C 87730.092118 52713.572588 87739.811379 52636.68693 87759.249901 52560.264439 C 87778.2256 52483.841948 87807.383382 52409.73529 87845.334781 52337.944466 C 87883.28618 52266.153641 87930.031196 52197.604982 87985.107007 52133.224823 C 88040.182818 52068.381498 88103.126602 52008.633005 88173.012715 51953.516178 C 88243.361649 51898.399351 88319.727269 51849.30369 88402.572397 51806.229195 C 88484.954702 51762.691534 88572.428048 51726.564538 88664.066792 51696.458709 C 88756.168358 51666.816045 88850.584034 51644.584048 88948.239463 51629.29955 C 89045.432071 51614.015052 89144.013144 51606.604386 89243.057039 51606.604386 Z M 89243.057039 51606.604386" stroke="#FEFEFE" stroke-width="170.07" stroke-miterlimit="22.926"/><path fill="#FF8B00" d="M 520.925781 93.402344 C 410.777344 207.539062 299.316406 319.667969 188.332031 432.886719 C 163.804688 457.90625 149.78125 476.257812 110.609375 466.078125 C 74.445312 456.679688 65.652344 423.628906 78.332031 391.496094 C 83.511719 378.378906 91.476562 372.644531 101.335938 362.734375 C 209.476562 254.089844 319.710938 148.578125 432.683594 44.96875 L 436.011719 41.917969 C 452.539062 26.769531 464.703125 15.582031 488.886719 18.113281 C 522.539062 21.640625 540.167969 61.613281 523.339844 89.414062 Z M 520.925781 93.402344" fill-rule="evenodd"/><g clip-path="url(#d)"><path transform="matrix(.00844 0 0 .00843 41.122 17.038)" fill="none" d="M 56848.298204 9054.561446 C 43797.645153 22587.82667 30591.483931 35883.024256 17441.786986 49307.445326 C 14535.728027 52274.027473 12874.197264 54449.984214 8233.018855 53242.972025 C 3948.213339 52128.593157 2906.401153 48209.740457 4408.721169 44399.73191 C 5022.423061 42844.418428 5966.116995 42164.489842 7134.279571 40989.436148 C 19947.042144 28107.38318 33007.877277 15596.789835 46393.15059 3311.758629 L 46787.474883 2950.025505 C 48745.674509 1153.865386 50186.902029 -172.64379 53052.232656 127.488174 C 57039.443665 545.727625 59128.159078 5285.311561 57134.322163 8581.668336 Z M 56848.298204 9054.561446" stroke="#FF8B00" stroke-width="170.07" stroke-miterlimit="22.926"/></g><path fill="#FFF" d="M 494.714844 66.453125 C 494.714844 67.347656 494.628906 68.238281 494.453125 69.117188 C 494.277344 69.996094 494.019531 70.851562 493.675781 71.679688 C 493.332031 72.507812 492.910156 73.296875 492.414062 74.042969 C 491.914062 74.789062 491.347656 75.476562 490.710938 76.113281 C 490.078125 76.746094 489.386719 77.3125 488.640625 77.8125 C 487.894531 78.308594 487.105469 78.730469 486.277344 79.074219 C 485.445312 79.417969 484.59375 79.675781 483.710938 79.851562 C 482.832031 80.027344 481.941406 80.113281 481.042969 80.113281 C 480.144531 80.113281 479.257812 80.027344 478.375 79.851562 C 477.496094 79.675781 476.640625 79.417969 475.8125 79.074219 C 474.984375 78.730469 474.195312 78.308594 473.449219 77.8125 C 472.703125 77.3125 472.011719 76.746094 471.375 76.113281 C 470.742188 75.476562 470.175781 74.789062 469.675781 74.042969 C 469.175781 73.296875 468.757812 72.507812 468.414062 71.679688 C 468.070312 70.851562 467.808594 69.996094 467.632812 69.117188 C 467.460938 68.238281 467.371094 67.347656 467.371094 66.453125 C 467.371094 65.554688 467.460938 64.664062 467.632812 63.785156 C 467.808594 62.90625 468.070312 62.050781 468.414062 61.222656 C 468.757812 60.394531 469.175781 59.605469 469.675781 58.859375 C 470.175781 58.117188 470.742188 57.425781 471.375 56.789062 C 472.011719 56.15625 472.703125 55.589844 473.449219 55.089844 C 474.195312 54.59375 474.984375 54.171875 475.8125 53.828125 C 476.640625 53.484375 477.496094 53.226562 478.375 53.050781 C 479.257812 52.875 480.144531 52.789062 481.042969 52.789062 C 481.941406 52.789062 482.832031 52.875 483.710938 53.050781 C 484.59375 53.226562 485.445312 53.484375 486.277344 53.828125 C 487.105469 54.171875 487.894531 54.59375 488.640625 55.089844 C 489.386719 55.589844 490.078125 56.15625 490.710938 56.789062 C 491.347656 57.425781 491.914062 58.117188 492.414062 58.859375 C 492.910156 59.605469 493.332031 60.394531 493.675781 61.222656 C 494.019531 62.050781 494.277344 62.90625 494.453125 63.785156 C 494.628906 64.664062 494.714844 65.554688 494.714844 66.453125 Z M 494.714844 66.453125"/><g clip-path="url(#e)"><path transform="matrix(.00844 0 0 .00843 41.122 17.038)" fill="none" d="M 53742.76299 5859.174993 C 53742.76299 5965.240147 53732.580907 6070.842134 53711.75392 6175.054622 C 53690.926933 6279.267109 53660.380685 6380.700597 53619.652354 6478.891919 C 53578.924023 6577.083241 53528.939254 6670.642896 53470.160867 6759.107719 C 53410.919659 6847.572542 53343.810478 6929.089866 53268.370502 7004.586023 C 53193.393348 7079.619014 53111.473864 7146.778173 53023.074874 7206.063499 C 52934.675883 7264.885659 52841.185852 7314.907653 52743.067601 7355.666315 C 52644.486527 7396.424977 52543.591345 7426.993973 52438.993586 7447.83647 C 52334.85865 7468.678968 52229.335248 7478.868633 52122.886202 7478.868633 C 52016.437155 7478.868633 51911.376575 7468.678968 51806.778817 7447.83647 C 51702.64388 7426.993973 51601.285876 7396.424977 51503.167625 7355.666315 C 51405.049373 7314.907653 51311.559342 7264.885659 51223.160351 7206.063499 C 51134.761361 7146.778173 51052.841877 7079.619014 50977.401901 7004.586023 C 50902.424747 6929.089866 50835.315566 6847.572542 50776.074358 6759.107719 C 50716.833149 6670.642896 50667.311202 6577.083241 50626.582871 6478.891919 C 50585.85454 6380.700597 50554.84547 6279.267109 50534.018483 6175.054622 C 50513.654318 6070.842134 50503.009413 5965.240147 50503.009413 5859.174993 C 50503.009413 5752.646672 50513.654318 5647.044685 50534.018483 5542.832197 C 50554.84547 5438.619709 50585.85454 5337.186221 50626.582871 5238.9949 C 50667.311202 5140.803578 50716.833149 5047.243923 50776.074358 4958.7791 C 50835.315566 4870.777444 50902.424747 4788.796953 50977.401901 4713.300796 C 51052.841877 4638.267805 51134.761361 4571.108646 51223.160351 4511.82332 C 51311.559342 4453.00116 51405.049373 4402.979166 51503.167625 4362.220504 C 51601.285876 4321.461842 51702.64388 4290.892846 51806.778817 4270.050348 C 51911.376575 4249.207851 52016.437155 4239.018185 52122.886202 4239.018185 C 52229.335248 4239.018185 52334.85865 4249.207851 52438.993586 4270.050348 C 52543.591345 4290.892846 52644.486527 4321.461842 52743.067601 4362.220504 C 52841.185852 4402.979166 52934.675883 4453.00116 53023.074874 4511.82332 C 53111.473864 4571.108646 53193.393348 4638.267805 53268.370502 4713.300796 C 53343.810478 4788.796953 53410.919659 4870.777444 53470.160867 4958.7791 C 53528.939254 5047.243923 53578.924023 5140.803578 53619.652354 5238.9949 C 53660.380685 5337.186221 53690.926933 5438.619709 53711.75392 5542.832197 C 53732.580907 5647.044685 53742.76299 5752.646672 53742.76299 5859.174993 Z M 53742.76299 5859.174993" stroke="#FFAA67" stroke-width="170.07" stroke-miterlimit="22.926"/></g><path fill="#FF8B00" d="M 709.882812 102.554688 C 818.496094 215.125 927.363281 326.074219 1037.53125 437.078125 C 1061.96875 461.703125 1074.671875 483.25 1114.71875 476.644531 C 1159.632812 469.238281 1166.914062 427.472656 1148.53125 391.164062 C 1034.230469 275.210938 914.660156 161.234375 794.792969 51.03125 C 776.222656 33.957031 755.828125 19.363281 729.191406 30.476562 C 704.238281 40.886719 693.128906 74.878906 707.46875 98.566406 Z M 709.882812 102.554688" fill-rule="evenodd"/><g clip-path="url(#f)"><path transform="matrix(.00844 0 0 .00843 41.122 17.038)" fill="none" d="M 79236.383884 10139.760817 C 92105.147913 23487.29623 105003.995367 36642.617499 118056.962527 49804.4231 C 120952.376581 52724.22542 122457.473528 55279.052449 127202.324052 54495.837709 C 132523.850713 53617.673813 133386.550808 48665.496402 131208.510761 44360.362748 C 117665.877989 30611.725049 103498.89842 17097.449656 89296.744384 4030.59321 C 87096.488883 2006.091951 84680.095537 275.70149 81524.112731 1593.4105 C 78567.606182 2827.74952 77251.340586 6858.225374 78950.359926 9666.867707 Z M 79236.383884 10139.760817" stroke="#FF8B00" stroke-width="170.07" stroke-miterlimit="22.926"/></g><path fill="#FFF" d="M 763.4375 75.601562 C 763.4375 76.5 763.347656 77.386719 763.175781 78.265625 C 763 79.148438 762.738281 80 762.394531 80.832031 C 762.050781 81.660156 761.632812 82.445312 761.132812 83.191406 C 760.632812 83.9375 760.066406 84.628906 759.433594 85.261719 C 758.796875 85.898438 758.105469 86.464844 757.359375 86.960938 C 756.613281 87.460938 755.828125 87.882812 754.996094 88.222656 C 754.167969 88.566406 753.3125 88.828125 752.433594 89 C 751.550781 89.175781 750.664062 89.265625 749.765625 89.265625 C 748.867188 89.265625 747.976562 89.175781 747.097656 89 C 746.21875 88.828125 745.363281 88.566406 744.53125 88.222656 C 743.703125 87.882812 742.914062 87.460938 742.167969 86.960938 C 741.421875 86.464844 740.730469 85.898438 740.097656 85.261719 C 739.460938 84.628906 738.894531 83.9375 738.398438 83.191406 C 737.898438 82.445312 737.476562 81.660156 737.132812 80.832031 C 736.789062 80 736.53125 79.148438 736.355469 78.265625 C 736.179688 77.386719 736.09375 76.5 736.09375 75.601562 C 736.09375 74.707031 736.179688 73.816406 736.355469 72.9375 C 736.53125 72.058594 736.789062 71.203125 737.132812 70.375 C 737.476562 69.546875 737.898438 68.757812 738.398438 68.011719 C 738.894531 67.265625 739.460938 66.574219 740.097656 65.941406 C 740.730469 65.308594 741.421875 64.742188 742.167969 64.242188 C 742.914062 63.746094 743.703125 63.324219 744.53125 62.980469 C 745.363281 62.636719 746.21875 62.378906 747.097656 62.203125 C 747.976562 62.027344 748.867188 61.941406 749.765625 61.941406 C 750.664062 61.941406 751.550781 62.027344 752.433594 62.203125 C 753.3125 62.378906 754.167969 62.636719 754.996094 62.980469 C 755.828125 63.324219 756.613281 63.746094 757.359375 64.242188 C 758.105469 64.742188 758.796875 65.308594 759.433594 65.941406 C 760.066406 66.574219 760.632812 67.265625 761.132812 68.011719 C 761.632812 68.757812 762.050781 69.546875 762.394531 70.375 C 762.738281 71.203125 763 72.058594 763.175781 72.9375 C 763.347656 73.816406 763.4375 74.707031 763.4375 75.601562 Z M 763.4375 75.601562"/><g clip-path="url(#g)"><path transform="matrix(.00844 0 0 .00843 41.122 17.038)" fill="none" d="M 85581.672675 6943.911197 C 85581.672675 7050.439518 85571.027771 7155.578339 85550.663605 7259.790826 C 85529.836618 7364.46648 85498.827548 7465.436802 85458.099217 7564.09129 C 85417.370887 7662.282612 85367.848939 7755.379101 85308.607731 7843.843923 C 85249.366523 7932.308746 85182.257341 8014.289236 85107.280187 8089.322228 C 85031.840211 8164.818385 84949.920728 8231.977544 84861.521737 8290.799704 C 84773.122747 8350.08503 84680.095537 8400.107024 84581.514464 8440.402519 C 84483.396213 8481.161181 84382.038208 8512.193344 84277.903272 8532.572675 C 84173.305513 8553.415172 84068.244933 8564.068004 83961.795887 8564.068004 C 83855.346841 8564.068004 83749.823439 8553.415172 83645.688502 8532.572675 C 83541.553566 8512.193344 83440.195561 8481.161181 83341.614488 8440.402519 C 83243.496237 8400.107024 83150.006205 8350.08503 83061.607215 8290.799704 C 82973.208224 8231.977544 82891.288741 8164.818385 82816.311587 8089.322228 C 82740.87161 8014.289236 82673.762429 7932.308746 82614.984043 7843.843923 C 82555.742835 7755.379101 82505.758065 7662.282612 82465.029735 7564.09129 C 82424.301404 7465.436802 82393.755156 7364.46648 82372.928169 7259.790826 C 82352.101181 7155.578339 82341.919099 7050.439518 82341.919099 6943.911197 C 82341.919099 6837.846043 82352.101181 6732.244056 82372.928169 6628.031568 C 82393.755156 6523.81908 82424.301404 6422.385592 82465.029735 6324.194271 C 82505.758065 6226.002949 82555.742835 6132.443294 82614.984043 6043.978471 C 82673.762429 5955.513648 82740.87161 5873.533158 82816.311587 5798.500167 C 82891.288741 5723.467176 82973.208224 5656.308017 83061.607215 5597.022691 C 83150.006205 5538.200531 83243.496237 5488.178537 83341.614488 5447.419875 C 83440.195561 5406.661213 83541.553566 5376.092217 83645.688502 5355.249719 C 83749.823439 5334.407222 83855.346841 5324.217556 83961.795887 5324.217556 C 84068.244933 5324.217556 84173.305513 5334.407222 84277.903272 5355.249719 C 84382.038208 5376.092217 84483.396213 5406.661213 84581.514464 5447.419875 C 84680.095537 5488.178537 84773.122747 5538.200531 84861.521737 5597.022691 C 84949.920728 5656.308017 85031.840211 5723.467176 85107.280187 5798.500167 C 85182.257341 5873.533158 85249.366523 5955.513648 85308.607731 6043.978471 C 85367.848939 6132.443294 85417.370887 6226.002949 85458.099217 6324.194271 C 85498.827548 6422.385592 85529.836618 6523.81908 85550.663605 6628.031568 C 85571.027771 6732.244056 85581.672675 6837.846043 85581.672675 6943.911197 Z M 85581.672675 6943.911197" stroke="#FFAA67" stroke-width="170.07" stroke-miterlimit="22.926"/></g></svg>