<?xml version="1.0" encoding="UTF-8"?><svg xmlns="http://www.w3.org/2000/svg" xmlns:xlink="http://www.w3.org/1999/xlink" contentScriptType="text/ecmascript" width="900" zoomAndPan="magnify" contentStyleType="text/css" viewBox="0 0 900 899.99999" height="899.99999" preserveAspectRatio="xMidYMid meet" version="1.0"><defs><clipPath id="clip-0"><path d="M 225 390 L 685 390 L 685 638 L 225 638 Z M 225 390 " clip-rule="nonzero"/></clipPath><clipPath id="clip-1"><path d="M 172.019531 265.714844 L 732.496094 241.480469 L 748.855469 619.878906 L 188.378906 644.109375 Z M 172.019531 265.714844 " clip-rule="nonzero"/></clipPath><clipPath id="clip-2"><path d="M 172.019531 265.714844 L 732.496094 241.480469 L 748.855469 619.878906 L 188.378906 644.109375 Z M 172.019531 265.714844 " clip-rule="nonzero"/></clipPath><clipPath id="clip-3"><path d="M 202 367 L 709 367 L 709 645 L 202 645 Z M 202 367 " clip-rule="nonzero"/></clipPath><clipPath id="clip-4"><path d="M 172.019531 265.714844 L 732.496094 241.480469 L 748.855469 619.878906 L 188.378906 644.109375 Z M 172.019531 265.714844 " clip-rule="nonzero"/></clipPath><clipPath id="clip-5"><path d="M 172.019531 265.714844 L 732.496094 241.480469 L 748.855469 619.878906 L 188.378906 644.109375 Z M 172.019531 265.714844 " clip-rule="nonzero"/></clipPath><clipPath id="clip-6"><path d="M 175 299 L 733 299 L 733 441 L 175 441 Z M 175 299 " clip-rule="nonzero"/></clipPath><clipPath id="clip-7"><path d="M 172.019531 265.714844 L 732.496094 241.480469 L 748.855469 619.878906 L 188.378906 644.109375 Z M 172.019531 265.714844 " clip-rule="nonzero"/></clipPath><clipPath id="clip-8"><path d="M 172.019531 265.714844 L 732.496094 241.480469 L 748.855469 619.878906 L 188.378906 644.109375 Z M 172.019531 265.714844 " clip-rule="nonzero"/></clipPath><clipPath id="clip-9"><path d="M 172 276 L 749 276 L 749 464 L 172 464 Z M 172 276 " clip-rule="nonzero"/></clipPath><clipPath id="clip-10"><path d="M 172.019531 265.714844 L 732.496094 241.480469 L 748.855469 619.878906 L 188.378906 644.109375 Z M 172.019531 265.714844 " clip-rule="nonzero"/></clipPath><clipPath id="clip-11"><path d="M 172.019531 265.714844 L 732.496094 241.480469 L 748.855469 619.878906 L 188.378906 644.109375 Z M 172.019531 265.714844 " clip-rule="nonzero"/></clipPath><clipPath id="clip-12"><path d="M 430 456 L 449 456 L 449 571 L 430 571 Z M 430 456 " clip-rule="nonzero"/></clipPath><clipPath id="clip-13"><path d="M 172.019531 265.714844 L 732.496094 241.480469 L 748.855469 619.878906 L 188.378906 644.109375 Z M 172.019531 265.714844 " clip-rule="nonzero"/></clipPath><clipPath id="clip-14"><path d="M 172.019531 265.714844 L 732.496094 241.480469 L 748.855469 619.878906 L 188.378906 644.109375 Z M 172.019531 265.714844 " clip-rule="nonzero"/></clipPath><clipPath id="clip-15"><path d="M 406 432 L 472 432 L 472 594 L 406 594 Z M 406 432 " clip-rule="nonzero"/></clipPath><clipPath id="clip-16"><path d="M 172.019531 265.714844 L 732.496094 241.480469 L 748.855469 619.878906 L 188.378906 644.109375 Z M 172.019531 265.714844 " clip-rule="nonzero"/></clipPath><clipPath id="clip-17"><path d="M 172.019531 265.714844 L 732.496094 241.480469 L 748.855469 619.878906 L 188.378906 644.109375 Z M 172.019531 265.714844 " clip-rule="nonzero"/></clipPath><clipPath id="clip-18"><path d="M 472 454 L 491 454 L 491 569 L 472 569 Z M 472 454 " clip-rule="nonzero"/></clipPath><clipPath id="clip-19"><path d="M 172.019531 265.714844 L 732.496094 241.480469 L 748.855469 619.878906 L 188.378906 644.109375 Z M 172.019531 265.714844 " clip-rule="nonzero"/></clipPath><clipPath id="clip-20"><path d="M 172.019531 265.714844 L 732.496094 241.480469 L 748.855469 619.878906 L 188.378906 644.109375 Z M 172.019531 265.714844 " clip-rule="nonzero"/></clipPath><clipPath id="clip-21"><path d="M 449 430 L 515 430 L 515 592 L 449 592 Z M 449 430 " clip-rule="nonzero"/></clipPath><clipPath id="clip-22"><path d="M 172.019531 265.714844 L 732.496094 241.480469 L 748.855469 619.878906 L 188.378906 644.109375 Z M 172.019531 265.714844 " clip-rule="nonzero"/></clipPath><clipPath id="clip-23"><path d="M 172.019531 265.714844 L 732.496094 241.480469 L 748.855469 619.878906 L 188.378906 644.109375 Z M 172.019531 265.714844 " clip-rule="nonzero"/></clipPath><clipPath id="clip-24"><path d="M 383 465 L 402 465 L 402 565 L 383 565 Z M 383 465 " clip-rule="nonzero"/></clipPath><clipPath id="clip-25"><path d="M 172.019531 265.714844 L 732.496094 241.480469 L 748.855469 619.878906 L 188.378906 644.109375 Z M 172.019531 265.714844 " clip-rule="nonzero"/></clipPath><clipPath id="clip-26"><path d="M 172.019531 265.714844 L 732.496094 241.480469 L 748.855469 619.878906 L 188.378906 644.109375 Z M 172.019531 265.714844 " clip-rule="nonzero"/></clipPath><clipPath id="clip-27"><path d="M 360 441 L 425 441 L 425 589 L 360 589 Z M 360 441 " clip-rule="nonzero"/></clipPath><clipPath id="clip-28"><path d="M 172.019531 265.714844 L 732.496094 241.480469 L 748.855469 619.878906 L 188.378906 644.109375 Z M 172.019531 265.714844 " clip-rule="nonzero"/></clipPath><clipPath id="clip-29"><path d="M 172.019531 265.714844 L 732.496094 241.480469 L 748.855469 619.878906 L 188.378906 644.109375 Z M 172.019531 265.714844 " clip-rule="nonzero"/></clipPath><clipPath id="clip-30"><path d="M 340 477 L 358 477 L 358 556 L 340 556 Z M 340 477 " clip-rule="nonzero"/></clipPath><clipPath id="clip-31"><path d="M 172.019531 265.714844 L 732.496094 241.480469 L 748.855469 619.878906 L 188.378906 644.109375 Z M 172.019531 265.714844 " clip-rule="nonzero"/></clipPath><clipPath id="clip-32"><path d="M 172.019531 265.714844 L 732.496094 241.480469 L 748.855469 619.878906 L 188.378906 644.109375 Z M 172.019531 265.714844 " clip-rule="nonzero"/></clipPath><clipPath id="clip-33"><path d="M 317 453 L 382 453 L 382 579 L 317 579 Z M 317 453 " clip-rule="nonzero"/></clipPath><clipPath id="clip-34"><path d="M 172.019531 265.714844 L 732.496094 241.480469 L 748.855469 619.878906 L 188.378906 644.109375 Z M 172.019531 265.714844 " clip-rule="nonzero"/></clipPath><clipPath id="clip-35"><path d="M 172.019531 265.714844 L 732.496094 241.480469 L 748.855469 619.878906 L 188.378906 644.109375 Z M 172.019531 265.714844 " clip-rule="nonzero"/></clipPath><clipPath id="clip-36"><path d="M 516 459 L 535 459 L 535 560 L 516 560 Z M 516 459 " clip-rule="nonzero"/></clipPath><clipPath id="clip-37"><path d="M 172.019531 265.714844 L 732.496094 241.480469 L 748.855469 619.878906 L 188.378906 644.109375 Z M 172.019531 265.714844 " clip-rule="nonzero"/></clipPath><clipPath id="clip-38"><path d="M 172.019531 265.714844 L 732.496094 241.480469 L 748.855469 619.878906 L 188.378906 644.109375 Z M 172.019531 265.714844 " clip-rule="nonzero"/></clipPath><clipPath id="clip-39"><path d="M 493 435 L 559 435 L 559 583 L 493 583 Z M 493 435 " clip-rule="nonzero"/></clipPath><clipPath id="clip-40"><path d="M 172.019531 265.714844 L 732.496094 241.480469 L 748.855469 619.878906 L 188.378906 644.109375 Z M 172.019531 265.714844 " clip-rule="nonzero"/></clipPath><clipPath id="clip-41"><path d="M 172.019531 265.714844 L 732.496094 241.480469 L 748.855469 619.878906 L 188.378906 644.109375 Z M 172.019531 265.714844 " clip-rule="nonzero"/></clipPath><clipPath id="clip-42"><path d="M 553 467 L 571 467 L 571 547 L 553 547 Z M 553 467 " clip-rule="nonzero"/></clipPath><clipPath id="clip-43"><path d="M 172.019531 265.714844 L 732.496094 241.480469 L 748.855469 619.878906 L 188.378906 644.109375 Z M 172.019531 265.714844 " clip-rule="nonzero"/></clipPath><clipPath id="clip-44"><path d="M 172.019531 265.714844 L 732.496094 241.480469 L 748.855469 619.878906 L 188.378906 644.109375 Z M 172.019531 265.714844 " clip-rule="nonzero"/></clipPath><clipPath id="clip-45"><path d="M 529 444 L 594 444 L 594 570 L 529 570 Z M 529 444 " clip-rule="nonzero"/></clipPath><clipPath id="clip-46"><path d="M 172.019531 265.714844 L 732.496094 241.480469 L 748.855469 619.878906 L 188.378906 644.109375 Z M 172.019531 265.714844 " clip-rule="nonzero"/></clipPath><clipPath id="clip-47"><path d="M 172.019531 265.714844 L 732.496094 241.480469 L 748.855469 619.878906 L 188.378906 644.109375 Z M 172.019531 265.714844 " clip-rule="nonzero"/></clipPath><clipPath id="clip-48"><path d="M 196 256 L 419 256 L 419 491 L 196 491 Z M 196 256 " clip-rule="nonzero"/></clipPath><clipPath id="clip-49"><path d="M 172.019531 265.714844 L 732.496094 241.480469 L 748.855469 619.878906 L 188.378906 644.109375 Z M 172.019531 265.714844 " clip-rule="nonzero"/></clipPath><clipPath id="clip-50"><path d="M 172.019531 265.714844 L 732.496094 241.480469 L 748.855469 619.878906 L 188.378906 644.109375 Z M 172.019531 265.714844 " clip-rule="nonzero"/></clipPath><clipPath id="clip-51"><path d="M 173 241 L 442 241 L 442 515 L 173 515 Z M 173 241 " clip-rule="nonzero"/></clipPath><clipPath id="clip-52"><path d="M 172.019531 265.714844 L 732.496094 241.480469 L 748.855469 619.878906 L 188.378906 644.109375 Z M 172.019531 265.714844 " clip-rule="nonzero"/></clipPath><clipPath id="clip-53"><path d="M 172.019531 265.714844 L 732.496094 241.480469 L 748.855469 619.878906 L 188.378906 644.109375 Z M 172.019531 265.714844 " clip-rule="nonzero"/></clipPath><clipPath id="clip-54"><path d="M 386 274 L 401 274 L 401 288 L 386 288 Z M 386 274 " clip-rule="nonzero"/></clipPath><clipPath id="clip-55"><path d="M 172.019531 265.714844 L 732.496094 241.480469 L 748.855469 619.878906 L 188.378906 644.109375 Z M 172.019531 265.714844 " clip-rule="nonzero"/></clipPath><clipPath id="clip-56"><path d="M 172.019531 265.714844 L 732.496094 241.480469 L 748.855469 619.878906 L 188.378906 644.109375 Z M 172.019531 265.714844 " clip-rule="nonzero"/></clipPath><clipPath id="clip-57"><path d="M 363 250 L 424 250 L 424 312 L 363 312 Z M 363 250 " clip-rule="nonzero"/></clipPath><clipPath id="clip-58"><path d="M 172.019531 265.714844 L 732.496094 241.480469 L 748.855469 619.878906 L 188.378906 644.109375 Z M 172.019531 265.714844 " clip-rule="nonzero"/></clipPath><clipPath id="clip-59"><path d="M 172.019531 265.714844 L 732.496094 241.480469 L 748.855469 619.878906 L 188.378906 644.109375 Z M 172.019531 265.714844 " clip-rule="nonzero"/></clipPath><clipPath id="clip-60"><path d="M 504 255 L 742 255 L 742 475 L 504 475 Z M 504 255 " clip-rule="nonzero"/></clipPath><clipPath id="clip-61"><path d="M 172.019531 265.714844 L 732.496094 241.480469 L 748.855469 619.878906 L 188.378906 644.109375 Z M 172.019531 265.714844 " clip-rule="nonzero"/></clipPath><clipPath id="clip-62"><path d="M 172.019531 265.714844 L 732.496094 241.480469 L 748.855469 619.878906 L 188.378906 644.109375 Z M 172.019531 265.714844 " clip-rule="nonzero"/></clipPath><clipPath id="clip-63"><path d="M 480 241 L 749 241 L 749 498 L 480 498 Z M 480 241 " clip-rule="nonzero"/></clipPath><clipPath id="clip-64"><path d="M 172.019531 265.714844 L 732.496094 241.480469 L 748.855469 619.878906 L 188.378906 644.109375 Z M 172.019531 265.714844 " clip-rule="nonzero"/></clipPath><clipPath id="clip-65"><path d="M 172.019531 265.714844 L 732.496094 241.480469 L 748.855469 619.878906 L 188.378906 644.109375 Z M 172.019531 265.714844 " clip-rule="nonzero"/></clipPath><clipPath id="clip-66"><path d="M 521 272 L 536 272 L 536 287 L 521 287 Z M 521 272 " clip-rule="nonzero"/></clipPath><clipPath id="clip-67"><path d="M 172.019531 265.714844 L 732.496094 241.480469 L 748.855469 619.878906 L 188.378906 644.109375 Z M 172.019531 265.714844 " clip-rule="nonzero"/></clipPath><clipPath id="clip-68"><path d="M 172.019531 265.714844 L 732.496094 241.480469 L 748.855469 619.878906 L 188.378906 644.109375 Z M 172.019531 265.714844 " clip-rule="nonzero"/></clipPath><clipPath id="clip-69"><path d="M 498 249 L 559 249 L 559 311 L 498 311 Z M 498 249 " clip-rule="nonzero"/></clipPath><clipPath id="clip-70"><path d="M 172.019531 265.714844 L 732.496094 241.480469 L 748.855469 619.878906 L 188.378906 644.109375 Z M 172.019531 265.714844 " clip-rule="nonzero"/></clipPath><clipPath id="clip-71"><path d="M 172.019531 265.714844 L 732.496094 241.480469 L 748.855469 619.878906 L 188.378906 644.109375 Z M 172.019531 265.714844 " clip-rule="nonzero"/></clipPath></defs><path fill="rgb(0%, 49.798584%, 38.038635%)" d="M 777.308594 192.972656 L 305.195312 59.832031 C 257.238281 46.308594 206.496094 74.726562 192.972656 122.683594 L 59.832031 594.796875 C 46.308594 642.753906 74.726562 693.496094 122.683594 707.019531 L 594.796875 840.160156 C 642.753906 853.683594 693.496094 825.265625 707.019531 777.308594 L 840.160156 305.195312 C 853.683594 257.238281 825.265625 206.496094 777.308594 192.972656 Z M 818.964844 306.316406 L 687.679688 771.851562 C 677.175781 809.113281 637.507812 831.328125 600.25 820.820312 L 128.136719 687.679688 C 90.878906 677.175781 68.664062 637.507812 79.171875 600.25 L 212.308594 128.136719 C 222.816406 90.878906 262.484375 68.664062 299.742188 79.171875 L 771.851562 212.308594 C 809.113281 222.816406 831.328125 262.484375 820.820312 299.742188 Z M 818.964844 306.316406 " fill-opacity="1" fill-rule="nonzero"/><g clip-path="url(#clip-0)"><g clip-path="url(#clip-1)"><g clip-path="url(#clip-2)"><path fill="rgb(0%, 49.798584%, 38.038635%)" d="M 225.542969 412.636719 C 375.234375 403.949219 525.003906 396.710938 674.824219 390.722656 C 678.785156 390.5625 680.851562 390.453125 684.730469 391.410156 C 684.960938 405.125 676.804688 441.539062 673.859375 457.640625 C 665.867188 501.316406 657.390625 547.675781 646.847656 590.699219 C 644.457031 600.449219 639.84375 621.609375 628.304688 623.875 C 617.582031 625.980469 594.03125 625.460938 581.636719 626 C 538.265625 627.878906 494.875 629.664062 451.507812 631.6875 C 434.296875 632.5 299.109375 639.578125 293.890625 636.839844 C 283.796875 628.109375 277.25 589.292969 273.351562 574.429688 C 259.3125 520.9375 242.4375 467.707031 226.214844 414.816406 Z M 225.542969 412.636719 " fill-opacity="1" fill-rule="evenodd"/></g></g></g><g clip-path="url(#clip-3)"><g clip-path="url(#clip-4)"><g clip-path="url(#clip-5)"><path stroke-linecap="butt" transform="matrix(0.00423307, -0.000183019, 0.000183057, 0.00423396, 172.024069, 265.807828)" fill="none" stroke-linejoin="miter" d="M 11122.56881 35159.686006 C 46507.494744 34637.390704 81896.067758 34457.537909 117283.871329 34572.884074 C 118219.470007 34575.500158 118707.83158 34570.77753 119612.698386 34835.928978 C 119527.222961 38071.485187 117232.796676 46572.78865 116374.158713 50338.632723 C 114044.386421 60553.52298 111573.04292 71396.120274 108648.461747 81431.224674 C 107985.368082 83705.372734 106681.86202 88646.754581 103937.92111 89063.251854 C 101388.11677 89450.314354 95840.276525 89087.794413 92912.222852 89088.543619 C 82666.417318 89089.423621 72416.962183 89068.003447 62170.604269 89102.995796 C 58104.082513 89119.114992 26155.500068 89409.840118 24952.865224 88711.111268 C 22661.822353 86550.064827 21513.828769 77332.55797 20746.126547 73788.877224 C 17981.13397 61035.262276 14544.775747 48314.440747 11258.771769 35680.384775 Z M 11122.56881 35159.686006 " stroke="rgb(0%, 49.798584%, 38.038635%)" stroke-width="170.07001" stroke-opacity="1" stroke-miterlimit="22.926001"/></g></g></g><g clip-path="url(#clip-6)"><g clip-path="url(#clip-7)"><g clip-path="url(#clip-8)"><path fill="rgb(0.389099%, 63.919067%, 48.629761%)" d="M 200.726562 321.359375 L 702.851562 299.648438 C 703.699219 299.613281 704.546875 299.617188 705.394531 299.664062 C 706.242188 299.710938 707.085938 299.796875 707.925781 299.925781 C 708.765625 300.058594 709.59375 300.226562 710.417969 300.4375 C 711.238281 300.648438 712.046875 300.902344 712.84375 301.191406 C 713.644531 301.480469 714.425781 301.8125 715.191406 302.179688 C 715.953125 302.546875 716.699219 302.949219 717.425781 303.390625 C 718.152344 303.832031 718.851562 304.304688 719.53125 304.816406 C 720.210938 305.324219 720.863281 305.867188 721.488281 306.441406 C 722.113281 307.015625 722.710938 307.617188 723.277344 308.25 C 723.84375 308.882812 724.375 309.542969 724.878906 310.226562 C 725.378906 310.910156 725.847656 311.617188 726.277344 312.351562 C 726.710938 313.082031 727.105469 313.832031 727.464844 314.601562 C 727.820312 315.371094 728.140625 316.15625 728.421875 316.957031 C 728.703125 317.757812 728.945312 318.570312 729.148438 319.394531 C 729.347656 320.21875 729.507812 321.050781 729.628906 321.890625 C 729.75 322.734375 729.828125 323.578125 729.863281 324.425781 L 732.773438 391.753906 C 732.8125 392.601562 732.804688 393.453125 732.757812 394.300781 C 732.710938 395.148438 732.625 395.988281 732.496094 396.828125 C 732.367188 397.667969 732.195312 398.5 731.984375 399.320312 C 731.773438 400.144531 731.523438 400.953125 731.230469 401.75 C 730.941406 402.546875 730.613281 403.328125 730.246094 404.09375 C 729.878906 404.859375 729.472656 405.605469 729.03125 406.332031 C 728.59375 407.054688 728.117188 407.757812 727.605469 408.4375 C 727.097656 409.117188 726.554688 409.769531 725.984375 410.394531 C 725.410156 411.019531 724.804688 411.617188 724.171875 412.183594 C 723.542969 412.75 722.882812 413.28125 722.199219 413.785156 C 721.511719 414.285156 720.804688 414.753906 720.074219 415.183594 C 719.34375 415.617188 718.59375 416.011719 717.824219 416.371094 C 717.054688 416.730469 716.269531 417.050781 715.46875 417.332031 C 714.667969 417.613281 713.855469 417.851562 713.03125 418.054688 C 712.207031 418.257812 711.375 418.417969 710.535156 418.535156 C 709.695312 418.65625 708.851562 418.734375 708.003906 418.769531 L 205.875 440.480469 C 205.027344 440.515625 204.179688 440.511719 203.332031 440.464844 C 202.484375 440.417969 201.640625 440.332031 200.804688 440.199219 C 199.964844 440.070312 199.132812 439.902344 198.3125 439.691406 C 197.488281 439.480469 196.679688 439.226562 195.882812 438.9375 C 195.085938 438.648438 194.304688 438.316406 193.539062 437.949219 C 192.773438 437.582031 192.027344 437.179688 191.304688 436.738281 C 190.578125 436.296875 189.875 435.820312 189.195312 435.3125 C 188.519531 434.800781 187.867188 434.261719 187.238281 433.6875 C 186.613281 433.113281 186.019531 432.511719 185.453125 431.878906 C 184.886719 431.246094 184.351562 430.585938 183.851562 429.902344 C 183.347656 429.21875 182.882812 428.507812 182.449219 427.777344 C 182.019531 427.046875 181.621094 426.296875 181.265625 425.527344 C 180.90625 424.757812 180.585938 423.972656 180.304688 423.171875 C 180.023438 422.371094 179.78125 421.558594 179.582031 420.734375 C 179.378906 419.910156 179.21875 419.078125 179.101562 418.238281 C 178.980469 417.394531 178.902344 416.550781 178.867188 415.703125 L 175.953125 348.375 C 175.917969 347.523438 175.921875 346.675781 175.96875 345.828125 C 176.015625 344.980469 176.105469 344.140625 176.234375 343.300781 C 176.363281 342.460938 176.53125 341.628906 176.742188 340.808594 C 176.957031 339.984375 177.207031 339.175781 177.496094 338.378906 C 177.789062 337.582031 178.117188 336.800781 178.484375 336.035156 C 178.851562 335.269531 179.253906 334.523438 179.695312 333.796875 C 180.136719 333.070312 180.609375 332.371094 181.121094 331.691406 C 181.628906 331.011719 182.171875 330.359375 182.746094 329.734375 C 183.320312 329.109375 183.921875 328.511719 184.554688 327.945312 C 185.1875 327.378906 185.84375 326.847656 186.53125 326.34375 C 187.214844 325.84375 187.921875 325.375 188.652344 324.945312 C 189.382812 324.511719 190.132812 324.117188 190.902344 323.757812 C 191.671875 323.398438 192.457031 323.078125 193.257812 322.796875 C 194.058594 322.515625 194.871094 322.277344 195.695312 322.074219 C 196.519531 321.871094 197.351562 321.710938 198.191406 321.59375 C 199.035156 321.472656 199.878906 321.394531 200.726562 321.359375 Z M 200.726562 321.359375 " fill-opacity="1" fill-rule="evenodd"/></g></g></g><g clip-path="url(#clip-9)"><g clip-path="url(#clip-10)"><g clip-path="url(#clip-11)"><path stroke-linecap="butt" transform="matrix(0.00423307, -0.000183019, 0.000183057, 0.00423396, 172.024069, 265.807828)" fill="none" stroke-linejoin="miter" d="M 6201.549543 13388.55698 L 124821.02896 13388.254417 C 125021.259762 13388.6063 125221.092333 13398.166975 125420.486851 13417.857323 C 125619.881369 13437.54767 125817.956586 13466.406995 126014.672679 13505.356178 C 126211.348949 13545.22624 126404.903599 13593.264772 126597.099125 13651.39316 C 126788.373579 13709.481734 126976.446768 13777.580536 127161.398337 13853.847807 C 127347.270977 13930.154893 127528.100209 14016.392577 127704.88675 14110.758916 C 127880.75222 14205.08544 128052.574999 14307.540618 128219.394193 14419.005516 C 128386.213387 14530.470414 128546.266501 14649.023643 128701.31603 14776.586591 C 128856.405381 14903.228659 129004.688829 15037.879939 129146.206196 15179.619549 C 129287.723564 15321.359159 129422.514673 15469.266221 129549.618631 15624.221799 C 129676.722589 15779.177378 129795.258147 15940.220779 129907.107271 16106.510752 C 130018.035323 16272.760911 130121.35587 16444.217827 130215.186947 16621.722751 C 130309.978917 16798.346611 130395.361063 16979.17672 130472.254456 17164.252892 C 130548.226777 17349.28925 130615.750168 17537.650792 130673.903557 17729.297704 C 130732.056947 17920.944616 130780.880158 18114.956019 130820.37319 18311.331912 C 130858.945152 18507.667991 130888.226758 18705.447681 130908.218009 18904.670982 C 130928.169436 19104.815162 130937.989084 19304.52138 130937.637127 19504.710516 L 130937.445469 35406.6477 C 130938.014584 35606.87665 130927.491024 35807.548703 130907.796578 36006.901729 C 130888.102132 36206.254756 130859.276623 36403.367876 130820.319334 36600.043034 C 130781.362044 36796.718193 130732.35262 36991.113631 130674.251956 37182.348283 C 130616.111468 37374.503815 130548.919564 37562.577683 130471.715348 37747.450951 C 130395.432203 37932.364033 130310.097641 38113.195452 130215.711661 38289.945205 C 130121.325681 38466.694959 130017.928107 38638.442169 129906.44001 38805.22665 C 129795.912806 38971.130067 129676.374008 39132.03094 129548.78451 39287.048204 C 129422.116083 39442.105284 129287.436778 39590.357876 129146.588738 39731.88561 C 129004.819627 39873.373529 128855.96071 40008.096775 128700.97288 40135.174284 C 128546.906121 40262.291608 128385.829202 40380.802501 128219.504618 40492.62835 C 128052.298786 40603.493505 127880.806184 40706.792552 127704.185386 40800.643919 C 127527.524765 40895.416164 127346.65702 40980.780543 127161.542327 41057.657935 C 126976.427634 41134.535327 126788.026887 41202.044667 126596.340087 41260.185956 C 126404.653287 41318.327244 126210.641327 41366.219417 126014.224562 41405.704231 C 125817.807796 41445.189046 125619.986942 41474.464559 125420.761999 41493.530771 C 125221.497233 41513.517862 125021.749449 41523.335466 124821.518648 41522.983583 L 6201.118159 41523.246331 C 6000.887358 41522.894449 5801.054787 41513.333773 5601.660269 41493.643426 C 5402.26575 41473.953078 5204.190533 41445.093753 5008.435335 41405.263506 C 4811.719242 41366.314323 4617.243521 41318.235977 4425.969066 41260.147403 C 4233.77354 41202.019014 4045.700352 41133.920213 3860.748783 41057.652941 C 3675.797214 40981.38567 3494.967982 40895.147986 3318.181441 40800.781647 C 3141.3949 40706.415309 2969.572121 40603.96013 2803.673998 40492.535047 C 2636.854803 40381.070149 2475.920442 40261.556226 2320.83109 40134.914158 C 2166.702632 40007.391024 2018.379362 39873.660625 1875.940923 39731.8812 C 1734.423556 39590.141589 1600.553518 39442.274342 1473.44956 39287.318764 C 1346.345602 39132.363185 1226.888973 38971.27997 1115.96092 38805.029811 C 1004.111796 38638.739838 901.752143 38466.401857 806.960173 38289.777997 C 713.089273 38113.193952 626.786057 37932.324029 550.813735 37747.287671 C 473.920343 37562.211498 406.396952 37373.849956 348.243562 37182.203044 C 290.090173 36990.556132 241.266962 36796.544729 202.695 36600.208651 C 163.201968 36403.832757 133.920362 36206.053068 114.850182 36006.869581 C 94.898755 35806.725401 85.079107 35607.019183 85.431063 35406.830047 L 84.701651 19504.853048 C 85.09343 19303.743034 94.656096 19103.952045 114.350542 18904.599019 C 134.044987 18705.245993 163.791568 18508.172687 202.748857 18311.497529 C 241.706147 18114.82237 289.7945 17920.387118 347.895164 17729.152465 C 406.956722 17537.036748 474.148627 17348.96288 550.431772 17164.049797 C 627.635988 16979.17653 712.97055 16798.345112 807.35653 16621.595358 C 901.74251 16444.845604 1004.219013 16273.058579 1115.70711 16106.274098 C 1227.195208 15939.489617 1345.773111 15779.469809 1473.36261 15624.452544 C 1600.031037 15469.395465 1734.710341 15321.142873 1876.479452 15179.654953 C 2018.248563 15038.167034 2166.18641 14903.403973 2321.17424 14776.326464 C 2476.16207 14649.248955 2636.317918 14530.698248 2803.563573 14418.912213 C 2969.848334 14308.007243 3141.340936 14204.708196 3317.961734 14110.85683 C 3494.622355 14016.084584 3675.4901 13930.720205 3860.604793 13853.842813 C 4045.719486 13776.965421 4234.120233 13709.456081 4425.807033 13651.314793 C 4617.493833 13593.173504 4811.505793 13545.281332 5007.922558 13505.796517 C 5204.339324 13466.311702 5402.160178 13437.036189 5601.385121 13417.969977 C 5801.570958 13398.022701 6001.318741 13388.205097 6201.549543 13388.55698 Z M 6201.549543 13388.55698 " stroke="rgb(0.389099%, 63.919067%, 48.629761%)" stroke-width="170.07001" stroke-opacity="1" stroke-miterlimit="22.926001"/></g></g></g><g clip-path="url(#clip-12)"><g clip-path="url(#clip-13)"><g clip-path="url(#clip-14)"><path fill="rgb(99.609375%, 99.609375%, 99.609375%)" d="M 436.164062 456.117188 L 437.445312 456.0625 C 437.867188 456.042969 438.285156 456.070312 438.703125 456.148438 C 439.117188 456.222656 439.523438 456.34375 439.921875 456.511719 C 440.316406 456.679688 440.695312 456.890625 441.058594 457.140625 C 441.417969 457.390625 441.757812 457.683594 442.066406 458.007812 C 442.378906 458.335938 442.660156 458.695312 442.914062 459.082031 C 443.164062 459.472656 443.378906 459.886719 443.558594 460.324219 C 443.738281 460.757812 443.878906 461.210938 443.984375 461.679688 C 444.085938 462.148438 444.148438 462.621094 444.167969 463.101562 L 448.460938 562.398438 C 448.480469 562.878906 448.460938 563.355469 448.398438 563.828125 C 448.339844 564.304688 448.238281 564.765625 448.09375 565.21875 C 447.953125 565.667969 447.773438 566.097656 447.558594 566.507812 C 447.339844 566.917969 447.089844 567.300781 446.808594 567.652344 C 446.527344 568.003906 446.214844 568.320312 445.878906 568.605469 C 445.539062 568.886719 445.179688 569.128906 444.800781 569.328125 C 444.417969 569.527344 444.023438 569.683594 443.617188 569.796875 C 443.207031 569.90625 442.792969 569.972656 442.371094 569.992188 L 441.089844 570.046875 C 440.667969 570.0625 440.25 570.035156 439.832031 569.960938 C 439.414062 569.882812 439.007812 569.761719 438.613281 569.59375 C 438.214844 569.429688 437.835938 569.21875 437.476562 568.96875 C 437.113281 568.714844 436.777344 568.425781 436.464844 568.097656 C 436.152344 567.773438 435.871094 567.414062 435.621094 567.023438 C 435.371094 566.636719 435.15625 566.222656 434.972656 565.785156 C 434.792969 565.347656 434.652344 564.894531 434.550781 564.429688 C 434.449219 563.960938 434.386719 563.488281 434.367188 563.007812 L 430.074219 463.710938 C 430.050781 463.230469 430.074219 462.753906 430.132812 462.277344 C 430.195312 461.804688 430.296875 461.339844 430.4375 460.890625 C 430.582031 460.4375 430.761719 460.007812 430.976562 459.597656 C 431.191406 459.191406 431.441406 458.808594 431.726562 458.457031 C 432.007812 458.101562 432.320312 457.785156 432.65625 457.503906 C 432.996094 457.222656 433.355469 456.980469 433.734375 456.78125 C 434.117188 456.578125 434.511719 456.421875 434.917969 456.3125 C 435.328125 456.199219 435.742188 456.136719 436.164062 456.117188 Z M 436.164062 456.117188 " fill-opacity="1" fill-rule="evenodd"/></g></g></g><g clip-path="url(#clip-15)"><g clip-path="url(#clip-16)"><g clip-path="url(#clip-17)"><path stroke-linecap="butt" transform="matrix(0.00423307, -0.000183019, 0.000183057, 0.00423396, 172.024069, 265.807828)" fill="none" stroke-linejoin="miter" d="M 60342.522905 47556.763578 L 60645.191696 47556.930499 C 60744.866472 47556.626093 60843.142302 47567.332424 60940.900433 47590.010185 C 61037.777315 47611.727253 61132.334179 47644.415242 61224.571026 47688.074153 C 61315.886801 47731.69325 61403.08024 47785.282759 61486.191164 47847.921803 C 61568.381018 47910.521032 61645.527463 47983.050859 61714.986757 48062.629202 C 61785.327299 48143.16824 61847.980689 48230.755794 61903.907822 48324.510799 C 61958.874061 48419.14687 62005.311723 48518.949883 62043.220808 48623.91984 C 62081.169717 48727.968917 62109.708801 48836.224243 62129.798954 48947.804754 C 62148.968037 49059.34545 62158.886587 49171.408878 62158.59371 49284.876103 L 62158.549599 72737.3837 C 62158.256723 72850.850925 62148.79296 72962.999123 62129.23724 73073.78848 C 62110.562768 73185.538531 62081.915807 73293.167102 62043.216713 73398.515953 C 62005.478512 73502.98374 61958.728717 73602.448983 61903.888398 73696.951497 C 61848.127009 73791.414196 61785.275813 73879.112223 61715.374634 73959.124697 C 61645.473454 74039.137171 61568.562115 74110.543215 61486.442934 74174.343335 C 61403.442504 74237.182762 61316.234951 74290.614322 61224.860096 74333.717136 C 61132.56417 74376.780136 61037.943084 74409.594019 60940.996838 74432.158787 C 60843.169345 74453.76286 60744.858834 74465.197446 60645.184057 74465.501852 L 60342.515266 74465.334931 C 60242.880313 74464.718458 60144.604483 74454.012127 60046.80653 74432.255244 C 59949.048399 74409.577483 59854.491535 74376.889494 59763.175759 74333.270397 C 59670.89909 74290.532365 59583.705652 74236.942856 59501.515798 74174.343627 C 59418.444697 74110.783704 59342.179499 74039.214571 59271.838957 73958.675534 C 59201.458592 73879.057375 59138.805202 73791.469821 59083.838963 73696.833751 C 59028.832901 73603.11856 58982.395239 73503.315547 58943.565083 73398.305776 C 58905.655998 73293.335819 58877.116914 73185.080493 58857.908008 73074.460676 C 58838.738925 72962.91998 58828.820375 72850.856552 58829.113252 72737.389327 L 58829.157363 49284.88173 C 58828.529169 49171.37469 58838.914002 49059.266307 58857.588474 48947.516256 C 58877.144194 48836.726899 58905.830978 48728.177448 58943.569179 48623.709662 C 58982.268273 48518.360811 59029.018068 48418.895568 59083.858387 48324.393054 C 59138.658882 48230.811419 59201.510078 48143.113393 59272.332328 48063.140733 C 59342.273331 47982.207379 59419.18467 47910.801336 59501.264029 47847.922095 C 59584.264458 47785.082668 59671.472011 47731.651108 59762.846866 47688.548294 C 59855.182616 47644.564415 59949.803701 47611.750531 60046.710124 47590.106643 C 60144.57744 47567.581691 60242.848128 47557.067983 60342.522905 47556.763578 Z M 60342.522905 47556.763578 " stroke="rgb(99.609375%, 99.609375%, 99.609375%)" stroke-width="170.07001" stroke-opacity="1" stroke-miterlimit="22.926001"/></g></g></g><g clip-path="url(#clip-18)"><g clip-path="url(#clip-19)"><g clip-path="url(#clip-20)"><path fill="rgb(99.609375%, 99.609375%, 99.609375%)" d="M 478.695312 454.277344 L 479.976562 454.222656 C 480.398438 454.203125 480.816406 454.234375 481.234375 454.308594 C 481.652344 454.386719 482.058594 454.507812 482.453125 454.671875 C 482.851562 454.839844 483.230469 455.050781 483.589844 455.300781 C 483.953125 455.554688 484.289062 455.84375 484.601562 456.167969 C 484.914062 456.496094 485.195312 456.855469 485.445312 457.242188 C 485.695312 457.632812 485.910156 458.046875 486.09375 458.484375 C 486.273438 458.921875 486.414062 459.371094 486.515625 459.839844 C 486.617188 460.308594 486.679688 460.78125 486.699219 461.261719 L 490.992188 560.558594 C 491.015625 561.039062 490.992188 561.515625 490.933594 561.992188 C 490.871094 562.464844 490.769531 562.929688 490.628906 563.378906 C 490.484375 563.828125 490.304688 564.261719 490.089844 564.667969 C 489.875 565.078125 489.625 565.460938 489.339844 565.8125 C 489.058594 566.164062 488.746094 566.484375 488.410156 566.765625 C 488.070312 567.046875 487.710938 567.289062 487.332031 567.488281 C 486.949219 567.6875 486.554688 567.84375 486.148438 567.957031 C 485.738281 568.070312 485.324219 568.132812 484.902344 568.152344 L 483.621094 568.207031 C 483.199219 568.226562 482.78125 568.195312 482.363281 568.121094 C 481.949219 568.042969 481.542969 567.921875 481.144531 567.757812 C 480.75 567.589844 480.371094 567.378906 480.007812 567.128906 C 479.648438 566.875 479.308594 566.585938 479 566.261719 C 478.6875 565.933594 478.40625 565.574219 478.152344 565.183594 C 477.902344 564.796875 477.6875 564.382812 477.507812 563.945312 C 477.328125 563.507812 477.1875 563.058594 477.082031 562.589844 C 476.980469 562.121094 476.917969 561.648438 476.898438 561.167969 L 472.605469 461.871094 C 472.585938 461.390625 472.605469 460.914062 472.667969 460.4375 C 472.726562 459.964844 472.832031 459.5 472.972656 459.050781 C 473.113281 458.601562 473.292969 458.167969 473.507812 457.761719 C 473.726562 457.351562 473.976562 456.96875 474.257812 456.617188 C 474.539062 456.265625 474.851562 455.945312 475.1875 455.664062 C 475.527344 455.382812 475.886719 455.140625 476.265625 454.941406 C 476.648438 454.742188 477.042969 454.585938 477.449219 454.472656 C 477.859375 454.359375 478.273438 454.296875 478.695312 454.277344 Z M 478.695312 454.277344 " fill-opacity="1" fill-rule="evenodd"/></g></g></g><g clip-path="url(#clip-21)"><g clip-path="url(#clip-22)"><g clip-path="url(#clip-23)"><path stroke-linecap="butt" transform="matrix(0.00423307, -0.000183019, 0.000183057, 0.00423396, 172.024069, 265.807828)" fill="none" stroke-linejoin="miter" d="M 70389.899956 47556.532202 L 70692.568747 47556.699123 C 70792.243523 47556.394717 70890.47953 47568.021928 70988.277483 47589.77881 C 71086.035614 47612.456571 71180.592478 47645.144561 71271.948077 47687.842778 C 71364.184923 47731.501689 71451.378361 47785.091199 71533.568215 47847.690427 C 71616.639316 47911.25035 71692.904514 47982.819483 71763.284879 48062.437641 C 71833.625421 48142.976679 71896.278811 48230.564233 71951.284873 48324.279424 C 72006.251111 48418.915494 72052.688774 48518.718507 72091.51893 48623.728279 C 72129.428015 48728.698235 72158.006922 48836.032682 72177.176005 48947.573378 C 72196.345087 49059.114074 72206.263638 49171.177503 72205.970761 49284.644727 L 72205.92665 72737.152325 C 72206.554844 72850.659364 72196.170011 72962.767747 72177.495539 73074.517798 C 72157.939818 73185.307155 72129.253035 73293.856606 72091.514834 73398.324392 C 72052.855563 73502.752364 72006.065944 73603.138486 71951.265449 73696.720121 C 71896.42513 73791.222635 71833.573935 73878.920662 71762.751684 73958.893321 C 71692.850505 74038.905796 71615.899342 74111.232718 71533.819984 74174.111959 C 71450.819555 74236.951386 71363.612002 74290.382946 71272.237146 74333.485761 C 71179.94122 74376.54876 71085.320135 74409.362644 70988.373889 74431.927411 C 70890.506573 74454.452364 70792.235885 74464.966071 70692.561108 74465.270476 L 70389.892317 74465.103555 C 70290.21754 74465.407961 70191.981534 74453.780751 70094.18358 74432.023869 C 69997.346521 74409.385922 69902.789657 74376.697933 69810.512987 74333.959901 C 69719.197212 74290.340804 69632.003773 74236.751295 69548.892849 74174.112251 C 69466.742818 74110.592143 69389.55655 74038.983195 69320.097256 73959.404852 C 69249.756714 73878.865814 69187.103323 73791.278261 69131.216014 73696.602375 C 69076.209952 73602.887184 69029.77229 73503.084171 68991.863205 73398.114215 C 68953.954119 73293.144258 68925.375212 73185.809811 68905.285059 73074.2293 C 68886.115976 72962.688604 68876.197426 72850.625176 68876.490302 72737.157951 L 68876.534414 49284.650354 C 68876.82729 49171.183129 68886.291053 49059.034931 68905.886596 48947.324695 C 68924.521245 48836.495524 68954.1291 48727.985887 68991.8673 48623.518101 C 69029.605501 48519.050314 69076.395119 48418.664192 69131.195615 48325.082557 C 69186.957004 48230.619858 69249.8082 48142.921832 69319.709379 48062.909357 C 69389.610559 47982.896883 69466.561721 47910.56996 69548.641079 47847.690719 C 69631.641508 47784.851293 69718.849062 47731.419732 69810.223917 47688.316918 C 69902.519843 47645.253918 69997.140929 47612.440035 70094.087174 47589.875267 C 70191.954491 47567.350315 70290.225179 47556.836608 70389.899956 47556.532202 Z M 70389.899956 47556.532202 " stroke="rgb(99.609375%, 99.609375%, 99.609375%)" stroke-width="170.07001" stroke-opacity="1" stroke-miterlimit="22.926001"/></g></g></g><g clip-path="url(#clip-24)"><g clip-path="url(#clip-25)"><g clip-path="url(#clip-26)"><path fill="rgb(99.609375%, 99.609375%, 99.609375%)" d="M 389.855469 465.15625 L 391.140625 465.101562 C 391.558594 465.085938 391.976562 465.109375 392.394531 465.171875 C 392.808594 465.234375 393.214844 465.339844 393.613281 465.484375 C 394.007812 465.628906 394.382812 465.808594 394.746094 466.027344 C 395.105469 466.246094 395.4375 466.5 395.75 466.785156 C 396.058594 467.066406 396.339844 467.378906 396.589844 467.71875 C 396.835938 468.058594 397.050781 468.421875 397.226562 468.800781 C 397.40625 469.183594 397.542969 469.578125 397.644531 469.988281 C 397.746094 470.398438 397.804688 470.8125 397.820312 471.234375 L 401.582031 558.179688 C 401.597656 558.601562 401.574219 559.019531 401.511719 559.433594 C 401.449219 559.851562 401.34375 560.257812 401.199219 560.652344 C 401.054688 561.046875 400.875 561.425781 400.65625 561.785156 C 400.4375 562.144531 400.183594 562.480469 399.902344 562.789062 C 399.617188 563.101562 399.304688 563.378906 398.964844 563.628906 C 398.625 563.878906 398.265625 564.089844 397.882812 564.269531 C 397.5 564.445312 397.105469 564.585938 396.695312 564.6875 C 396.289062 564.785156 395.871094 564.84375 395.453125 564.863281 L 394.167969 564.917969 C 393.746094 564.9375 393.328125 564.914062 392.914062 564.847656 C 392.496094 564.785156 392.089844 564.679688 391.695312 564.535156 C 391.300781 564.394531 390.921875 564.210938 390.5625 563.992188 C 390.203125 563.773438 389.867188 563.523438 389.558594 563.238281 C 389.246094 562.953125 388.96875 562.640625 388.71875 562.300781 C 388.46875 561.960938 388.257812 561.601562 388.078125 561.21875 C 387.902344 560.835938 387.761719 560.441406 387.664062 560.03125 C 387.5625 559.625 387.503906 559.210938 387.484375 558.789062 L 383.726562 471.84375 C 383.707031 471.421875 383.730469 471.003906 383.796875 470.585938 C 383.859375 470.171875 383.964844 469.765625 384.109375 469.371094 C 384.253906 468.972656 384.433594 468.597656 384.652344 468.234375 C 384.871094 467.875 385.121094 467.539062 385.40625 467.230469 C 385.691406 466.921875 386.003906 466.640625 386.34375 466.390625 C 386.683594 466.144531 387.042969 465.929688 387.425781 465.75 C 387.804688 465.574219 388.203125 465.433594 388.609375 465.335938 C 389.019531 465.234375 389.433594 465.175781 389.855469 465.15625 Z M 389.855469 465.15625 " fill-opacity="1" fill-rule="evenodd"/></g></g></g><g clip-path="url(#clip-27)"><g clip-path="url(#clip-28)"><g clip-path="url(#clip-29)"><path stroke-linecap="butt" transform="matrix(0.00423307, -0.000183019, 0.000183057, 0.00423396, 172.024069, 265.807828)" fill="none" stroke-linejoin="miter" d="M 49331.076434 49215.674618 L 49634.666296 49215.881353 C 49733.380179 49216.458012 49831.695832 49226.243464 49929.613254 49245.237708 C 50026.609606 49264.192138 50121.325762 49293.19661 50213.801547 49331.330246 C 50305.35626 49369.424066 50391.947212 49415.606727 50475.37672 49470.878736 C 50557.885158 49526.110931 50633.587692 49589.352336 50704.366287 49659.761701 C 50774.263634 49729.210373 50837.394901 49805.747375 50892.878839 49888.412015 C 50947.441706 49971.03684 50994.397067 50058.868423 51031.982427 50149.985375 C 51070.449034 50242.063022 51098.664393 50336.465344 51118.43082 50434.192851 C 51138.197248 50531.920358 51147.792072 50630.130783 51147.17547 50729.745003 L 51147.786089 71265.017525 C 51147.169487 71364.631746 51137.381998 71462.92694 51118.423623 71559.903108 C 51099.425426 71657.800155 51070.414917 71752.496602 51032.313167 71844.032264 C 50994.211418 71935.567926 50947.979322 72023.061738 50892.735631 72105.553007 C 50837.491941 72188.044275 50774.197551 72264.651936 50704.734425 72334.534738 C 50634.310405 72405.298605 50557.797295 72467.495855 50475.11545 72522.968248 C 50392.433605 72578.44064 50305.544636 72624.505166 50213.447825 72662.963769 C 50121.390837 72700.501493 50026.929043 72729.63186 49929.181196 72749.394175 C 49832.394242 72768.275425 49733.242306 72777.828438 49634.488601 72778.172658 L 49330.898739 72777.965923 C 49231.223962 72778.270328 49132.908309 72768.484877 49035.951781 72748.609568 C 48938.034358 72729.615323 48843.318202 72700.610851 48751.763488 72662.51703 C 48660.168952 72625.344089 48572.696752 72578.200734 48490.188315 72522.96854 C 48407.679877 72467.736345 48331.016449 72405.376005 48261.158925 72335.006454 C 48190.38033 72264.597089 48128.170134 72188.099901 48072.686196 72105.435261 C 48017.202259 72022.770621 47971.128145 71935.899733 47932.661537 71843.822086 C 47895.116001 71751.784254 47865.979571 71657.342117 47847.134215 71559.654425 C 47827.327964 71462.847797 47817.73314 71364.637373 47817.428671 71264.983337 L 47817.739123 50729.75063 C 47817.434654 50630.096595 47827.222143 50531.8014 47847.141412 50433.944168 C 47866.099786 50336.968001 47895.110295 50242.271553 47933.212045 50150.735891 C 47971.353617 50058.27935 48017.54589 49971.706417 48072.829404 49888.294269 C 48128.073094 49805.803001 48190.446413 49729.155525 48260.83061 49659.312538 C 48331.214807 49589.46955 48407.76774 49526.35142 48490.449585 49470.879028 C 48573.091607 49416.327515 48660.020399 49369.34211 48752.11721 49330.883507 C 48843.253127 49293.305968 48938.635992 49264.215416 49035.422945 49245.334166 C 49133.170793 49225.571851 49231.401658 49215.979023 49331.076434 49215.674618 Z M 49331.076434 49215.674618 " stroke="rgb(99.609375%, 99.609375%, 99.609375%)" stroke-width="170.07001" stroke-opacity="1" stroke-miterlimit="22.926001"/></g></g></g><g clip-path="url(#clip-30)"><g clip-path="url(#clip-31)"><g clip-path="url(#clip-32)"><path fill="rgb(99.609375%, 99.609375%, 99.609375%)" d="M 347.011719 477.148438 L 348.296875 477.09375 C 348.71875 477.078125 349.136719 477.089844 349.550781 477.136719 C 349.964844 477.183594 350.371094 477.261719 350.765625 477.371094 C 351.160156 477.480469 351.535156 477.617188 351.890625 477.785156 C 352.25 477.953125 352.582031 478.148438 352.890625 478.367188 C 353.195312 478.589844 353.472656 478.828125 353.71875 479.09375 C 353.964844 479.359375 354.175781 479.636719 354.347656 479.933594 C 354.523438 480.234375 354.65625 480.542969 354.753906 480.859375 C 354.851562 481.179688 354.90625 481.503906 354.917969 481.835938 L 357.863281 549.914062 C 357.878906 550.242188 357.851562 550.570312 357.78125 550.898438 C 357.714844 551.222656 357.605469 551.542969 357.457031 551.855469 C 357.308594 552.164062 357.125 552.460938 356.902344 552.746094 C 356.683594 553.03125 356.425781 553.296875 356.140625 553.542969 C 355.851562 553.789062 355.539062 554.007812 355.195312 554.207031 C 354.855469 554.40625 354.492188 554.574219 354.109375 554.71875 C 353.726562 554.863281 353.328125 554.972656 352.917969 555.054688 C 352.507812 555.136719 352.09375 555.1875 351.675781 555.207031 L 350.390625 555.261719 C 349.96875 555.28125 349.550781 555.265625 349.136719 555.21875 C 348.722656 555.171875 348.316406 555.09375 347.921875 554.984375 C 347.527344 554.875 347.152344 554.738281 346.792969 554.570312 C 346.4375 554.402344 346.105469 554.207031 345.796875 553.988281 C 345.488281 553.769531 345.214844 553.527344 344.96875 553.261719 C 344.722656 553 344.511719 552.71875 344.339844 552.421875 C 344.164062 552.125 344.027344 551.816406 343.933594 551.496094 C 343.835938 551.175781 343.78125 550.851562 343.765625 550.523438 L 340.824219 482.445312 C 340.808594 482.113281 340.835938 481.785156 340.90625 481.460938 C 340.972656 481.132812 341.082031 480.8125 341.230469 480.503906 C 341.375 480.191406 341.5625 479.894531 341.78125 479.609375 C 342.003906 479.324219 342.257812 479.0625 342.546875 478.816406 C 342.835938 478.570312 343.148438 478.347656 343.492188 478.148438 C 343.832031 477.949219 344.195312 477.78125 344.578125 477.636719 C 344.960938 477.496094 345.359375 477.382812 345.765625 477.300781 C 346.175781 477.21875 346.59375 477.167969 347.011719 477.148438 Z M 347.011719 477.148438 " fill-opacity="1" fill-rule="evenodd"/></g></g></g><g clip-path="url(#clip-33)"><g clip-path="url(#clip-34)"><g clip-path="url(#clip-35)"><path stroke-linecap="butt" transform="matrix(0.00423307, -0.000183019, 0.000183057, 0.00423396, 172.024069, 265.807828)" fill="none" stroke-linejoin="miter" d="M 39106.513689 51606.086055 L 39410.103551 51606.292791 C 39509.738504 51606.909264 39608.173626 51613.932078 39705.32927 51629.202991 C 39802.484913 51644.473903 39897.479831 51667.03222 39989.392952 51696.838128 C 40081.306072 51726.644035 40168.335077 51762.697024 40250.440143 51805.917973 C 40333.46628 51849.178737 40409.766159 51898.606952 40480.300674 51953.321556 C 40549.874296 52008.917223 40612.841129 52067.917705 40668.160633 52133.045823 C 40723.480137 52198.173942 40770.390534 52265.706366 40807.891106 52337.445039 C 40846.272926 52410.144406 40874.44332 52484.24757 40894.244429 52559.834159 C 40914.005715 52636.341628 40923.595398 52713.332014 40922.973655 52791.726197 L 40923.425615 68870.830535 C 40923.764765 68948.343653 40913.972135 69025.418809 40894.047725 69102.056003 C 40875.084209 69177.812133 40846.028735 69252.209421 40807.842198 69324.366803 C 40769.695484 69395.603307 40723.3786 69463.718839 40667.970477 69528.673587 C 40613.483424 69593.668149 40549.984776 69653.660168 40480.237748 69708.769087 C 40409.569648 69763.838192 40333.653884 69812.222253 40250.568667 69855.6834 C 40168.404521 69899.184362 40081.032534 69935.079401 39989.29413 69965.250091 C 39897.555726 69995.420781 39802.491446 70017.144298 39704.942714 70032.302216 C 39607.393981 70047.460135 39509.242762 70055.211204 39410.489057 70055.555425 L 39106.899195 70055.348689 C 39007.224418 70055.653095 38908.829119 70047.709401 38811.673476 70032.438489 C 38714.517832 70017.167576 38619.522915 69994.609259 38527.609794 69964.803352 C 38435.696673 69934.997444 38348.667668 69898.944456 38265.641532 69855.683692 C 38183.536466 69812.462743 38107.236586 69763.034527 38036.702071 69708.319924 C 37966.167556 69653.605321 37904.161617 69593.723775 37848.842112 69528.595656 C 37793.482785 69464.388417 37746.612212 69395.935113 37709.111639 69324.19644 C 37670.689996 69252.417953 37641.598532 69178.274974 37622.758316 69101.80732 C 37602.99703 69025.299851 37593.407347 68948.309465 37593.068197 68870.796347 L 37593.537307 52791.731824 C 37593.23798 52713.297827 37603.03061 52636.22267 37622.915197 52560.506356 C 37641.918537 52483.829347 37670.97401 52409.432058 37709.120724 52338.195555 C 37746.386191 52265.998358 37793.624145 52197.92264 37848.111198 52132.928078 C 37903.519322 52067.97333 37966.057075 52008.862376 38036.725175 51953.793271 C 38107.393274 51898.724167 38183.348862 51849.419226 38266.434078 51805.958079 C 38348.598224 51762.457118 38435.970211 51726.562078 38527.708615 51696.391389 C 38619.407196 51667.141578 38714.5113 51644.497181 38811.138961 51629.299448 C 38908.687693 51614.14153 39007.759983 51606.430275 39106.513689 51606.086055 Z M 39106.513689 51606.086055 " stroke="rgb(99.609375%, 99.609375%, 99.609375%)" stroke-width="170.07001" stroke-opacity="1" stroke-miterlimit="22.926001"/></g></g></g><g clip-path="url(#clip-36)"><g clip-path="url(#clip-37)"><g clip-path="url(#clip-38)"><path fill="rgb(99.609375%, 99.609375%, 99.609375%)" d="M 523 459.402344 L 524.28125 459.347656 C 524.703125 459.328125 525.121094 459.351562 525.539062 459.414062 C 525.953125 459.480469 526.359375 459.582031 526.753906 459.726562 C 527.152344 459.871094 527.527344 460.054688 527.886719 460.273438 C 528.246094 460.492188 528.582031 460.742188 528.894531 461.027344 C 529.203125 461.3125 529.484375 461.625 529.730469 461.964844 C 529.980469 462.304688 530.195312 462.664062 530.371094 463.046875 C 530.550781 463.425781 530.6875 463.824219 530.789062 464.230469 C 530.886719 464.640625 530.945312 465.054688 530.964844 465.476562 L 534.722656 552.421875 C 534.742188 552.84375 534.71875 553.261719 534.65625 553.679688 C 534.589844 554.09375 534.488281 554.5 534.34375 554.894531 C 534.199219 555.292969 534.015625 555.667969 533.800781 556.027344 C 533.582031 556.390625 533.328125 556.722656 533.042969 557.035156 C 532.757812 557.34375 532.449219 557.625 532.109375 557.871094 C 531.769531 558.121094 531.40625 558.335938 531.027344 558.511719 C 530.644531 558.691406 530.25 558.828125 529.839844 558.929688 C 529.429688 559.03125 529.015625 559.089844 528.597656 559.105469 L 527.3125 559.164062 C 526.890625 559.179688 526.472656 559.15625 526.058594 559.09375 C 525.640625 559.027344 525.234375 558.925781 524.839844 558.78125 C 524.445312 558.636719 524.066406 558.453125 523.707031 558.234375 C 523.347656 558.015625 523.011719 557.765625 522.703125 557.480469 C 522.390625 557.195312 522.113281 556.882812 521.863281 556.542969 C 521.613281 556.207031 521.402344 555.84375 521.222656 555.460938 C 521.046875 555.082031 520.90625 554.6875 520.804688 554.277344 C 520.707031 553.867188 520.648438 553.453125 520.628906 553.03125 L 516.871094 466.085938 C 516.851562 465.664062 516.875 465.246094 516.9375 464.832031 C 517.003906 464.414062 517.109375 464.007812 517.25 463.613281 C 517.394531 463.21875 517.578125 462.839844 517.796875 462.480469 C 518.015625 462.121094 518.265625 461.785156 518.550781 461.472656 C 518.835938 461.164062 519.148438 460.882812 519.488281 460.636719 C 519.828125 460.386719 520.1875 460.171875 520.570312 459.996094 C 520.949219 459.816406 521.34375 459.679688 521.753906 459.578125 C 522.164062 459.480469 522.578125 459.417969 523 459.402344 Z M 523 459.402344 " fill-opacity="1" fill-rule="evenodd"/></g></g></g><g clip-path="url(#clip-39)"><g clip-path="url(#clip-40)"><g clip-path="url(#clip-41)"><path stroke-linecap="butt" transform="matrix(0.00423307, -0.000183019, 0.000183057, 0.00423396, 172.024069, 265.807828)" fill="none" stroke-linejoin="miter" d="M 80784.438776 49216.304463 L 81087.107567 49216.471384 C 81186.782343 49216.166979 81285.097996 49225.95243 81383.015418 49244.946675 C 81479.971947 49264.821984 81574.727926 49292.905576 81666.28264 49330.999397 C 81758.758424 49369.133033 81845.309553 49416.236573 81927.817991 49471.468767 C 82010.326428 49526.700962 82086.989856 49589.061302 82157.768451 49659.470668 C 82227.625975 49729.840218 82290.757242 49806.377221 82345.320109 49889.002046 C 82400.804047 49971.666686 82447.799231 50058.577389 82485.344768 50150.615221 C 82523.851198 50241.771988 82552.026734 50337.09519 82571.832984 50433.901818 C 82590.678341 50531.58951 82600.273166 50629.799934 82600.577635 50729.45397 L 82600.267182 71264.686677 C 82600.571651 71364.340712 82590.784162 71462.635906 82571.785965 71560.532953 C 82551.906519 71657.469306 82523.817081 71752.205568 82485.715331 71843.74123 C 82447.573759 71936.197771 82400.460415 72022.73089 82346.137796 72105.261973 C 82290.854282 72188.674121 82227.599715 72264.360902 82157.175695 72335.124769 C 82086.791498 72404.967757 82011.159636 72468.125701 81928.517614 72522.677214 C 81845.835769 72578.149606 81757.985906 72625.095197 81666.849989 72662.672736 C 81574.753178 72701.131339 81480.331207 72729.340826 81382.58336 72749.103141 C 81284.835513 72768.865456 81186.604647 72778.458283 81087.890765 72777.881625 L 80784.26108 72778.595768 C 80684.626126 72777.979295 80586.310473 72768.193843 80489.314122 72749.239413 C 80391.436522 72729.32429 80296.680543 72701.240697 80205.125829 72663.146876 C 80113.571116 72625.053055 80026.098916 72577.9097 79943.590479 72522.677506 C 79861.082041 72467.445311 79784.418613 72405.084971 79714.561089 72334.71542 C 79643.782494 72264.306055 79581.572298 72187.808867 79526.08836 72105.144227 C 79470.5646 72023.400467 79424.530309 71935.608699 79386.063702 71843.531052 C 79348.478342 71752.4141 79319.341913 71657.971962 79299.575485 71560.244455 C 79280.730128 71462.556763 79271.135304 71364.346339 79270.830835 71264.692303 L 79271.141287 50729.459597 C 79270.836818 50629.805561 79280.624307 50531.510367 79299.582682 50434.534199 C 79319.50195 50336.676967 79348.51246 50241.98052 79385.693138 50150.405043 C 79423.794888 50058.869381 79470.948054 49971.415384 79526.191745 49888.924115 C 79581.435435 49806.432846 79643.808755 49729.785371 79714.232775 49659.021504 C 79784.616972 49589.178516 79861.169904 49526.060387 79943.811926 49471.508874 C 80026.493771 49416.036481 80113.422563 49369.051076 80205.479551 49331.513352 C 80296.655292 49293.014934 80391.077262 49264.805447 80488.825109 49245.043132 C 80586.533134 49226.201697 80684.803822 49215.68799 80784.438776 49216.304463 Z M 80784.438776 49216.304463 " stroke="rgb(99.609375%, 99.609375%, 99.609375%)" stroke-width="170.07001" stroke-opacity="1" stroke-miterlimit="22.926001"/></g></g></g><g clip-path="url(#clip-42)"><g clip-path="url(#clip-43)"><g clip-path="url(#clip-44)"><path fill="rgb(99.609375%, 99.609375%, 99.609375%)" d="M 559.246094 467.972656 L 560.527344 467.917969 C 560.949219 467.898438 561.367188 467.914062 561.78125 467.960938 C 562.195312 468.007812 562.601562 468.085938 562.996094 468.195312 C 563.390625 468.304688 563.765625 468.441406 564.125 468.609375 C 564.480469 468.777344 564.8125 468.972656 565.121094 469.191406 C 565.429688 469.410156 565.703125 469.652344 565.949219 469.917969 C 566.195312 470.179688 566.40625 470.460938 566.582031 470.757812 C 566.753906 471.058594 566.890625 471.367188 566.984375 471.683594 C 567.082031 472.003906 567.136719 472.328125 567.152344 472.660156 L 570.09375 540.738281 C 570.109375 541.066406 570.082031 541.394531 570.011719 541.722656 C 569.945312 542.046875 569.835938 542.367188 569.691406 542.679688 C 569.542969 542.988281 569.355469 543.285156 569.136719 543.570312 C 568.914062 543.855469 568.660156 544.121094 568.371094 544.367188 C 568.082031 544.609375 567.769531 544.832031 567.425781 545.03125 C 567.085938 545.230469 566.722656 545.398438 566.339844 545.542969 C 565.957031 545.6875 565.558594 545.796875 565.152344 545.878906 C 564.742188 545.960938 564.324219 546.011719 563.90625 546.03125 L 562.621094 546.085938 C 562.199219 546.105469 561.78125 546.089844 561.367188 546.042969 C 560.953125 545.996094 560.546875 545.917969 560.152344 545.808594 C 559.757812 545.699219 559.382812 545.5625 559.027344 545.394531 C 558.667969 545.226562 558.335938 545.03125 558.027344 544.8125 C 557.722656 544.59375 557.445312 544.351562 557.199219 544.085938 C 556.953125 543.824219 556.742188 543.542969 556.570312 543.246094 C 556.394531 542.949219 556.261719 542.640625 556.164062 542.320312 C 556.066406 542 556.011719 541.675781 556 541.347656 L 553.054688 473.269531 C 553.042969 472.9375 553.066406 472.609375 553.136719 472.285156 C 553.203125 471.957031 553.3125 471.636719 553.460938 471.328125 C 553.609375 471.015625 553.792969 470.71875 554.015625 470.433594 C 554.234375 470.148438 554.492188 469.886719 554.777344 469.640625 C 555.066406 469.394531 555.378906 469.171875 555.722656 468.972656 C 556.0625 468.773438 556.425781 468.605469 556.808594 468.460938 C 557.191406 468.320312 557.589844 468.207031 558 468.125 C 558.410156 468.042969 558.824219 467.992188 559.246094 467.972656 Z M 559.246094 467.972656 " fill-opacity="1" fill-rule="evenodd"/></g></g></g><g clip-path="url(#clip-45)"><g clip-path="url(#clip-46)"><g clip-path="url(#clip-47)"><path stroke-linecap="butt" transform="matrix(0.00423307, -0.000183019, 0.000183057, 0.00423396, 172.024069, 265.807828)" fill="none" stroke-linejoin="miter" d="M 89243.684343 51606.154462 L 89546.353134 51606.321383 C 89646.027911 51606.016977 89744.423209 51613.96067 89841.578853 51629.231583 C 89938.734497 51644.502495 90033.729414 51667.060812 90125.642535 51696.86672 C 90217.555655 51726.672627 90304.58466 51762.725616 90387.610797 51805.98638 C 90469.715863 51849.207329 90546.015742 51898.635544 90616.550258 51953.350147 C 90687.084773 52008.064751 90749.090712 52067.946297 90804.410216 52133.074415 C 90859.769543 52197.281655 90906.640117 52265.734958 90945.06176 52337.513446 C 90982.522509 52410.172998 91011.613974 52484.315977 91030.494012 52559.862751 C 91050.255299 52636.37022 91059.844981 52713.360606 91060.144309 52791.794604 L 91059.675198 68870.859127 C 91060.014349 68948.372245 91050.221719 69025.447401 91030.297308 69102.084595 C 91011.333792 69177.840725 90982.278318 69252.238013 90945.012852 69324.43521 C 90906.866138 69395.671713 90859.628184 69463.747431 90805.141131 69528.741994 C 90749.733007 69593.696741 90687.155431 69653.728575 90616.487331 69708.797679 C 90545.859054 69762.945905 90469.903467 69812.250845 90386.81825 69855.711992 C 90304.654105 69899.212954 90217.282117 69935.107993 90125.543713 69965.278683 C 90033.80531 69995.449373 89938.741029 70017.17289 89842.113368 70032.370623 C 89744.564636 70047.528541 89645.492346 70055.239796 89546.73864 70055.584017 L 89243.148778 70055.377281 C 89143.474001 70055.681686 89045.078703 70047.737993 88947.923059 70032.467081 C 88850.767415 70017.196168 88755.772498 69994.637851 88663.859377 69964.831944 C 88571.946257 69935.026036 88484.917252 69898.973048 88402.812186 69855.752099 C 88319.786049 69812.491335 88243.48617 69763.063119 88172.951654 69708.348516 C 88103.33821 69653.673728 88040.4112 69593.752367 87985.091696 69528.624248 C 87929.732368 69464.417009 87882.861795 69395.963705 87845.361223 69324.225032 C 87806.939579 69252.446545 87778.769186 69178.343381 87759.0079 69101.835912 C 87739.246613 69025.328443 87729.656931 68948.338057 87730.238851 68870.864754 L 87729.786891 52791.760416 C 87730.408634 52713.366233 87739.280193 52636.251262 87759.164781 52560.534948 C 87778.16812 52483.857939 87807.223594 52409.46065 87845.370308 52338.224147 C 87883.556845 52266.066765 87929.873728 52197.951232 87985.281852 52132.996484 C 88039.768905 52068.001922 88103.227729 52008.930783 88172.974758 51953.821863 C 88243.642858 51898.752759 88319.598445 51849.447818 88402.683662 51805.986671 C 88484.847807 51762.48571 88572.219795 51726.59067 88663.958198 51696.419981 C 88755.656779 51667.17017 88850.760883 51644.525773 88948.309615 51629.367855 C 89045.858347 51614.209937 89144.009566 51606.458867 89243.684343 51606.154462 Z M 89243.684343 51606.154462 " stroke="rgb(99.609375%, 99.609375%, 99.609375%)" stroke-width="170.07001" stroke-opacity="1" stroke-miterlimit="22.926001"/></g></g></g><g clip-path="url(#clip-48)"><g clip-path="url(#clip-49)"><g clip-path="url(#clip-50)"><path fill="rgb(100%, 54.508972%, 0%)" d="M 414.324219 293.742188 C 361.558594 353.429688 308.089844 412.136719 254.882812 471.378906 C 243.125 484.472656 236.488281 493.992188 216.621094 489.730469 C 198.28125 485.796875 193.152344 469.394531 198.816406 452.988281 C 201.125 446.289062 204.996094 443.238281 209.726562 438.050781 C 261.605469 381.164062 314.605469 325.804688 369.015625 271.339844 L 370.621094 269.734375 C 378.578125 261.769531 384.4375 255.890625 396.621094 256.636719 C 413.574219 257.679688 423.285156 277.363281 415.449219 291.6875 Z M 414.324219 293.742188 " fill-opacity="1" fill-rule="evenodd"/></g></g></g><g clip-path="url(#clip-51)"><g clip-path="url(#clip-52)"><g clip-path="url(#clip-53)"><path stroke-linecap="butt" transform="matrix(0.00423307, -0.000183019, 0.000183057, 0.00423396, 172.024069, 265.807828)" fill="none" stroke-linejoin="miter" d="M 56848.178416 9055.049662 C 43797.856449 22588.267656 30591.73729 35883.1783 17441.874131 49306.916992 C 14535.963846 52273.861995 12874.015626 54450.399568 8232.895729 53243.222568 C 3948.569436 52128.966987 2906.420136 48209.918166 4409.22967 44399.95656 C 5021.879069 42844.179106 5965.762148 42164.428786 7134.064024 40989.716743 C 19946.749784 28107.731247 33008.212105 15597.236376 46393.061565 3311.995975 L 46787.988982 2949.878446 C 48745.40962 1153.308203 50186.949672 -172.893016 53052.163742 127.177064 C 57038.978882 545.847753 59128.093063 5285.137842 57134.393754 8582.133804 Z M 56848.178416 9055.049662 " stroke="rgb(100%, 54.508972%, 0%)" stroke-width="170.07001" stroke-opacity="1" stroke-miterlimit="22.926001"/></g></g></g><g clip-path="url(#clip-54)"><g clip-path="url(#clip-55)"><g clip-path="url(#clip-56)"><path fill="rgb(100%, 100%, 100%)" d="M 400.59375 280.777344 C 400.613281 281.230469 400.589844 281.675781 400.519531 282.121094 C 400.453125 282.566406 400.339844 283.003906 400.1875 283.425781 C 400.03125 283.847656 399.835938 284.253906 399.605469 284.640625 C 399.371094 285.023438 399.101562 285.382812 398.796875 285.714844 C 398.492188 286.046875 398.15625 286.347656 397.792969 286.613281 C 397.429688 286.878906 397.042969 287.109375 396.636719 287.296875 C 396.226562 287.488281 395.804688 287.636719 395.367188 287.742188 C 394.929688 287.851562 394.484375 287.914062 394.035156 287.933594 C 393.582031 287.953125 393.136719 287.929688 392.691406 287.859375 C 392.246094 287.789062 391.808594 287.679688 391.386719 287.523438 C 390.964844 287.371094 390.558594 287.175781 390.175781 286.941406 C 389.789062 286.707031 389.429688 286.4375 389.097656 286.132812 C 388.765625 285.828125 388.464844 285.496094 388.199219 285.132812 C 387.933594 284.769531 387.707031 284.382812 387.515625 283.972656 C 387.324219 283.566406 387.175781 283.140625 387.070312 282.703125 C 386.960938 282.265625 386.898438 281.820312 386.878906 281.371094 C 386.859375 280.921875 386.886719 280.472656 386.953125 280.027344 C 387.023438 279.582031 387.132812 279.148438 387.289062 278.722656 C 387.441406 278.300781 387.636719 277.894531 387.871094 277.511719 C 388.105469 277.125 388.375 276.765625 388.679688 276.433594 C 388.984375 276.101562 389.316406 275.804688 389.679688 275.535156 C 390.042969 275.269531 390.429688 275.042969 390.839844 274.851562 C 391.246094 274.660156 391.671875 274.511719 392.109375 274.40625 C 392.546875 274.300781 392.992188 274.234375 393.441406 274.214844 C 393.890625 274.195312 394.339844 274.222656 394.785156 274.289062 C 395.230469 274.359375 395.664062 274.46875 396.085938 274.625 C 396.511719 274.777344 396.914062 274.972656 397.300781 275.207031 C 397.683594 275.441406 398.042969 275.710938 398.375 276.015625 C 398.707031 276.320312 399.007812 276.652344 399.273438 277.019531 C 399.539062 277.382812 399.769531 277.769531 399.957031 278.175781 C 400.148438 278.585938 400.296875 279.007812 400.40625 279.445312 C 400.511719 279.882812 400.574219 280.328125 400.59375 280.777344 Z M 400.59375 280.777344 " fill-opacity="1" fill-rule="nonzero"/></g></g></g><g clip-path="url(#clip-57)"><g clip-path="url(#clip-58)"><g clip-path="url(#clip-59)"><path stroke-linecap="butt" transform="matrix(0.00423307, -0.000183019, 0.000183057, 0.00423396, 172.024069, 265.807828)" fill="none" stroke-linejoin="miter" d="M 53742.786648 5858.702572 C 53742.772533 5965.723642 53732.706283 6070.464991 53711.587183 6174.728564 C 53691.389153 6279.031951 53660.217918 6381.015803 53619.995265 6478.91799 C 53578.851542 6576.780363 53528.656401 6670.561071 53470.370737 6759.379051 C 53411.203825 6847.236336 53343.986212 6929.210013 53268.757722 7004.379203 C 53193.529233 7079.548392 53111.250759 7147.03203 53022.883197 7205.949051 C 52934.515634 7264.866072 52840.980053 7315.256291 52743.27717 7355.317765 C 52644.613393 7396.260303 52543.624457 7426.953725 52439.38929 7447.358216 C 52335.1143 7468.683586 52229.475045 7478.878775 52123.352771 7478.904478 C 52016.309427 7478.890366 51911.546278 7468.826211 51807.261005 7447.711505 C 51702.975732 7426.596799 51600.930831 7396.35293 51503.04809 7355.217768 C 51405.125526 7315.003485 51311.325299 7264.81879 51223.449728 7205.66419 C 51134.653085 7146.469775 51052.662347 7079.26615 50977.477512 7004.053315 C 50902.292677 6928.840479 50834.755171 6847.500006 50775.825888 6759.150832 C 50716.896604 6670.801658 50667.416968 6577.325355 50626.465909 6478.68211 C 50585.475026 6380.959743 50554.815039 6279.070942 50534.406302 6174.857466 C 50513.076493 6070.604174 50502.879182 5964.986901 50502.853474 5858.886711 C 50502.827767 5752.78652 50513.85491 5647.164106 50534.05294 5542.860719 C 50555.172041 5438.597147 50585.382382 5337.49436 50626.565928 5238.711108 C 50666.788581 5140.80892 50716.983722 5047.028212 50776.150634 4959.170926 C 50835.357369 4870.392762 50902.574981 4788.419085 50977.803471 4713.249895 C 51053.031961 4638.080705 51134.34954 4571.478132 51222.756926 4511.640232 C 51311.124488 4452.723211 51404.620247 4403.253871 51503.284023 4362.311333 C 51601.026729 4321.32898 51702.936736 4290.675373 51807.171903 4270.270882 C 51911.40707 4249.866391 52017.086149 4238.750322 52123.208422 4238.72462 C 52229.330695 4238.698917 52334.975092 4249.723766 52439.300188 4269.917593 C 52543.585461 4291.032299 52644.709291 4321.236353 52742.592033 4362.371515 C 52841.435667 4402.625612 52934.314824 4452.770493 53023.111466 4511.964908 C 53110.987037 4571.119508 53192.977776 4638.323133 53268.16261 4713.535968 C 53343.347445 4788.748804 53410.884951 4870.089276 53469.774412 4959.35933 C 53528.703695 5047.708504 53579.104402 5141.224622 53619.174214 5238.907173 C 53660.125273 5337.550419 53690.825083 5438.518341 53712.154892 5542.771632 C 53732.563629 5646.985109 53742.76094 5752.602382 53742.786648 5858.702572 Z M 53742.786648 5858.702572 " stroke="rgb(100%, 66.668701%, 40.388489%)" stroke-width="170.07001" stroke-opacity="1" stroke-miterlimit="22.926001"/></g></g></g><g clip-path="url(#clip-60)"><g clip-path="url(#clip-61)"><g clip-path="url(#clip-62)"><path fill="rgb(100%, 54.508972%, 0%)" d="M 509.292969 294.238281 C 566.210938 348.394531 623.222656 401.734375 680.886719 455.070312 C 693.675781 466.902344 700.515625 477.445312 720.457031 473.261719 C 742.820312 468.570312 745.566406 447.441406 735.5625 429.613281 C 675.714844 373.878906 613.273438 319.257812 550.761719 266.53125 C 541.078125 258.363281 530.53125 251.476562 517.414062 257.632812 C 505.125 263.402344 500.289062 280.707031 507.996094 292.289062 Z M 509.292969 294.238281 " fill-opacity="1" fill-rule="evenodd"/></g></g></g><g clip-path="url(#clip-63)"><g clip-path="url(#clip-64)"><g clip-path="url(#clip-65)"><path stroke-linecap="butt" transform="matrix(0.00423307, -0.000183019, 0.000183057, 0.00423396, 172.024069, 265.807828)" fill="none" stroke-linejoin="miter" d="M 79236.19762 10139.977009 C 92105.016009 23487.187708 105004.26311 36642.890192 118057.368882 49804.320856 C 120952.331227 52724.017605 122457.644124 55279.186363 127202.361731 54496.178846 C 132523.320313 53618.142155 133386.23588 48665.095903 131209.125446 44360.237365 C 117665.59235 30611.130391 103499.11859 17098.037032 89296.751389 4030.853457 C 87096.686453 2006.594178 84680.002889 275.584247 81524.285594 1593.192128 C 78567.777817 2828.073684 77251.076029 6858.278245 78950.273753 9667.23976 Z M 79236.19762 10139.977009 " stroke="rgb(100%, 54.508972%, 0%)" stroke-width="170.07001" stroke-opacity="1" stroke-miterlimit="22.926001"/></g></g></g><g clip-path="url(#clip-66)"><g clip-path="url(#clip-67)"><g clip-path="url(#clip-68)"><path fill="rgb(100%, 100%, 100%)" d="M 535.570312 279.546875 C 535.589844 279.996094 535.5625 280.445312 535.496094 280.890625 C 535.425781 281.335938 535.3125 281.769531 535.160156 282.191406 C 535.003906 282.617188 534.8125 283.019531 534.578125 283.40625 C 534.34375 283.789062 534.074219 284.148438 533.769531 284.480469 C 533.464844 284.8125 533.132812 285.113281 532.765625 285.378906 C 532.402344 285.644531 532.019531 285.875 531.609375 286.066406 C 531.199219 286.253906 530.777344 286.402344 530.339844 286.511719 C 529.902344 286.617188 529.457031 286.679688 529.007812 286.699219 C 528.558594 286.71875 528.109375 286.695312 527.664062 286.625 C 527.21875 286.558594 526.785156 286.445312 526.359375 286.292969 C 525.9375 286.136719 525.535156 285.941406 525.148438 285.710938 C 524.761719 285.476562 524.40625 285.207031 524.070312 284.902344 C 523.738281 284.597656 523.441406 284.261719 523.175781 283.898438 C 522.90625 283.535156 522.679688 283.148438 522.488281 282.742188 C 522.300781 282.332031 522.152344 281.910156 522.042969 281.46875 C 521.9375 281.03125 521.875 280.589844 521.855469 280.136719 C 521.835938 279.6875 521.859375 279.238281 521.929688 278.792969 C 521.996094 278.347656 522.109375 277.914062 522.261719 277.492188 C 522.417969 277.066406 522.609375 276.664062 522.84375 276.277344 C 523.078125 275.890625 523.347656 275.535156 523.652344 275.203125 C 523.957031 274.871094 524.292969 274.570312 524.65625 274.304688 C 525.019531 274.039062 525.40625 273.808594 525.8125 273.617188 C 526.222656 273.429688 526.644531 273.28125 527.082031 273.171875 C 527.519531 273.066406 527.964844 273.003906 528.414062 272.984375 C 528.863281 272.964844 529.3125 272.988281 529.757812 273.058594 C 530.203125 273.125 530.636719 273.238281 531.0625 273.390625 C 531.484375 273.546875 531.890625 273.742188 532.273438 273.972656 C 532.660156 274.207031 533.019531 274.476562 533.351562 274.78125 C 533.683594 275.085938 533.980469 275.421875 534.25 275.785156 C 534.515625 276.148438 534.742188 276.535156 534.933594 276.941406 C 535.125 277.351562 535.273438 277.773438 535.378906 278.214844 C 535.484375 278.652344 535.550781 279.09375 535.570312 279.546875 Z M 535.570312 279.546875 " fill-opacity="1" fill-rule="nonzero"/></g></g></g><g clip-path="url(#clip-69)"><g clip-path="url(#clip-70)"><g clip-path="url(#clip-71)"><path stroke-linecap="butt" transform="matrix(0.00423307, -0.000183019, 0.000183057, 0.00423396, 172.024069, 265.807828)" fill="none" stroke-linejoin="miter" d="M 85582.016208 6944.383728 C 85582.041916 7050.483918 85571.014772 7156.106332 85550.816742 7260.409719 C 85529.697641 7364.673292 85498.566229 7465.736264 85458.343577 7563.638452 C 85417.16003 7662.421704 85367.925784 7755.321347 85308.719048 7844.099512 C 85249.552136 7931.956797 85182.334524 8013.930475 85107.106034 8089.099664 C 85031.877544 8164.268854 84950.520142 8231.792306 84861.231508 8290.669513 C 84772.863946 8349.586534 84680.249436 8400.016568 84581.585659 8440.959106 C 84482.961705 8480.980765 84381.972769 8511.674186 84277.697779 8532.999557 C 84173.462612 8553.404047 84067.823357 8563.599237 83961.701083 8563.624939 C 83855.57881 8563.650642 83749.89459 8553.546673 83645.609317 8532.431967 C 83541.284221 8512.23814 83440.200214 8481.113206 83341.356579 8440.859109 C 83243.473838 8399.723947 83150.594681 8349.579066 83061.758216 8291.305531 C 82972.961574 8232.111116 82891.891906 8164.947306 82815.786001 8089.694655 C 82740.601166 8014.48182 82674.024554 7932.260283 82615.09527 7843.911108 C 82555.244916 7755.522119 82505.76528 7662.045817 82464.774398 7564.32345 C 82424.744409 7465.720019 82394.044599 7364.752098 82372.754614 7259.577927 C 82352.345876 7155.364451 82342.108742 7050.668057 82342.122857 6943.646987 C 82342.097149 6837.546796 82352.203222 6731.884568 82373.322323 6627.620996 C 82393.520352 6523.317608 82424.651765 6422.254636 82464.874417 6324.352448 C 82506.057963 6225.569196 82555.29221 6132.669553 82614.498945 6043.891388 C 82673.70568 5955.113223 82740.88347 5874.060425 82816.11196 5798.891236 C 82891.34045 5723.722046 82973.618923 5656.238408 83061.986485 5597.321387 C 83150.354048 5538.404366 83243.889629 5488.014147 83341.632335 5447.031794 C 83440.256289 5407.010135 83541.245225 5376.316714 83645.520215 5354.991343 C 83749.755382 5334.586853 83855.394637 5324.391663 83961.516911 5324.365961 C 84067.639184 5324.340258 84173.323404 5334.444227 84277.608677 5355.558933 C 84381.933773 5375.75276 84483.01778 5406.877694 84581.861415 5447.131791 C 84679.744156 5488.266953 84773.544383 5538.451649 84861.459778 5596.685369 C 84950.25642 5655.879784 85032.247158 5723.083409 85107.431993 5798.296245 C 85182.616828 5873.50908 85249.19344 5955.730617 85309.043794 6044.119606 C 85367.973078 6132.46878 85417.452714 6225.945083 85458.443596 6323.66745 C 85499.394656 6422.310695 85530.094466 6523.278617 85550.46338 6628.412973 C 85570.872118 6732.626449 85582.030323 6837.362658 85582.016208 6944.383728 Z M 85582.016208 6944.383728 " stroke="rgb(100%, 66.668701%, 40.388489%)" stroke-width="170.07001" stroke-opacity="1" stroke-miterlimit="22.926001"/></g></g></g></svg>