<?xml version="1.0" encoding="UTF-8"?><svg xmlns="http://www.w3.org/2000/svg" xmlns:xlink="http://www.w3.org/1999/xlink" contentScriptType="text/ecmascript" width="1440" zoomAndPan="magnify" contentStyleType="text/css" viewBox="0 0 1440 959.999988" height="959.999988" preserveAspectRatio="xMidYMid meet" version="1.0"><rect x="-144" width="1728" fill="rgb(100%, 100%, 100%)" y="-95.999999" height="1151.999986" fill-opacity="1"/><rect x="-144" width="1728" fill="rgb(100%, 100%, 100%)" y="-95.999999" height="1151.999986" fill-opacity="1"/><rect x="-144" width="1728" fill="rgb(0%, 50.19989%, 37.649536%)" y="-95.999999" height="1151.999986" fill-opacity="1"/><path fill="rgb(1.568604%, 53.729248%, 40.388489%)" d="M 381.777344 448.726562 C 32.527344 660.929688 83.835938 906.628906 75.339844 1019.789062 C 62.945312 1186.1875 22.816406 1204.070312 22.816406 1204.070312 L 76.980469 1243.082031 C 145.921875 1113.816406 22.089844 712.539062 324.433594 551.898438 C 768.789062 316.167969 806.808594 -27.148438 806.808594 -27.148438 L 745.875 -71.039062 C 745.875 -71.039062 766.910156 214.554688 381.777344 448.726562 Z M 381.777344 448.726562 " fill-opacity="1" fill-rule="nonzero"/><path fill="rgb(1.568604%, 53.729248%, 40.388489%)" d="M 488.816406 312.96875 C 181.222656 525.867188 55.472656 634.78125 44.917969 887.851562 C 35.699219 1110.519531 -26.949219 1168.226562 -26.949219 1168.226562 L 22.816406 1204.070312 C 22.816406 1204.070312 62.945312 1186.1875 75.339844 1019.789062 C 83.835938 906.628906 32.527344 660.929688 381.777344 448.726562 C 766.664062 214.894531 745.96875 -70.453125 745.96875 -70.453125 L 673.523438 -122.636719 C 673.769531 -122.972656 688.207031 175.347656 488.816406 312.96875 Z M 488.816406 312.96875 " fill-opacity="1" fill-rule="nonzero"/><path fill="rgb(1.568604%, 53.729248%, 40.388489%)" d="M -519.164062 813.691406 L -26.609375 1168.46875 C -26.609375 1168.46875 35.699219 1110.519531 45.257812 888.09375 C 55.90625 635.609375 181.5625 526.113281 489.15625 313.214844 C 688.207031 175.347656 673.769531 -122.972656 673.769531 -122.972656 L 29.554688 -586.992188 L -822.144531 595.457031 Z M -519.164062 813.691406 " fill-opacity="1" fill-rule="nonzero"/><path fill="rgb(1.568604%, 53.729248%, 40.388489%)" d="M 1501.960938 185.316406 C 1225.679688 185.316406 1001.710938 409.285156 1001.710938 685.566406 C 1001.710938 961.84375 1225.679688 1185.816406 1501.960938 1185.816406 C 1778.242188 1185.816406 2002.210938 961.84375 2002.210938 685.566406 C 2002.210938 409.285156 1778.242188 185.316406 1501.960938 185.316406 Z M 1501.960938 185.316406 " fill-opacity="1" fill-rule="nonzero"/></svg>