<svg width="115" height="38" viewBox="0 0 115 38" fill="none" xmlns="http://www.w3.org/2000/svg"><path fill-rule="evenodd" clip-rule="evenodd" d="M13.211 7.344a.523.523 0 00-.704.228c-.834 1.632-2.8 3.445-5.037 5.108-2.216 1.647-4.619 3.09-6.237 3.997a.523.523 0 00-.056.877c1.775 1.312 3.769 2.024 5.666 2.7l.857.309c2.17.792 4.182 1.664 5.809 3.457a.523.523 0 00.775-.703c-1.81-1.995-4.034-2.936-6.225-3.737-.294-.107-.587-.212-.878-.316-1.649-.59-3.245-1.16-4.707-2.09 1.588-.916 3.67-2.206 5.62-3.655 2.244-1.668 4.39-3.604 5.345-5.47a.523.523 0 00-.228-.705zm-5.617 9.83c.13.258.445.361.703.231C24.052 9.451 43.465 4.343 61.012 2.222c8.771-1.06 17.064-1.373 24.19-.926 7.136.448 13.06 1.656 17.119 3.61 8.148 3.92 11.165 9.384 11.176 15.01.011 5.685-3.048 11.663-7.331 16.538a.523.523 0 10.786.69c4.372-4.977 7.603-11.192 7.591-17.23-.011-6.098-3.327-11.89-11.769-15.951C98.538 1.925 92.459.703 85.267.253c-7.201-.453-15.56-.136-24.38.93-17.64 2.133-37.175 7.268-53.062 15.288a.523.523 0 00-.232.703z" fill="#F4F6F8"/><path d="M31.906 32.215c1.174-.107 2.068-.356 2.681-.744.614-.388.892-.897.834-1.527a2.008 2.008 0 00-.712-1.385 5.005 5.005 0 00-1.535-.92c-.599-.234-1.41-.498-2.433-.794-.088-.02-.303-.08-.644-.18-1.395-.42-2.483-.868-3.263-1.345-.766-.478-1.188-1.146-1.267-2.005-.088-.959.225-1.717.939-2.273.713-.556 1.664-.89 2.852-.998a8.037 8.037 0 012.437.122c.764.146 1.378.393 1.843.74.48.346.741.762.786 1.248-.164.102-.325.16-.482.175a1.498 1.498 0 01-.547-.058c-.18-.07-.45-.183-.81-.337-.586-.25-1.13-.438-1.633-.565-.503-.141-1.084-.181-1.743-.12-.83.075-1.49.28-1.978.614-.49.334-.71.758-.663 1.273.037.401.242.75.616 1.048a5.55 5.55 0 001.412.758c.566.193 1.316.42 2.25.68 1.185.34 2.168.668 2.948.986a6.26 6.26 0 012.025 1.307c.584.538.913 1.216.988 2.031.088.96-.301 1.746-1.169 2.36-.868.599-1.982.961-3.342 1.086a11 11 0 01-3.221-.18c-1.074-.219-2.011-.602-2.812-1.149-.802-.561-1.344-1.27-1.624-2.124-.036-.387.041-.726.23-1.017.19-.306.441-.474.756-.503.085.93.416 1.701.992 2.312.589.596 1.342 1.017 2.26 1.265.931.246 1.941.32 3.03.22zm12.369-.314c-1.489.137-2.808-.001-3.957-.415-1.137-.43-1.766-1.303-1.887-2.62-.043-.472.058-.944.303-1.413.246-.47.635-.867 1.169-1.19.531-.338 1.198-.544 2-.617a12.24 12.24 0 011.575-.059c.434.018.943.13 1.525.337.581.206 1.199.56 1.851 1.064-.32-.967-.743-1.801-1.27-2.503-.526-.703-1.094-1.228-1.703-1.576-.596-.364-1.166-.52-1.71-.47a1.808 1.808 0 00-.716.217c-.207.105-.46.259-.76.46-.336.261-.59.4-.762.416a.316.316 0 01-.2-.047.315.315 0 01-.081-.187c-.053-.573.157-1.04.629-1.4.486-.363 1.096-.563 1.828-.601 1.007-.035 1.963.31 2.867 1.035.902.711 1.644 1.632 2.224 2.762.594 1.129.944 2.259 1.047 3.39.017.185.028.452.03.798l-.69.02c-.646-1.052-1.419-1.768-2.32-2.147-.888-.395-1.76-.553-2.62-.474-1.102.102-1.874.339-2.316.711-.442.373-.634.874-.576 1.504.06.658.438 1.158 1.133 1.498.696.34 1.559.463 2.59.368.572-.052 1.027-.123 1.365-.212a11.89 11.89 0 001.048-.378 6.13 6.13 0 01.775-.288 4.95 4.95 0 01.874-.145c.4-.037.654-.031.76.017.12.047.188.17.207.37.013.144-.264.35-.831.618-.567.269-1.208.523-1.922.762-.714.238-1.207.37-1.48.395zm9.771-.876c-.415.038-1.015-.527-1.801-1.697-.773-1.184-1.684-2.688-2.732-4.512l-.745-1.274c-.013-.143.06-.287.22-.431.16-.16.41-.247.756-.265.1.15.425.705.975 1.665a150.549 150.549 0 001.64 2.772c.456.708.994 1.467 1.617 2.276.162-.91.358-1.765.587-2.566.243-.816.606-1.968 1.09-3.455l.253-.782c.07-.18.227-.28.47-.303a.797.797 0 01.463.088c.136.074.212.19.227.347.013.143-.045.3-.174.47-.09.11-.207.417-.348.92a37.59 37.59 0 00-.434 1.642c-.402 1.596-.763 2.849-1.083 3.759-.322.896-.649 1.344-.98 1.346zm10.304-.969a5.98 5.98 0 01-2.583-.304 4.519 4.519 0 01-1.986-1.354c-.519-.617-.818-1.354-.897-2.213a6.737 6.737 0 01.29-2.733c.28-.877.741-1.598 1.382-2.162.654-.58 1.446-.913 2.377-.998.973-.09 1.74.158 2.298.741.558.57.865 1.328.924 2.275.077.845-.2 1.52-.832 2.025-.617.505-1.442.804-2.472.899a8.677 8.677 0 01-.713.022c-.52-.01-.892-.055-1.116-.136-.224-.08-.35-.27-.377-.571-.01-.1.012-.175.066-.223.052-.062.163-.101.335-.117.186-.017.52-.005 1 .038.466.044.877.05 1.235.016 1.317-.12 1.923-.754 1.818-1.899-.064-.687-.242-1.219-.537-1.596-.28-.378-.735-.539-1.365-.48a3.207 3.207 0 00-1.795.727c-.51.408-.89.919-1.136 1.534a4.223 4.223 0 00-.258 1.907c.104 1.13.504 2.032 1.201 2.704.696.658 1.702.926 3.019.805.157-.014.42-.053.79-.116.156-.029.346-.09.568-.182.222-.092.383-.158.48-.196.596-.27 1.037-.42 1.323-.446.215-.02.385.022.51.126-.308.577-.808 1.027-1.5 1.35a6.35 6.35 0 01-2.05.557zm13.59-.361a.728.728 0 01-.373-.053 3.395 3.395 0 01-.482-.302l.089-1.155c.111-1.613.19-2.955.236-4.027a40.706 40.706 0 00-.004-3.335c-.447.475-1.04 1.236-1.781 2.286a23.033 23.033 0 01-1.022 1.371c-.234.282-.422.429-.565.442a.521.521 0 01-.34-.163.798.798 0 01-.17-.44.78.78 0 01.165-.556l3.407-4.384c.116-.155.199-.357.248-.607.049-.25.09-.593.122-1.029.036-.551.098-.969.188-1.251.088-.297.26-.457.519-.48a.6.6 0 01.261.018c.059.01.113.055.164.137l.087.706c.024.258.01 1.522-.041 3.793-.038 2.255-.116 4.32-.232 6.192-.117 1.873-.275 2.818-.476 2.837zm7.293-1.537c-.873.08-1.677-.026-2.41-.32a4.122 4.122 0 01-1.78-1.46c-.453-.68-.724-1.514-.815-2.501a4.298 4.298 0 01.435-2.335 4.962 4.962 0 011.497-1.848c.635-.477 1.296-.747 1.983-.81.63-.058 1.266.121 1.911.538a5.415 5.415 0 011.67 1.687c.456.709.72 1.457.791 2.244.122 1.317-.102 2.42-.67 3.31-.553.887-1.424 1.386-2.612 1.495zm-.434-1.194c1.875-.172 2.719-1.275 2.532-3.307a5.112 5.112 0 00-.515-1.836c-.283-.566-.663-1.008-1.14-1.325a2.286 2.286 0 00-1.552-.398c-.873.08-1.576.433-2.11 1.06-.52.625-.791 1.45-.812 2.478-.004.116.004.28.024.495.09.988.47 1.733 1.136 2.234.68.486 1.492.686 2.437.6zm8.134.486c-.243.023-.384-.174-.422-.588-.06-.659.426-2.039 1.46-4.14a72.844 72.844 0 013.378-6.113c1.233-1.976 1.979-2.975 2.236-2.999.158-.014.239.08.243.281l.03.322a55.89 55.89 0 01-1.795 3.326c-.173.32-.426.783-.76 1.39a97.88 97.88 0 00-.906 1.686c-.378.757-.87 1.841-1.477 3.254-.523 1.217-.938 2.114-1.246 2.69-.294.576-.54.873-.74.892zm-1.152-6.172a2.569 2.569 0 01-1.277-.23 3.22 3.22 0 01-1.092-.808 2.157 2.157 0 01-.497-1.167c-.044-.487.027-.97.214-1.449.2-.494.479-.91.838-1.246a2.146 2.146 0 011.268-.571c.444-.04.898.033 1.363.221.464.188.858.47 1.181.844.338.373.528.796.572 1.268.044.487-.049.965-.28 1.433-.231.469-.556.86-.975 1.172a2.5 2.5 0 01-1.315.533zm-.698-.997c.117.018.219.023.305.015.286-.026.587-.133.901-.32a2.8 2.8 0 00.782-.679c.206-.279.296-.554.27-.826-.037-.415-.25-.77-.638-1.067-.389-.296-.797-.425-1.227-.385-.43.04-.778.252-1.045.637-.254.384-.361.784-.323 1.199.03.33.123.638.28.927a.904.904 0 00.695.499zm8.187 6.392c-.644.06-1.18-.05-1.61-.328-.417-.294-.655-.763-.714-1.407-.048-.515.042-1.108.27-1.778.24-.686.575-1.28 1.005-1.781.444-.503.946-.78 1.504-.832.801-.073 1.409.095 1.822.504.411.395.651.958.718 1.688.048.53-.066 1.096-.342 1.698a4.262 4.262 0 01-1.115 1.532c-.481.42-.994.654-1.538.704zm-.358-1.071c.701-.064 1.252-.353 1.653-.867.414-.514.591-1.1.531-1.759-.088-.959-.512-1.403-1.27-1.334-.401.037-.75.243-1.048.616a3.684 3.684 0 00-.659 1.317c-.142.49-.197.913-.164 1.27.026.287.118.495.274.625.155.116.383.16.683.132z" fill="#F4F6F8"/></svg>