<svg width="326" height="75" viewBox="0 0 326 75" fill="none" xmlns="http://www.w3.org/2000/svg"><path d="M310 62c27-51.247-108-12-116.979-19.065-8.978-7.064 8.681-12.858.479-21.803-8.951-9.763-38.727 13.764-47.821 6.506-2.679-2.138-1.791-6.988 4.765-9.063C157 16.5 167.5 9.539 162.479 4.52 157.956 0 152 0 141.425 5.85 100.883 28.285 48.145 29.461 1.5 21.131m299.975 30.765c3.638 7.097.666 14.28 2.756 21.602 4.422-3.68 13.728-10.73 19.787-11.348" stroke="#4186F6" stroke-width="2.5" stroke-miterlimit="10" stroke-linecap="round" stroke-linejoin="round"/></svg>