<?xml version="1.0" encoding="utf-8"?>
<svg width="63" height="63" viewBox="0 0 63 63" fill="none" xmlns="http://www.w3.org/2000/svg">
<path d="M42.8575 38.4142C42.5113 35.3452 40.9721 32.6888 38.7491 30.9019C38.5693 31.3952 38.3454 31.8639 38.0784 32.3019C39.8864 33.8399 41.1341 36.0517 41.4213 38.5975C41.4687 39.0193 41.8305 39.3202 42.2259 39.2687C42.6223 39.218 42.9052 38.8353 42.8575 38.4142Z" fill="#FFBF50" stroke="#EFB34B"/>
<path d="M20.1425 38.4146C20.0948 38.836 20.378 39.2183 20.7748 39.2686C20.8038 39.2725 20.8327 39.2744 20.8617 39.2744C21.2227 39.2744 21.5349 38.9878 21.5786 38.5971C21.8659 36.0515 23.1135 33.8401 24.9216 32.3022C24.6542 31.8642 24.4303 31.3955 24.2502 30.9019C22.0276 32.6883 20.4883 35.345 20.1425 38.4146Z" fill="#FFBF50" stroke="#EFB34B"/>
<path d="M31.5004 21.3335C27.8667 21.3335 24.9216 24.0108 24.9216 27.3131C24.9216 30.6154 27.8667 33.2943 31.5004 33.2943C35.1329 33.2943 38.0784 30.6154 38.0784 27.3131C38.0784 24.0108 35.1329 21.3335 31.5004 21.3335ZM31.5004 31.7992C28.7798 31.7992 26.5662 29.7868 26.5662 27.3131C26.5662 24.8402 28.7798 22.8286 31.5004 22.8286C34.2206 22.8286 36.4338 24.8402 36.4338 27.3131C36.4338 29.7868 34.2206 31.7992 31.5004 31.7992Z" fill="#FFBF50" stroke="#EFB34B"/>
<path d="M61.0469 30.2969H58.4035C57.7911 16.3777 46.6223 5.20888 32.7031 4.5965V1.95312C32.7031 1.28837 32.1641 0.75 31.5 0.75C30.8352 0.75 30.2969 1.28901 30.2969 1.95312V4.5965C16.3777 5.20888 5.20888 16.3777 4.5965 30.2969H1.95312C1.28837 30.2969 0.75 30.8359 0.75 31.5C0.75 32.1641 1.28837 32.7031 1.95312 32.7031H4.5965C5.20888 46.6223 16.3777 57.7911 30.2969 58.4035V61.0469C30.2969 61.711 30.8352 62.25 31.5 62.25C32.1642 62.25 32.7031 61.7111 32.7031 61.0469V58.4035C46.6223 57.7911 57.7911 46.6223 58.4035 32.7031H61.0469C61.7111 32.7031 62.25 32.1642 62.25 31.5C62.25 30.8358 61.7111 30.2969 61.0469 30.2969ZM32.7031 10.7947V7.00412C45.2731 7.61482 55.3852 17.7269 55.9959 30.2969H52.2053C51.6051 19.7997 43.2003 11.3949 32.7031 10.7947ZM47.2266 32.7031H49.7967C49.201 41.8572 41.8572 49.201 32.7031 49.7967V47.2266C32.7031 46.5624 32.1642 46.0234 31.5 46.0234C30.8352 46.0234 30.2969 46.5624 30.2969 47.2266V49.7967C21.1428 49.201 13.7985 41.8572 13.2032 32.7031H15.7734C16.4376 32.7031 16.9766 32.1642 16.9766 31.5C16.9766 30.8358 16.4376 30.2969 15.7734 30.2969H13.2032C13.7985 21.1429 21.1428 13.799 30.2969 13.2033V15.7734C30.2969 16.4376 30.8352 16.9766 31.5 16.9766C32.1642 16.9766 32.7031 16.4376 32.7031 15.7734V13.2033C41.8572 13.799 49.201 21.1428 49.7967 30.2969H47.2266C46.5618 30.2969 46.0234 30.8359 46.0234 31.5C46.0234 32.1641 46.5618 32.7031 47.2266 32.7031ZM10.7947 30.2969H7.00412C7.61482 17.7269 17.7269 7.61482 30.2969 7.00412V10.7947C19.7997 11.3949 11.3949 19.7997 10.7947 30.2969ZM30.2969 52.2053V55.9959C17.7269 55.3852 7.61482 45.2731 7.00412 32.7031H10.7947C11.3949 43.2003 19.7997 51.6051 30.2969 52.2053ZM52.2053 32.7031H55.9959C55.3852 45.2731 45.2731 55.3852 32.7031 55.9959V52.2053C43.2003 51.6046 51.6051 43.2003 52.2053 32.7031Z" fill="#4186F6" stroke="#4186F6" stroke-width="0.5"/>
</svg>
