<?xml version="1.0" encoding="utf-8"?>
<svg width="46" height="52" viewBox="0 0 46 52" fill="none" xmlns="http://www.w3.org/2000/svg">
<path d="M31.4172 0H22.7506C21.8886 0 21.062 0.342409 20.4525 0.9519C19.843 1.56139 19.5006 2.38804 19.5006 3.24999V25.9999C19.5006 26.2872 19.6147 26.5628 19.8179 26.7659C20.021 26.9691 20.2966 27.0832 20.5839 27.0832H27.0839C27.3712 27.0832 27.6467 26.9691 27.8499 26.7659C28.0531 26.5628 28.1672 26.2872 28.1672 25.9999C28.1672 25.7126 28.0531 25.437 27.8499 25.2339C27.6467 25.0307 27.3712 24.9166 27.0839 24.9166H21.6672V19.4999H24.9172C25.2045 19.4999 25.4801 19.3858 25.6832 19.1826C25.8864 18.9795 26.0005 18.7039 26.0005 18.4166C26.0005 18.1293 25.8864 17.8537 25.6832 17.6506C25.4801 17.4474 25.2045 17.3333 24.9172 17.3333H21.6672V10.8333H27.0839C27.3712 10.8333 27.6467 10.7192 27.8499 10.516C28.0531 10.3128 28.1672 10.0373 28.1672 9.74997C28.1672 9.46265 28.0531 9.1871 27.8499 8.98394C27.6467 8.78077 27.3712 8.66664 27.0839 8.66664H21.6672V3.24999C21.6672 2.96267 21.7814 2.68712 21.9845 2.48396C22.1877 2.2808 22.4632 2.16666 22.7506 2.16666H31.4172C31.7045 2.16666 31.9801 2.2808 32.1832 2.48396C32.3864 2.68712 32.5005 2.96267 32.5005 3.24999V48.7498C32.5005 49.0371 32.3864 49.3127 32.1832 49.5159C31.9801 49.719 31.7045 49.8332 31.4172 49.8332H22.7506C22.4632 49.8332 22.1877 49.719 21.9845 49.5159C21.7814 49.3127 21.6672 49.0371 21.6672 48.7498V43.3332H27.0839C27.3712 43.3332 27.6467 43.219 27.8499 43.0159C28.0531 42.8127 28.1672 42.5372 28.1672 42.2499C28.1672 41.9625 28.0531 41.687 27.8499 41.4838C27.6467 41.2807 27.3712 41.1665 27.0839 41.1665H21.6672V34.6665H24.9172C25.2045 34.6665 25.4801 34.5524 25.6832 34.3492C25.8864 34.1461 26.0005 33.8705 26.0005 33.5832C26.0005 33.2959 25.8864 33.0204 25.6832 32.8172C25.4801 32.614 25.2045 32.4999 24.9172 32.4999H21.6672V30.3332C21.6672 30.0459 21.5531 29.7704 21.3499 29.5672C21.1468 29.364 20.8712 29.2499 20.5839 29.2499C20.2966 29.2499 20.021 29.364 19.8179 29.5672C19.6147 29.7704 19.5006 30.0459 19.5006 30.3332V48.7498C19.5006 49.6118 19.843 50.4384 20.4525 51.0479C21.062 51.6574 21.8886 51.9998 22.7506 51.9998H31.4172C32.2791 51.9998 33.1058 51.6574 33.7153 51.0479C34.3248 50.4384 34.6672 49.6118 34.6672 48.7498V3.24999C34.6672 2.38804 34.3248 1.56139 33.7153 0.9519C33.1058 0.342409 32.2791 0 31.4172 0V0Z" fill="#FFBF50"/>
<path d="M42.2505 41.1662C41.9632 41.1662 41.6876 41.2803 41.4845 41.4835C41.2813 41.6867 41.1672 41.9622 41.1672 42.2495C41.1672 42.5369 41.2813 42.8124 41.4845 43.0156C41.6876 43.2187 41.9632 43.3329 42.2505 43.3329H44.4172C44.7045 43.3329 44.98 43.2187 45.1832 43.0156C45.3864 42.8124 45.5005 42.5369 45.5005 42.2495V9.74965C45.5005 9.73774 45.494 9.72907 45.494 9.71715C45.4872 9.64361 45.4727 9.57099 45.4507 9.50049C45.4392 9.43021 45.4207 9.36125 45.3954 9.29466C45.3954 9.28382 45.3954 9.27299 45.3867 9.26216L42.1368 2.76218C42.0367 2.59429 41.8947 2.45527 41.7247 2.35872C41.5548 2.26218 41.3626 2.21143 41.1672 2.21143C40.9717 2.21143 40.7796 2.26218 40.6096 2.35872C40.4397 2.45527 40.2977 2.59429 40.1976 2.76218L36.9476 9.26216C36.9476 9.27082 36.9476 9.28274 36.9411 9.29249C36.8718 9.43499 36.8351 9.59118 36.8339 9.74965V48.7495C36.8339 49.6115 37.1763 50.4381 37.7858 51.0476C38.3953 51.6571 39.2219 51.9995 40.0839 51.9995H42.2505C43.1125 51.9995 43.9391 51.6571 44.5486 51.0476C45.1581 50.4381 45.5005 49.6115 45.5005 48.7495V46.5829C45.5005 46.2955 45.3864 46.02 45.1832 45.8168C44.98 45.6137 44.7045 45.4995 44.4172 45.4995C44.1299 45.4995 43.8543 45.6137 43.6511 45.8168C43.448 46.02 43.3338 46.2955 43.3338 46.5829V48.7495C43.3338 49.0368 43.2197 49.3124 43.0165 49.5155C42.8134 49.7187 42.5378 49.8328 42.2505 49.8328H40.0839C39.7965 49.8328 39.521 49.7187 39.3178 49.5155C39.1147 49.3124 39.0005 49.0368 39.0005 48.7495V10.833H43.3338V41.1662H42.2505ZM41.1672 5.672L42.6643 8.66633H39.67L41.1672 5.672Z" fill="#4186F6"/>
<path d="M9.64231 0.599262C9.59457 0.508225 9.53237 0.42554 9.45814 0.354429C9.35875 0.242949 9.23692 0.153741 9.10062 0.0926591C8.96433 0.0315768 8.81667 0 8.66731 0C8.51796 0 8.37029 0.0315768 8.234 0.0926591C8.09771 0.153741 7.97587 0.242949 7.87648 0.354429C7.80418 0.425947 7.74383 0.50861 7.69773 0.599262L0.114427 15.7659C0.0419336 15.9108 0.0028833 16.0702 0.000153691 16.2322C-0.00257592 16.3943 0.0310846 16.5549 0.0986554 16.7022C0.166226 16.8495 0.265985 16.9797 0.390583 17.0834C0.515181 17.187 0.661442 17.2614 0.818592 17.301C0.854341 17.3096 4.334 18.2261 4.334 20.5834V23.8334H3.25067C2.96335 23.8334 2.6878 23.9476 2.48464 24.1507C2.28147 24.3539 2.16734 24.6294 2.16734 24.9168C2.16734 25.2041 2.28147 25.4796 2.48464 25.6828C2.6878 25.886 2.96335 26.0001 3.25067 26.0001H4.334V48.75C4.334 49.612 4.6764 50.4386 5.2859 51.0481C5.89539 51.6576 6.72203 52 7.58398 52H9.75064C10.6126 52 11.4392 51.6576 12.0487 51.0481C12.6582 50.4386 13.0006 49.612 13.0006 48.75V29.2501C13.0006 28.9628 12.8865 28.6872 12.6833 28.484C12.4802 28.2809 12.2046 28.1667 11.9173 28.1667C11.63 28.1667 11.3544 28.2809 11.1513 28.484C10.9481 28.6872 10.834 28.9628 10.834 29.2501V48.75C10.834 49.0373 10.7198 49.3129 10.5167 49.516C10.3135 49.7192 10.038 49.8333 9.75064 49.8333H7.58398C7.29667 49.8333 7.02112 49.7192 6.81795 49.516C6.61479 49.3129 6.50065 49.0373 6.50065 48.75V26.0001H14.084C14.3713 26.0001 14.6468 25.886 14.85 25.6828C15.0532 25.4796 15.1673 25.2041 15.1673 24.9168C15.1673 24.6294 15.0532 24.3539 14.85 24.1507C14.6468 23.9476 14.3713 23.8334 14.084 23.8334H13.0006V20.5834C13.0006 18.2261 16.4803 17.3096 16.5139 17.301C16.6712 17.2616 16.8177 17.1874 16.9426 17.0839C17.0674 16.9804 17.1674 16.8502 17.2352 16.7028C17.303 16.5555 17.3368 16.3948 17.3342 16.2326C17.3316 16.0705 17.2927 15.911 17.2202 15.7659L9.64231 0.599262ZM6.50065 23.8334V21.6668H10.834V23.8334H6.50065ZM10.9607 19.5001H6.37391C6.08019 18.612 5.58762 17.8027 4.93373 17.1337C4.27984 16.4648 3.48188 15.954 2.60067 15.6402L7.58398 5.67358V13.0001H6.50065C6.21334 13.0001 5.93779 13.1143 5.73462 13.3174C5.53146 13.5206 5.41733 13.7961 5.41733 14.0835C5.41733 14.3708 5.53146 14.6463 5.73462 14.8495C5.93779 15.0527 6.21334 15.1668 6.50065 15.1668H10.834C11.1213 15.1668 11.3968 15.0527 11.6 14.8495C11.8032 14.6463 11.9173 14.3708 11.9173 14.0835C11.9173 13.7961 11.8032 13.5206 11.6 13.3174C11.3968 13.1143 11.1213 13.0001 10.834 13.0001H9.75064V5.67249L14.734 15.6391C13.8526 15.953 13.0546 16.464 12.4007 17.1331C11.7468 17.8022 11.2543 18.6118 10.9607 19.5001Z" fill="#4186F6"/>
</svg>
