<?xml version="1.0" encoding="utf-8"?>
<svg width="54" height="54" viewBox="0 0 54 54" fill="none" xmlns="http://www.w3.org/2000/svg">
<path d="M6.42613 3.33127e-05C6.42613 3.33127e-05 4.86731 -0.0178996 3.27476 0.778382C1.68221 1.57466 0 3.42583 0 6.42616V37.2848C0 40.2852 1.68221 42.1458 3.27476 42.9421C4.86732 43.7384 6.42613 43.7205 6.42613 43.7205H20.5693C20.9104 43.7205 21.2376 43.585 21.4788 43.3438C21.72 43.1026 21.8555 42.7754 21.8555 42.4343C21.8555 42.0932 21.72 41.766 21.4788 41.5248C21.2376 41.2836 20.9104 41.1481 20.5693 41.1481H6.42613C6.42613 41.1481 5.41196 41.1251 4.4328 40.6355C3.45363 40.146 2.57235 39.4279 2.57235 37.2848V6.42616C2.57235 4.28306 3.45363 3.56504 4.4328 3.07546C5.41196 2.58588 6.42613 2.57238 6.42613 2.57238H47.5742C49.7173 2.57238 50.4353 3.45366 50.9249 4.43283C51.4145 5.41199 51.428 6.42616 51.428 6.42616V37.2848C51.428 37.2848 51.4144 38.3085 50.9249 39.2877C50.4353 40.2668 49.7173 41.1481 47.5742 41.1481H46.2833C45.9422 41.1481 45.615 41.2836 45.3738 41.5248C45.1326 41.766 44.9971 42.0932 44.9971 42.4343C44.9971 42.7754 45.1326 43.1026 45.3738 43.3438C45.615 43.585 45.9422 43.7205 46.2833 43.7205H47.5742C50.5746 43.7205 52.4257 42.0288 53.222 40.4362C54.0183 38.8437 54.0003 37.2848 54.0003 37.2848V6.42616C54.0003 6.42616 54.0183 4.87684 53.222 3.28429C52.4257 1.69173 50.5746 3.33127e-05 47.5742 3.33127e-05H6.42613Z" fill="#4186F6"/>
<path d="M1.28142 12.8628V15.4256H52.7189V12.8628H1.28142Z" fill="#4186F6"/>
<path d="M8.99848 3.85352C6.88323 3.85352 5.13521 5.60154 5.13521 7.71678C5.13521 9.83203 6.88323 11.5706 8.99848 11.5706C11.1137 11.5706 12.8522 9.83203 12.8522 7.71678C12.8522 5.60154 11.1137 3.85352 8.99848 3.85352ZM8.99848 6.42586C9.72387 6.42586 10.2799 6.9914 10.2799 7.71678C10.2799 8.44218 9.72387 8.99821 8.99848 8.99821C8.27308 8.99821 7.70756 8.44218 7.70756 7.71678C7.70756 6.9914 8.27308 6.42587 8.99848 6.42586Z" fill="#4186F6"/>
<path d="M17.9969 3.85352C15.8817 3.85352 14.1432 5.60154 14.1432 7.71678C14.1432 9.83203 15.8817 11.5706 17.9969 11.5706C20.1122 11.5706 21.8602 9.83203 21.8602 7.71678C21.8602 5.60154 20.1122 3.85352 17.9969 3.85352ZM17.9969 6.42586C18.7223 6.42586 19.2879 6.9914 19.2879 7.71678C19.2879 8.44218 18.7223 8.99821 17.9969 8.99821C17.2715 8.99821 16.7155 8.44218 16.7155 7.71678C16.7155 6.9914 17.2715 6.42587 17.9969 6.42586Z" fill="#4186F6"/>
<path d="M26.9954 3.85352C24.8802 3.85352 23.1416 5.60154 23.1416 7.71678C23.1416 9.83203 24.8802 11.5706 26.9954 11.5706C29.1107 11.5706 30.8587 9.83203 30.8587 7.71678C30.8587 5.60154 29.1107 3.85352 26.9954 3.85352ZM26.9954 6.42586C27.7208 6.42586 28.2863 6.9914 28.2863 7.71678C28.2863 8.44218 27.7208 8.99821 26.9954 8.99821C26.27 8.99821 25.714 8.44218 25.714 7.71678C25.714 6.9914 26.27 6.42587 26.9954 6.42586Z" fill="#4186F6"/>
<path d="M43.711 32.1494C41.9966 32.1494 40.7877 33.1931 40.3129 34.1427C39.8381 35.0924 39.8573 36.0032 39.8573 36.0032V39.857C39.8573 40.0259 39.8905 40.1931 39.9552 40.3492C40.0198 40.5052 40.1145 40.647 40.234 40.7664C40.3534 40.8859 40.4952 40.9806 40.6512 41.0452C40.8073 41.1099 40.9745 41.1431 41.1434 41.1431C41.3123 41.1431 41.4796 41.1099 41.6356 41.0452C41.7917 40.9806 41.9335 40.8859 42.0529 40.7664C42.1723 40.647 42.2671 40.5052 42.3317 40.3492C42.3963 40.1931 42.4296 40.0259 42.4296 39.857V36.0032C42.4296 36.0032 42.4515 35.6275 42.6194 35.2913C42.7875 34.955 42.8538 34.7123 43.711 34.7123C44.5683 34.7123 44.644 34.9551 44.8121 35.2913C44.9802 35.6275 45.0019 36.0032 45.0019 36.0032V45.0017C45.0019 48.4306 43.4727 49.7909 41.8506 50.602C40.2285 51.413 38.5758 51.4373 38.5758 51.4373H28.2864C24.8217 51.4373 23.4589 50.0221 22.6671 48.5707C21.8753 47.1192 21.8603 45.6471 21.8603 45.6471V39.1166C21.8603 39.1166 21.8724 38.7504 22.0406 38.4142C22.2087 38.0779 22.2845 37.8352 23.1417 37.8352C23.999 37.8352 24.0747 38.0779 24.2428 38.4142C24.4109 38.7504 24.4231 39.1166 24.4231 39.1166C24.4231 39.4577 24.5587 39.7848 24.7999 40.026C25.0411 40.2673 25.3682 40.4028 25.7093 40.4028C26.0504 40.4028 26.3776 40.2673 26.6188 40.026C26.86 39.7848 26.9955 39.4577 26.9955 39.1166C26.9955 39.1166 27.0144 38.2058 26.5399 37.2561C26.0651 36.3065 24.8562 35.2628 23.1417 35.2628C21.4272 35.2628 20.2184 36.3065 19.7436 37.2561C19.2687 38.2058 19.2879 39.1166 19.2879 39.1166V45.6471C19.2879 45.6471 19.2709 47.7109 20.408 49.7952C21.545 51.8794 24.036 54.0001 28.2864 54.0001H38.5758C38.5758 54.0001 40.7731 54.0264 43.0086 52.9086C45.2441 51.7908 47.5743 49.2879 47.5743 45.0017V36.0032C47.5743 36.0032 47.5932 35.0924 47.1187 34.1427C46.6439 33.1931 45.4255 32.1494 43.711 32.1494Z" fill="#FFBF50"/>
<path d="M38.5758 32.1494C36.8613 32.1494 35.643 33.1931 35.1682 34.1427C34.6933 35.0924 34.7125 36.0032 34.7125 36.0032V39.857C34.7125 40.1981 34.848 40.5252 35.0893 40.7664C35.3305 41.0076 35.6576 41.1431 35.9987 41.1431C36.3398 41.1431 36.667 41.0076 36.9082 40.7664C37.1494 40.5252 37.2849 40.1981 37.2849 39.857V36.0032C37.2849 36.0032 37.3068 35.6275 37.4747 35.2913C37.6428 34.955 37.7185 34.7123 38.5758 34.7123C39.433 34.7123 39.4993 34.9551 39.6674 35.2913C39.8355 35.6275 39.8572 36.0032 39.8572 36.0032C39.8572 36.3443 39.9927 36.6714 40.2339 36.9127C40.4751 37.1539 40.8023 37.2894 41.1434 37.2894C41.4845 37.2894 41.8116 37.1539 42.0529 36.9127C42.2941 36.6714 42.4296 36.3443 42.4296 36.0032C42.4296 36.0032 42.4485 35.0924 41.9739 34.1427C41.4991 33.1931 40.2903 32.1494 38.5758 32.1494H38.5758Z" fill="#FFBF50"/>
<path d="M33.4311 32.1494C31.7167 32.1494 30.4983 33.1931 30.0235 34.1427C29.5487 35.0924 29.5679 36.0032 29.5679 36.0032V39.857C29.5679 40.1981 29.7034 40.5252 29.9446 40.7664C30.1858 41.0076 30.5129 41.1431 30.8541 41.1431C31.1952 41.1431 31.5223 41.0076 31.7635 40.7664C32.0047 40.5252 32.1402 40.1981 32.1402 39.857V36.0032C32.1402 36.0032 32.1621 35.6275 32.3301 35.2913C32.4982 34.955 32.5739 34.7123 33.4311 34.7123C34.2884 34.7123 34.3641 34.9551 34.5322 35.2913C34.7003 35.6275 34.7126 36.0032 34.7126 36.0032C34.7126 36.3443 34.8481 36.6714 35.0893 36.9127C35.3305 37.1539 35.6576 37.2894 35.9987 37.2894C36.3398 37.2894 36.667 37.1539 36.9082 36.9127C37.1494 36.6714 37.2849 36.3443 37.2849 36.0032C37.2849 36.0032 37.3039 35.0924 36.8293 34.1427C36.3545 33.1931 35.1456 32.1494 33.4311 32.1494H33.4311Z" fill="#FFBF50"/>
<path d="M28.2863 21.8599C26.5718 21.8599 25.363 22.9036 24.8882 23.8532C24.4134 24.8028 24.4231 25.7136 24.4231 25.7136V39.8568C24.4231 40.0257 24.4563 40.193 24.521 40.349C24.5856 40.5051 24.6804 40.6468 24.7998 40.7663C24.9192 40.8857 25.061 40.9804 25.2171 41.0451C25.3731 41.1097 25.5403 41.143 25.7092 41.143C25.8782 41.143 26.0454 41.1097 26.2014 41.0451C26.3575 40.9804 26.4993 40.8857 26.6187 40.7663C26.7381 40.6468 26.8329 40.5051 26.8975 40.349C26.9622 40.193 26.9954 40.0257 26.9954 39.8568V25.7136C26.9954 25.7136 27.0173 25.338 27.1853 25.0017C27.3534 24.6655 27.4291 24.4322 28.2863 24.4322C29.1436 24.4322 29.2193 24.6655 29.3874 25.0017C29.5555 25.338 29.5678 25.7136 29.5678 25.7136V35.4145C29.5678 35.7556 29.7033 36.0828 29.9445 36.324C30.1857 36.5652 30.5128 36.7007 30.8539 36.7007C31.195 36.7007 31.5222 36.5652 31.7634 36.324C32.0046 36.0828 32.1401 35.7556 32.1401 35.4145V25.7136C32.1401 25.7136 32.1595 24.8028 31.6845 23.8532C31.2097 22.9036 30.0008 21.8599 28.2863 21.8599H28.2863Z" fill="#FFBF50"/>
</svg>
