<?xml version="1.0" encoding="utf-8"?>
<svg width="52" height="46" viewBox="0 0 52 46" fill="none" xmlns="http://www.w3.org/2000/svg">
<path d="M50.3191 0H1.68089C0.753039 0 0 0.753039 0 1.68089V8.17585C0 9.1037 0.753039 9.85674 1.68089 9.85674H50.3191C51.247 9.85674 52 9.1037 52 8.17585V1.68089C52 0.753711 51.247 0 50.3191 0ZM48.6382 6.49563H3.36178V3.36245H48.6382V6.49563Z" fill="#4186F6"/>
<path d="M21.4011 13.4473H1.68089C0.753039 13.4473 0 14.2003 0 15.1282V25.7312C0 26.6591 0.753039 27.4121 1.68089 27.4121H21.4011C22.3289 27.4121 23.082 26.6591 23.082 25.7312V15.1282C23.082 14.201 22.3289 13.4473 21.4011 13.4473ZM19.7202 24.0503H3.36178V16.809H19.7202V24.0503Z" fill="#4186F6"/>
<path d="M21.4011 31.5273H1.68089C0.753039 31.5273 0 32.2797 0 33.2082V43.8113C0 44.7398 0.753039 45.4922 1.68089 45.4922H21.4011C22.3289 45.4922 23.082 44.7398 23.082 43.8113V33.2082C23.082 32.2797 22.3289 31.5273 21.4011 31.5273ZM19.7202 42.1297H3.36178V34.8884H19.7202V42.1297Z" fill="#4186F6"/>
<path d="M50.3191 13.4473H29.0188C28.091 13.4473 27.338 14.2003 27.338 15.1282V43.8109C27.338 44.7394 28.091 45.4917 29.0188 45.4917H50.3191C51.2469 45.4917 52 44.7394 52 43.8109V15.1282C52 14.201 51.2469 13.4473 50.3191 13.4473ZM48.6382 42.13H30.6997V16.809H48.6382V42.13Z" fill="#FFBF50"/>
</svg>
