<?xml version="1.0" encoding="utf-8"?>
<svg width="54" height="53" viewBox="0 0 54 53" fill="none" xmlns="http://www.w3.org/2000/svg">
<circle opacity="0.2" cx="23.5" cy="23.5" r="23.5" fill="#F4F6F8"/>
<path fill-rule="evenodd" clip-rule="evenodd" d="M5.5 22C5.5 12.335 13.335 4.5 23 4.5C28.227 4.5 32.9202 6.79351 36.1246 10.4241L33.8754 12.4093C31.2163 9.39655 27.3306 7.5 23 7.5C14.9919 7.5 8.5 13.9919 8.5 22C8.5 26.0909 10.1922 29.784 12.9187 32.422L10.8327 34.578C7.54615 31.3982 5.5 26.9367 5.5 22Z" fill="#4186F6"/>
<path d="M38.1439 18.4521L38.0987 18.4826C37.479 18.8963 37.0359 19.5262 36.8555 20.2492C35.7886 19.4717 34.3443 19.3705 33.2379 20.1182C32.563 20.5812 32.1033 21.2972 31.9642 22.1041C30.9412 21.5214 29.6737 21.5137 28.6773 22.1871L28.6291 22.2196C28.0895 22.5723 27.6858 23.0981 27.4841 23.7103L23.2711 17.4754C22.253 15.9687 20.2517 15.5357 18.8248 16.4998C17.3995 17.4629 17.0602 19.4764 18.0768 20.9825L26.4239 33.361L25.1493 32.9839C24.0189 32.6343 22.7946 32.7704 21.7685 33.3594C20.7666 33.9409 20.0497 34.9105 19.788 36.0393L19.5199 36.9556C19.4335 37.2512 19.5651 37.5667 19.8357 37.7135L33.4505 45.0956C35.9392 46.4443 38.8765 46.35 41.1103 44.8406L47.7846 40.3306L47.7807 40.3248C51.1648 38.0381 51.9243 33.2476 49.4913 29.6396C48.4025 28.0255 47.584 26.8271 46.9265 25.8519C45.1681 23.2423 44.5154 22.282 42.5678 19.4139C41.5485 17.9129 39.5668 17.4906 38.1439 18.4521ZM45.8332 26.5853C46.4908 27.5608 47.3049 28.7691 48.3934 30.3834C50.4241 33.3948 49.8105 37.3839 47.021 39.2689L40.3786 43.7572C38.5501 44.9927 36.1316 45.0616 34.0735 43.946L20.9242 36.8185L21.0474 36.3921C21.0506 36.3815 21.0528 36.37 21.0556 36.3593C21.2324 35.574 21.7273 34.8976 22.4222 34.4915C23.1376 34.084 23.99 33.9925 24.7758 34.2383L27.7959 35.135C28.0603 35.214 28.3457 35.1178 28.5089 34.8954C28.6722 34.6731 28.6781 34.3718 28.5237 34.1434L19.1538 20.2556C18.5401 19.3463 18.7278 18.1424 19.5569 17.5821C20.386 17.0219 21.5736 17.2977 22.1882 18.2071L27.8436 26.5767C27.8633 26.6058 27.8818 26.636 27.9018 26.6656C27.9104 26.6783 27.9205 26.6904 27.9289 26.7028L30.3469 30.2812C30.5489 30.5802 30.9552 30.6589 31.2542 30.4568C31.5532 30.2548 31.6318 29.8485 31.4298 29.5495L28.9389 25.8632C28.3463 24.9862 28.5532 23.8483 29.3609 23.3025L29.409 23.27C30.2386 22.7094 31.4175 22.966 32.0321 23.8755L34.2446 27.1499C34.4467 27.4489 34.853 27.5275 35.152 27.3255C35.451 27.1234 35.5296 26.7171 35.3276 26.4181L33.5916 23.8491C32.9769 22.9394 33.1341 21.7553 33.9682 21.1916C34.7976 20.6312 35.9547 20.9268 36.5696 21.8368L38.2073 24.2604C38.4094 24.5594 38.8156 24.6381 39.1146 24.436C39.4136 24.234 39.4923 23.8277 39.2902 23.5287L38.4034 22.2163C37.7887 21.3065 38.0008 20.1261 38.8304 19.5656L38.8756 19.535C39.7031 18.9758 40.8669 19.2442 41.4818 20.1497C43.428 23.0156 44.076 23.9775 45.8332 26.5853Z" fill="white"/>
<path d="M16.516 22.3804C16.815 22.1783 16.8936 21.7721 16.6915 21.473C15.3041 19.401 15.8531 16.5974 17.919 15.2014C19.9852 13.8053 22.7909 14.342 24.1958 16.4023C24.3978 16.7013 24.8041 16.7799 25.1031 16.5779C25.4021 16.3758 25.4807 15.9696 25.2787 15.6706C23.4689 13.014 19.8521 12.3209 17.1887 14.1206C14.5256 15.9201 13.819 19.5346 15.6086 22.2048C15.8107 22.5038 16.2169 22.5824 16.516 22.3804Z" fill="white"/>
</svg>
