<?xml version="1.0" encoding="utf-8"?>
<svg width="63" height="59" viewBox="0 0 63 59" fill="none" xmlns="http://www.w3.org/2000/svg">
<path d="M60.684 22.6688L54.641 17.6288C53.7448 16.8608 52.636 16.3836 51.462 16.2608C50.8772 16.1907 50.2842 16.2632 49.7335 16.4721C49.1829 16.6811 48.691 17.0204 48.3 17.4608L43.6 23.0998L25.652 44.6228L25.663 44.6318C25.4282 44.9048 25.3006 45.2538 25.304 45.6138L25.541 57.2848C25.5491 57.6773 25.7107 58.0509 25.9912 58.3255C26.2716 58.6002 26.6485 58.7539 27.041 58.7538C27.1418 58.7543 27.2423 58.7443 27.341 58.7238L38.568 56.4408C38.8997 56.3696 39.1969 56.1867 39.41 55.9228L39.421 55.9318L57.279 34.5158L61.979 28.8768C63.397 27.1818 62.825 24.4548 60.684 22.6688ZM28.504 55.4258L28.369 48.8038L34.869 54.1298L28.504 55.4258ZM38.067 52.8688L28.925 45.3818L44.941 26.1768L54.016 33.7458L38.067 52.8688ZM59.679 26.9558L55.937 31.4418L46.862 23.8768L50.605 19.3898C50.6908 19.3259 50.7891 19.2807 50.8935 19.2573C50.9979 19.2339 51.1061 19.2327 51.211 19.2538C51.7703 19.3263 52.2953 19.5637 52.719 19.9358L58.762 24.9758C59.702 25.7568 59.891 26.7028 59.679 26.9558Z" fill="#FFBF50"/>
<path d="M20.35 46.785C20.2757 46.7378 20.1974 46.6973 20.116 46.664C20.107 46.664 20.099 46.654 20.09 46.651C19.9193 46.5835 19.7376 46.5479 19.554 46.546H19.525C19.3417 46.5461 19.16 46.58 18.989 46.646C18.9802 46.6481 18.9715 46.6507 18.963 46.654C18.7808 46.7282 18.6153 46.838 18.476 46.977L18.469 46.984L14.669 50.784C14.2667 51.1833 13.7228 51.4073 13.156 51.4073C12.5892 51.4073 12.0453 51.1833 11.643 50.784L10.594 49.734C10.1955 49.3321 9.97187 48.789 9.97187 48.223C9.97187 47.657 10.1955 47.1139 10.594 46.712L14.394 42.912H14.399V42.907C14.5367 42.7681 14.6461 42.6037 14.721 42.423C14.721 42.413 14.726 42.404 14.729 42.395C14.795 42.224 14.8289 42.0423 14.829 41.859C14.8295 41.85 14.8295 41.841 14.829 41.832C14.8293 41.6477 14.7954 41.4649 14.729 41.293L14.718 41.273C14.6844 41.1897 14.6433 41.1097 14.595 41.034C13.3503 39.1187 12.4689 36.9905 11.995 34.756C11.99 34.733 11.98 34.713 11.974 34.691C11.9564 34.6177 11.9334 34.5458 11.905 34.476C11.889 34.44 11.868 34.409 11.85 34.376C11.8243 34.3225 11.7953 34.2708 11.763 34.221C11.741 34.19 11.714 34.163 11.69 34.133C11.6544 34.0861 11.616 34.0413 11.575 33.999C11.553 33.977 11.527 33.96 11.504 33.94C11.4549 33.8954 11.4028 33.8543 11.348 33.817C11.328 33.804 11.306 33.795 11.285 33.783C11.2237 33.7448 11.1595 33.7113 11.093 33.683C11.068 33.673 11.041 33.668 11.016 33.659C10.9509 33.6342 10.8841 33.6145 10.816 33.6C10.768 33.591 10.716 33.59 10.67 33.585C10.624 33.58 10.577 33.571 10.528 33.571H5.142C4.57415 33.5702 4.02978 33.3443 3.62825 32.9427C3.22672 32.5412 3.00079 31.9968 3 31.429V29.959C3.00079 29.3912 3.22672 28.8468 3.62825 28.4453C4.02978 28.0437 4.57415 27.8178 5.142 27.817H10.529H10.537C10.6884 27.8141 10.8384 27.7881 10.982 27.74C11.007 27.732 11.031 27.727 11.054 27.718C11.1897 27.6667 11.3171 27.5956 11.432 27.507C11.454 27.491 11.473 27.474 11.494 27.456C11.607 27.3614 11.7057 27.2509 11.787 27.128C11.797 27.112 11.804 27.095 11.813 27.079C11.8955 26.9428 11.9556 26.7942 11.991 26.639V26.631C12.4655 24.397 13.3468 22.2692 14.591 20.354C14.6391 20.2782 14.6802 20.1982 14.714 20.115L14.724 20.095C14.7926 19.9232 14.8282 19.74 14.829 19.555C14.8295 19.5463 14.8295 19.5377 14.829 19.529C14.8268 19.3454 14.7912 19.1638 14.724 18.993C14.724 18.983 14.719 18.974 14.716 18.965C14.6414 18.7831 14.5312 18.6179 14.392 18.479L14.384 18.47L10.589 14.675C10.1895 14.2728 9.9653 13.7289 9.9653 13.162C9.9653 12.5951 10.1895 12.0512 10.589 11.649L11.638 10.599C12.04 10.2007 12.5831 9.97728 13.149 9.97728C13.7149 9.97728 14.258 10.2007 14.66 10.599L18.471 14.409C18.477 14.416 18.486 14.417 18.492 14.424C18.6183 14.5439 18.7645 14.641 18.924 14.711C18.96 14.726 18.995 14.739 19.031 14.752C19.1907 14.8138 19.3598 14.8476 19.531 14.852C19.7022 14.8474 19.8713 14.8136 20.031 14.752C20.08 14.734 20.123 14.71 20.17 14.688C20.23 14.6652 20.2885 14.6385 20.345 14.608C22.2598 13.3637 24.3872 12.4823 26.621 12.008C26.64 12.008 26.655 11.995 26.673 11.991C26.7515 11.9726 26.8284 11.9478 26.903 11.917C26.94 11.901 26.973 11.879 27.009 11.86C27.0597 11.8349 27.1091 11.8072 27.157 11.777C27.1959 11.7479 27.2333 11.7169 27.269 11.684C27.305 11.654 27.344 11.625 27.377 11.592C27.41 11.559 27.439 11.518 27.469 11.481C27.499 11.444 27.532 11.408 27.559 11.367C27.586 11.326 27.604 11.285 27.626 11.244C27.648 11.203 27.675 11.158 27.694 11.112C27.713 11.0617 27.729 11.0102 27.742 10.958C27.754 10.917 27.77 10.877 27.779 10.834C27.7914 10.7619 27.7988 10.6891 27.801 10.616C27.801 10.591 27.808 10.567 27.808 10.541V5.142C27.8085 4.5739 28.0345 4.02923 28.4363 3.62761C28.8381 3.22599 29.3829 3.00026 29.951 3H31.42C31.7018 2.99934 31.981 3.05425 32.2415 3.16157C32.5021 3.2689 32.739 3.42654 32.9386 3.62549C33.1382 3.82443 33.2966 4.06077 33.4047 4.32098C33.5129 4.5812 33.5687 4.86019 33.569 5.142V10.527C33.569 10.56 33.576 10.59 33.578 10.627C33.5804 10.694 33.5871 10.7608 33.598 10.827C33.6094 10.8747 33.6234 10.9218 33.64 10.968C33.654 11.014 33.664 11.061 33.682 11.105C33.7041 11.1533 33.7288 11.2004 33.756 11.246C33.7747 11.285 33.7954 11.3231 33.818 11.36C33.8767 11.4366 33.9374 11.5116 34 11.585C34.034 11.6175 34.0697 11.6482 34.107 11.677C34.1434 11.7102 34.1814 11.7416 34.221 11.771C34.265 11.801 34.314 11.824 34.361 11.85C34.408 11.876 34.435 11.894 34.475 11.912C34.5436 11.9396 34.6141 11.962 34.686 11.979C34.71 11.986 34.731 11.997 34.755 12.002C36.9894 12.4764 39.1174 13.3578 41.033 14.602C41.0888 14.6316 41.1462 14.658 41.205 14.681C41.253 14.704 41.298 14.728 41.347 14.746C41.6677 14.8759 42.0263 14.8759 42.347 14.746C42.384 14.733 42.418 14.721 42.454 14.706C42.6137 14.6364 42.7599 14.5392 42.886 14.419C42.892 14.413 42.901 14.411 42.907 14.404L46.713 10.598C47.1156 10.1992 47.6593 9.97552 48.226 9.97552C48.7927 9.97552 49.3364 10.1992 49.739 10.598L50.789 11.648C51.0594 11.9213 51.2508 12.2626 51.343 12.6358C51.4353 13.009 51.4249 13.4002 51.313 13.768C51.428 13.768 51.542 13.768 51.659 13.777C52.5446 13.8601 53.4098 14.0924 54.218 14.464C54.4513 13.5986 54.4532 12.6871 54.2237 11.8207C53.9942 10.9543 53.5411 10.1634 52.91 9.527L51.861 8.477C50.8954 7.51771 49.5896 6.97932 48.2285 6.97932C46.8674 6.97932 45.5616 7.51771 44.596 8.477L41.605 11.469C40.0207 10.5613 38.3275 9.85864 36.566 9.378V5.142C36.5644 3.77857 36.022 2.47145 35.0578 1.50746C34.0937 0.543461 32.7864 0.00132331 31.423 0H29.957C28.5936 0.00132331 27.2863 0.543461 26.3222 1.50746C25.358 2.47145 24.8156 3.77857 24.814 5.142V9.371C23.0524 9.85088 21.3591 10.5532 19.775 11.461L16.775 8.461C15.8097 7.50269 14.5047 6.96489 13.1445 6.96489C11.7843 6.96489 10.4793 7.50269 9.514 8.461L8.465 9.511C7.50578 10.4764 6.96741 11.7821 6.96741 13.143C6.96741 14.5039 7.50578 15.8096 8.465 16.775L11.461 19.777C10.5537 21.3613 9.85138 23.0546 9.371 24.816H5.142C3.77909 24.8176 2.47243 25.3596 1.50852 26.3231C0.544605 27.2866 0.00211704 28.5931 0 29.956V31.426C0.00158795 32.7893 0.543843 34.0962 1.50781 35.0602C2.47178 36.0242 3.77874 36.5664 5.142 36.568H9.371C9.85138 38.3294 10.5537 40.0227 11.461 41.607L8.461 44.607C7.50251 45.572 6.96457 46.8769 6.96457 48.237C6.96457 49.5971 7.50251 50.902 8.461 51.867L9.51 52.917C10.4755 53.876 11.7812 54.4142 13.142 54.4142C14.5028 54.4142 15.8085 53.876 16.774 52.917L19.779 49.921C20.7864 50.494 21.8385 50.9846 22.925 51.388L22.859 48.134C21.9896 47.7487 21.1509 47.2977 20.35 46.785Z" fill="#4186F6"/>
<path d="M19.77 30.6908C19.7674 28.395 20.4892 26.1568 21.8327 24.2951C23.1761 22.4334 25.0728 21.043 27.2525 20.322C29.4322 19.6011 31.7838 19.5862 33.9724 20.2796C36.1611 20.973 38.0751 22.3392 39.442 24.1838L41.412 21.8208C40.11 20.2444 38.4766 18.9743 36.628 18.1008C34.7794 17.2273 32.761 16.772 30.7164 16.7671C28.6718 16.7623 26.6512 17.208 24.7985 18.0727C22.9457 18.9374 21.3063 20.1998 19.9968 21.77C18.6873 23.3402 17.7399 25.1797 17.2221 27.1576C16.7042 29.1355 16.6286 31.2033 17.0005 33.2137C17.3725 35.2242 18.183 37.128 19.3743 38.7897C20.5656 40.4514 22.1084 41.8301 23.893 42.8278L25.859 40.4708C24.0337 39.5699 22.4964 38.1768 21.4205 36.4488C20.3446 34.7207 19.773 32.7264 19.77 30.6908Z" fill="#4186F6"/>
</svg>
