<svg width="79" height="16" viewBox="0 0 79 16" fill="none" xmlns="http://www.w3.org/2000/svg"><path d="M4.973 14.958H2.015V7.585H0v-2.4h2.015v-1.71C2.015 1.452 2.906 0 5.855 0 6.48 0 7.46.126 7.46.126v2.229H6.43c-1.048 0-1.457.319-1.457 1.2v1.63H7.42l-.218 2.4h-2.23v7.373zm6.786-9.966l-.131.003c-2.743 0-3.997 2.063-3.997 4.992 0 3.689 1.627 5.165 4.018 5.165 1.369 0 2.267-.576 2.814-1.65v1.457h2.813V5.185h-2.813v1.503c-.446-.967-1.37-1.684-2.704-1.696zm.716 2.31c1.152 0 1.843.803 1.843 2.17l.003 1.396c0 .921-.572 1.999-1.846 1.999-1.96 0-1.908-2.117-1.908-2.822 0-2.37 1.044-2.743 1.908-2.743zm5.937 2.77C18.412 8.886 18.355 5 23.42 5c2.032 0 2.88.646 2.88.646l-.681 2.116s-.848-.467-1.952-.467c-1.415 0-2.318.82-2.318 2.263l.002 1.034c0 1.387.87 2.312 2.318 2.312 1.006 0 1.934-.471 1.934-.471l.68 2.072s-.776.65-2.85.65c-4.82 0-5.02-3.487-5.02-5.081zm24.383-5.077c2.742 0 4.017 2.063 4.017 4.992 0 3.689-1.628 5.165-4.019 5.165-1.368 0-2.38-.576-2.926-1.65v1.457H37.09V.296L40.038.04v6.516c.426-1.14 1.825-1.561 2.756-1.561zm-.827 2.307c-1.152 0-1.93.803-1.93 2.17l-.002 1.396c-.002.921.538 1.999 1.932 1.999 1.96 0 1.908-2.117 1.908-2.822 0-2.37-1.045-2.743-1.908-2.743zM31.417 5.003c-3.11 0-4.753 1.696-4.753 4.71v.56c0 3.912 2.306 4.92 5.056 4.92 2.672 0 3.882-.748 3.882-.748l-.552-1.99s-1.423.605-2.977.605c-1.61 0-2.303-.41-2.48-1.959h6.245V9.504c0-3.27-1.843-4.501-4.421-4.501zm.075 1.993c1.077 0 1.774.66 1.736 2.192h-3.63c.063-1.612.815-2.192 1.894-2.192zM52.693 4.99c-3.194 0-4.876 1.8-4.876 5.026 0 4.426 2.899 5.139 4.881 5.139 2.903 0 4.834-1.563 4.834-5.099 0-3.68-2.171-5.066-4.839-5.066zm-.04 2.32c1.404 0 1.961 1.051 1.961 2.248v1.029c0 1.45-.779 2.288-1.967 2.288-1.11 0-1.891-.784-1.891-2.288v-1.03c0-1.603.929-2.247 1.897-2.247zm10.754-2.32c-3.194 0-4.876 1.8-4.876 5.026 0 4.426 2.9 5.139 4.882 5.139 2.902 0 4.833-1.563 4.833-5.099 0-3.68-2.171-5.066-4.839-5.066zm-.04 2.32c1.405 0 1.961 1.051 1.961 2.248v1.029c0 1.45-.779 2.288-1.966 2.288-1.111 0-1.892-.784-1.892-2.288v-1.03c0-1.603.93-2.247 1.897-2.247zm5.994 7.648V.298L72.319.04v9.827l2.934-4.683h3.124l-3.061 4.85 3.179 4.924h-3.133l-3.043-4.781v4.781H69.36z" fill="#1877F2"/></svg>