<svg width="71" height="24" viewBox="0 0 71 24" fill="none" xmlns="http://www.w3.org/2000/svg"><path d="M8.723 0h.63c2.186.048 4.337.927 5.882 2.484-.57.582-1.153 1.14-1.711 1.723-.868-.785-1.913-1.39-3.054-1.605-1.688-.356-3.506-.035-4.92.927-1.545 1.01-2.59 2.722-2.816 4.552-.25 1.806.261 3.707 1.437 5.11a6.36 6.36 0 004.635 2.281c1.664.095 3.399-.416 4.61-1.58.951-.82 1.391-2.068 1.534-3.28-1.973 0-3.946.012-5.918 0V8.164h8.306c.428 2.626-.19 5.585-2.186 7.463-1.331 1.33-3.173 2.115-5.05 2.27-1.819.178-3.696-.167-5.313-1.046-1.937-1.034-3.481-2.781-4.242-4.837a8.762 8.762 0 01-.06-5.93 9.047 9.047 0 013.269-4.337C5.193.689 6.94.107 8.723 0z" fill="#4881F7"/><path d="M56.375.618h2.543v16.97c-.844 0-1.7.011-2.543-.012.012-5.645 0-11.302 0-16.958z" fill="#5CAE4A"/><path d="M22.994 6.5c1.569-.297 3.268.036 4.564.974a5.582 5.582 0 012.245 3.566c.321 1.651-.083 3.458-1.152 4.765-1.153 1.461-3.042 2.246-4.884 2.127-1.688-.095-3.328-.939-4.326-2.317-1.129-1.521-1.402-3.613-.784-5.396.618-1.913 2.365-3.374 4.337-3.719zm.357 2.258a3.195 3.195 0 00-1.664 1.057c-1.153 1.379-1.081 3.625.19 4.908a3.164 3.164 0 002.829.88c.938-.167 1.758-.796 2.21-1.628.784-1.414.558-3.363-.642-4.468a3.206 3.206 0 00-2.923-.75z" fill="#E84B2C"/><path d="M35.592 6.5c1.794-.345 3.755.155 5.098 1.414 2.187 1.961 2.424 5.633.559 7.89-1.13 1.427-2.96 2.211-4.766 2.128-1.723-.048-3.422-.903-4.444-2.317-1.153-1.557-1.402-3.696-.749-5.514.654-1.854 2.365-3.268 4.302-3.6zm.357 2.258a3.25 3.25 0 00-1.664 1.046c-1.14 1.354-1.093 3.565.13 4.86.726.772 1.855 1.153 2.9.939a3.26 3.26 0 002.21-1.628c.773-1.426.547-3.375-.665-4.48a3.185 3.185 0 00-2.911-.737z" fill="#F4BF43"/><path d="M46.274 7.19c1.366-.856 3.184-1.094 4.658-.357.463.202.844.546 1.212.891.012-.32 0-.654.012-.986.796.012 1.592 0 2.4.012v10.48c-.011 1.581-.415 3.257-1.556 4.41-1.248 1.271-3.161 1.663-4.885 1.402-1.841-.274-3.446-1.616-4.159-3.316.713-.344 1.462-.618 2.199-.938.416.974 1.26 1.806 2.317 1.996 1.058.19 2.282-.071 2.97-.95.738-.904.738-2.14.702-3.245-.547.535-1.176 1.01-1.937 1.189-1.652.463-3.47-.107-4.742-1.224-1.283-1.118-2.043-2.84-1.972-4.552.035-1.937 1.129-3.803 2.78-4.813zm2.46 1.52a3.126 3.126 0 00-1.866 1.082c-1.117 1.33-1.117 3.458.012 4.765a3.109 3.109 0 002.673 1.093c.94-.095 1.807-.689 2.27-1.509.785-1.39.654-3.28-.404-4.492a2.924 2.924 0 00-2.685-.939z" fill="#4881F7"/><path d="M61.972 7.795c1.426-1.33 3.624-1.782 5.454-1.081 1.735.654 2.84 2.305 3.399 4.005-2.579 1.07-5.146 2.127-7.724 3.196.356.678.903 1.296 1.64 1.545 1.033.369 2.27.238 3.137-.451.344-.262.618-.606.88-.94.653.44 1.306.868 1.96 1.308-.927 1.39-2.484 2.365-4.16 2.52-1.853.225-3.826-.488-5.026-1.938-1.973-2.281-1.782-6.108.44-8.164zm1.271 2.199c-.404.582-.57 1.295-.558 1.996a1028.61 1028.61 0 005.169-2.15c-.285-.666-.974-1.07-1.676-1.177-1.129-.202-2.305.404-2.935 1.33z" fill="#E84B2C"/></svg>