<?xml version="1.0" encoding="UTF-8"?><svg xmlns="http://www.w3.org/2000/svg" xmlns:xlink="http://www.w3.org/1999/xlink" contentScriptType="text/ecmascript" width="810" zoomAndPan="magnify" contentStyleType="text/css" viewBox="0 0 810 666.749997" height="666.749997" preserveAspectRatio="xMidYMid meet" version="1.0"><defs><clipPath id="clip-0"><path d="M 169 9 L 640.292969 9 L 640.292969 560 L 169 560 Z M 169 9 " clip-rule="nonzero"/></clipPath><clipPath id="clip-1"><path d="M 405 133 L 640.292969 133 L 640.292969 560 L 405 560 Z M 405 133 " clip-rule="nonzero"/></clipPath></defs><g clip-path="url(#clip-0)"><path fill="rgb(100%, 80.778503%, 58.039856%)" d="M 391.546875 12.859375 L 179.246094 125.546875 C 173.359375 128.671875 169.675781 134.792969 169.675781 141.460938 L 169.675781 424.324219 C 169.675781 435.75 176.097656 446.207031 186.289062 451.375 L 394.472656 556.949219 C 401.113281 560.320312 408.964844 560.320312 415.609375 556.949219 L 623.792969 451.375 C 633.984375 446.207031 640.40625 435.75 640.40625 424.324219 L 640.40625 141.460938 C 640.40625 134.792969 636.722656 128.671875 630.835938 125.546875 L 418.535156 12.859375 C 410.097656 8.378906 399.988281 8.378906 391.546875 12.859375 Z M 391.546875 12.859375 " fill-opacity="1" fill-rule="nonzero"/></g><g clip-path="url(#clip-1)"><path fill="rgb(98.81897%, 69.018555%, 26.269531%)" d="M 405.039062 559.480469 C 408.664062 559.480469 412.289062 558.636719 415.609375 556.953125 L 623.792969 451.375 C 633.984375 446.207031 640.40625 435.75 640.40625 424.328125 L 640.40625 141.460938 C 640.40625 138.515625 639.652344 135.695312 638.34375 133.175781 L 405.039062 257.421875 Z M 405.039062 559.480469 " fill-opacity="1" fill-rule="nonzero"/></g><path fill="rgb(88.62915%, 47.44873%, 10.5896%)" d="M 405.039062 257.417969 L 171.738281 133.171875 C 170.429688 135.695312 169.675781 138.511719 169.675781 141.457031 L 169.675781 424.324219 C 169.675781 435.75 176.097656 446.207031 186.289062 451.375 L 394.472656 556.949219 C 397.792969 558.636719 401.414062 559.476562 405.039062 559.476562 Z M 405.039062 257.417969 " fill-opacity="1" fill-rule="nonzero"/><path fill="rgb(87.059021%, 94.898987%, 98.81897%)" d="M 488.21875 49.84375 L 252.105469 175.570312 L 252.105469 215.800781 C 252.105469 219.660156 254.234375 223.207031 257.640625 225.023438 L 298.675781 246.890625 C 301.933594 248.625 305.863281 246.265625 305.863281 242.578125 L 305.863281 205.03125 L 542.339844 78.574219 Z M 488.21875 49.84375 " fill-opacity="1" fill-rule="nonzero"/><path fill="rgb(25.099182%, 22.749329%, 27.449036%)" d="M 439.054688 479.203125 L 502.042969 449.082031 C 510.105469 445.230469 515.15625 437 514.949219 428.0625 L 514.941406 427.785156 C 514.765625 420.414062 506.941406 415.761719 500.378906 419.128906 L 439.054688 450.621094 Z M 439.054688 479.203125 " fill-opacity="1" fill-rule="nonzero"/><path fill="rgb(25.099182%, 22.749329%, 27.449036%)" d="M 439.054688 523.125 L 473.640625 507.058594 C 481.835938 503.25 486.992188 494.957031 486.777344 485.929688 C 486.601562 478.53125 478.730469 473.882812 472.167969 477.296875 L 439.054688 494.535156 Z M 439.054688 523.125 " fill-opacity="1" fill-rule="nonzero"/><path fill="rgb(71.369934%, 78.42865%, 80.778503%)" d="M 252.105469 175.972656 L 252.105469 215.800781 C 252.105469 219.660156 254.234375 223.207031 257.640625 225.023438 L 298.675781 246.890625 C 301.933594 248.625 305.863281 246.265625 305.863281 242.578125 L 305.863281 205.03125 L 306.261719 204.816406 C 292.363281 197.414062 269.789062 185.390625 252.105469 175.972656 Z M 252.105469 175.972656 " fill-opacity="1" fill-rule="nonzero"/><path fill="rgb(27.059937%, 67.059326%, 86.669922%)" d="M 243.769531 282.617188 C 222.824219 282.539062 190.921875 278.023438 168.917969 254.617188 C 164.121094 249.519531 155.8125 249.472656 151.023438 254.574219 C 129.011719 278.023438 97.078125 282.542969 76.121094 282.617188 C 64.589844 282.65625 55.570312 292.597656 56.378906 304.097656 L 63.605469 407.457031 C 70.652344 452.539062 127.671875 482.460938 150.527344 492.75 C 156.535156 495.453125 163.375 495.453125 169.378906 492.75 C 192.238281 482.460938 249.253906 452.535156 256.300781 407.457031 L 263.527344 304.097656 C 264.328125 292.59375 255.304688 282.660156 243.769531 282.617188 Z M 243.769531 282.617188 " fill-opacity="1" fill-rule="nonzero"/><path fill="rgb(87.059021%, 94.898987%, 98.81897%)" d="M 243.769531 282.617188 C 222.824219 282.539062 190.921875 278.023438 168.917969 254.617188 C 166.515625 252.0625 163.230469 250.777344 159.949219 250.773438 L 159.949219 494.78125 C 163.160156 494.78125 166.371094 494.105469 169.375 492.753906 C 192.234375 482.460938 249.25 452.535156 256.296875 407.457031 L 263.527344 304.101562 C 264.328125 292.59375 255.304688 282.660156 243.769531 282.617188 Z M 243.769531 282.617188 " fill-opacity="1" fill-rule="nonzero"/><path fill="rgb(94.898987%, 95.289612%, 95.289612%)" d="M 742.71875 658.277344 L 401.328125 658.277344 C 394.792969 658.277344 389.472656 652.953125 389.472656 646.425781 L 389.472656 426.46875 C 389.472656 419.9375 394.792969 414.617188 401.328125 414.617188 L 742.71875 414.617188 C 749.25 414.617188 754.574219 419.9375 754.574219 426.46875 L 754.574219 646.425781 C 754.574219 652.953125 749.25 658.277344 742.71875 658.277344 Z M 742.71875 658.277344 " fill-opacity="1" fill-rule="nonzero"/><path stroke-linecap="round" transform="matrix(17.962241, 0, 0, 18.478309, 436.039639, 468.353372)" fill="none" stroke-linejoin="miter" d="M 0.499932 -0.0000979152 L 7.054915 -0.0000979152 " stroke="rgb(100%, 100%, 100%)" stroke-width="1" stroke-opacity="1" stroke-miterlimit="4"/><path stroke-linecap="round" transform="matrix(18.009164, 0.000000000000006186, -0.000000000000006347, 18.478309, 436.039639, 537.743846)" fill="none" stroke-linejoin="miter" d="M 0.49993 -0.000089777 L 13.488327 -0.000089777 " stroke="rgb(100%, 100%, 100%)" stroke-width="1" stroke-opacity="1" stroke-miterlimit="4"/></svg>