<?xml version="1.0" encoding="utf-8"?>
<svg width="53" height="53" viewBox="0 0 53 53" fill="none" xmlns="http://www.w3.org/2000/svg">
<circle opacity="0.2" cx="23.5" cy="29.5" r="23.5" fill="#F4F6F8"/>
<path d="M52.7712 10.566L46.1418 17.1955C45.9933 17.344 45.7938 17.4243 45.5893 17.4243C45.5219 17.4243 45.454 17.4156 45.3872 17.3978L39.0148 15.6902L24.7381 29.9668C24.5856 30.1194 24.3857 30.1956 24.1857 30.1956C23.9857 30.1956 23.7858 30.1194 23.6333 29.9668C23.3282 29.6617 23.3282 29.1671 23.6333 28.862L37.9099 14.5854L36.2024 8.213C36.1301 7.94337 36.2073 7.65568 36.4046 7.45831L43.0341 0.828823C43.2315 0.63146 43.5192 0.554409 43.7887 0.626577C44.0583 0.698842 44.2689 0.909389 44.3412 1.17902L46.0486 7.55138L52.421 9.2588C52.6907 9.33107 52.9012 9.54162 52.9735 9.81124C53.0458 10.0809 52.9686 10.3687 52.7712 10.566ZM50.7095 10.418L45.2084 8.94396C44.9388 8.87169 44.7283 8.66115 44.656 8.39152L43.182 2.89054L37.8283 8.24425L39.419 14.181L45.3557 15.7717L50.7095 10.418ZM24.1857 18.4711C25.8125 18.4711 27.3783 18.8199 28.8396 19.5078C29.2298 19.6914 29.6955 19.524 29.8792 19.1337C30.0629 18.7433 29.8955 18.2779 29.505 18.0942C27.834 17.3075 26.0443 16.9086 24.1857 16.9086C17.29 16.9086 11.6799 22.5187 11.6799 29.4144C11.6799 36.3101 17.29 41.9201 24.1857 41.9201C31.0814 41.9201 36.6915 36.3101 36.6915 29.4144C36.6915 27.5561 36.2926 25.7663 35.5059 24.095C35.3222 23.7047 34.8568 23.5372 34.4664 23.7208C34.0759 23.9046 33.9084 24.3699 34.0921 24.7604C34.78 26.222 35.1289 27.7877 35.1289 29.4143C35.1289 35.4485 30.2198 40.3575 24.1856 40.3575C18.1514 40.3575 13.2423 35.4485 13.2423 29.4143C13.2423 23.3801 18.1515 18.4711 24.1857 18.4711Z" fill="white"/>
<path fill-rule="evenodd" clip-rule="evenodd" d="M11.3744 41.8743C4.54021 35.0402 4.54021 23.9598 11.3744 17.1256C15.0704 13.4296 20.0108 11.7327 24.8439 12.0341L24.6572 15.0283C20.6466 14.7782 16.5579 16.1848 13.4957 19.2469C7.8331 24.9095 7.8331 34.0904 13.4957 39.753C16.3884 42.6457 20.1963 44.0606 23.9896 43.998L24.0391 46.9976C19.4668 47.073 14.8652 45.3652 11.3744 41.8743Z" fill="#4186F6"/>
</svg>
