<?xml version="1.0" encoding="UTF-8"?><svg xmlns="http://www.w3.org/2000/svg" xmlns:xlink="http://www.w3.org/1999/xlink" contentScriptType="text/ecmascript" width="1440" zoomAndPan="magnify" contentStyleType="text/css" viewBox="0 0 1440 1184.999948" height="1184.999948" preserveAspectRatio="xMidYMid meet" version="1.0"><path fill="rgb(75.289917%, 89.7995%, 89.408875%)" d="M 1248.246094 581.625 C 1248.246094 772.527344 1150.933594 940.703125 1003.113281 1039.199219 C 915.910156 1097.4375 811.320312 1131.308594 698.558594 1131.308594 C 585.800781 1131.308594 481.210938 1097.4375 394.007812 1039.199219 C 246.1875 940.703125 148.875 772.527344 148.875 581.625 C 148.875 278.109375 395.046875 31.941406 698.558594 31.941406 C 1002.074219 31.941406 1248.246094 278.109375 1248.246094 581.625 Z M 1248.246094 581.625 " fill-opacity="1" fill-rule="nonzero"/><path fill="rgb(94.509888%, 73.728943%, 9.799194%)" d="M 1099.679688 17.085938 C 1098.707031 17.085938 1097.738281 17.179688 1096.78125 17.371094 C 1095.824219 17.558594 1094.898438 17.84375 1093.996094 18.214844 C 1093.09375 18.589844 1092.238281 19.046875 1091.425781 19.589844 C 1090.617188 20.128906 1089.867188 20.746094 1089.175781 21.4375 C 1088.484375 22.125 1087.871094 22.875 1087.328125 23.6875 C 1086.785156 24.5 1086.328125 25.355469 1085.957031 26.253906 C 1085.582031 27.15625 1085.300781 28.085938 1085.109375 29.042969 C 1084.917969 30 1084.824219 30.964844 1084.824219 31.941406 C 1084.824219 32.917969 1084.917969 33.882812 1085.109375 34.839844 C 1085.300781 35.796875 1085.582031 36.726562 1085.957031 37.625 C 1086.328125 38.527344 1086.785156 39.382812 1087.328125 40.195312 C 1087.871094 41.003906 1088.484375 41.757812 1089.175781 42.445312 C 1089.867188 43.136719 1090.617188 43.75 1091.425781 44.292969 C 1092.238281 44.835938 1093.09375 45.292969 1093.996094 45.667969 C 1094.898438 46.039062 1095.824219 46.320312 1096.78125 46.511719 C 1097.738281 46.703125 1098.707031 46.796875 1099.679688 46.796875 C 1100.65625 46.796875 1101.621094 46.703125 1102.578125 46.511719 C 1103.535156 46.320312 1104.464844 46.039062 1105.367188 45.667969 C 1106.265625 45.292969 1107.125 44.835938 1107.933594 44.292969 C 1108.746094 43.75 1109.496094 43.136719 1110.1875 42.445312 C 1110.875 41.757812 1111.492188 41.007812 1112.035156 40.195312 C 1112.574219 39.382812 1113.03125 38.527344 1113.40625 37.625 C 1113.78125 36.726562 1114.0625 35.796875 1114.25 34.839844 C 1114.441406 33.882812 1114.539062 32.917969 1114.539062 31.941406 C 1114.539062 30.964844 1114.441406 30 1114.25 29.042969 C 1114.0625 28.085938 1113.78125 27.15625 1113.40625 26.253906 C 1113.03125 25.355469 1112.574219 24.5 1112.035156 23.6875 C 1111.492188 22.875 1110.875 22.125 1110.1875 21.4375 C 1109.496094 20.746094 1108.746094 20.128906 1107.933594 19.589844 C 1107.125 19.046875 1106.265625 18.589844 1105.367188 18.214844 C 1104.464844 17.84375 1103.535156 17.558594 1102.578125 17.371094 C 1101.621094 17.179688 1100.65625 17.085938 1099.679688 17.085938 Z M 1188.820312 2.226562 C 1186.871094 2.226562 1184.929688 2.324219 1182.996094 2.515625 C 1181.058594 2.707031 1179.132812 2.992188 1177.226562 3.371094 C 1175.316406 3.75 1173.429688 4.222656 1171.570312 4.789062 C 1169.707031 5.351562 1167.875 6.007812 1166.078125 6.75 C 1164.28125 7.496094 1162.523438 8.328125 1160.804688 9.246094 C 1159.089844 10.164062 1157.421875 11.164062 1155.804688 12.242188 C 1154.1875 13.324219 1152.625 14.484375 1151.121094 15.71875 C 1149.617188 16.953125 1148.175781 18.257812 1146.800781 19.632812 C 1145.421875 21.011719 1144.117188 22.449219 1142.882812 23.953125 C 1141.648438 25.460938 1140.488281 27.019531 1139.410156 28.640625 C 1138.328125 30.257812 1137.328125 31.925781 1136.410156 33.640625 C 1135.492188 35.355469 1134.660156 37.113281 1133.917969 38.914062 C 1133.171875 40.710938 1132.515625 42.542969 1131.953125 44.402344 C 1131.386719 46.265625 1130.914062 48.152344 1130.535156 50.058594 C 1130.15625 51.96875 1129.871094 53.890625 1129.679688 55.828125 C 1129.488281 57.765625 1129.394531 59.707031 1129.394531 61.652344 C 1129.394531 63.601562 1129.488281 65.542969 1129.679688 67.476562 C 1129.871094 69.414062 1130.15625 71.339844 1130.535156 73.246094 C 1130.914062 75.15625 1131.386719 77.042969 1131.953125 78.902344 C 1132.515625 80.765625 1133.171875 82.597656 1133.917969 84.394531 C 1134.660156 86.191406 1135.492188 87.949219 1136.410156 89.667969 C 1137.328125 91.382812 1138.328125 93.050781 1139.410156 94.667969 C 1140.488281 96.285156 1141.648438 97.847656 1142.882812 99.351562 C 1144.117188 100.855469 1145.421875 102.296875 1146.800781 103.671875 C 1148.175781 105.050781 1149.617188 106.355469 1151.121094 107.589844 C 1152.625 108.824219 1154.1875 109.984375 1155.804688 111.0625 C 1157.421875 112.144531 1159.089844 113.144531 1160.804688 114.0625 C 1162.523438 114.980469 1164.28125 115.8125 1166.078125 116.554688 C 1167.875 117.300781 1169.707031 117.957031 1171.570312 118.519531 C 1173.429688 119.085938 1175.316406 119.558594 1177.226562 119.9375 C 1179.132812 120.316406 1181.058594 120.601562 1182.996094 120.792969 C 1184.929688 120.984375 1186.871094 121.078125 1188.820312 121.078125 C 1190.765625 121.078125 1192.707031 120.984375 1194.644531 120.792969 C 1196.582031 120.601562 1198.503906 120.316406 1200.414062 119.9375 C 1202.320312 119.558594 1204.207031 119.085938 1206.070312 118.519531 C 1207.933594 117.957031 1209.761719 117.300781 1211.558594 116.554688 C 1213.359375 115.8125 1215.117188 114.980469 1216.832031 114.0625 C 1218.546875 113.144531 1220.214844 112.144531 1221.832031 111.0625 C 1223.453125 109.984375 1225.011719 108.824219 1226.519531 107.589844 C 1228.023438 106.355469 1229.460938 105.050781 1230.839844 103.671875 C 1232.214844 102.296875 1233.519531 100.855469 1234.753906 99.351562 C 1235.988281 97.847656 1237.148438 96.285156 1238.230469 94.667969 C 1239.308594 93.050781 1240.308594 91.382812 1241.226562 89.667969 C 1242.144531 87.949219 1242.976562 86.191406 1243.71875 84.394531 C 1244.464844 82.597656 1245.121094 80.765625 1245.683594 78.902344 C 1246.25 77.042969 1246.722656 75.15625 1247.101562 73.246094 C 1247.480469 71.339844 1247.765625 69.414062 1247.957031 67.476562 C 1248.148438 65.542969 1248.246094 63.601562 1248.246094 61.652344 C 1248.246094 59.707031 1248.148438 57.765625 1247.957031 55.828125 C 1247.765625 53.890625 1247.480469 51.96875 1247.101562 50.058594 C 1246.722656 48.152344 1246.25 46.265625 1245.683594 44.402344 C 1245.121094 42.542969 1244.464844 40.710938 1243.71875 38.914062 C 1242.976562 37.113281 1242.144531 35.355469 1241.226562 33.640625 C 1240.308594 31.925781 1239.308594 30.257812 1238.230469 28.640625 C 1237.148438 27.019531 1235.988281 25.460938 1234.753906 23.953125 C 1233.519531 22.449219 1232.214844 21.011719 1230.839844 19.632812 C 1229.460938 18.257812 1228.023438 16.953125 1226.519531 15.71875 C 1225.011719 14.484375 1223.453125 13.324219 1221.832031 12.242188 C 1220.214844 11.164062 1218.546875 10.164062 1216.832031 9.246094 C 1215.117188 8.328125 1213.359375 7.496094 1211.558594 6.75 C 1209.761719 6.007812 1207.933594 5.351562 1206.070312 4.789062 C 1204.207031 4.222656 1202.320312 3.75 1200.414062 3.371094 C 1198.503906 2.992188 1196.582031 2.707031 1194.644531 2.515625 C 1192.707031 2.324219 1190.765625 2.226562 1188.820312 2.226562 Z M 1188.820312 2.226562 " fill-opacity="1" fill-rule="nonzero"/><path fill="rgb(0%, 64.709473%, 64.709473%)" d="M 1248.246094 165.648438 C 1247.269531 165.648438 1246.300781 165.695312 1245.332031 165.792969 C 1244.363281 165.886719 1243.402344 166.027344 1242.449219 166.21875 C 1241.492188 166.410156 1240.550781 166.644531 1239.617188 166.925781 C 1238.6875 167.210938 1237.773438 167.539062 1236.875 167.910156 C 1235.976562 168.28125 1235.097656 168.699219 1234.238281 169.15625 C 1233.378906 169.613281 1232.546875 170.113281 1231.738281 170.65625 C 1230.929688 171.195312 1230.148438 171.773438 1229.394531 172.390625 C 1228.644531 173.011719 1227.921875 173.664062 1227.234375 174.351562 C 1226.546875 175.039062 1225.894531 175.757812 1225.277344 176.511719 C 1224.660156 177.261719 1224.078125 178.042969 1223.539062 178.851562 C 1223 179.664062 1222.5 180.496094 1222.039062 181.355469 C 1221.582031 182.210938 1221.164062 183.089844 1220.792969 183.988281 C 1220.421875 184.890625 1220.09375 185.804688 1219.8125 186.734375 C 1219.527344 187.667969 1219.292969 188.609375 1219.101562 189.5625 C 1218.914062 190.519531 1218.769531 191.480469 1218.675781 192.449219 C 1218.578125 193.417969 1218.53125 194.386719 1218.53125 195.359375 C 1218.53125 196.332031 1218.578125 197.304688 1218.675781 198.273438 C 1218.769531 199.242188 1218.914062 200.203125 1219.101562 201.15625 C 1219.292969 202.113281 1219.527344 203.054688 1219.8125 203.984375 C 1220.09375 204.917969 1220.421875 205.832031 1220.792969 206.730469 C 1221.164062 207.628906 1221.582031 208.507812 1222.039062 209.367188 C 1222.5 210.226562 1223 211.058594 1223.539062 211.867188 C 1224.078125 212.675781 1224.660156 213.457031 1225.277344 214.210938 C 1225.894531 214.960938 1226.546875 215.683594 1227.234375 216.371094 C 1227.921875 217.058594 1228.644531 217.710938 1229.394531 218.328125 C 1230.148438 218.945312 1230.929688 219.523438 1231.738281 220.066406 C 1232.546875 220.605469 1233.378906 221.105469 1234.238281 221.566406 C 1235.097656 222.023438 1235.976562 222.4375 1236.875 222.8125 C 1237.773438 223.183594 1238.6875 223.511719 1239.617188 223.792969 C 1240.550781 224.078125 1241.492188 224.3125 1242.449219 224.503906 C 1243.402344 224.691406 1244.363281 224.835938 1245.332031 224.929688 C 1246.300781 225.027344 1247.269531 225.074219 1248.246094 225.074219 C 1249.21875 225.074219 1250.1875 225.027344 1251.15625 224.929688 C 1252.125 224.835938 1253.085938 224.691406 1254.039062 224.503906 C 1254.996094 224.3125 1255.9375 224.078125 1256.871094 223.792969 C 1257.800781 223.511719 1258.714844 223.183594 1259.613281 222.8125 C 1260.515625 222.4375 1261.390625 222.023438 1262.25 221.566406 C 1263.109375 221.105469 1263.941406 220.605469 1264.75 220.066406 C 1265.5625 219.523438 1266.339844 218.945312 1267.09375 218.328125 C 1267.847656 217.710938 1268.566406 217.058594 1269.253906 216.371094 C 1269.941406 215.683594 1270.59375 214.960938 1271.210938 214.210938 C 1271.828125 213.457031 1272.410156 212.675781 1272.949219 211.867188 C 1273.488281 211.058594 1273.988281 210.226562 1274.449219 209.367188 C 1274.90625 208.507812 1275.324219 207.628906 1275.695312 206.730469 C 1276.066406 205.832031 1276.394531 204.917969 1276.675781 203.984375 C 1276.960938 203.054688 1277.195312 202.113281 1277.386719 201.15625 C 1277.574219 200.203125 1277.71875 199.242188 1277.8125 198.273438 C 1277.910156 197.304688 1277.957031 196.332031 1277.957031 195.359375 C 1277.957031 194.386719 1277.910156 193.417969 1277.8125 192.449219 C 1277.71875 191.480469 1277.574219 190.519531 1277.386719 189.5625 C 1277.195312 188.609375 1276.960938 187.667969 1276.675781 186.734375 C 1276.394531 185.804688 1276.066406 184.890625 1275.695312 183.988281 C 1275.324219 183.089844 1274.90625 182.210938 1274.449219 181.355469 C 1273.988281 180.496094 1273.488281 179.664062 1272.949219 178.851562 C 1272.410156 178.042969 1271.828125 177.261719 1271.210938 176.511719 C 1270.59375 175.757812 1269.941406 175.039062 1269.253906 174.351562 C 1268.566406 173.664062 1267.847656 173.011719 1267.09375 172.390625 C 1266.339844 171.773438 1265.5625 171.195312 1264.75 170.65625 C 1263.941406 170.113281 1263.109375 169.613281 1262.25 169.15625 C 1261.390625 168.699219 1260.515625 168.28125 1259.613281 167.910156 C 1258.714844 167.539062 1257.800781 167.210938 1256.871094 166.925781 C 1255.9375 166.644531 1254.996094 166.410156 1254.039062 166.21875 C 1253.085938 166.027344 1252.125 165.886719 1251.15625 165.792969 C 1250.1875 165.695312 1249.21875 165.648438 1248.246094 165.648438 Z M 1248.246094 165.648438 " fill-opacity="1" fill-rule="nonzero"/><path fill="rgb(98.429871%, 80.389404%, 34.899902%)" d="M 1159.105469 938.175781 C 1158.132812 938.175781 1157.164062 938.222656 1156.195312 938.320312 C 1155.226562 938.414062 1154.265625 938.558594 1153.308594 938.746094 C 1152.355469 938.9375 1151.414062 939.171875 1150.480469 939.457031 C 1149.550781 939.738281 1148.636719 940.066406 1147.734375 940.4375 C 1146.835938 940.808594 1145.957031 941.226562 1145.101562 941.683594 C 1144.242188 942.144531 1143.40625 942.644531 1142.597656 943.183594 C 1141.789062 943.726562 1141.007812 944.304688 1140.257812 944.921875 C 1139.503906 945.539062 1138.785156 946.191406 1138.097656 946.878906 C 1137.410156 947.566406 1136.753906 948.289062 1136.136719 949.039062 C 1135.519531 949.792969 1134.941406 950.574219 1134.402344 951.382812 C 1133.859375 952.191406 1133.359375 953.023438 1132.902344 953.882812 C 1132.445312 954.742188 1132.027344 955.621094 1131.65625 956.519531 C 1131.28125 957.417969 1130.957031 958.332031 1130.671875 959.265625 C 1130.390625 960.195312 1130.15625 961.136719 1129.964844 962.09375 C 1129.773438 963.046875 1129.632812 964.007812 1129.535156 964.976562 C 1129.441406 965.945312 1129.394531 966.917969 1129.394531 967.890625 C 1129.394531 968.863281 1129.441406 969.832031 1129.535156 970.800781 C 1129.632812 971.769531 1129.773438 972.730469 1129.964844 973.6875 C 1130.15625 974.640625 1130.390625 975.582031 1130.671875 976.515625 C 1130.957031 977.445312 1131.28125 978.359375 1131.65625 979.257812 C 1132.027344 980.160156 1132.445312 981.039062 1132.902344 981.894531 C 1133.359375 982.753906 1133.859375 983.585938 1134.402344 984.398438 C 1134.941406 985.207031 1135.519531 985.988281 1136.136719 986.738281 C 1136.753906 987.492188 1137.410156 988.210938 1138.097656 988.898438 C 1138.785156 989.585938 1139.503906 990.238281 1140.257812 990.855469 C 1141.007812 991.476562 1141.789062 992.054688 1142.597656 992.59375 C 1143.40625 993.136719 1144.242188 993.632812 1145.101562 994.09375 C 1145.957031 994.550781 1146.835938 994.96875 1147.734375 995.339844 C 1148.636719 995.710938 1149.550781 996.039062 1150.480469 996.324219 C 1151.414062 996.605469 1152.355469 996.839844 1153.308594 997.03125 C 1154.265625 997.21875 1155.226562 997.363281 1156.195312 997.457031 C 1157.164062 997.554688 1158.132812 997.601562 1159.105469 997.601562 C 1160.078125 997.601562 1161.050781 997.554688 1162.019531 997.457031 C 1162.988281 997.363281 1163.949219 997.21875 1164.902344 997.03125 C 1165.859375 996.839844 1166.800781 996.605469 1167.730469 996.324219 C 1168.664062 996.039062 1169.578125 995.710938 1170.476562 995.339844 C 1171.375 994.96875 1172.253906 994.550781 1173.113281 994.09375 C 1173.972656 993.632812 1174.804688 993.136719 1175.613281 992.59375 C 1176.421875 992.054688 1177.203125 991.476562 1177.957031 990.855469 C 1178.707031 990.238281 1179.429688 989.585938 1180.117188 988.898438 C 1180.804688 988.210938 1181.457031 987.492188 1182.074219 986.738281 C 1182.691406 985.988281 1183.269531 985.207031 1183.8125 984.394531 C 1184.351562 983.585938 1184.851562 982.753906 1185.3125 981.894531 C 1185.769531 981.039062 1186.183594 980.160156 1186.558594 979.257812 C 1186.929688 978.359375 1187.257812 977.445312 1187.539062 976.515625 C 1187.820312 975.582031 1188.058594 974.640625 1188.25 973.6875 C 1188.4375 972.730469 1188.582031 971.769531 1188.675781 970.800781 C 1188.773438 969.832031 1188.820312 968.863281 1188.820312 967.890625 C 1188.820312 966.917969 1188.773438 965.945312 1188.675781 964.976562 C 1188.582031 964.007812 1188.4375 963.046875 1188.25 962.09375 C 1188.058594 961.136719 1187.820312 960.195312 1187.539062 959.265625 C 1187.257812 958.332031 1186.929688 957.417969 1186.558594 956.519531 C 1186.183594 955.621094 1185.769531 954.742188 1185.3125 953.882812 C 1184.851562 953.023438 1184.351562 952.191406 1183.8125 951.382812 C 1183.269531 950.574219 1182.691406 949.792969 1182.074219 949.039062 C 1181.457031 948.289062 1180.804688 947.566406 1180.117188 946.878906 C 1179.429688 946.191406 1178.707031 945.539062 1177.957031 944.921875 C 1177.203125 944.304688 1176.421875 943.726562 1175.613281 943.183594 C 1174.804688 942.644531 1173.972656 942.144531 1173.113281 941.683594 C 1172.253906 941.226562 1171.375 940.808594 1170.476562 940.4375 C 1169.578125 940.066406 1168.664062 939.738281 1167.730469 939.457031 C 1166.800781 939.171875 1165.859375 938.9375 1164.902344 938.746094 C 1163.949219 938.558594 1162.988281 938.414062 1162.019531 938.320312 C 1161.050781 938.222656 1160.078125 938.175781 1159.105469 938.175781 Z M 178.589844 715.332031 C 176.644531 715.332031 174.703125 715.425781 172.765625 715.617188 C 170.828125 715.808594 168.90625 716.09375 166.996094 716.472656 C 165.085938 716.851562 163.203125 717.324219 161.339844 717.890625 C 159.476562 718.457031 157.644531 719.109375 155.847656 719.855469 C 154.050781 720.601562 152.292969 721.429688 150.578125 722.347656 C 148.859375 723.265625 147.191406 724.265625 145.574219 725.347656 C 143.957031 726.429688 142.394531 727.585938 140.890625 728.820312 C 139.386719 730.054688 137.945312 731.359375 136.570312 732.738281 C 135.191406 734.113281 133.886719 735.554688 132.652344 737.058594 C 131.417969 738.5625 130.261719 740.125 129.179688 741.742188 C 128.097656 743.359375 127.097656 745.027344 126.179688 746.742188 C 125.261719 748.460938 124.433594 750.21875 123.6875 752.015625 C 122.941406 753.8125 122.289062 755.644531 121.722656 757.507812 C 121.15625 759.371094 120.6875 761.253906 120.304688 763.164062 C 119.925781 765.074219 119.640625 766.996094 119.449219 768.933594 C 119.257812 770.871094 119.164062 772.8125 119.164062 774.757812 C 119.164062 776.703125 119.257812 778.644531 119.449219 780.582031 C 119.640625 782.519531 119.925781 784.441406 120.304688 786.351562 C 120.6875 788.257812 121.15625 790.144531 121.722656 792.007812 C 122.289062 793.871094 122.941406 795.699219 123.6875 797.496094 C 124.433594 799.296875 125.261719 801.054688 126.179688 802.769531 C 127.097656 804.488281 128.097656 806.152344 129.179688 807.773438 C 130.261719 809.390625 131.417969 810.953125 132.652344 812.457031 C 133.886719 813.960938 135.191406 815.402344 136.570312 816.777344 C 137.945312 818.152344 139.386719 819.457031 140.890625 820.691406 C 142.394531 821.929688 143.957031 823.085938 145.574219 824.167969 C 147.191406 825.25 148.859375 826.246094 150.578125 827.164062 C 152.292969 828.082031 154.050781 828.914062 155.847656 829.660156 C 157.644531 830.402344 159.476562 831.058594 161.339844 831.625 C 163.203125 832.1875 165.085938 832.660156 166.996094 833.039062 C 168.90625 833.421875 170.828125 833.707031 172.765625 833.894531 C 174.703125 834.085938 176.644531 834.183594 178.589844 834.183594 C 180.535156 834.183594 182.476562 834.085938 184.414062 833.894531 C 186.351562 833.707031 188.273438 833.421875 190.183594 833.039062 C 192.089844 832.660156 193.976562 832.1875 195.839844 831.625 C 197.703125 831.058594 199.53125 830.402344 201.332031 829.660156 C 203.128906 828.914062 204.886719 828.082031 206.601562 827.164062 C 208.320312 826.246094 209.984375 825.25 211.605469 824.167969 C 213.222656 823.085938 214.785156 821.929688 216.289062 820.695312 C 217.792969 819.457031 219.234375 818.152344 220.609375 816.777344 C 221.984375 815.402344 223.289062 813.960938 224.527344 812.457031 C 225.761719 810.953125 226.917969 809.390625 228 807.773438 C 229.082031 806.152344 230.082031 804.488281 230.996094 802.769531 C 231.914062 801.054688 232.746094 799.296875 233.492188 797.496094 C 234.234375 795.699219 234.890625 793.871094 235.457031 792.007812 C 236.019531 790.144531 236.492188 788.257812 236.871094 786.351562 C 237.253906 784.441406 237.539062 782.519531 237.726562 780.582031 C 237.917969 778.644531 238.015625 776.703125 238.015625 774.757812 C 238.015625 772.8125 237.917969 770.871094 237.726562 768.933594 C 237.539062 766.996094 237.253906 765.074219 236.871094 763.164062 C 236.492188 761.253906 236.019531 759.371094 235.457031 757.507812 C 234.890625 755.644531 234.234375 753.8125 233.492188 752.015625 C 232.746094 750.21875 231.914062 748.460938 230.996094 746.742188 C 230.082031 745.027344 229.082031 743.359375 228 741.742188 C 226.917969 740.125 225.761719 738.5625 224.527344 737.058594 C 223.289062 735.554688 221.984375 734.113281 220.609375 732.738281 C 219.234375 731.359375 217.792969 730.054688 216.289062 728.820312 C 214.785156 727.585938 213.222656 726.429688 211.605469 725.347656 C 209.984375 724.265625 208.320312 723.265625 206.601562 722.347656 C 204.886719 721.429688 203.128906 720.601562 201.332031 719.855469 C 199.53125 719.109375 197.703125 718.457031 195.839844 717.890625 C 193.976562 717.324219 192.089844 716.851562 190.183594 716.472656 C 188.273438 716.09375 186.351562 715.808594 184.414062 715.617188 C 182.476562 715.425781 180.535156 715.332031 178.589844 715.332031 Z M 178.589844 715.332031 " fill-opacity="1" fill-rule="nonzero"/><path fill="rgb(0%, 64.709473%, 64.709473%)" d="M 327.152344 1101.597656 C 326.179688 1101.597656 325.207031 1101.644531 324.238281 1101.738281 C 323.273438 1101.835938 322.308594 1101.976562 321.355469 1102.167969 C 320.402344 1102.355469 319.457031 1102.59375 318.527344 1102.875 C 317.597656 1103.15625 316.679688 1103.484375 315.78125 1103.859375 C 314.882812 1104.230469 314.003906 1104.644531 313.144531 1105.105469 C 312.289062 1105.5625 311.453125 1106.0625 310.644531 1106.605469 C 309.835938 1107.144531 309.054688 1107.722656 308.304688 1108.339844 C 307.550781 1108.957031 306.832031 1109.609375 306.140625 1110.296875 C 305.453125 1110.988281 304.800781 1111.707031 304.183594 1112.460938 C 303.566406 1113.210938 302.988281 1113.992188 302.449219 1114.800781 C 301.90625 1115.609375 301.40625 1116.445312 300.949219 1117.300781 C 300.488281 1118.160156 300.074219 1119.039062 299.703125 1119.9375 C 299.328125 1120.835938 299 1121.753906 298.71875 1122.683594 C 298.4375 1123.613281 298.199219 1124.558594 298.011719 1125.511719 C 297.820312 1126.464844 297.679688 1127.429688 297.582031 1128.394531 C 297.488281 1129.363281 297.441406 1130.335938 297.441406 1131.308594 C 297.441406 1132.28125 297.488281 1133.253906 297.582031 1134.222656 C 297.679688 1135.1875 297.820312 1136.152344 298.011719 1137.105469 C 298.199219 1138.058594 298.4375 1139.003906 298.71875 1139.933594 C 299 1140.863281 299.328125 1141.78125 299.703125 1142.679688 C 300.074219 1143.578125 300.488281 1144.457031 300.949219 1145.316406 C 301.40625 1146.171875 301.90625 1147.007812 302.449219 1147.816406 C 302.988281 1148.625 303.566406 1149.40625 304.183594 1150.15625 C 304.800781 1150.910156 305.453125 1151.628906 306.140625 1152.320312 C 306.832031 1153.007812 307.550781 1153.660156 308.304688 1154.277344 C 309.054688 1154.894531 309.835938 1155.472656 310.644531 1156.011719 C 311.453125 1156.554688 312.289062 1157.054688 313.144531 1157.511719 C 314.003906 1157.972656 314.882812 1158.386719 315.78125 1158.757812 C 316.679688 1159.132812 317.597656 1159.460938 318.527344 1159.742188 C 319.457031 1160.023438 320.402344 1160.261719 321.355469 1160.449219 C 322.308594 1160.640625 323.273438 1160.78125 324.238281 1160.878906 C 325.207031 1160.972656 326.179688 1161.019531 327.152344 1161.019531 C 328.125 1161.019531 329.097656 1160.972656 330.066406 1160.878906 C 331.035156 1160.78125 331.996094 1160.640625 332.949219 1160.449219 C 333.902344 1160.261719 334.847656 1160.023438 335.777344 1159.742188 C 336.707031 1159.460938 337.625 1159.132812 338.523438 1158.757812 C 339.421875 1158.386719 340.300781 1157.972656 341.160156 1157.511719 C 342.015625 1157.054688 342.851562 1156.554688 343.660156 1156.015625 C 344.46875 1155.472656 345.25 1154.894531 346.003906 1154.277344 C 346.753906 1153.660156 347.472656 1153.007812 348.164062 1152.320312 C 348.851562 1151.628906 349.503906 1150.910156 350.121094 1150.15625 C 350.738281 1149.40625 351.316406 1148.625 351.859375 1147.816406 C 352.398438 1147.007812 352.898438 1146.171875 353.355469 1145.316406 C 353.816406 1144.457031 354.230469 1143.578125 354.601562 1142.679688 C 354.976562 1141.78125 355.304688 1140.863281 355.585938 1139.933594 C 355.867188 1139.003906 356.105469 1138.058594 356.292969 1137.105469 C 356.484375 1136.152344 356.625 1135.1875 356.722656 1134.222656 C 356.816406 1133.253906 356.863281 1132.28125 356.863281 1131.308594 C 356.863281 1130.335938 356.816406 1129.363281 356.722656 1128.394531 C 356.625 1127.429688 356.484375 1126.464844 356.292969 1125.511719 C 356.105469 1124.558594 355.867188 1123.613281 355.585938 1122.683594 C 355.304688 1121.753906 354.976562 1120.835938 354.601562 1119.9375 C 354.230469 1119.039062 353.816406 1118.160156 353.355469 1117.300781 C 352.898438 1116.445312 352.398438 1115.609375 351.859375 1114.800781 C 351.316406 1113.992188 350.738281 1113.210938 350.121094 1112.460938 C 349.503906 1111.707031 348.851562 1110.988281 348.164062 1110.296875 C 347.472656 1109.609375 346.753906 1108.957031 346.003906 1108.339844 C 345.25 1107.722656 344.46875 1107.144531 343.660156 1106.605469 C 342.851562 1106.0625 342.015625 1105.5625 341.160156 1105.105469 C 340.300781 1104.644531 339.421875 1104.230469 338.523438 1103.859375 C 337.625 1103.484375 336.707031 1103.15625 335.777344 1102.875 C 334.847656 1102.59375 333.902344 1102.355469 332.949219 1102.167969 C 331.996094 1101.976562 331.035156 1101.835938 330.066406 1101.738281 C 329.097656 1101.644531 328.125 1101.597656 327.152344 1101.597656 Z M 327.152344 1101.597656 " fill-opacity="1" fill-rule="nonzero"/><path fill="rgb(100%, 100%, 100%)" d="M 230.585938 566.769531 C 229.371094 566.769531 228.15625 566.828125 226.945312 566.949219 C 225.734375 567.066406 224.535156 567.246094 223.339844 567.480469 C 222.148438 567.71875 220.96875 568.015625 219.804688 568.367188 C 218.640625 568.722656 217.496094 569.128906 216.375 569.59375 C 215.25 570.0625 214.152344 570.582031 213.078125 571.152344 C 212.003906 571.726562 210.964844 572.351562 209.953125 573.027344 C 208.941406 573.703125 207.964844 574.425781 207.023438 575.199219 C 206.085938 575.972656 205.183594 576.785156 204.324219 577.648438 C 203.464844 578.507812 202.648438 579.40625 201.875 580.347656 C 201.105469 581.289062 200.378906 582.261719 199.703125 583.273438 C 199.027344 584.285156 198.40625 585.328125 197.832031 586.402344 C 197.257812 587.472656 196.738281 588.574219 196.273438 589.695312 C 195.808594 590.820312 195.398438 591.964844 195.046875 593.128906 C 194.691406 594.292969 194.398438 595.46875 194.160156 596.664062 C 193.921875 597.855469 193.742188 599.058594 193.625 600.269531 C 193.503906 601.480469 193.445312 602.691406 193.445312 603.910156 C 193.445312 605.125 193.503906 606.339844 193.625 607.550781 C 193.742188 608.761719 193.921875 609.960938 194.160156 611.15625 C 194.398438 612.347656 194.691406 613.527344 195.046875 614.691406 C 195.398438 615.855469 195.808594 617 196.273438 618.121094 C 196.738281 619.246094 197.257812 620.34375 197.832031 621.417969 C 198.40625 622.488281 199.027344 623.53125 199.703125 624.542969 C 200.378906 625.554688 201.105469 626.53125 201.875 627.472656 C 202.648438 628.410156 203.464844 629.3125 204.324219 630.171875 C 205.183594 631.03125 206.085938 631.847656 207.023438 632.621094 C 207.964844 633.390625 208.941406 634.113281 209.953125 634.789062 C 210.964844 635.464844 212.003906 636.089844 213.078125 636.664062 C 214.152344 637.238281 215.25 637.757812 216.375 638.222656 C 217.496094 638.6875 218.640625 639.097656 219.804688 639.449219 C 220.96875 639.804688 222.148438 640.097656 223.339844 640.335938 C 224.535156 640.574219 225.734375 640.753906 226.945312 640.871094 C 228.15625 640.992188 229.371094 641.050781 230.585938 641.050781 C 231.804688 641.050781 233.015625 640.992188 234.226562 640.871094 C 235.4375 640.753906 236.640625 640.574219 237.832031 640.335938 C 239.023438 640.097656 240.203125 639.804688 241.367188 639.449219 C 242.53125 639.097656 243.675781 638.6875 244.800781 638.222656 C 245.921875 637.757812 247.023438 637.238281 248.09375 636.664062 C 249.167969 636.089844 250.210938 635.464844 251.222656 634.789062 C 252.230469 634.113281 253.207031 633.390625 254.148438 632.621094 C 255.089844 631.847656 255.988281 631.03125 256.847656 630.171875 C 257.710938 629.3125 258.523438 628.410156 259.296875 627.472656 C 260.070312 626.53125 260.792969 625.554688 261.46875 624.542969 C 262.144531 623.53125 262.769531 622.488281 263.339844 621.417969 C 263.914062 620.34375 264.433594 619.246094 264.898438 618.121094 C 265.367188 617 265.773438 615.855469 266.128906 614.691406 C 266.480469 613.527344 266.777344 612.347656 267.011719 611.15625 C 267.25 609.960938 267.429688 608.761719 267.546875 607.550781 C 267.667969 606.339844 267.726562 605.125 267.726562 603.910156 C 267.726562 602.691406 267.667969 601.480469 267.546875 600.269531 C 267.429688 599.058594 267.25 597.855469 267.011719 596.664062 C 266.777344 595.46875 266.480469 594.292969 266.128906 593.128906 C 265.773438 591.964844 265.367188 590.820312 264.898438 589.695312 C 264.433594 588.574219 263.914062 587.472656 263.339844 586.402344 C 262.769531 585.328125 262.144531 584.285156 261.46875 583.273438 C 260.792969 582.261719 260.070312 581.289062 259.296875 580.347656 C 258.523438 579.40625 257.710938 578.507812 256.847656 577.648438 C 255.988281 576.785156 255.089844 575.972656 254.148438 575.199219 C 253.207031 574.425781 252.230469 573.703125 251.222656 573.027344 C 250.210938 572.351562 249.167969 571.726562 248.09375 571.152344 C 247.023438 570.582031 245.921875 570.0625 244.800781 569.59375 C 243.675781 569.128906 242.53125 568.722656 241.367188 568.367188 C 240.203125 568.015625 239.023438 567.71875 237.832031 567.480469 C 236.640625 567.246094 235.4375 567.066406 234.226562 566.949219 C 233.015625 566.828125 231.804688 566.769531 230.585938 566.769531 Z M 1136.820312 314.210938 C 1136.09375 314.210938 1135.363281 314.246094 1134.636719 314.320312 C 1133.910156 314.390625 1133.191406 314.496094 1132.472656 314.640625 C 1131.757812 314.78125 1131.050781 314.957031 1130.351562 315.171875 C 1129.65625 315.382812 1128.96875 315.628906 1128.292969 315.90625 C 1127.621094 316.1875 1126.960938 316.5 1126.316406 316.84375 C 1125.671875 317.1875 1125.046875 317.5625 1124.441406 317.964844 C 1123.835938 318.371094 1123.25 318.804688 1122.683594 319.269531 C 1122.121094 319.734375 1121.582031 320.222656 1121.0625 320.738281 C 1120.546875 321.253906 1120.058594 321.792969 1119.597656 322.359375 C 1119.132812 322.921875 1118.699219 323.507812 1118.292969 324.113281 C 1117.886719 324.722656 1117.511719 325.347656 1117.167969 325.992188 C 1116.824219 326.632812 1116.511719 327.292969 1116.234375 327.96875 C 1115.953125 328.640625 1115.707031 329.328125 1115.496094 330.027344 C 1115.285156 330.726562 1115.109375 331.433594 1114.964844 332.148438 C 1114.824219 332.863281 1114.714844 333.585938 1114.644531 334.3125 C 1114.574219 335.039062 1114.539062 335.765625 1114.539062 336.496094 C 1114.539062 337.226562 1114.574219 337.953125 1114.644531 338.679688 C 1114.714844 339.40625 1114.824219 340.128906 1114.964844 340.84375 C 1115.109375 341.558594 1115.285156 342.265625 1115.496094 342.964844 C 1115.707031 343.664062 1115.953125 344.347656 1116.234375 345.023438 C 1116.511719 345.699219 1116.824219 346.355469 1117.167969 347 C 1117.511719 347.644531 1117.886719 348.269531 1118.292969 348.875 C 1118.699219 349.484375 1119.132812 350.070312 1119.597656 350.632812 C 1120.058594 351.195312 1120.546875 351.738281 1121.0625 352.253906 C 1121.582031 352.769531 1122.121094 353.257812 1122.683594 353.722656 C 1123.25 354.183594 1123.835938 354.617188 1124.441406 355.023438 C 1125.046875 355.429688 1125.671875 355.804688 1126.316406 356.148438 C 1126.960938 356.492188 1127.621094 356.804688 1128.292969 357.082031 C 1128.96875 357.363281 1129.65625 357.609375 1130.351562 357.820312 C 1131.050781 358.03125 1131.757812 358.210938 1132.472656 358.351562 C 1133.191406 358.496094 1133.910156 358.601562 1134.636719 358.671875 C 1135.363281 358.746094 1136.09375 358.78125 1136.820312 358.78125 C 1137.550781 358.78125 1138.28125 358.746094 1139.007812 358.671875 C 1139.734375 358.601562 1140.453125 358.496094 1141.167969 358.351562 C 1141.886719 358.210938 1142.59375 358.03125 1143.289062 357.820312 C 1143.988281 357.609375 1144.675781 357.363281 1145.351562 357.082031 C 1146.023438 356.804688 1146.683594 356.492188 1147.328125 356.148438 C 1147.96875 355.804688 1148.59375 355.429688 1149.203125 355.023438 C 1149.808594 354.617188 1150.394531 354.183594 1150.960938 353.722656 C 1151.523438 353.257812 1152.0625 352.769531 1152.578125 352.253906 C 1153.09375 351.738281 1153.585938 351.195312 1154.046875 350.632812 C 1154.511719 350.070312 1154.945312 349.484375 1155.351562 348.875 C 1155.757812 348.269531 1156.132812 347.644531 1156.476562 347 C 1156.820312 346.355469 1157.128906 345.699219 1157.410156 345.023438 C 1157.6875 344.347656 1157.933594 343.664062 1158.148438 342.964844 C 1158.359375 342.265625 1158.535156 341.558594 1158.679688 340.84375 C 1158.820312 340.128906 1158.925781 339.40625 1159 338.679688 C 1159.070312 337.953125 1159.105469 337.226562 1159.105469 336.496094 C 1159.105469 335.765625 1159.070312 335.039062 1159 334.3125 C 1158.925781 333.585938 1158.820312 332.863281 1158.679688 332.148438 C 1158.535156 331.433594 1158.359375 330.726562 1158.148438 330.027344 C 1157.933594 329.328125 1157.6875 328.640625 1157.410156 327.96875 C 1157.128906 327.292969 1156.820312 326.632812 1156.476562 325.992188 C 1156.132812 325.347656 1155.757812 324.722656 1155.351562 324.113281 C 1154.945312 323.507812 1154.511719 322.921875 1154.046875 322.359375 C 1153.585938 321.792969 1153.09375 321.253906 1152.578125 320.738281 C 1152.0625 320.222656 1151.523438 319.734375 1150.960938 319.269531 C 1150.394531 318.804688 1149.808594 318.371094 1149.203125 317.964844 C 1148.59375 317.5625 1147.96875 317.1875 1147.328125 316.84375 C 1146.683594 316.5 1146.023438 316.1875 1145.351562 315.90625 C 1144.675781 315.628906 1143.988281 315.382812 1143.289062 315.171875 C 1142.59375 314.957031 1141.886719 314.78125 1141.167969 314.640625 C 1140.453125 314.496094 1139.734375 314.390625 1139.007812 314.320312 C 1138.28125 314.246094 1137.550781 314.210938 1136.820312 314.210938 Z M 1136.820312 314.210938 " fill-opacity="1" fill-rule="nonzero"/><path fill="rgb(69.799805%, 52.938843%, 41.958618%)" d="M 394.007812 1030.046875 L 398.34375 1033.167969 C 487.15625 1092.460938 591.03125 1123.878906 698.558594 1123.878906 C 806.089844 1123.878906 909.964844 1092.460938 999 1033.019531 C 1000.46875 1032.082031 1001.792969 1031.089844 1003.113281 1030.09375 L 1003.113281 1003.097656 C 1003.113281 991.464844 1000.261719 932.054688 943.808594 903.976562 L 943.792969 903.976562 C 930.496094 897.335938 905.003906 887.917969 880.34375 878.824219 L 876.941406 877.578125 C 859.378906 871.25 841.269531 864.621094 827.914062 859.035156 C 810.605469 851.625 795.125 843.214844 795.125 821.734375 L 795.125 790.683594 L 601.996094 790.683594 L 601.996094 821.734375 C 601.996094 843.15625 586.601562 851.59375 569.445312 859.007812 C 555.644531 864.710938 536.789062 871.605469 520.136719 877.59375 L 516.777344 878.824219 C 492.132812 887.933594 466.625 897.351562 453.328125 903.976562 C 396.859375 932.070312 394.007812 991.480469 394.007812 1003.113281 Z M 394.007812 1030.046875 " fill-opacity="1" fill-rule="nonzero"/><path fill="rgb(52.159119%, 81.17981%, 79.998779%)" d="M 1003.113281 1003.097656 L 1003.113281 1039.199219 C 915.910156 1097.4375 811.320312 1131.308594 698.558594 1131.308594 C 585.800781 1131.308594 481.210938 1097.4375 394.007812 1039.199219 L 394.007812 1003.097656 C 394.007812 983.488281 401.285156 929.855469 453.578125 904.007812 C 477.203125 892.121094 537.371094 870.433594 570.054688 858.992188 C 583.425781 878.898438 624.726562 907.125 698.558594 907.125 C 772.394531 907.125 812.65625 880.089844 826.324219 860.03125 C 858.5625 871.027344 919.769531 892.121094 943.542969 904.007812 C 995.984375 929.558594 1003.113281 983.488281 1003.113281 1003.097656 Z M 1003.113281 1003.097656 " fill-opacity="1" fill-rule="nonzero"/><path fill="rgb(27.839661%, 16.859436%, 16.079712%)" d="M 947.105469 897.320312 C 932.84375 890.191406 905.65625 880.238281 879.511719 870.582031 C 860.941406 863.894531 843.558594 857.507812 830.78125 852.160156 C 812.0625 844.136719 802.554688 837.300781 802.554688 821.703125 L 802.554688 783.226562 L 787.699219 783.226562 L 787.699219 821.703125 C 787.699219 847.851562 806.863281 858.101562 824.988281 865.828125 C 838.210938 871.324219 855.742188 877.710938 874.3125 884.546875 C 900.160156 894.054688 926.902344 903.859375 940.421875 910.691406 C 993.011719 936.691406 995.6875 992.253906 995.6875 1003.097656 L 995.6875 1026.273438 C 995.390625 1026.421875 995.09375 1026.71875 994.796875 1026.867188 C 907.144531 1085.402344 804.632812 1116.453125 698.558594 1116.453125 C 592.488281 1116.453125 489.976562 1085.402344 402.175781 1026.867188 C 401.878906 1026.71875 401.730469 1026.570312 401.433594 1026.421875 L 401.433594 1003.097656 C 401.433594 992.253906 404.109375 936.691406 456.699219 910.691406 C 470.21875 903.859375 496.960938 894.054688 522.808594 884.546875 C 541.378906 877.710938 558.910156 871.324219 572.28125 865.828125 C 590.257812 858.101562 609.421875 847.851562 609.421875 821.703125 L 609.421875 783.226562 L 594.566406 783.226562 L 594.566406 821.703125 C 594.566406 837.300781 585.058594 844.136719 566.488281 852.160156 C 553.5625 857.507812 536.179688 863.894531 517.609375 870.582031 C 491.464844 880.238281 464.277344 890.191406 450.015625 897.320312 C 389.699219 927.332031 386.578125 990.769531 386.578125 1003.097656 L 386.578125 1033.851562 L 394.007812 1039.199219 C 481.210938 1097.4375 585.800781 1131.308594 698.558594 1131.308594 C 811.320312 1131.308594 915.910156 1097.4375 1003.113281 1039.199219 C 1005.640625 1037.566406 1008.019531 1035.632812 1010.542969 1033.851562 L 1010.542969 1003.097656 C 1010.542969 990.769531 1007.421875 927.332031 947.105469 897.320312 Z M 947.105469 897.320312 " fill-opacity="1" fill-rule="nonzero"/><path fill="rgb(84.709167%, 67.83905%, 56.079102%)" d="M 928.832031 528.585938 C 928.832031 552.0625 919.769531 590.390625 916.058594 601.085938 C 912.046875 612.972656 910.261719 618.765625 899.121094 624.410156 C 899.121094 647.140625 891.691406 687.105469 881.886719 705.378906 C 843.855469 777.429688 727.085938 811.898438 698.558594 811.898438 C 670.035156 811.898438 553.265625 777.429688 515.234375 705.378906 C 505.429688 687.105469 498 647.140625 498 624.410156 C 486.859375 618.765625 485.074219 612.972656 481.0625 601.085938 C 477.351562 590.390625 468.289062 552.0625 468.289062 528.585938 C 468.289062 520.566406 471.554688 514.769531 474.675781 510.910156 C 476.605469 508.53125 485.371094 503.035156 485.371094 503.035156 L 485.371094 438.855469 C 485.371094 382.996094 509.738281 331.445312 548.511719 293.710938 C 587.285156 256.121094 640.621094 232.5 698.558594 232.5 C 814.441406 232.5 911.75 327.136719 911.75 438.855469 L 911.75 503.035156 C 911.75 503.035156 920.515625 508.53125 922.445312 510.910156 C 925.566406 514.769531 928.832031 520.566406 928.832031 528.585938 Z M 928.832031 528.585938 " fill-opacity="1" fill-rule="nonzero"/><path fill="rgb(27.839661%, 16.859436%, 16.079712%)" d="M 698.558594 819.324219 C 664.746094 819.324219 546.921875 781.339844 508.667969 708.839844 C 498.9375 690.699219 491.492188 653.113281 490.644531 628.777344 C 480.410156 622.359375 477.886719 614.859375 474.246094 604.074219 C 470.101562 592.15625 460.859375 552.953125 460.859375 528.585938 C 460.859375 520.359375 463.5625 512.839844 468.898438 506.242188 C 470.636719 504.121094 474.542969 501.28125 477.945312 498.992188 L 477.945312 438.855469 C 477.945312 382.847656 501.164062 329.410156 543.328125 288.390625 C 585.445312 247.550781 640.578125 225.074219 698.558594 225.074219 C 818.152344 225.074219 919.175781 322.976562 919.175781 438.855469 L 919.175781 498.992188 C 922.578125 501.265625 926.484375 504.105469 928.195312 506.214844 C 933.558594 512.839844 936.261719 520.359375 936.261719 528.585938 C 936.261719 552.953125 927.019531 592.15625 923.070312 603.523438 C 919.265625 614.8125 916.710938 622.375 906.476562 628.792969 C 905.628906 653.113281 898.183594 690.699219 888.425781 708.898438 C 850.199219 781.339844 732.375 819.324219 698.558594 819.324219 Z M 698.558594 239.929688 C 644.4375 239.929688 593.007812 260.921875 553.683594 299.042969 C 514.429688 337.238281 492.800781 386.902344 492.800781 438.855469 L 492.800781 503.035156 C 492.800781 505.589844 491.476562 507.96875 489.324219 509.320312 C 485.445312 511.753906 481.257812 514.742188 480.351562 515.707031 C 477.261719 519.527344 475.714844 523.773438 475.714844 528.585938 C 475.714844 550.945312 484.496094 588.308594 488.089844 598.648438 C 492.011719 610.3125 493.128906 613.609375 501.359375 617.785156 C 503.855469 619.046875 505.429688 621.601562 505.429688 624.410156 C 505.429688 646.144531 512.558594 684.714844 521.785156 701.871094 C 558.523438 771.488281 674.285156 804.46875 698.558594 804.46875 C 722.835938 804.46875 838.597656 771.488281 875.304688 701.917969 C 884.5625 684.699219 891.691406 646.144531 891.691406 624.410156 C 891.691406 621.617188 893.265625 619.046875 895.761719 617.785156 C 903.992188 613.609375 905.109375 610.3125 908.792969 599.347656 C 912.625 588.308594 921.40625 550.945312 921.40625 528.585938 C 921.40625 523.773438 919.859375 519.527344 916.679688 515.589844 C 915.863281 514.742188 911.675781 511.753906 907.796875 509.335938 C 905.628906 507.980469 904.320312 505.605469 904.320312 503.050781 L 904.320312 438.871094 C 904.320312 331.027344 810.085938 239.929688 698.558594 239.929688 Z M 698.558594 239.929688 " fill-opacity="1" fill-rule="nonzero"/></svg>